<svg xmlns="http://www.w3.org/2000/svg" xmlns:xlink="http://www.w3.org/1999/xlink" width="250" height="250" viewBox="0 0 250 250"><defs><clipPath id="a"><rect width="250" height="194.69"/></clipPath><clipPath id="c"><rect width="250" height="250"/></clipPath></defs><g id="b" clip-path="url(#c)"><g transform="translate(0 28)" clip-path="url(#a)"><g transform="translate(0 0)"><path d="M146.115,64.05a4.093,4.093,0,0,0-.808-1.464,9.212,9.212,0,0,0-1.3-1.1,3.431,3.431,0,0,0-3.261,0,2.587,2.587,0,0,0-1.3,1.1,4.093,4.093,0,0,0-.808,1.464,5.311,5.311,0,0,0,0,3.663,4.093,4.093,0,0,0,.808,1.464,9.213,9.213,0,0,0,1.3,1.1,5.24,5.24,0,0,0,1.63.365,4.366,4.366,0,0,0,1.63-.365,2.586,2.586,0,0,0,1.3-1.1,4.091,4.091,0,0,0,.808-1.464,7.221,7.221,0,0,0,.325-1.831,6,6,0,0,0-.325-1.831M140.9,69.36c-.325-.184-.652-.549-.978-.733a3.894,3.894,0,0,1-.653-1.1,3.981,3.981,0,0,1-.164-1.464,4.5,4.5,0,0,1,.164-1.464c.164-.365.325-.908.652-1.1a3.413,3.413,0,0,1,.978-.733,2.5,2.5,0,0,1,2.608,0,3.2,3.2,0,0,1,1.63,1.831,3.982,3.982,0,0,1,.164,1.464,4.5,4.5,0,0,1-.164,1.464c-.164.365-.325.908-.652,1.1a3.413,3.413,0,0,1-.978.733,3.233,3.233,0,0,1-2.608,0" transform="translate(87.114 50.745)" fill="#101f3e"/><path d="M231.274,67.238h0l-.97-1.829c.164-.184.489-.365.489-.549a2.066,2.066,0,0,0,.325-.908,2.827,2.827,0,0,0-.325-1.1,1.408,1.408,0,0,0-1.141-.549h-1.467a.151.151,0,0,0-.117.052.191.191,0,0,0-.047.131v4.766a.191.191,0,0,0,.047.131.151.151,0,0,0,.117.052h.489a.151.151,0,0,0,.117-.052.191.191,0,0,0,.047-.131V65.606h.489l.978,1.831.164.184h.489Zm-1.141-3.479a.7.7,0,0,1-.163.55.538.538,0,0,1-.49.183h-.653V63.028h.489c.808.184.808.549.808.733M217.577,71.45c-1.63-.365-3.261-.733-5.051-1.282a7.585,7.585,0,0,0-1.792-.365,29.354,29.354,0,0,0-3.911-.733,385.123,385.123,0,0,0-49.384-6.041,5.07,5.07,0,0,0,.164,1.648c0,1.1.164,3.479.164,6.041,14.832.733,29.01,2.013,42.223,3.663a405.606,405.606,0,0,1,52.324,9.531A167.885,167.885,0,0,0,217.577,71.45M67.15,65.225c-.978.184-1.792.184-2.608.365-1.3.184-2.772.365-4.075.549a12.78,12.78,0,0,1-2.608.365,31.736,31.736,0,0,0-4.075.733,11.282,11.282,0,0,1-2.444.365c-1.3.184-2.608.549-3.911.733-.808.184-1.63.365-2.281.549-1.3.365-2.608.549-3.911.908-.653.184-1.467.365-2.119.549-1.3.365-2.608.549-3.911.908A165.224,165.224,0,0,0,0,84.081c9.616-2.562,20.374-4.766,32.107-6.774l-.489.193s4.075-.733,11.083-1.831c3.1-.365,6.356-.908,9.453-1.282,9.453-1.282,19.394-2.2,29.5-2.93,1.141,0,2.281-.184,3.586-.184a22.84,22.84,0,0,1,.489-4.943c.164-1.1.325-2.013.489-2.93q-9.78.824-17.6,1.648a4.042,4.042,0,0,1-1.467.184" transform="translate(0 51.769)" fill="#101f3e"/><path d="M113.679,0A89.816,89.816,0,0,0,96.241,1.831c2.772,5.673,8.313,12.634,19.394,15.745l-1.792,2.381L102.427,34.969a28.682,28.682,0,0,1-15.81-7.689A31.079,31.079,0,0,1,78.132,8.056l.489-.549C43.064,23.522,19.769,62.241,19.8,105.275a113.844,113.844,0,0,0,1.467,18.309c.489-.184.978-.184,1.3-.365,1.3-.365,2.608-.549,3.911-.908.653-.184,1.467-.365,2.119-.549,1.3-.365,2.608-.549,3.911-.908.808-.184,1.467-.365,2.281-.549,1.3-.184,2.608-.549,3.911-.733a11.279,11.279,0,0,1,2.444-.365c1.3-.184,2.608-.549,4.075-.733a12.781,12.781,0,0,1,2.608-.365c1.3-.184,2.772-.365,4.075-.549.808-.184,1.63-.184,2.608-.365h.164c.489,0,.978-.184,1.467-.184,5.216-.549,11.083-1.282,17.6-1.648V115a14,14,0,0,1,1.3-3.844c.808-2.013,1.63-2.93,1.792-3.663C73.58,104.56,63.15,95.04,62.986,81.675l.164-2.746A18.322,18.322,0,0,1,63.639,76a.151.151,0,0,1-.117-.052.192.192,0,0,1-.047-.131C60.867,73.8,57.77,71.6,56.792,67.943a6.969,6.969,0,0,1-.164-1.831A4.776,4.776,0,0,1,58.259,63c1.956-1.648,5.705-1.648,8.313-1.282l1.63.365a2.861,2.861,0,0,0,1.141.184A44.72,44.72,0,0,1,74.56,56.04,49.8,49.8,0,0,1,78.8,52.2c22.816-18.507,50.7-2.95,61.443,3.279l.325.184a13.758,13.758,0,0,1,1.63.908,3.945,3.945,0,0,0,.653-.908c.489-.733,1.141-2.013,1.141-2.013,1.3-2.381,2.77-4.943,5.051-5.673a2.7,2.7,0,0,1,3.1,1.464c1.3,2.381.808,8.056.808,8.056a4.363,4.363,0,0,1-.164,1.1c.325-.365,2.444-1.831,3.75-.733,1.467,1.1.164,9.339.164,9.339-.653,3.479,11.9,11.168,13.855,12.084a3,3,0,0,1,.978,2.013v-.186A70.34,70.34,0,0,1,171.369,91c-.489,5.127-2.119,6.225-2.281,6.409l-4.242,1.464h-.164a32.83,32.83,0,0,0-7.986,3.844,38.493,38.493,0,0,0-4.242,3.663c-3.081,2.555-6.178,5.308-7.97,6.413v2.2a381.123,381.123,0,0,1,49.384,6.041c1.3.184,2.608.549,3.911.733a7.586,7.586,0,0,0,1.792.365,50.685,50.685,0,0,1,5.051,1.282c.325,0,.653.184.978.184a112.182,112.182,0,0,0,1.467-18.309c.127-27.9-9.66-54.705-27.192-74.469S138.517-.043,113.679,0" transform="translate(12.471 0)" fill="#f68a55"/><path d="M61.853,18.657l.653.733.978-1.1a3.546,3.546,0,0,0,5.378.184c1.792-2.013.808-4.028-.164-6.041l3.261-3.663a3.426,3.426,0,0,1,.808,2.746H74.4a5.338,5.338,0,0,0-1.461-4.028l.978-.908-.653-.733-.808.908a3.409,3.409,0,0,0-5.217,0,4.514,4.514,0,0,0,0,5.86l-3.26,3.844a4.879,4.879,0,0,1-.982-3.3l-1.788-.182a6.075,6.075,0,0,0,1.616,4.577ZM68.372,8.218a2.033,2.033,0,0,1,1.4-.868,1.925,1.925,0,0,1,1.535.5l-3.1,3.479c-.489-1.1-.808-2.2.164-3.114m-.808,5.492c.489,1.1.978,2.562,0,3.663a2.087,2.087,0,0,1-3.1,0Zm.978,36.8A40.08,40.08,0,0,1,94.13,52.893a.9.9,0,0,0,.653.184,2.1,2.1,0,0,0,1.956-1.648,2.867,2.867,0,0,0-1.3-3.3,42.5,42.5,0,0,0-28.2-2.746,2.2,2.2,0,0,0-1.338,1.2,2.672,2.672,0,0,0-.129,1.916,2.512,2.512,0,0,0,.98,1.709,2,2,0,0,0,1.79.3M123.3,74.132a2.117,2.117,0,0,0,1.467-.549,3.1,3.1,0,0,0,1.141-2.562,3.021,3.021,0,0,0-2.934-3.112,3.07,3.07,0,0,0-2.771,3.3,2.232,2.232,0,0,0,.489,1.464,3.29,3.29,0,0,0,2.608,1.464" transform="translate(38.546 4.596)" fill="#f68a55"/><path d="M101.564,72.253a18.99,18.99,0,0,1-2.281-6.041,5.7,5.7,0,0,1-.164-1.1h-.164a81.224,81.224,0,0,1-16.135.549c-1.63-.184-3.261-.365-4.727-.549a36.2,36.2,0,0,1-5.859-1.464A17.017,17.017,0,0,1,68.15,62a14.852,14.852,0,0,0-.325,1.464c-.164.365-.164.908-.325,1.464-.164.365-.164.908-.325,1.464s-.164,1.1-.325,1.648a47.921,47.921,0,0,1-2.281,6.225c-.808,1.648-1.467,2.93-1.467,2.93l3.75-2.93,2.444-1.831,1.792-1.464.653-.549c8.8,6.774,24.61.908,24.61.908s.164-.908.978.365c.489.733.978,1.464,1.792,2.562l.489.549.653.733a12.471,12.471,0,0,0,5.378,4.028s-.978-2.013-2.77-5.31a10.919,10.919,0,0,1-1.3-2.013" transform="translate(39.744 51.515)" fill="#101f3e"/><path d="M30.947,92.749a13.892,13.892,0,0,0-3.422-2.93,9.012,9.012,0,0,0-4.564-1.087,9.116,9.116,0,0,0-4.075.908l-.978.549V80.108a.926.926,0,0,0-.224-.656A.726.726,0,0,0,17.1,79.2H11.709a.726.726,0,0,0-.584.252.926.926,0,0,0-.224.656V113.62a.917.917,0,0,0,.653.908,30.794,30.794,0,0,0,3.911,1.1,24.547,24.547,0,0,0,5.378.549,12.969,12.969,0,0,0,5.378-1.1,12.077,12.077,0,0,0,4.075-3.1,14.446,14.446,0,0,0,2.608-4.4,14.829,14.829,0,0,0,.978-5.492,17.61,17.61,0,0,0-.653-5.127,14.014,14.014,0,0,0-2.281-4.212m-4.4,9.339a12.056,12.056,0,0,1-.325,2.562,14.137,14.137,0,0,1-1.141,2.2,7.339,7.339,0,0,1-1.792,1.464,5.394,5.394,0,0,1-2.444.549,5.03,5.03,0,0,1-1.956-.184.9.9,0,0,1-.653-.184v-8.4a4.334,4.334,0,0,1,.978-3.114,4.1,4.1,0,0,1,3.1-1.1,3.182,3.182,0,0,1,1.956.549,4.6,4.6,0,0,1,1.3,1.282,7.2,7.2,0,0,1,.808,2.013,11.7,11.7,0,0,1,.164,2.381M52.129,89.277a4.321,4.321,0,0,0-1.467-.365c-.489,0-.978-.184-1.467-.184a11.352,11.352,0,0,0-2.608.365A5.131,5.131,0,0,0,44.632,90a5,5,0,0,0-1.141.908V90a.926.926,0,0,0-.224-.656.726.726,0,0,0-.584-.252H37.466a.726.726,0,0,0-.584.252.926.926,0,0,0-.224.656v24.353a.926.926,0,0,0,.224.656.726.726,0,0,0,.584.252h5.378a.726.726,0,0,0,.584-.252.926.926,0,0,0,.224-.656v-13a7.311,7.311,0,0,1,.325-2.013,2.841,2.841,0,0,1,.978-1.464,3.072,3.072,0,0,1,1.467-.908,6.043,6.043,0,0,1,3.1-.184,2.149,2.149,0,0,1,.978.365.455.455,0,0,0,.653,0,2.526,2.526,0,0,0,.489-.733l1.141-5.674a1.708,1.708,0,0,0-.653-1.464m9.453,0H56.21a.725.725,0,0,0-.584.252.926.926,0,0,0-.224.656v24.164a.926.926,0,0,0,.224.656.726.726,0,0,0,.584.252h5.378a.726.726,0,0,0,.584-.252.926.926,0,0,0,.224-.656V90.187c.164-.549-.325-.908-.808-.908m.325-10.069h-5.7a.726.726,0,0,0-.584.252.926.926,0,0,0-.224.656v6.409a.926.926,0,0,0,.224.656.726.726,0,0,0,.584.252h5.705a.726.726,0,0,0,.584-.252.926.926,0,0,0,.224-.656V80.108a.932.932,0,0,0-.808-.908M87.5,90.368a30.811,30.811,0,0,0-3.911-1.1,24.547,24.547,0,0,0-5.378-.538,12.969,12.969,0,0,0-5.378,1.1,11.6,11.6,0,0,0-4.077,2.918,14.937,14.937,0,0,0-3.586,9.7,15.632,15.632,0,0,0,.653,4.943,11.559,11.559,0,0,0,2.119,4.03,13.2,13.2,0,0,0,3.422,2.746,11.24,11.24,0,0,0,4.4.908,7.361,7.361,0,0,0,3.75-.733,2.572,2.572,0,0,0,1.141-.733v.733a4.183,4.183,0,0,1-1.141,3.3,4.235,4.235,0,0,1-2.933,1.1,16.383,16.383,0,0,1-3.261-.365,6.424,6.424,0,0,1-2.444-1.282.9.9,0,0,0-.653-.184c-.164,0-.489.184-.489.365l-2.444,4.394a1.244,1.244,0,0,0,.164,1.282,6.148,6.148,0,0,0,1.792,1.1c.653.365,1.3.549,1.956.908q.978.275,2.444.549a16.687,16.687,0,0,0,3.1.184,11.337,11.337,0,0,0,7.986-2.93,11.311,11.311,0,0,0,2.444-3.663,15.517,15.517,0,0,0,.808-4.943V91.285c.164-.365,0-.733-.489-.908m-6.511,5.844v7.873a3.606,3.606,0,0,1-.978,2.93,4.95,4.95,0,0,1-3.1.908,3.624,3.624,0,0,1-3.261-1.464,8.168,8.168,0,0,1-1.141-4.028,13.791,13.791,0,0,1,.325-2.562,7.734,7.734,0,0,1,1.141-2.013A7.338,7.338,0,0,1,75.766,96.4a5.613,5.613,0,0,1,2.608-.549c1.141,0,1.792,0,1.956.184.325,0,.489,0,.653.184m30.323-4.385a7.169,7.169,0,0,0-2.933-2.2,8.9,8.9,0,0,0-3.911-.733,8.008,8.008,0,0,0-4.4,1.1,6.93,6.93,0,0,0-1.141.733V80.108a.926.926,0,0,0-.224-.656.726.726,0,0,0-.584-.252H92.719a.726.726,0,0,0-.584.252.926.926,0,0,0-.224.656v34.245a.926.926,0,0,0,.224.656.726.726,0,0,0,.584.252H98.1a.726.726,0,0,0,.584-.252.926.926,0,0,0,.224-.656v-13a10.228,10.228,0,0,1,.325-2.2,2.7,2.7,0,0,1,.978-1.648,2.587,2.587,0,0,1,1.3-1.1,5.239,5.239,0,0,1,1.63-.365,3.024,3.024,0,0,1,2.281.908,4.1,4.1,0,0,1,.808,2.93V114.53a.926.926,0,0,0,.224.656.726.726,0,0,0,.584.252h5.378a.726.726,0,0,0,.584-.252.926.926,0,0,0,.224-.656V99.888a12.316,12.316,0,0,0-.653-4.394,4.76,4.76,0,0,0-1.3-3.663M131.8,107.945c-.164-.184-.325-.365-.489-.365a.9.9,0,0,0-.653.184,5.66,5.66,0,0,1-1.3.908,3.7,3.7,0,0,1-1.63.365,1.238,1.238,0,0,1-1.3-.733,5.354,5.354,0,0,1-.489-2.562v-9.7h4.889a.726.726,0,0,0,.584-.252.926.926,0,0,0,.224-.656v-4.95a.926.926,0,0,0-.224-.656.726.726,0,0,0-.584-.252h-4.889V82.5a.926.926,0,0,0-.224-.656.726.726,0,0,0-.584-.252h-5.356a.726.726,0,0,0-.584.252.926.926,0,0,0-.224.656V89.27h-2.778a.725.725,0,0,0-.584.252.926.926,0,0,0-.224.656V95.12a.926.926,0,0,0,.224.656.726.726,0,0,0,.584.252h2.77v9.888a25.591,25.591,0,0,0,.325,3.844,14.636,14.636,0,0,0,1.3,3.3,5.064,5.064,0,0,0,2.608,2.013,7.489,7.489,0,0,0,3.586.733,8.632,8.632,0,0,0,3.75-.733,12.9,12.9,0,0,0,3.422-2.381.933.933,0,0,0,.321-.6.992.992,0,0,0-.158-.68ZM212.156,90a4.032,4.032,0,0,0-2.119-.365,6.844,6.844,0,0,0-3.422.733,8.373,8.373,0,0,0-2.444,1.464,9.745,9.745,0,0,0-1.3,1.282V90.371a.932.932,0,0,0-.808-.908H200.1a1.192,1.192,0,0,0-.653.365,1.207,1.207,0,0,0-.164.733v24.525a.926.926,0,0,0,.224.656.726.726,0,0,0,.584.252h2.119a.726.726,0,0,0,.584-.252.926.926,0,0,0,.224-.656V102.818a11.53,11.53,0,0,1,.489-3.3,15.379,15.379,0,0,1,1.3-2.93,11.667,11.667,0,0,1,2.119-2.013,4.375,4.375,0,0,1,2.608-.733h.653a.566.566,0,0,1,.489.184.455.455,0,0,0,.653,0l.489-.549.653-2.2A1.129,1.129,0,0,0,212.152,90m17.438,19.957c-.164-.184-.325-.365-.653-.184s-.489.184-.653.365a5.54,5.54,0,0,1-1.467,1.464,4.364,4.364,0,0,1-1.63.365,2.854,2.854,0,0,1-1.3-.184,3.511,3.511,0,0,1-.808-.549,3.872,3.872,0,0,1-.653-1.464,15.249,15.249,0,0,1-.325-3.3v-13h6.194a.726.726,0,0,0,.584-.252.926.926,0,0,0,.224-.656v-2.2a.926.926,0,0,0-.224-.656.726.726,0,0,0-.584-.252H222.1V82.5a.926.926,0,0,0-.224-.656.726.726,0,0,0-.584-.252h-2.107a.726.726,0,0,0-.584.252.926.926,0,0,0-.224.656v6.958h-3.422a.726.726,0,0,0-.584.252.926.926,0,0,0-.224.656v2.013a.926.926,0,0,0,.224.656.726.726,0,0,0,.584.252h3.422V106.83a15.431,15.431,0,0,0,.489,4.212,11.53,11.53,0,0,0,1.3,2.93,3.961,3.961,0,0,0,2.281,1.464,11.35,11.35,0,0,0,2.608.365,7.071,7.071,0,0,0,3.586-.908,9.881,9.881,0,0,0,2.444-2.381.992.992,0,0,0,.158-.68.932.932,0,0,0-.321-.6Zm-57.859,0c-.164-.184-.325-.365-.653-.184a1.192,1.192,0,0,0-.652.365,5.537,5.537,0,0,1-1.467,1.464,4.363,4.363,0,0,1-1.63.365,2.853,2.853,0,0,1-1.3-.184,3.513,3.513,0,0,1-.808-.549,3.873,3.873,0,0,1-.652-1.464,15.249,15.249,0,0,1-.325-3.3v-13h6.194a.726.726,0,0,0,.584-.252.926.926,0,0,0,.224-.656v-2.2a.926.926,0,0,0-.224-.656.726.726,0,0,0-.584-.252h-6.166V82.5a.926.926,0,0,0-.224-.656.726.726,0,0,0-.584-.252h-2.125a.726.726,0,0,0-.584.252.926.926,0,0,0-.224.656v6.958H157.1a.726.726,0,0,0-.584.252.926.926,0,0,0-.224.656v2.013a.926.926,0,0,0,.224.656.726.726,0,0,0,.584.252h3.422V106.83a15.429,15.429,0,0,0,.489,4.212,11.526,11.526,0,0,0,1.3,2.93,3.961,3.961,0,0,0,2.281,1.464,11.351,11.351,0,0,0,2.608.365,7.071,7.071,0,0,0,3.586-.908,9.881,9.881,0,0,0,2.444-2.381.992.992,0,0,0,.158-.68.933.933,0,0,0-.321-.6Zm-16.95-5.492a5.229,5.229,0,0,0-2.119-2.2,11.973,11.973,0,0,0-2.57-1.284,15.5,15.5,0,0,0-2.77-.733,34.5,34.5,0,0,1-4.4-1.464,9.212,9.212,0,0,1-1.3-1.1,1.68,1.68,0,0,1-.325-1.282,6,6,0,0,1,.325-1.831l.978-1.1a2.544,2.544,0,0,1,1.63-.549,7.091,7.091,0,0,1,1.956-.184,5.3,5.3,0,0,1,3.1.733,8.144,8.144,0,0,1,2.281,2.013.73.73,0,0,0,1.141,0l1.467-1.464a1.244,1.244,0,0,0,.164-1.282,11.44,11.44,0,0,0-3.432-2.928,10.8,10.8,0,0,0-4.889-1.1,16.151,16.151,0,0,0-3.1.365,13.278,13.278,0,0,0-2.772,1.282,6.622,6.622,0,0,0-1.956,2.381,7.777,7.777,0,0,0-.164,6.581,5.286,5.286,0,0,0,1.63,2.2,9.574,9.574,0,0,0,2.281,1.282,12.638,12.638,0,0,0,2.772.908c1.141.365,2.281.549,3.1.908a5.983,5.983,0,0,1,2.119.908,3.457,3.457,0,0,1,1.141,1.1,4.037,4.037,0,0,1,.325,1.648,3.8,3.8,0,0,1-.325,1.464,7.389,7.389,0,0,1-1.141,1.1,5.447,5.447,0,0,1-1.792.733,8.947,8.947,0,0,1-2.281.184,7.761,7.761,0,0,1-6.519-2.93.818.818,0,0,0-.653-.365,1.191,1.191,0,0,0-.653.365l-1.141,1.831a.962.962,0,0,0,0,1.282,11.784,11.784,0,0,0,9.457,4.06,19.742,19.742,0,0,0,3.261-.365,9.836,9.836,0,0,0,3.1-1.464,8.153,8.153,0,0,0,2.281-2.562,6.68,6.68,0,0,0,.808-3.663,7.1,7.1,0,0,0-.978-3.479m40.257-12.084V90.371a1.207,1.207,0,0,0-.164-.733.818.818,0,0,0-.653-.365H192.3a.726.726,0,0,0-.584.252.926.926,0,0,0-.224.656v.733a5.216,5.216,0,0,1-.978-.549,7.436,7.436,0,0,0-2.119-.733,11.862,11.862,0,0,0-7.5.549,12.408,12.408,0,0,0-3.75,2.746,11.408,11.408,0,0,0-2.444,4.393,15.832,15.832,0,0,0-.808,5.673,16.827,16.827,0,0,0,.653,5.127,13.7,13.7,0,0,0,1.956,4.212,8.841,8.841,0,0,0,3.261,2.93,9.652,9.652,0,0,0,4.727,1.1,8.928,8.928,0,0,0,3.911-.908,7.887,7.887,0,0,0,2.608-1.831l.489-.549v1.648a.926.926,0,0,0,.224.656.726.726,0,0,0,.584.252h2.119a1.191,1.191,0,0,0,.653-.365,1.207,1.207,0,0,0,.164-.733V92.384Zm-3.911,13.183a5.226,5.226,0,0,1-.489,2.013,7.788,7.788,0,0,1-1.3,2.2,7.486,7.486,0,0,1-2.119,1.831,6.91,6.91,0,0,1-6.194,0,7.606,7.606,0,0,1-2.119-2.013,8.968,8.968,0,0,1-1.141-2.93,13.264,13.264,0,0,1-.325-3.663,12.727,12.727,0,0,1,.653-4.577,9.327,9.327,0,0,1,1.792-3.111,9.581,9.581,0,0,1,2.445-1.648,8.316,8.316,0,0,1,2.933-.549,10.164,10.164,0,0,1,2.608.365,5.129,5.129,0,0,1,1.956.908,2.953,2.953,0,0,1,1.141.908v10.253Z" transform="translate(6.865 65.804)" fill="#101f3f"/></g></g></g></svg>