<svg xmlns="http://www.w3.org/2000/svg" xmlns:xlink="http://www.w3.org/1999/xlink" width="50" height="50" viewBox="0 0 50 50"><defs><linearGradient id="a" x1="0.5" x2="0.5" y2="1" gradientUnits="objectBoundingBox"><stop offset="0" stop-color="#285943"/><stop offset="0.519" stop-color="#007f5f"/><stop offset="1" stop-color="#f8ffe5"/></linearGradient><linearGradient id="b" x1="0.5" x2="0.5" y2="1" gradientUnits="objectBoundingBox"><stop offset="0" stop-color="#f8ffe5"/><stop offset="0.519" stop-color="#3fb380"/><stop offset="1" stop-color="#285943"/></linearGradient><clipPath id="d"><rect width="50" height="50"/></clipPath></defs><g id="c" clip-path="url(#d)"><g transform="translate(3 3)"><path d="M0,45V0H45V45Z" fill="rgba(221,221,221,0)"/><g transform="translate(5.5 5.5)"><path d="M195.06,30.72a.5.5,0,1,0,.5.5A.5.5,0,0,0,195.06,30.72Z" transform="translate(-167.06 -30.22)" fill="#285943"/><path d="M49.28,33.28a16,16,0,1,0,16,16A16,16,0,0,0,49.28,33.28Z" transform="translate(-32.28 -32.28)" fill="#f8ffe5"/><path d="M204.24,28.16a2,2,0,1,0,2,2A2,2,0,0,0,204.24,28.16Z" transform="translate(-173.24 -28.16)" fill="url(#a)"/><path d="M218.6,56.32a1,1,0,1,0,1,1A1,1,0,0,0,218.6,56.32Z" transform="translate(-185.6 -50.82)" fill="#285943"/><path d="M61.216,158.54a1,1,0,1,0,.944,1A.973.973,0,0,0,61.216,158.54Zm-31.167-7.5a2,2,0,1,0,1.889,2A1.947,1.947,0,0,0,30.049,151.04Z" transform="translate(-28.16 -132.04)" fill="url(#b)"/><path d="M59.88,217.6a1,1,0,1,0,1,1A1,1,0,0,0,59.88,217.6Z" transform="translate(-53.691 -185.6)" fill="#285943"/><path d="M42.078,90.42A1.258,1.258,0,1,0,43.2,91.67,1.189,1.189,0,0,0,42.078,90.42Zm27.27-8.5a.755.755,0,1,0,.671.75A.714.714,0,0,0,69.348,81.92Z" transform="translate(-38.46 -73.295)" fill="#007f5f"/><g transform="translate(4.525 4.485)"><path d="M78.045,65.6A12.125,12.125,0,1,0,90.17,77.725,12.125,12.125,0,0,0,78.045,65.6Z" transform="translate(-65.57 -65.25)" fill="#285943"/><path d="M76.6,88.758A12.475,12.475,0,1,1,89.078,76.283,12.489,12.489,0,0,1,76.6,88.758Zm0-24.25A11.775,11.775,0,1,0,88.378,76.283,11.788,11.788,0,0,0,76.6,64.508Z" transform="translate(-64.128 -63.808)" fill="#472b29"/></g><g transform="translate(6.75 6.629)"><path d="M85.77,74.668a10.25,10.25,0,1,0,10.25,10.25A10.25,10.25,0,0,0,85.77,74.668Z" transform="translate(-75.52 -74.668)" fill="#007f5f"/></g><g transform="translate(25.7 11.587)"><path d="M172.988,103.677a.25.25,0,0,1-.239-.177q-.066-.215-.142-.426a9.727,9.727,0,0,0-.735-1.584.25.25,0,1,1,.432-.25,10.223,10.223,0,0,1,.773,1.665c.053.148.1.3.149.449a.25.25,0,0,1-.166.313A.229.229,0,0,1,172.988,103.677Z" transform="translate(-171.838 -101.113)" fill="#472b29"/></g><g transform="translate(6.563 6.571)"><path d="M85,95.372a10.406,10.406,0,1,1,7.818-17.3q.224.253.433.521a.25.25,0,1,1-.395.307c-.132-.17-.27-.334-.412-.5a9.852,9.852,0,1,0,2.382,5.076.25.25,0,0,1,.21-.284.247.247,0,0,1,.285.21,10.543,10.543,0,0,1,.117,1.561A10.434,10.434,0,0,1,85,95.372Z" transform="translate(-74.56 -74.56)" fill="#472b29"/></g><g transform="translate(9.19 9.524)"><path d="M102.335,95.76a5.645,5.645,0,0,0-.243-2.909,5,5,0,0,0-3.169,1.358l.01.012c-.032,0-.063,0-.1,0h-4.5c-.021,0-.043,0-.064,0l.008-.01a5,5,0,0,0-3.169-1.358,5.677,5.677,0,0,0-.25,2.883,4.745,4.745,0,0,0,3.475,7.982h.537a2.435,2.435,0,0,0-1.247,1.749,2.542,2.542,0,0,1-2.514-.7c-.906-1.358-1.359-1.358-1.811-1.358s-.453.453,0,.906a3.479,3.479,0,0,1,.906,1.358c.386.772,1.406,1.649,3.38,1.332v1.761a2.423,2.423,0,0,0,.1.641,12.7,12.7,0,0,0,5.833-.075,2.446,2.446,0,0,0,.072-.565v-2.908a2.439,2.439,0,0,0-1.286-2.143h.536a4.745,4.745,0,0,0,3.5-7.956Z" transform="translate(-88.712 -92.601)" fill="#f8ffe5"/><path d="M95.32,108.929a11.805,11.805,0,0,1-2.729-.308.25.25,0,0,1-.184-.177,2.646,2.646,0,0,1-.1-.706v-1.476a3.067,3.067,0,0,1-3.353-1.505,3.328,3.328,0,0,0-.859-1.294.991.991,0,0,1-.372-1.011.553.553,0,0,1,.549-.321c.609,0,1.109.105,2.019,1.469a2.19,2.19,0,0,0,2.1.609,2.663,2.663,0,0,1,.712-1.277,4.993,4.993,0,0,1-3.535-8.3,6.012,6.012,0,0,1,.282-2.888.25.25,0,0,1,.237-.171,5.17,5.17,0,0,1,3.276,1.365h4.427a5.17,5.17,0,0,1,3.276-1.365.25.25,0,0,1,.237.171,5.986,5.986,0,0,1,.276,2.915,4.994,4.994,0,0,1-3.56,8.275,2.677,2.677,0,0,1,.793,1.9v2.908a2.678,2.678,0,0,1-.079.623.249.249,0,0,1-.186.186A14.055,14.055,0,0,1,95.32,108.929Zm-2.465-.761a12.42,12.42,0,0,0,5.415-.074,2.036,2.036,0,0,0,.034-.357v-2.908a2.194,2.194,0,0,0-1.156-1.923.25.25,0,0,1,.119-.47H97.8a4.494,4.494,0,0,0,3.313-7.537.251.251,0,0,1-.06-.222,5.287,5.287,0,0,0-.18-2.6,4.8,4.8,0,0,0-2.771,1.242.247.247,0,0,1-.215.123l-.051,0-4.537,0a.325.325,0,0,1-.221-.09l-.011.01a4.864,4.864,0,0,0-2.811-1.281,5.31,5.31,0,0,0-.186,2.577.25.25,0,0,1-.062.222,4.495,4.495,0,0,0,3.291,7.562h.536a.25.25,0,0,1,.119.47,2.172,2.172,0,0,0-1.119,1.57.249.249,0,0,1-.213.208c-1.332.179-2.284-.1-2.756-.806-.831-1.247-1.206-1.247-1.6-1.247a.171.171,0,0,0-.09.016c-.013.032.021.218.267.463a3.731,3.731,0,0,1,.952,1.424c.185.368.955,1.547,3.117,1.2a.255.255,0,0,1,.2.056.252.252,0,0,1,.088.191v1.761A1.988,1.988,0,0,0,92.855,108.169Z" transform="translate(-87.679 -91.571)" fill="#472b29"/></g><g transform="translate(18.406 17.329)"><path d="M141.629,131.487a3.521,3.521,0,0,1-3.177,1.965" transform="translate(-138.328 -131.361)" fill="#fefdef"/><path d="M137.938,133.06a.125.125,0,0,1-.01-.249A3.361,3.361,0,0,0,141,130.918a.125.125,0,0,1,.228.1,3.685,3.685,0,0,1-3.281,2.038Z" transform="translate(-137.813 -130.844)" fill="#472b29"/></g><g transform="translate(21.63 15.675)"><path d="M155.993,121.37a3.687,3.687,0,0,1-.015,1.171" transform="translate(-155.853 -121.245)" fill="#fefdef"/><path d="M155.464,122.151l-.022,0a.124.124,0,0,1-.1-.145,3.592,3.592,0,0,0,.014-1.131.125.125,0,1,1,.247-.036,3.78,3.78,0,0,1-.016,1.211A.124.124,0,0,1,155.464,122.151Z" transform="translate(-155.339 -120.73)" fill="#472b29"/></g><g transform="translate(20.77 14.151)"><path d="M151.252,112.32a2.252,2.252,0,0,1,.744,1.028" transform="translate(-151.127 -112.195)" fill="#fefdef"/><path d="M151.481,112.96a.126.126,0,0,1-.117-.079,2.112,2.112,0,0,0-.7-.971.125.125,0,0,1,.145-.2,2.361,2.361,0,0,1,.788,1.085.126.126,0,0,1-.071.162A.131.131,0,0,1,151.481,112.96Z" transform="translate(-150.612 -111.682)" fill="#472b29"/></g></g></g></g></svg>