<svg xmlns="http://www.w3.org/2000/svg" xmlns:xlink="http://www.w3.org/1999/xlink" width="50" height="50" viewBox="0 0 50 50">
   <defs>
      <linearGradient id="a" x1="0.5" x2="0.5" y2="1" gradientUnits="objectBoundingBox">
         <stop offset="0" stop-color="#285943"/>
         <stop offset="0.519" stop-color="#007f5f"/>
         <stop offset="1" stop-color="#f8ffe5"/>
      </linearGradient>
      <linearGradient id="b" x1="0.5" x2="0.5" y2="1" gradientUnits="objectBoundingBox">
         <stop offset="0" stop-color="#f8ffe5"/>
         <stop offset="0.519" stop-color="#3fb380"/>
         <stop offset="1" stop-color="#285943"/>
      </linearGradient>
      <clipPath id="d">
         <rect width="50" height="50"/>
      </clipPath>
   </defs>
   <g id="c" clip-path="url(#d)">
      <g transform="translate(3 3)">
         <path d="M0,45V0H45V45Z" fill="rgba(221,221,221,0)"/>
         <g transform="translate(5.5 5.5)">
            <path d="M29.16,69.12a1,1,0,1,0,1,1A1,1,0,0,0,29.16,69.12Z" transform="translate(-28.16 -62.201)" fill="#285943" class="svg-darker"/>
            <path d="M195.06,30.72a.5.5,0,1,0,.5.5A.5.5,0,0,0,195.06,30.72Z" transform="translate(-167.06 -30.22)" fill="#285943" class="svg-darker"/>
            <path d="M49.28,33.28a16,16,0,1,0,16,16A16,16,0,0,0,49.28,33.28Z" transform="translate(-32.28 -32.28)" fill="#f8ffe5" class="svg-light"/>
            <path d="M204.24,28.16a2,2,0,1,0,2,2A2,2,0,0,0,204.24,28.16Z" transform="translate(-173.24 -28.16)" fill="url(#a)"/>
            <path d="M218.6,56.32a1,1,0,1,0,1,1A1,1,0,0,0,218.6,56.32Z" transform="translate(-185.6 -50.82)" fill="#285943" class="svg-darker"/>
            <path d="M61.215,158.54a1,1,0,1,0,.944,1A.973.973,0,0,0,61.215,158.54Zm-31.166-7.5a2,2,0,1,0,1.889,2A1.947,1.947,0,0,0,30.049,151.04Z" transform="translate(-28.16 -132.04)" fill="url(#b)"/>
            <path d="M59.88,217.6a1,1,0,1,0,1,1A1,1,0,0,0,59.88,217.6Z" transform="translate(-53.691 -185.6)" fill="#285943" class="svg-darker"/>
            <path d="M42.21,130.56a1.25,1.25,0,1,0,1.25,1.25A1.25,1.25,0,0,0,42.21,130.56Z" transform="translate(-38.46 -113.3)" fill="#007f5f" class="svg-color"/>
            <path d="M51.7,168.96a.5.5,0,1,0,.5.5A.5.5,0,0,0,51.7,168.96Z" transform="translate(-46.7 -145.078)" fill="#007f5f" class="svg-color"/>
            <path d="M202.74,84.48a.5.5,0,1,0,.5.5A.5.5,0,0,0,202.74,84.48Z" transform="translate(-173.24 -74.927)" fill="#007f5f" class="svg-color"/>
            <g transform="translate(1 2)">
               <g transform="translate(-0.502 -0.5)">
                  <g transform="translate(6.502 5.5)">
                     <path d="M74.071,90.212a3.177,3.177,0,0,1-3.159-3.159V74.071a3.177,3.177,0,0,1,3.159-3.159H87.053a3.177,3.177,0,0,1,3.159,3.159V87.053a3.177,3.177,0,0,1-3.159,3.159Z" transform="translate(-70.562 -70.562)" fill="#285943" class="svg-darker"/>
                     <path d="M85.642,69.729a2.9,2.9,0,0,1,2.87,2.87V85.642a2.9,2.9,0,0,1-2.87,2.87H72.6a2.9,2.9,0,0,1-2.87-2.87V72.6a2.9,2.9,0,0,1,2.87-2.87H85.642m0-.609H72.6A3.488,3.488,0,0,0,69.12,72.6V85.642A3.488,3.488,0,0,0,72.6,89.12H85.642a3.488,3.488,0,0,0,3.478-3.478V72.6A3.488,3.488,0,0,0,85.642,69.12Z" transform="translate(-69.12 -69.12)" fill="#472b29"/>
                  </g>
                  <g transform="translate(8.826 7.75)">
                     <path d="M94.494,96.14H83.16a2.01,2.01,0,0,1-2.008-2.011V82.651A2.01,2.01,0,0,1,83.16,80.64H94.494A2.01,2.01,0,0,1,96.5,82.651V94.087A2.019,2.019,0,0,1,94.494,96.14Z" transform="translate(-81.152 -80.64)" fill="#007f5f" class="svg-color"/>
                  </g>
                  <g transform="translate(24 12.414)">
                     <path d="M174.33,111.25a.236.236,0,0,1-.25-.25v-1.95a.25.25,0,0,1,.5,0V111A.236.236,0,0,1,174.33,111.25Z" transform="translate(-174.08 -108.8)" fill="#472b29"/>
                  </g>
                  <g transform="translate(24 10.648)">
                     <path d="M174.33,97.5a.236.236,0,0,1-.25-.25v-1a.25.25,0,0,1,.5,0v1A.236.236,0,0,1,174.33,97.5Z" transform="translate(-174.08 -96)" fill="#472b29"/>
                  </g>
                  <g transform="translate(8.5 7.5)">
                     <path d="M93.255,95.36H81.465a2.085,2.085,0,0,1-2.105-2.105V81.465a2.085,2.085,0,0,1,2.105-2.105H92.16a.211.211,0,0,1,0,.421H81.465a1.689,1.689,0,0,0-1.684,1.684V93.255a1.689,1.689,0,0,0,1.684,1.684H93.255a1.689,1.689,0,0,0,1.684-1.684V87.192a.211.211,0,0,1,.421,0v6.063A2.085,2.085,0,0,1,93.255,95.36Z" transform="translate(-79.36 -79.36)" fill="#472b29"/>
                  </g>
                  <g transform="translate(14.292 12.729)">
                     <path d="M127.894,119.324v3.45h-2.05l-.05-3.45c0-.85-.4-1.5-1.2-1.5a1.154,1.154,0,0,0-1.1.8,1.7,1.7,0,0,0-.05.5v3.6h-2.1s.05-5.85,0-6.45h2.1v1h0a2.048,2.048,0,0,1,1.95-1.05C126.844,116.274,127.894,117.174,127.894,119.324Z" transform="translate(-121.044 -115.974)" fill="#f8ffe5" class="svg-main-path"/>
                     <path d="M126.658,121.994h-2.05a.236.236,0,0,1-.25-.25l-.05-3.45c0-.35-.1-1.25-.95-1.25a1.022,1.022,0,0,0-.9.65,2.763,2.763,0,0,0-.05.45v3.6a.236.236,0,0,1-.25.25h-2.1c-.05,0-.15-.05-.2-.05-.05-.05-.05-.1-.05-.2,0-.05.05-5.85,0-6.45a.3.3,0,0,1,.05-.2.26.26,0,0,1,.2-.1h2.1a.236.236,0,0,1,.25.25v.3a2.435,2.435,0,0,1,1.7-.6,2.692,2.692,0,0,1,1.9.7,3.611,3.611,0,0,1,.85,2.6v3.45C126.908,121.894,126.808,121.994,126.658,121.994Zm-1.8-.5h1.55v-3.2a3.273,3.273,0,0,0-.7-2.25,2.124,2.124,0,0,0-1.5-.55,1.862,1.862,0,0,0-1.75.9.261.261,0,0,1-.45.05.152.152,0,0,1,0-.2v-.7h-1.6v5.95h1.6v-3.35a1.865,1.865,0,0,1,.1-.6,1.441,1.441,0,0,1,1.35-.95c.9,0,1.45.65,1.45,1.75Z" transform="translate(-119.808 -114.944)" fill="#472b29"/>
                  </g>
                  <g transform="translate(11.492 9.648)">
                     <path d="M104.424,101.888a.945.945,0,0,0-1,1,.972.972,0,0,0,1,1h0a1,1,0,0,0,0-2Z" transform="translate(-103.174 -101.588)" fill="#f8ffe5" class="svg-main-path"/>
                     <path d="M103.394,102.852a1.181,1.181,0,0,1-1.25-1.25,1.251,1.251,0,0,1,2.5-.05A1.221,1.221,0,0,1,103.394,102.852Zm0-1.95a.75.75,0,1,0,0,1.5.749.749,0,0,0,.8-.75A.779.779,0,0,0,103.394,100.9Z" transform="translate(-102.144 -100.352)" fill="#472b29"/>
                  </g>
                  <g transform="translate(11.442 12.729)">
                     <path d="M103.424,116.736h2.1v6.45h-2.1Z" transform="translate(-103.174 -116.486)" fill="#f8ffe5" class="svg-main-path"/>
                     <path d="M104.494,122.406h-2.1a.236.236,0,0,1-.25-.25v-6.45a.236.236,0,0,1,.25-.25h2.1a.236.236,0,0,1,.25.25v6.45A.236.236,0,0,1,104.494,122.406Zm-1.85-.5h1.6v-5.95h-1.6Z" transform="translate(-102.144 -115.456)" fill="#472b29"/>
                  </g>
               </g>
            </g>
         </g>
      </g>
   </g>
</svg>