<svg xmlns="http://www.w3.org/2000/svg" xmlns:xlink="http://www.w3.org/1999/xlink" width="50" height="50" viewBox="0 0 50 50"><defs><linearGradient id="a" x1="0.5" x2="0.5" y2="1" gradientUnits="objectBoundingBox"><stop offset="0" stop-color="#285943"/><stop offset="0.519" stop-color="#007f5f"/><stop offset="1" stop-color="#f8ffe5"/></linearGradient><linearGradient id="b" x1="0.5" x2="0.5" y2="1" gradientUnits="objectBoundingBox"><stop offset="0" stop-color="#f8ffe5"/><stop offset="0.519" stop-color="#3fb380"/><stop offset="1" stop-color="#285943"/></linearGradient><clipPath id="d"><rect width="50" height="50"/></clipPath></defs><g id="c" clip-path="url(#d)"><g transform="translate(3 3)"><path d="M0,45V0H45V45Z" fill="rgba(221,221,221,0)"/><g transform="translate(5.5 5.5)"><path d="M195.06,30.72a.5.5,0,1,0,.5.5A.5.5,0,0,0,195.06,30.72Z" transform="translate(-167.06 -30.22)" fill="#285943"/><path d="M49.28,33.28a16,16,0,1,0,16,16A16,16,0,0,0,49.28,33.28Z" transform="translate(-32.28 -32.28)" fill="#f8ffe5"/><path d="M204.24,28.16a2,2,0,1,0,2,2A2,2,0,0,0,204.24,28.16Z" transform="translate(-173.24 -28.16)" fill="url(#a)"/><path d="M218.6,56.32a1,1,0,1,0,1,1A1,1,0,0,0,218.6,56.32Z" transform="translate(-185.6 -50.82)" fill="#285943"/><path d="M61.216,158.54a1,1,0,1,0,.944,1A.973.973,0,0,0,61.216,158.54Zm-31.167-7.5a2,2,0,1,0,1.889,2A1.947,1.947,0,0,0,30.049,151.04Z" transform="translate(-28.16 -132.04)" fill="url(#b)"/><path d="M59.88,217.6a1,1,0,1,0,1,1A1,1,0,0,0,59.88,217.6Z" transform="translate(-53.691 -185.6)" fill="#285943"/><g transform="translate(4.525 4.485)"><path d="M78.045,65.6A12.125,12.125,0,1,0,90.17,77.725,12.125,12.125,0,0,0,78.045,65.6Z" transform="translate(-65.57 -65.25)" fill="#285943"/><path d="M76.6,88.758A12.475,12.475,0,1,1,89.078,76.283,12.489,12.489,0,0,1,76.6,88.758Zm0-24.25A11.775,11.775,0,1,0,88.378,76.283,11.788,11.788,0,0,0,76.6,64.508Z" transform="translate(-64.128 -63.808)" fill="#472b29"/></g><g transform="translate(6.75 6.629)"><path d="M85.77,74.668a10.25,10.25,0,1,0,10.25,10.25A10.25,10.25,0,0,0,85.77,74.668Z" transform="translate(-75.52 -74.668)" fill="#007f5f"/></g><g transform="translate(25.5 11.293)"><path d="M172.988,103.677a.25.25,0,0,1-.239-.177q-.066-.215-.142-.426a9.727,9.727,0,0,0-.735-1.584.25.25,0,1,1,.432-.25,10.223,10.223,0,0,1,.773,1.665c.053.148.1.3.149.449a.25.25,0,0,1-.166.313A.229.229,0,0,1,172.988,103.677Z" transform="translate(-171.838 -101.113)" fill="#472b29"/></g><g transform="translate(6.563 6.571)"><path d="M85,95.372a10.406,10.406,0,1,1,7.818-17.3q.224.253.433.521a.25.25,0,1,1-.395.307c-.132-.17-.27-.334-.412-.5a9.852,9.852,0,1,0,2.382,5.076.25.25,0,0,1,.21-.284.247.247,0,0,1,.285.21,10.543,10.543,0,0,1,.117,1.561A10.434,10.434,0,0,1,85,95.372Z" transform="translate(-74.56 -74.56)" fill="#472b29"/></g><g transform="translate(5.359 4.659)"><g transform="translate(3.954 7.954)"><ellipse cx="7.476" cy="4.914" rx="7.476" ry="4.914" transform="translate(0.211 0.211)" fill="#f8ffe5"/><path d="M71.687,95.142c4.006,0,7.265,2.109,7.265,4.7s-3.259,4.7-7.265,4.7-7.265-2.109-7.265-4.7,3.259-4.7,7.265-4.7m0-.422C67.442,94.72,64,97.014,64,99.845s3.442,5.125,7.687,5.125,7.687-2.294,7.687-5.125S75.932,94.72,71.687,94.72Z" transform="translate(-64 -94.72)" fill="#472b29"/></g><g transform="translate(14.325 14.938)"><path d="M157.254,157.835a.075.075,0,0,1-.026-.146,6.3,6.3,0,0,0,2.18-1.281.075.075,0,1,1,.1.109,6.451,6.451,0,0,1-2.233,1.313A.075.075,0,0,1,157.254,157.835Z" transform="translate(-157.179 -156.387)" fill="#472b29"/></g><g transform="translate(16.841 11.577)"><path d="M180.319,128.022a.074.074,0,0,1-.044-.014.076.076,0,0,1-.017-.105,2.7,2.7,0,0,0,.541-1.589,2.67,2.67,0,0,0-.463-1.475.075.075,0,0,1,.126-.083,2.816,2.816,0,0,1,.488,1.558,2.852,2.852,0,0,1-.569,1.677A.075.075,0,0,1,180.319,128.022Z" transform="translate(-180.243 -124.722)" fill="#472b29"/></g><g transform="translate(6.712 9.899)"><path d="M81.813,108.251a.075.075,0,0,1-.052-.13,6.449,6.449,0,0,1,2.233-1.313.075.075,0,0,1,.051.142,6.3,6.3,0,0,0-2.181,1.281A.076.076,0,0,1,81.813,108.251Z" transform="translate(-81.738 -106.803)" fill="#472b29"/></g><g transform="translate(5.852 11.378)"><path d="M73.25,126.036a.075.075,0,0,1-.063-.034,2.816,2.816,0,0,1-.488-1.558,2.854,2.854,0,0,1,.569-1.677.075.075,0,1,1,.123.088,2.7,2.7,0,0,0-.541,1.589,2.668,2.668,0,0,0,.463,1.475.075.075,0,0,1-.022.1A.074.074,0,0,1,73.25,126.036Z" transform="translate(-72.699 -122.736)" fill="#472b29"/></g><g transform="translate(15.216 5.515)"><circle cx="1.145" cy="1.145" r="1.145" transform="translate(0.211 0.211)" fill="#f8ffe5"/><path d="M167.757,64.422a.934.934,0,1,1-.934.934.936.936,0,0,1,.934-.934m0-.422a1.356,1.356,0,1,0,1.357,1.356A1.357,1.357,0,0,0,167.757,64Z" transform="translate(-166.4 -64)" fill="#472b29"/></g><g transform="translate(8.278 11.205)"><path d="M1.055,0A1.055,1.055,0,1,1,0,1.055,1.055,1.055,0,0,1,1.055,0Z" transform="translate(0.151 0.151)" fill="#285943"/><path d="M98.486,122.732a1.206,1.206,0,1,1,1.206-1.206A1.207,1.207,0,0,1,98.486,122.732Zm0-2.11a.9.9,0,1,0,.9.9A.905.905,0,0,0,98.486,120.621Z" transform="translate(-97.28 -120.32)" fill="#007f5f"/></g><g transform="translate(12.667 11.205)"><path d="M1.055,0A1.055,1.055,0,1,1,0,1.055,1.055,1.055,0,0,1,1.055,0Z" transform="translate(0.151 0.151)" fill="#285943"/><path d="M142.006,122.732a1.206,1.206,0,1,1,1.206-1.206A1.207,1.207,0,0,1,142.006,122.732Zm0-2.11a.9.9,0,1,0,.9.9A.905.905,0,0,0,142.006,120.621Z" transform="translate(-140.8 -120.32)" fill="#007f5f"/></g><g transform="translate(11.15 5.479)"><path d="M128.151,67.918a.147.147,0,0,1-.048-.008.151.151,0,0,1-.1-.19l1.206-3.617a.151.151,0,0,1,.182-.1l3.391.9a.151.151,0,0,1-.078.291l-3.254-.868-1.161,3.483A.151.151,0,0,1,128.151,67.918Z" transform="translate(-128.001 -63.999)" fill="#472b29"/></g><g transform="translate(9.113 14.955)"><path d="M110.063,157.175a4.706,4.706,0,0,1-2.471-.734.151.151,0,1,1,.157-.257,4.251,4.251,0,0,0,4.668,0,.151.151,0,1,1,.154.26A4.9,4.9,0,0,1,110.063,157.175Z" transform="translate(-107.519 -156.161)" fill="#472b29"/></g></g><path d="M42.078,90.42A1.258,1.258,0,1,0,43.2,91.67,1.189,1.189,0,0,0,42.078,90.42Zm27.27-8.5a.755.755,0,1,0,.671.75A.714.714,0,0,0,69.348,81.92Z" transform="translate(-38.46 -73.295)" fill="#007f5f"/></g></g></g></svg>