<svg xmlns="http://www.w3.org/2000/svg" xmlns:xlink="http://www.w3.org/1999/xlink" width="200" height="280" viewBox="0 0 200 280"><defs><filter id="a" x="0" y="59" width="204.248" height="224.59" filterUnits="userSpaceOnUse"><feOffset dx="2" dy="4" input="SourceAlpha"/><feGaussianBlur stdDeviation="4" result="b"/><feFlood flood-color="#4a3958"/><feComposite operator="in" in2="b"/><feComposite in="SourceGraphic"/></filter><clipPath id="d"><rect width="200" height="280"/></clipPath></defs><g id="c" clip-path="url(#d)"><g transform="translate(-5675.175 -5674.187)"><g transform="translate(5687.375 5743.042)"><g transform="matrix(1, 0, 0, 1, -12.2, -68.85)" filter="url(#a)"><path d="M110.816,213.646a14.584,14.584,0,0,1-3.841-.517L45.161,195.963a14.556,14.556,0,0,1-10.55-12.671L20.843,28.829A14.488,14.488,0,0,1,35.27,13.056H186.552a14.487,14.487,0,0,1,14.427,15.766L187.193,183.268a14.557,14.557,0,0,1-10.559,12.673l-61.95,17.182a14.629,14.629,0,0,1-3.868.524Z" transform="translate(-10.79 53.94)" fill="#f8ffe5"/></g><path d="M98.331,189.086a12.343,12.343,0,0,1-3.309-.454L41.781,173.568a12.714,12.714,0,0,1-9.087-11.119L20.835,26.9a12.906,12.906,0,0,1,3.218-9.705,12.4,12.4,0,0,1,9.208-4.137h130.3a12.4,12.4,0,0,1,9.208,4.137,12.9,12.9,0,0,1,3.218,9.7L164.115,162.427a12.715,12.715,0,0,1-9.095,11.121l-53.358,15.078a12.383,12.383,0,0,1-3.332.46Z" transform="translate(-9.467 -2.882)" fill="#285943"/><path d="M157.852,168.233l11.58-129.159H108.8v142.7Z" transform="translate(-17.885 -12.555)" fill="#3fb17f"/><path d="M55.86,143.8V125.374L86.2,133.75V53.76H100.95V156.365Z" transform="translate(-21.948 -7.196)" fill="#f8ffe5"/><path d="M158.29,95.363l-3.707,48.6-41.191,10.3v-17.3l29.657-8.238.412-14.417-30.481,4.531V53.76h48.193l-1.236,17.712-31.717.412V98.658Z" transform="translate(-17.032 -7.506)" fill="#285943"/></g><g transform="translate(-8.843 1)"><g transform="translate(5691.602 5689.187)"><path d="M37.7-10.627h3.817v20.5a8.5,8.5,0,0,1-2.48,6.5,9.26,9.26,0,0,1-6.628,2.35A9.5,9.5,0,0,1,25.711,16.5a7.973,7.973,0,0,1-2.4-6.181h3.8A5.294,5.294,0,0,0,28.477,14.2,5.223,5.223,0,0,0,32.4,15.6a5.1,5.1,0,0,0,3.817-1.49A5.864,5.864,0,0,0,37.7,9.924Zm26.79,28.944H60.651a7.549,7.549,0,0,1-.516-2.267,8.16,8.16,0,0,1-6.1,2.665,7.554,7.554,0,0,1-5.2-1.8A5.852,5.852,0,0,1,46.8,12.348a6.067,6.067,0,0,1,2.544-5.209q2.544-1.86,7.163-1.86H60.07V3.586A4.16,4.16,0,0,0,58.927.514,4.635,4.635,0,0,0,55.534-.625a5.335,5.335,0,0,0-3.282.99,2.925,2.925,0,0,0-1.328,2.406H47.237A5.067,5.067,0,0,1,48.381-.338a7.665,7.665,0,0,1,3.088-2.378,10.29,10.29,0,0,1,4.287-.879,8.461,8.461,0,0,1,5.808,1.86,6.75,6.75,0,0,1,2.176,5.126v9.892A12.252,12.252,0,0,0,64.486,18Zm-9.92-2.8a6.428,6.428,0,0,0,3.273-.9,5.358,5.358,0,0,0,2.231-2.323V7.879H57.2q-6.739,0-6.739,3.96a3.342,3.342,0,0,0,1.152,2.7A4.419,4.419,0,0,0,54.566,15.513ZM70.81-3.2l5.448,16.526L81.56-3.2H85.3L77.623,18.316H74.83L67.067-3.2Zm34.8,21.513h-3.844a7.548,7.548,0,0,1-.516-2.267,8.16,8.16,0,0,1-6.1,2.665,7.575,7.575,0,0,1-5.2-1.8,5.852,5.852,0,0,1-2.028-4.571,6.067,6.067,0,0,1,2.544-5.209q2.544-1.86,7.163-1.86H101.2V3.586A4.142,4.142,0,0,0,100.044.514,4.621,4.621,0,0,0,96.66-.625a5.351,5.351,0,0,0-3.291.99,2.925,2.925,0,0,0-1.328,2.406H88.354A5.067,5.067,0,0,1,89.5-.338a7.665,7.665,0,0,1,3.088-2.378,10.33,10.33,0,0,1,4.287-.879,8.461,8.461,0,0,1,5.808,1.86,6.75,6.75,0,0,1,2.176,5.126v9.892A12.118,12.118,0,0,0,105.612,18Zm-9.929-2.8a6.428,6.428,0,0,0,3.273-.9,5.416,5.416,0,0,0,2.24-2.323V7.879H98.32q-6.73,0-6.73,3.96a3.355,3.355,0,0,0,1.143,2.7,4.419,4.419,0,0,0,2.95.972Zm27.4-2.905a2.7,2.7,0,0,0-1.125-2.313,10.78,10.78,0,0,0-3.9-1.425,18.321,18.321,0,0,1-4.416-1.425,6.271,6.271,0,0,1-2.415-1.989,4.782,4.782,0,0,1-.784-2.748,5.587,5.587,0,0,1,2.231-4.469,8.645,8.645,0,0,1,5.688-1.832,8.917,8.917,0,0,1,5.919,1.9,6,6,0,0,1,2.268,4.83h-3.688A3.323,3.323,0,0,0,121.579.523a4.765,4.765,0,0,0-3.217-1.092,4.96,4.96,0,0,0-3.125.879A2.744,2.744,0,0,0,114.1,2.6,2.232,2.232,0,0,0,115.154,4.6a12.843,12.843,0,0,0,3.8,1.286A20.013,20.013,0,0,1,123.4,7.361a6.518,6.518,0,0,1,2.526,2.063,5.065,5.065,0,0,1,.82,2.924,5.518,5.518,0,0,1-2.3,4.627,9.611,9.611,0,0,1-5.965,1.74,10.744,10.744,0,0,1-4.554-.916,7.406,7.406,0,0,1-3.1-2.554,6.137,6.137,0,0,1-1.125-3.544h3.669a3.813,3.813,0,0,0,1.475,2.924,5.668,5.668,0,0,0,3.632,1.092,5.846,5.846,0,0,0,3.337-.851A2.593,2.593,0,0,0,123.082,12.607Zm17.027,3.109a5.268,5.268,0,0,0,3.429-1.194,4.2,4.2,0,0,0,1.623-2.989h3.466a6.76,6.76,0,0,1-1.263,3.525,8.431,8.431,0,0,1-3.125,2.665,8.981,8.981,0,0,1-4.13.99,8.8,8.8,0,0,1-6.96-2.933q-2.581-2.933-2.581-8.022V7.148a13.041,13.041,0,0,1,1.143-5.589,8.794,8.794,0,0,1,3.3-3.794,9.293,9.293,0,0,1,5.08-1.36,8.562,8.562,0,0,1,5.992,2.174,7.745,7.745,0,0,1,2.544,5.626h-3.466A5.066,5.066,0,0,0,143.585.773a4.874,4.874,0,0,0-3.494-1.342,5.11,5.11,0,0,0-4.324,2.017,9.487,9.487,0,0,0-1.54,5.839v.694a9.294,9.294,0,0,0,1.53,5.728A5.133,5.133,0,0,0,140.109,15.716Zm23-15.61A11.081,11.081,0,0,0,161.3-.032a4.834,4.834,0,0,0-4.9,3.081V18.316h-3.66V-3.2h3.568l.055,2.489a5.7,5.7,0,0,1,5.107-2.887,3.686,3.686,0,0,1,1.632.287Zm7.348-3.3V18.316h-3.669V-3.2Zm-3.964-5.7a2.185,2.185,0,0,1,.544-1.508,2.032,2.032,0,0,1,1.613-.62,2.061,2.061,0,0,1,1.623.62,2.164,2.164,0,0,1,.553,1.508,2.118,2.118,0,0,1-.553,1.49,2.113,2.113,0,0,1-1.623.592,2.083,2.083,0,0,1-1.613-.592A2.139,2.139,0,0,1,166.494-8.9ZM194.418,7.8a12.935,12.935,0,0,1-2.24,7.921,7.152,7.152,0,0,1-6.057,3,7.842,7.842,0,0,1-6.14-2.489V26.589h-3.66V-3.2h3.346l.175,2.387a7.542,7.542,0,0,1,6.223-2.785,7.276,7.276,0,0,1,6.1,2.924q2.249,2.924,2.249,8.133Zm-3.66-.416a9.52,9.52,0,0,0-1.549-5.746,4.969,4.969,0,0,0-4.241-2.1,5.375,5.375,0,0,0-4.987,2.961v10.28a5.392,5.392,0,0,0,5.034,2.942,4.947,4.947,0,0,0,4.185-2.1Q190.758,11.515,190.758,7.379ZM200.383-8.4h3.66v5.2h4v2.85h-4V12.987a3,3,0,0,0,.535,1.943,2.249,2.249,0,0,0,1.825.648,8.733,8.733,0,0,0,1.742-.241v2.979a10.588,10.588,0,0,1-2.812.4,4.57,4.57,0,0,1-3.706-1.49,6.436,6.436,0,0,1-1.245-4.238V-.347h-3.9V-3.2h3.9Z" transform="translate(-23.314 11.025)" fill="#f8ffe5"/><path d="M168.651-11.025a2.032,2.032,0,0,0-1.613.62,2.185,2.185,0,0,0-.544,1.508,2.139,2.139,0,0,0,.544,1.49,2.083,2.083,0,0,0,1.613.592,2.113,2.113,0,0,0,1.623-.592,2.118,2.118,0,0,0,.553-1.49,2.164,2.164,0,0,0-.553-1.508,2.061,2.061,0,0,0-1.623-.62m-130.955.4V9.924a5.864,5.864,0,0,1-1.475,4.182A5.1,5.1,0,0,1,32.4,15.6a5.223,5.223,0,0,1-3.927-1.4,5.294,5.294,0,0,1-1.364-3.877h-3.8a7.973,7.973,0,0,0,2.4,6.181A9.5,9.5,0,0,0,32.4,18.714a9.26,9.26,0,0,0,6.628-2.35,8.5,8.5,0,0,0,2.48-6.5v-20.5H37.7M200.383-8.4v5.2h-3.9v2.85h3.9V12.987a6.436,6.436,0,0,0,1.245,4.238,4.57,4.57,0,0,0,3.706,1.49,10.586,10.586,0,0,0,2.812-.4V15.337a8.735,8.735,0,0,1-1.742.241,2.249,2.249,0,0,1-1.825-.648,3,3,0,0,1-.535-1.943V-.347h4V-3.2h-4V-8.4h-3.66M55.756-3.595a10.289,10.289,0,0,0-4.287.879A7.665,7.665,0,0,0,48.381-.338a5.067,5.067,0,0,0-1.143,3.109h3.688A2.925,2.925,0,0,1,52.253.366a5.335,5.335,0,0,1,3.282-.99A4.635,4.635,0,0,1,58.927.514,4.16,4.16,0,0,1,60.07,3.586V5.279H56.512q-4.619,0-7.163,1.86a6.067,6.067,0,0,0-2.544,5.21,5.852,5.852,0,0,0,2.028,4.571,7.554,7.554,0,0,0,5.2,1.8,8.16,8.16,0,0,0,6.1-2.665,7.547,7.547,0,0,0,.516,2.267h3.835V18a12.252,12.252,0,0,1-.747-4.719V3.391a6.75,6.75,0,0,0-2.176-5.126,8.462,8.462,0,0,0-5.808-1.86M54.566,15.513a4.419,4.419,0,0,1-2.95-.972,3.342,3.342,0,0,1-1.152-2.7q0-3.96,6.739-3.96H60.07v4.414a5.358,5.358,0,0,1-2.231,2.323,6.428,6.428,0,0,1-3.273.9M96.872-3.595a10.33,10.33,0,0,0-4.287.879A7.665,7.665,0,0,0,89.5-.338a5.067,5.067,0,0,0-1.143,3.109h3.688A2.925,2.925,0,0,1,93.369.366a5.351,5.351,0,0,1,3.291-.99A4.621,4.621,0,0,1,100.044.514,4.142,4.142,0,0,1,101.2,3.586V5.279H97.628q-4.619,0-7.163,1.86a6.067,6.067,0,0,0-2.544,5.21,5.852,5.852,0,0,0,2.028,4.571,7.575,7.575,0,0,0,5.2,1.8,8.16,8.16,0,0,0,6.1-2.665,7.549,7.549,0,0,0,.516,2.267h3.844V18a12.118,12.118,0,0,1-.756-4.719V3.391a6.75,6.75,0,0,0-2.176-5.126,8.462,8.462,0,0,0-5.808-1.86M95.683,15.513a4.419,4.419,0,0,1-2.95-.972,3.355,3.355,0,0,1-1.143-2.7q0-3.96,6.73-3.96H101.2v4.414a5.416,5.416,0,0,1-2.24,2.323,6.428,6.428,0,0,1-3.273.9M118.362-3.595a8.645,8.645,0,0,0-5.688,1.832,5.587,5.587,0,0,0-2.231,4.469,4.782,4.782,0,0,0,.784,2.748,6.272,6.272,0,0,0,2.415,1.989,18.32,18.32,0,0,0,4.416,1.425,10.78,10.78,0,0,1,3.9,1.425,2.7,2.7,0,0,1,1.125,2.313,2.592,2.592,0,0,1-1.263,2.258,5.846,5.846,0,0,1-3.337.851,5.668,5.668,0,0,1-3.632-1.092,3.813,3.813,0,0,1-1.475-2.924h-3.669a6.137,6.137,0,0,0,1.125,3.544,7.405,7.405,0,0,0,3.1,2.554,10.744,10.744,0,0,0,4.554.916,9.611,9.611,0,0,0,5.965-1.74,5.518,5.518,0,0,0,2.3-4.627,5.065,5.065,0,0,0-.82-2.924A6.518,6.518,0,0,0,123.4,7.361a20.012,20.012,0,0,0-4.444-1.471,12.843,12.843,0,0,1-3.8-1.286A2.232,2.232,0,0,1,114.1,2.6,2.744,2.744,0,0,1,115.237.31a4.96,4.96,0,0,1,3.125-.879A4.765,4.765,0,0,1,121.579.523a3.323,3.323,0,0,1,1.281,2.609h3.688A6,6,0,0,0,124.28-1.7a8.917,8.917,0,0,0-5.919-1.9m21.729,0a9.294,9.294,0,0,0-5.08,1.36,8.794,8.794,0,0,0-3.3,3.794,13.041,13.041,0,0,0-1.143,5.589v.611q0,5.089,2.581,8.022a8.8,8.8,0,0,0,6.96,2.933,8.981,8.981,0,0,0,4.13-.99,8.431,8.431,0,0,0,3.125-2.665,6.76,6.76,0,0,0,1.263-3.525h-3.466a4.2,4.2,0,0,1-1.623,2.989,5.268,5.268,0,0,1-3.429,1.194,5.132,5.132,0,0,1-4.351-2.008,9.293,9.293,0,0,1-1.53-5.728V7.287a9.487,9.487,0,0,1,1.54-5.839,5.11,5.11,0,0,1,4.324-2.017A4.874,4.874,0,0,1,143.585.773a5.066,5.066,0,0,1,1.576,3.433h3.466a7.745,7.745,0,0,0-2.544-5.626,8.562,8.562,0,0,0-5.992-2.174m21.388,0a5.7,5.7,0,0,0-5.107,2.887L156.316-3.2h-3.568V18.316h3.66V3.049a4.833,4.833,0,0,1,4.9-3.081,11.081,11.081,0,0,1,1.807.139V-3.308a3.686,3.686,0,0,0-1.632-.287m24.587,0A7.542,7.542,0,0,0,179.843-.81L179.668-3.2h-3.346V26.589h3.66V16.225a7.842,7.842,0,0,0,6.14,2.489,7.152,7.152,0,0,0,6.057-3,12.935,12.935,0,0,0,2.24-7.921V7.463q0-5.21-2.249-8.133a7.276,7.276,0,0,0-6.1-2.924m-1.051,19.311a5.392,5.392,0,0,1-5.034-2.942V2.494a5.375,5.375,0,0,1,4.987-2.961,4.969,4.969,0,0,1,4.241,2.1,9.521,9.521,0,0,1,1.549,5.746q0,4.136-1.558,6.237a4.947,4.947,0,0,1-4.185,2.1M67.067-3.2,74.83,18.316h2.793L85.3-3.2H81.56l-5.3,16.526L70.81-3.2H67.067m99.722,0V18.316h3.669V-3.2h-3.669m1.862-12.828A7.044,7.044,0,0,1,174-13.742a7.124,7.124,0,0,1,1.83,4.845q0,.369-.034.727a5.056,5.056,0,0,1,.528-.028h3.346a4.988,4.988,0,0,1,1.81.338,14,14,0,0,1,4.588-.736,12.577,12.577,0,0,1,6.846,1.9,4.992,4.992,0,0,1,2.471-1.379V-8.4a5,5,0,0,1,5-5h3.66a5,5,0,0,1,5,5v.3a5,5,0,0,1,4,4.9v2.85a5,5,0,0,1-4,4.9v5.865a5,5,0,0,1,4.1,4.919v2.979a5,5,0,0,1-3.674,4.821,15.631,15.631,0,0,1-4.137.577,9.417,9.417,0,0,1-7.532-3.27l-.012-.014a9.567,9.567,0,0,1-1.332-2.1q-.132.19-.271.375a12.3,12.3,0,0,1-4.421,3.743,12.606,12.606,0,0,1-5.645,1.268q-.578,0-1.14-.04v2.914a5,5,0,0,1-5,5h-3.66a5,5,0,0,1-5-5V23.242a5.03,5.03,0,0,1-.863.074h-3.669a5,5,0,0,1-5-5V4.983q-.182-.012-.381-.015V18.316a5,5,0,0,1-5,5h-3.66a5,5,0,0,1-4.249-2.364,14.311,14.311,0,0,1-1.983,1.223l-.008,0a13.977,13.977,0,0,1-6.4,1.534,13.819,13.819,0,0,1-10.7-4.618,11.246,11.246,0,0,1-1.94,1.863,14.51,14.51,0,0,1-8.985,2.755,15.741,15.741,0,0,1-6.652-1.377,13.421,13.421,0,0,1-2.09-1.2,4.994,4.994,0,0,1-4.128,2.178h-3.844a4.994,4.994,0,0,1-2-.416,13.238,13.238,0,0,1-4.622.814,13.8,13.8,0,0,1-4.513-.722,11.864,11.864,0,0,1-3.992-2.321l-.018-.016a10.879,10.879,0,0,1-2.994-4.3L82.332,20a5,5,0,0,1-4.709,3.319H74.83a5,5,0,0,1-4.7-3.3l-.64-1.775v.078a5,5,0,0,1-5,5H60.651a4.994,4.994,0,0,1-2-.416,13.238,13.238,0,0,1-4.622.814,13.815,13.815,0,0,1-4.517-.722,11.814,11.814,0,0,1-4-2.329l-.009-.008a11.348,11.348,0,0,1-1.8-2.02A12.465,12.465,0,0,1,42.465,20,13.141,13.141,0,0,1,37.8,22.839a16.122,16.122,0,0,1-5.4.875,14.345,14.345,0,0,1-10.082-3.535,11.95,11.95,0,0,1-3.07-4.515,14.729,14.729,0,0,1-.937-5.342,5,5,0,0,1,5-5h3.8a5,5,0,0,1,5,5c0,.1,0,.191.01.264.077.006.171.01.282.01a1.786,1.786,0,0,0,.214-.011,2.913,2.913,0,0,0,.078-.692v-20.52a5,5,0,0,1,5-5h3.817a5,5,0,0,1,5,5v5.1a13.474,13.474,0,0,1,2.916-1.755,15.3,15.3,0,0,1,6.327-1.314,14.038,14.038,0,0,1,7.641,2A5,5,0,0,1,67.067-8.2H70.81a5,5,0,0,1,4.749,3.434l.635,1.925L76.8-4.724A5,5,0,0,1,81.56-8.2H85.3a5,5,0,0,1,3.748,1.69,14.162,14.162,0,0,1,1.488-.771,15.342,15.342,0,0,1,6.334-1.317,13.312,13.312,0,0,1,9.121,3.115l.008.007A11.184,11.184,0,0,1,107.615-3.7,11.991,11.991,0,0,1,109.5-5.627a13.542,13.542,0,0,1,8.861-2.968,13.806,13.806,0,0,1,9.117,3.054h0a11.872,11.872,0,0,1,1.743,1.784,13.481,13.481,0,0,1,3.115-2.7,14.247,14.247,0,0,1,7.754-2.135,14.633,14.633,0,0,1,5.006.844,13,13,0,0,1,3.433,1.869A5,5,0,0,1,152.748-8.2h3.568a5,5,0,0,1,1.454.215,11.193,11.193,0,0,1,3.73-.613q-.006-.15-.006-.3a7.15,7.15,0,0,1,1.8-4.82A7.009,7.009,0,0,1,168.651-16.025Zm-28.5,20.458-.065,0a1.571,1.571,0,0,0-.332.028l-.009.011-.009.012a4.953,4.953,0,0,0-.514,2.805v.694a4.7,4.7,0,0,0,.507,2.7l.005.007a1.7,1.7,0,0,0,.37.032,1.133,1.133,0,0,0,.12-.005,4.987,4.987,0,0,1,1.53-2.842,4.988,4.988,0,0,1-1.584-3.29A1.15,1.15,0,0,0,140.156,4.433Zm44.984.11a1.285,1.285,0,0,0-.159-.01v6.183h.034c.047,0,.084,0,.11,0,.016-.018.036-.042.06-.075.059-.079.574-.843.574-3.258a5.164,5.164,0,0,0-.579-2.787C185.164,4.572,185.151,4.555,185.14,4.542Z" transform="translate(-23.314 11.025)" fill="#f8ffe5"/><g transform="translate(0 0)"><path d="M37.7,9.924V-10.627h3.817v20.5a8.5,8.5,0,0,1-2.48,6.5,9.26,9.26,0,0,1-6.628,2.35h0A9.5,9.5,0,0,1,25.711,16.5a7.973,7.973,0,0,1-2.4-6.181h3.8A5.294,5.294,0,0,0,28.477,14.2,5.223,5.223,0,0,0,32.4,15.6h0a5.1,5.1,0,0,0,3.817-1.49A5.864,5.864,0,0,0,37.7,9.924Zm26.79,8.393H60.651a7.549,7.549,0,0,1-.516-2.267h0a8.16,8.16,0,0,1-6.1,2.665h0a7.554,7.554,0,0,1-5.2-1.8A5.852,5.852,0,0,1,46.8,12.348h0a6.067,6.067,0,0,1,2.544-5.209q2.544-1.86,7.163-1.86H60.07V3.586A4.16,4.16,0,0,0,58.927.514,4.635,4.635,0,0,0,55.534-.625h0a5.335,5.335,0,0,0-3.282.99,2.925,2.925,0,0,0-1.328,2.406H47.237A5.067,5.067,0,0,1,48.381-.338a7.665,7.665,0,0,1,3.088-2.378,10.29,10.29,0,0,1,4.287-.879h0a8.461,8.461,0,0,1,5.808,1.86,6.75,6.75,0,0,1,2.176,5.126h0v9.892A12.252,12.252,0,0,0,64.486,18h0Zm-9.92-2.8h0a6.428,6.428,0,0,0,3.273-.9,5.358,5.358,0,0,0,2.231-2.323h0V7.879H57.2q-6.739,0-6.739,3.96h0a3.342,3.342,0,0,0,1.152,2.7A4.419,4.419,0,0,0,54.566,15.513ZM70.81-3.2l5.448,16.526L81.56-3.2H85.3L77.623,18.316H74.83L67.067-3.2Zm34.8,21.513h-3.844a7.548,7.548,0,0,1-.516-2.267h0a8.16,8.16,0,0,1-6.1,2.665h0a7.575,7.575,0,0,1-5.2-1.8,5.852,5.852,0,0,1-2.028-4.571h0a6.067,6.067,0,0,1,2.544-5.209q2.544-1.86,7.163-1.86H101.2V3.586A4.142,4.142,0,0,0,100.044.514,4.621,4.621,0,0,0,96.66-.625h0a5.351,5.351,0,0,0-3.291.99,2.925,2.925,0,0,0-1.328,2.406H88.354A5.067,5.067,0,0,1,89.5-.338a7.665,7.665,0,0,1,3.088-2.378,10.33,10.33,0,0,1,4.287-.879h0a8.461,8.461,0,0,1,5.808,1.86,6.75,6.75,0,0,1,2.176,5.126h0v9.892A12.118,12.118,0,0,0,105.612,18h0Zm-9.929-2.8h0a6.428,6.428,0,0,0,3.273-.9,5.416,5.416,0,0,0,2.24-2.323h0V7.879H98.32q-6.73,0-6.73,3.96h0a3.355,3.355,0,0,0,1.143,2.7,4.419,4.419,0,0,0,2.95.972Zm27.4-2.905h0a2.7,2.7,0,0,0-1.125-2.313,10.78,10.78,0,0,0-3.9-1.425,18.321,18.321,0,0,1-4.416-1.425,6.271,6.271,0,0,1-2.415-1.989,4.782,4.782,0,0,1-.784-2.748h0a5.587,5.587,0,0,1,2.231-4.469,8.645,8.645,0,0,1,5.688-1.832h0a8.917,8.917,0,0,1,5.919,1.9,6,6,0,0,1,2.268,4.83h-3.688A3.323,3.323,0,0,0,121.579.523a4.765,4.765,0,0,0-3.217-1.092h0a4.96,4.96,0,0,0-3.125.879A2.744,2.744,0,0,0,114.1,2.6h0A2.232,2.232,0,0,0,115.154,4.6a12.843,12.843,0,0,0,3.8,1.286A20.013,20.013,0,0,1,123.4,7.361a6.518,6.518,0,0,1,2.526,2.063,5.065,5.065,0,0,1,.82,2.924h0a5.518,5.518,0,0,1-2.3,4.627,9.611,9.611,0,0,1-5.965,1.74h0a10.744,10.744,0,0,1-4.554-.916,7.406,7.406,0,0,1-3.1-2.554,6.137,6.137,0,0,1-1.125-3.544h3.669a3.813,3.813,0,0,0,1.475,2.924,5.668,5.668,0,0,0,3.632,1.092h0a5.846,5.846,0,0,0,3.337-.851A2.593,2.593,0,0,0,123.082,12.607Zm17.027,3.109h0a5.268,5.268,0,0,0,3.429-1.194,4.2,4.2,0,0,0,1.623-2.989h3.466a6.76,6.76,0,0,1-1.263,3.525,8.431,8.431,0,0,1-3.125,2.665,8.981,8.981,0,0,1-4.13.99h0a8.8,8.8,0,0,1-6.96-2.933q-2.581-2.933-2.581-8.022h0V7.148a13.041,13.041,0,0,1,1.143-5.589,8.794,8.794,0,0,1,3.3-3.794,9.293,9.293,0,0,1,5.08-1.36h0a8.562,8.562,0,0,1,5.992,2.174,7.745,7.745,0,0,1,2.544,5.626h-3.466A5.066,5.066,0,0,0,143.585.773a4.874,4.874,0,0,0-3.494-1.342h0a5.11,5.11,0,0,0-4.324,2.017,9.487,9.487,0,0,0-1.54,5.839h0v.694a9.294,9.294,0,0,0,1.53,5.728A5.133,5.133,0,0,0,140.109,15.716Zm23-19.024V.106A11.081,11.081,0,0,0,161.3-.032h0a4.834,4.834,0,0,0-4.9,3.081h0V18.316h-3.66V-3.2h3.568l.055,2.489a5.7,5.7,0,0,1,5.107-2.887h0a3.686,3.686,0,0,1,1.632.287Zm7.348.111V18.316h-3.669V-3.2Zm-3.964-5.7h0a2.185,2.185,0,0,1,.544-1.508,2.032,2.032,0,0,1,1.613-.62,2.061,2.061,0,0,1,1.623.62,2.164,2.164,0,0,1,.553,1.508,2.118,2.118,0,0,1-.553,1.49,2.113,2.113,0,0,1-1.623.592,2.083,2.083,0,0,1-1.613-.592A2.139,2.139,0,0,1,166.494-8.9ZM194.418,7.463V7.8a12.935,12.935,0,0,1-2.24,7.921,7.152,7.152,0,0,1-6.057,3h0a7.842,7.842,0,0,1-6.14-2.489h0V26.589h-3.66V-3.2h3.346l.175,2.387a7.542,7.542,0,0,1,6.223-2.785h0a7.276,7.276,0,0,1,6.1,2.924q2.249,2.924,2.249,8.133Zm-3.66-.083h0a9.52,9.52,0,0,0-1.549-5.746,4.969,4.969,0,0,0-4.241-2.1h0a5.375,5.375,0,0,0-4.987,2.961h0v10.28a5.392,5.392,0,0,0,5.034,2.942h0a4.947,4.947,0,0,0,4.185-2.1Q190.758,11.515,190.758,7.379ZM200.383-8.4h3.66v5.2h4v2.85h-4V12.987a3,3,0,0,0,.535,1.943,2.249,2.249,0,0,0,1.825.648h0a8.733,8.733,0,0,0,1.742-.241h0v2.979a10.588,10.588,0,0,1-2.812.4h0a4.57,4.57,0,0,1-3.706-1.49,6.436,6.436,0,0,1-1.245-4.238h0V-.347h-3.9V-3.2h3.9Z" transform="translate(-23.314 11.025)" fill="#285943"/></g></g></g></g></g></svg>