<svg xmlns="http://www.w3.org/2000/svg" xmlns:xlink="http://www.w3.org/1999/xlink" width="204" height="292" viewBox="0 0 204 292"><defs><filter id="a" x="1.876" y="70.409" width="204.248" height="224.59" filterUnits="userSpaceOnUse"><feOffset dx="2" dy="4" input="SourceAlpha"/><feGaussianBlur stdDeviation="4" result="b"/><feFlood flood-color="#4a3958"/><feComposite operator="in" in2="b"/><feComposite in="SourceGraphic"/></filter><clipPath id="d"><rect width="204" height="292"/></clipPath></defs><g id="c" clip-path="url(#d)"><g transform="translate(-6189.624 -5330)"><g transform="translate(241.755)"><g transform="translate(251)"><g transform="translate(23.694 -326)"><g transform="translate(5687.251 5736.264)"><g transform="matrix(1, 0, 0, 1, -14.08, -80.26)" filter="url(#a)"><path d="M110.816,213.646a14.584,14.584,0,0,1-3.841-.517L45.161,195.963a14.556,14.556,0,0,1-10.55-12.671L20.843,28.829A14.488,14.488,0,0,1,35.27,13.056H186.552a14.487,14.487,0,0,1,14.427,15.766L187.193,183.268a14.557,14.557,0,0,1-10.559,12.673l-61.95,17.182a14.629,14.629,0,0,1-3.868.524Z" transform="translate(-8.91 65.35)" fill="#f8ffe5"/></g><path d="M98.331,189.086a12.343,12.343,0,0,1-3.309-.454L41.781,173.568a12.714,12.714,0,0,1-9.087-11.119L20.835,26.9a12.906,12.906,0,0,1,3.218-9.705,12.4,12.4,0,0,1,9.208-4.137h130.3a12.4,12.4,0,0,1,9.208,4.137,12.9,12.9,0,0,1,3.218,9.7L164.115,162.427a12.715,12.715,0,0,1-9.095,11.121l-53.358,15.078a12.383,12.383,0,0,1-3.332.46Z" transform="translate(-9.467 -2.882)" fill="#285943"/><path d="M157.852,168.233l11.58-129.159H108.8v142.7Z" transform="translate(-17.885 -12.555)" fill="#3fb17f"/></g></g></g></g></g><path d="M23.949,38.448H17.722L5.058,70.166.836,80.739l6.227,2.709,3.356-8.4H31.253l3.356,8.4,6.227-2.709L36.614,70.166,23.949,38.448ZM28.435,68h-15.2l7.6-19.031Z" transform="translate(41.164 62.552)" fill="#f8ffe5"/><path d="M0,32V77H7.778V59.692H27.222V52.769H7.778V38.923H35V32Z" transform="translate(127 162.919)" fill="#285943"/><path d="M-.5,31.5h36v7.923H8.278V52.269H27.722v7.923H8.278V77.5H-.5Zm35,1H.5v44H7.278V59.192H26.722V53.269H7.278V38.423H34.5Z" transform="translate(127 162.919)" fill="#3fb17f"/><g transform="translate(-6742.822 -5336.155)"><g transform="translate(6824.822 5482.155)"><path d="M39.374,43.112a20.621,20.621,0,0,0-26.133,0c-7.482,6.224-7.482,16.312,0,22.537a20.621,20.621,0,0,0,26.133,0L44.8,70.16a29.4,29.4,0,0,1-36.966,0c-10.475-8.714-10.475-22.835,0-31.549a29.4,29.4,0,0,1,36.966,0l-5.423,4.511Z" transform="translate(0.203 -32.044)" fill="#285943"/><path d="M23.036,32.107A25.667,25.667,0,0,0,6.986,38.6C-7.672,50.747,1.275,76.04,23.076,77.107V70.32C2.012,64.523,5.225,48.459,11.815,43.1a18.685,18.685,0,0,1,8.1-4.219,7.853,7.853,0,0,1,3.124-.278" transform="translate(0.203 -32.107)" fill="#f8ffe5"/></g></g></g></svg>