<svg xmlns="http://www.w3.org/2000/svg" xmlns:xlink="http://www.w3.org/1999/xlink" width="200" height="280" viewBox="0 0 200 280"><defs><filter id="a" x="0" y="59" width="204.248" height="224.59" filterUnits="userSpaceOnUse"><feOffset dx="2" dy="4" input="SourceAlpha"/><feGaussianBlur stdDeviation="4" result="b"/><feFlood flood-color="#4a3958"/><feComposite operator="in" in2="b"/><feComposite in="SourceGraphic"/></filter><clipPath id="d"><rect width="200" height="280"/></clipPath></defs><g id="c" clip-path="url(#d)"><g transform="translate(-7270 -5358.214)"><g transform="translate(-3 13.992)"><g transform="translate(1081.5 2.814)"><g transform="translate(241.755)"><g transform="translate(251)"><g transform="translate(23.694 -326)"><g transform="translate(5687.251 5736.264)"><g transform="matrix(1, 0, 0, 1, -12.2, -68.86)" filter="url(#a)"><path d="M110.816,213.646a14.584,14.584,0,0,1-3.841-.517L45.161,195.963a14.556,14.556,0,0,1-10.55-12.671L20.843,28.829A14.488,14.488,0,0,1,35.27,13.056H186.552a14.487,14.487,0,0,1,14.427,15.766L187.193,183.268a14.557,14.557,0,0,1-10.559,12.673l-61.95,17.182a14.629,14.629,0,0,1-3.868.524Z" transform="translate(-10.79 53.94)" fill="#f8ffe5"/></g><path d="M98.331,189.086a12.343,12.343,0,0,1-3.309-.454L41.781,173.568a12.714,12.714,0,0,1-9.087-11.119L20.835,26.9a12.906,12.906,0,0,1,3.218-9.705,12.4,12.4,0,0,1,9.208-4.137h130.3a12.4,12.4,0,0,1,9.208,4.137,12.9,12.9,0,0,1,3.218,9.7L164.115,162.427a12.715,12.715,0,0,1-9.095,11.121l-53.358,15.078a12.383,12.383,0,0,1-3.332.46Z" transform="translate(-9.467 -2.882)" fill="#285943"/><path d="M157.852,168.233l11.58-129.159H108.8v142.7Z" transform="translate(-17.885 -12.555)" fill="#3fb17f"/></g></g></g></g></g><g transform="translate(7440.6 5612.466)"><g transform="translate(-163.361 -222.522)"><g transform="translate(38.4 64)"><circle cx="49.166" cy="49.166" r="49.166" transform="translate(8.194 8.194)" fill="rgba(40,89,67,0)"/><path d="M97.6,151.686A54.083,54.083,0,1,1,151.686,97.6,54.145,54.145,0,0,1,97.6,151.686Zm0-99.972A45.889,45.889,0,1,0,143.492,97.6,45.941,45.941,0,0,0,97.6,51.714Z" transform="translate(-40.242 -40.242)" fill="#007f5f"/><path d="M141.029,110.305a20.4,20.4,0,0,0-5.6-14.05,28.151,28.151,0,0,0-.882-13.055c-7.334,0-13.3,5.649-14.262,6.556H99.3c-.965-.9-6.587-6.556-13.921-6.556a29.853,29.853,0,0,0-1.386,11.956,20.418,20.418,0,0,0,13.765,35.57h4.01a11.273,11.273,0,0,0-6.556,8.194c-3.278,0-7.972-.3-10.13-3.537-4.032-6.047-5.884-6.047-7.9-6.047s-2.18,2.016-.164,4.032,2.016,2.016,4.032,6.047c1.659,3.322,5.966,6.062,14.16,6.062v10.817s10.4,2.294,13.93,2.294,13.93-2.294,13.93-2.294V140.815a11.215,11.215,0,0,0-6.556-10.087h4.014a20.432,20.432,0,0,0,20.5-20.422Z" transform="translate(-51.78 -54.52)" fill="#f8ffe5"/><path d="M101.288,148.815A47.478,47.478,0,1,1,146.7,115.352a.819.819,0,0,1-1.565-.483A45.9,45.9,0,1,0,127.865,138.7a.819.819,0,0,1,.951,1.334A47.213,47.213,0,0,1,101.288,148.815Z" transform="translate(-43.927 -43.927)" fill="#285943"/><path d="M175.582,183.371a1.2,1.2,0,0,1-.882-.38,1.054,1.054,0,0,1,.119-1.549,64.51,64.51,0,0,0,4.951-4.471,1.22,1.22,0,0,1,1.647-.05,1.053,1.053,0,0,1,.054,1.552,66.858,66.858,0,0,1-5.125,4.631,1.206,1.206,0,0,1-.763.268Z" transform="translate(-89.2 -88.39)" fill="#f8ffe5"/><path d="M185.273,169.15a.972.972,0,0,1-.765-1.572,54.713,54.713,0,0,0,7.677-13.514.968.968,0,1,1,1.8.713,56.569,56.569,0,0,1-7.95,14,.952.952,0,0,1-.761.376Z" transform="translate(-91.717 -81.198)" fill="#f8ffe5"/><path d="M122.609,156.653a.82.82,0,0,1-.819-.819V140.354a10.348,10.348,0,0,0-6.077-9.343.819.819,0,0,1,.341-1.563h4.014a19.6,19.6,0,0,0,14.3-33.089.819.819,0,0,1-.211-.708,27.53,27.53,0,0,0-.67-12.079c-6.034.266-11.136,4.466-13.09,6.306a.875.875,0,0,1-.577.236H98.834a.819.819,0,0,1-.561-.221l-.151-.143c-5.044-4.8-9.553-6.041-12.614-6.179A29.136,29.136,0,0,0,84.341,94.6a.822.822,0,0,1-.264.7,19.6,19.6,0,0,0,13.216,34.146h4.01a.82.82,0,0,1,.341,1.565,10.473,10.473,0,0,0-6.088,7.58.819.819,0,0,1-.808.688c-3.824,0-8.507-.444-10.813-3.9-3.787-5.682-5.376-5.682-7.216-5.682-.229,0-.631.038-.734.292-.141.338.051,1.239,1.15,2.34,2.109,2.109,2.149,2.188,4.186,6.261,1.806,3.615,6.575,5.607,13.427,5.607a.82.82,0,0,1,.819.819v10.817a.819.819,0,0,1-1.639,0V145.828c-9.5-.215-12.891-4.138-14.075-6.5-1.957-3.912-1.957-3.912-3.878-5.834-1.424-1.424-1.988-2.966-1.506-4.127a2.264,2.264,0,0,1,2.249-1.3c2.6,0,4.605.446,8.58,6.411,1.752,2.629,5.5,3.114,8.778,3.166a11.877,11.877,0,0,1,4.31-6.551H97.292A21.237,21.237,0,0,1,82.668,94.374,30.78,30.78,0,0,1,84.136,82.48a.823.823,0,0,1,.778-.561c3.337,0,8.509,1.141,14.245,6.556H119.5c2.339-2.149,7.944-6.556,14.583-6.556a.823.823,0,0,1,.778.561,29.094,29.094,0,0,1,.98,13.054,21.239,21.239,0,0,1-15.771,35.552h-1.136a11.917,11.917,0,0,1,4.5,9.268v15.479a.82.82,0,0,1-.819.819Z" transform="translate(-51.318 -54.059)" fill="#1f212b"/><path d="M87.189,114.009a.819.819,0,0,1-.757-1.128,16.222,16.222,0,0,1,3.371-5.159.82.82,0,0,1,1.182,1.137,14.585,14.585,0,0,0-3.035,4.64.821.821,0,0,1-.76.51Z" transform="translate(-55.66 -63.253)" fill="#1f212b"/><path d="M85.6,126.936a.821.821,0,0,1-.808-.692,16.525,16.525,0,0,1-.2-2.553,16.861,16.861,0,0,1,.2-2.606.82.82,0,0,1,1.619.256,15.183,15.183,0,0,0-.184,2.35,14.862,14.862,0,0,0,.179,2.3.82.82,0,0,1-.682.937A.842.842,0,0,1,85.6,126.936Z" transform="translate(-55.023 -67.902)" fill="#1f212b"/><path d="M98.977,144.44a.8.8,0,0,1-.139-.011A16.5,16.5,0,0,1,86.307,134.2a.819.819,0,0,1,1.526-.595,14.84,14.84,0,0,0,11.279,9.2.82.82,0,0,1-.134,1.627Z" transform="translate(-55.617 -72.47)" fill="#1f212b"/></g></g></g></g><g transform="translate(7379.073 5137.234)"><g transform="translate(-82.855 235.98)"><g transform="translate(0 0)"><path d="M185.518,55.714a8.829,8.829,0,0,0,7.419-3.65q2.772-3.65,2.772-9.665v-.388q0-6.274-2.735-9.9a8.88,8.88,0,0,0-7.5-3.613,9.094,9.094,0,0,0-7.493,3.372V17.98h-4.49V55.234h4.121l.222-3.031a9.153,9.153,0,0,0,7.687,3.511m-1.164-23.4a5.845,5.845,0,0,1,5.091,2.5q1.774,2.495,1.774,7.077,0,5.026-1.792,7.521a5.834,5.834,0,0,1-5.026,2.495,6.766,6.766,0,0,1-6.421-4.121V36.441a6.585,6.585,0,0,1,6.375-4.13m-29.733,23.4q5.072,0,7.687-3.077l.1,2.6h4.269V28.994h-4.49V48.082q-1.7,3.825-6.837,3.825-4.851,0-4.851-5.959V28.994h-4.49V46.068q.028,4.777,2.217,7.216a8.183,8.183,0,0,0,6.394,2.43m-52.49,0a13.089,13.089,0,0,0,3.446-.48v-3.64a10.7,10.7,0,0,1-2.134.3,2.741,2.741,0,0,1-2.227-.795,3.624,3.624,0,0,1-.656-2.365V32.458h4.9V28.994h-4.9V22.637H96.07v6.357H91.294v3.465H96.07V48.729A7.811,7.811,0,0,0,97.6,53.9a5.584,5.584,0,0,0,4.527,1.811m-39.259,0a20.278,20.278,0,0,0,7.475-1.266A10.815,10.815,0,0,0,75.365,50.6V37.651H62.549V41.43h8.177v7.937a7.1,7.1,0,0,1-3.252,1.959,16.155,16.155,0,0,1-4.583.582,8.807,8.807,0,0,1-7.345-3.5q-2.716-3.5-2.716-9.443V36.071q.018-6.227,2.439-9.517a8.242,8.242,0,0,1,7.1-3.289q7.031,0,8.334,7.013h4.666a12.338,12.338,0,0,0-4.13-8.02,13.42,13.42,0,0,0-8.9-2.818q-6.745,0-10.468,4.389T48.145,36.191v3.086a19.791,19.791,0,0,0,1.885,8.657A13.478,13.478,0,0,0,55.2,53.691a14.521,14.521,0,0,0,7.669,2.023m75.672-.48V19.92H133.86V35.1h-17.8V19.92H111.4V55.234h4.657V38.908h17.8V55.234h4.684m-51.252,0V28.994H82.8v26.24h4.49M85.085,24.577a2.572,2.572,0,0,0,1.987-.73,2.539,2.539,0,0,0,.684-1.82,2.626,2.626,0,0,0-.684-1.839,2.538,2.538,0,0,0-1.987-.748,2.508,2.508,0,0,0-1.977.748,2.668,2.668,0,0,0-.665,1.839,2.58,2.58,0,0,0,.665,1.82,2.542,2.542,0,0,0,1.977.73M185.518,60.714a15.834,15.834,0,0,1-5.69-1,4.982,4.982,0,0,1-2.219.518h-4.121a4.983,4.983,0,0,1-3.4-1.338,4.983,4.983,0,0,1-3.4,1.338H162.41a4.984,4.984,0,0,1-2.04-.434,17.312,17.312,0,0,1-5.749.914,15.368,15.368,0,0,1-5.472-.934,11.853,11.853,0,0,1-4.629-3.141l-.013-.015a11.953,11.953,0,0,1-.965-1.228,5,5,0,0,1-5,4.837H133.86a5,5,0,0,1-5-5V43.908h-7.8V55.234a5,5,0,0,1-5,5H111.4a4.977,4.977,0,0,1-2.91-.934,4.99,4.99,0,0,1-1.6.758,18.145,18.145,0,0,1-4.76.656,10.426,10.426,0,0,1-8.352-3.591,10.566,10.566,0,0,1-1.486-2.329v.439a5,5,0,0,1-5,5H82.8a5,5,0,0,1-5-4.782A16.252,16.252,0,0,1,72.191,59.1l-.007,0a25.315,25.315,0,0,1-9.311,1.615,19.511,19.511,0,0,1-10.257-2.745,18.459,18.459,0,0,1-7.076-7.834,24.824,24.824,0,0,1-2.395-10.811q0-.023,0-.047V36.191c0-6.509,1.652-11.756,4.911-15.6a16.777,16.777,0,0,1,6.358-4.668,20.4,20.4,0,0,1,7.923-1.486,18.316,18.316,0,0,1,12.1,3.981l.006.005a15.847,15.847,0,0,1,3,3.336,7.616,7.616,0,0,1,1.924-4.9,7.5,7.5,0,0,1,5.714-2.426,7.4,7.4,0,0,1,5.685,2.384,7.522,7.522,0,0,1,1.53,2.529,4.988,4.988,0,0,1,3.771-1.717h4.49a5,5,0,0,1,5,5v1.358a5.021,5.021,0,0,1,.838.087V19.92a5,5,0,0,1,5-5h4.657a5,5,0,0,1,5,5V30.1h7.8V19.92a5,5,0,0,1,5-5h4.684a5,5,0,0,1,5,5v4.722a4.978,4.978,0,0,1,2.466-.649h4.49a5,5,0,0,1,5,5V45.948a6.615,6.615,0,0,0,.06.957,3.6,3.6,0,0,0,1.627-.317h0V28.994a5,5,0,0,1,5-5h4.49a4.988,4.988,0,0,1,1.809.337V17.98a5,5,0,0,1,5-5h4.49a5,5,0,0,1,5,5v5.7a16.923,16.923,0,0,1,2.493-.18,13.861,13.861,0,0,1,11.494,5.6c2.484,3.289,3.744,7.632,3.744,12.907V42.4c0,5.1-1.274,9.372-3.785,12.682h0A13.811,13.811,0,0,1,185.518,60.714Zm-2.539-14.339a1.67,1.67,0,0,0,1.421.533c.67,0,.781-.155.966-.412.2-.278.853-1.433.853-4.6,0-2.6-.532-3.734-.849-4.18l-.012-.017c-.157-.223-.271-.384-1-.384a1.562,1.562,0,0,0-1.375.486ZM59.594,45.464a3.824,3.824,0,0,0,3.3,1.444,12.143,12.143,0,0,0,2.835-.288v-.19H62.549A4.978,4.978,0,0,1,59.594,45.464Zm45.983,1.13a5,5,0,0,1,.821.068V37.37a5.02,5.02,0,0,1-.838.087v9.136ZM62.365,28.265c-1.89,0-2.589.6-3.064,1.246l-.005.007c-.657.893-1.442,2.741-1.466,6.478a5,5,0,0,1,4.72-3.345H66.3a4.994,4.994,0,0,1-.514-1.46,4.272,4.272,0,0,0-1.038-2.347A3.992,3.992,0,0,0,62.365,28.265Z" transform="translate(-48.145 -17.98)" fill="#f8ffe5"/><g transform="translate(0 0)"><path d="M75.365,37.651V50.6a10.815,10.815,0,0,1-5.017,3.844,20.278,20.278,0,0,1-7.475,1.266h0A14.521,14.521,0,0,1,55.2,53.691a13.478,13.478,0,0,1-5.174-5.756,19.79,19.79,0,0,1-1.885-8.657h0V36.191q0-7.974,3.724-12.362T62.337,19.44h0a13.42,13.42,0,0,1,8.9,2.818,12.338,12.338,0,0,1,4.13,8.02H70.7q-1.3-7.013-8.334-7.013h0a8.242,8.242,0,0,0-7.1,3.289q-2.421,3.289-2.439,9.517h0v2.892q0,5.941,2.716,9.443a8.807,8.807,0,0,0,7.345,3.5h0a16.155,16.155,0,0,0,4.583-.582,7.1,7.1,0,0,0,3.252-1.959h0V41.43H62.549V37.651Zm11.928-8.657v26.24H82.8V28.994Zm-4.851-6.967h0a2.668,2.668,0,0,1,.665-1.839,2.508,2.508,0,0,1,1.977-.748,2.538,2.538,0,0,1,1.986.748,2.626,2.626,0,0,1,.684,1.839,2.539,2.539,0,0,1-.684,1.82,2.572,2.572,0,0,1-1.986.73,2.542,2.542,0,0,1-1.977-.73A2.579,2.579,0,0,1,82.442,22.027Zm13.628.61h4.49v6.357h4.9v3.465h-4.9V48.729a3.624,3.624,0,0,0,.656,2.365,2.741,2.741,0,0,0,2.227.795h0a10.7,10.7,0,0,0,2.134-.3h0v3.64a13.089,13.089,0,0,1-3.446.48h0A5.584,5.584,0,0,1,97.6,53.9a7.811,7.811,0,0,1-1.534-5.174h0V32.458H91.294V28.994H96.07Zm42.474-2.716V55.234H133.86V38.908h-17.8V55.234H111.4V19.92h4.657V35.1h17.8V19.92ZM162.41,55.234l-.1-2.6q-2.615,3.077-7.687,3.077h0a8.183,8.183,0,0,1-6.394-2.43q-2.19-2.439-2.217-7.216h0V28.994h4.49V45.948q0,5.959,4.851,5.959h0q5.137,0,6.837-3.825h0V28.994h4.49v26.24Zm33.3-13.222V42.4q0,6.015-2.772,9.665a8.829,8.829,0,0,1-7.419,3.65h0a9.153,9.153,0,0,1-7.687-3.511h0l-.222,3.031h-4.121V17.98h4.49v13.9a9.094,9.094,0,0,1,7.493-3.372,8.88,8.88,0,0,1,7.5,3.613Q195.709,35.738,195.709,42.012Zm-4.49-.12h0q0-4.583-1.774-7.077a5.845,5.845,0,0,0-5.091-2.5h0a6.585,6.585,0,0,0-6.375,4.13h0V47.787a6.766,6.766,0,0,0,6.421,4.121h0a5.834,5.834,0,0,0,5.026-2.495Q191.219,46.918,191.219,41.892Z" transform="translate(-48.145 -17.98)" fill="#285943"/></g></g></g></g></g></g></svg>