<svg xmlns="http://www.w3.org/2000/svg" xmlns:xlink="http://www.w3.org/1999/xlink" width="200" height="280" viewBox="0 0 200 280"><defs><filter id="a" x="0" y="59" width="204.248" height="224.59" filterUnits="userSpaceOnUse"><feOffset dx="2" dy="4" input="SourceAlpha"/><feGaussianBlur stdDeviation="4" result="b"/><feFlood flood-color="#4a3958"/><feComposite operator="in" in2="b"/><feComposite in="SourceGraphic"/></filter><clipPath id="d"><rect width="200" height="280"/></clipPath></defs><g id="c" clip-path="url(#d)"><g transform="translate(-6196.683 -4744.187)"><g transform="translate(248.907 -608.187)"><g transform="translate(5938.976 5379.078)"><path d="M24.28-10.243l4.2,18.207.51,3.5.748-3.154L35-10.243h2.958L43.082,8.313l.731,3.213.569-3.579,4.131-18.19h3.519L45.59,16.346h-3.2L36.911-3.026l-.417-2.032L36.07-3.026,30.392,16.346H27.2L20.77-10.243ZM53.937,6.281a11.687,11.687,0,0,1,1.139-5.219,8.475,8.475,0,0,1,3.179-3.579A8.6,8.6,0,0,1,62.9-3.783a8.341,8.341,0,0,1,6.528,2.8,10.769,10.769,0,0,1,2.491,7.438v.229a11.8,11.8,0,0,1-1.105,5.185,8.425,8.425,0,0,1-3.162,3.57,8.769,8.769,0,0,1-4.718,1.275,8.305,8.305,0,0,1-6.511-2.8,10.686,10.686,0,0,1-2.491-7.395Zm3.391.4a8.43,8.43,0,0,0,1.53,5.279,5.154,5.154,0,0,0,8.169-.026A9.248,9.248,0,0,0,68.54,6.281,8.472,8.472,0,0,0,67,1.012,4.912,4.912,0,0,0,62.9-1,4.847,4.847,0,0,0,58.867.986a9.146,9.146,0,0,0-1.538,5.695ZM85.71-.382A10.154,10.154,0,0,0,84.044-.51a4.442,4.442,0,0,0-4.505,2.831V16.346H76.156V-3.417h3.29L79.5-1.131a5.27,5.27,0,0,1,4.718-2.652,3.352,3.352,0,0,1,1.5.263ZM87.648,6.3a11.574,11.574,0,0,1,2.15-7.31,6.819,6.819,0,0,1,5.644-2.771,6.856,6.856,0,0,1,5.5,2.38V-11.7h3.375v28.05h-3.1l-.162-2.117a6.891,6.891,0,0,1-5.644,2.482,6.758,6.758,0,0,1-5.6-2.813,11.734,11.734,0,0,1-2.159-7.344Zm3.375.383a8.769,8.769,0,0,0,1.385,5.261,4.5,4.5,0,0,0,3.842,1.9,4.927,4.927,0,0,0,4.692-2.89V1.879A4.976,4.976,0,0,0,96.284-.909,4.526,4.526,0,0,0,92.408,1a9.669,9.669,0,0,0-1.385,5.678Zm35.224,0a11.886,11.886,0,0,1-2.057,7.276,6.625,6.625,0,0,1-5.593,2.754,7.244,7.244,0,0,1-5.661-2.287v9.52h-3.374V-3.417h3.086l.161,2.193a6.964,6.964,0,0,1,5.738-2.559A6.74,6.74,0,0,1,124.181-1.1q2.065,2.686,2.065,7.472ZM122.872,6.3a8.722,8.722,0,0,0-1.428-5.279,4.579,4.579,0,0,0-3.9-1.93,4.977,4.977,0,0,0-4.607,2.72v9.443a4.986,4.986,0,0,0,4.641,2.7,4.552,4.552,0,0,0,3.859-1.93A9.531,9.531,0,0,0,122.872,6.3ZM140.093-.382a10.154,10.154,0,0,0-1.666-.128,4.442,4.442,0,0,0-4.505,2.831V16.346h-3.383V-3.417h3.289l.051,2.287A5.27,5.27,0,0,1,138.6-3.783a3.352,3.352,0,0,1,1.5.263Zm10.956,17.094a8.63,8.63,0,0,1-6.536-2.635,9.8,9.8,0,0,1-2.525-7.064V6.392a11.806,11.806,0,0,1,1.131-5.253,8.794,8.794,0,0,1,3.136-3.613,7.878,7.878,0,0,1,4.378-1.309,7.384,7.384,0,0,1,5.984,2.542q2.142,2.541,2.142,7.267V7.437H145.371a6.991,6.991,0,0,0,1.708,4.718,5.351,5.351,0,0,0,4.148,1.8,5.885,5.885,0,0,0,3.035-.731,7.663,7.663,0,0,0,2.176-1.938l2.066,1.607a8.311,8.311,0,0,1-7.455,3.817ZM150.633-1A4.5,4.5,0,0,0,147.2.485a7.181,7.181,0,0,0-1.717,4.173h9.894V4.4A6.451,6.451,0,0,0,153.99.408,4.244,4.244,0,0,0,150.633-1Zm23.536,12.1a2.485,2.485,0,0,0-1.029-2.125,10.062,10.062,0,0,0-3.6-1.309,16.935,16.935,0,0,1-4.071-1.309,5.777,5.777,0,0,1-2.227-1.828,4.381,4.381,0,0,1-.723-2.525A5.126,5.126,0,0,1,164.573-2.1a8.025,8.025,0,0,1,5.253-1.683,8.228,8.228,0,0,1,5.449,1.743A5.508,5.508,0,0,1,177.365,2.4h-3.4A3.056,3.056,0,0,0,172.792,0a4.424,4.424,0,0,0-2.967-1,4.623,4.623,0,0,0-2.89.808A2.524,2.524,0,0,0,165.9,1.9a2.048,2.048,0,0,0,.969,1.844,11.733,11.733,0,0,0,3.494,1.181,18.3,18.3,0,0,1,4.1,1.352,6,6,0,0,1,2.329,1.9,4.64,4.64,0,0,1,.757,2.686,5.062,5.062,0,0,1-2.117,4.25,8.885,8.885,0,0,1-5.5,1.6,9.938,9.938,0,0,1-4.2-.841,6.894,6.894,0,0,1-2.856-2.346,5.656,5.656,0,0,1-1.029-3.255h3.374a3.5,3.5,0,0,0,1.36,2.686,5.261,5.261,0,0,0,3.349,1,5.448,5.448,0,0,0,3.086-.782,2.383,2.383,0,0,0,1.156-2.074Zm19.286,0a2.478,2.478,0,0,0-1.037-2.125,9.962,9.962,0,0,0-3.6-1.309,16.935,16.935,0,0,1-4.071-1.309,5.777,5.777,0,0,1-2.227-1.828,4.381,4.381,0,0,1-.723-2.525A5.126,5.126,0,0,1,183.859-2.1,7.99,7.99,0,0,1,189.1-3.783a8.242,8.242,0,0,1,5.457,1.743A5.508,5.508,0,0,1,196.652,2.4h-3.4A3.048,3.048,0,0,0,192.07,0,4.4,4.4,0,0,0,189.1-1a4.585,4.585,0,0,0-2.882.808,2.517,2.517,0,0,0-1.046,2.1,2.048,2.048,0,0,0,.969,1.844,11.871,11.871,0,0,0,3.5,1.181,18.5,18.5,0,0,1,4.1,1.352,6,6,0,0,1,2.329,1.9,4.64,4.64,0,0,1,.757,2.686,5.062,5.062,0,0,1-2.117,4.25,8.885,8.885,0,0,1-5.5,1.6,9.938,9.938,0,0,1-4.2-.841,6.823,6.823,0,0,1-2.856-2.346,5.624,5.624,0,0,1-1.037-3.255h3.383a3.5,3.5,0,0,0,1.36,2.686,5.239,5.239,0,0,0,3.349,1,5.406,5.406,0,0,0,3.077-.782,2.38,2.38,0,0,0,1.164-2.074Z" fill="#f8ffe5"/><path d="M100.942-11.7V-1.4a6.856,6.856,0,0,0-5.5-2.38A6.819,6.819,0,0,0,89.8-1.012a11.574,11.574,0,0,0-2.15,7.31v.255A11.734,11.734,0,0,0,89.807,13.9a6.758,6.758,0,0,0,5.6,2.813,6.891,6.891,0,0,0,5.644-2.482l.161,2.116h3.1V-11.7h-3.375M96.25,13.846a4.5,4.5,0,0,1-3.842-1.9,8.769,8.769,0,0,1-1.385-5.261A9.669,9.669,0,0,1,92.408,1,4.526,4.526,0,0,1,96.284-.91a4.976,4.976,0,0,1,4.658,2.788v9.078a4.927,4.927,0,0,1-4.692,2.89M20.77-10.243,27.2,16.345h3.2L36.07-3.026l.425-2.031.416,2.031,5.482,19.372h3.2l6.443-26.588H48.514L44.383,7.947l-.57,3.578-.731-3.213L37.957-10.243H35L29.737,8.313l-.748,3.153-.51-3.5-4.2-18.207H20.77M62.9-3.783a8.6,8.6,0,0,0-4.65,1.266,8.475,8.475,0,0,0-3.179,3.578,11.687,11.687,0,0,0-1.139,5.219v.238a10.686,10.686,0,0,0,2.491,7.395,8.305,8.305,0,0,0,6.511,2.8,8.769,8.769,0,0,0,4.717-1.275,8.425,8.425,0,0,0,3.162-3.57,11.8,11.8,0,0,0,1.1-5.185V6.451a10.769,10.769,0,0,0-2.49-7.438,8.341,8.341,0,0,0-6.528-2.8m.034,17.74a4.867,4.867,0,0,1-4.08-2,8.43,8.43,0,0,1-1.53-5.279,9.146,9.146,0,0,1,1.538-5.7A4.847,4.847,0,0,1,62.9-1,4.913,4.913,0,0,1,67,1.011a8.472,8.472,0,0,1,1.538,5.27,9.248,9.248,0,0,1-1.513,5.652,4.84,4.84,0,0,1-4.089,2.023M84.214-3.783A5.27,5.27,0,0,0,79.5-1.131l-.051-2.286h-3.29V16.345h3.383V2.32A4.442,4.442,0,0,1,84.044-.51a10.155,10.155,0,0,1,1.666.127V-3.519a3.352,3.352,0,0,0-1.5-.263m34.331,0a6.964,6.964,0,0,0-5.737,2.558l-.162-2.193h-3.085V23.944h3.374v-9.52a7.244,7.244,0,0,0,5.661,2.286,6.625,6.625,0,0,0,5.593-2.754,11.886,11.886,0,0,0,2.057-7.276V6.375q0-4.786-2.066-7.471a6.74,6.74,0,0,0-5.635-2.686m-.969,17.74a4.986,4.986,0,0,1-4.641-2.7V1.81a4.977,4.977,0,0,1,4.607-2.72,4.579,4.579,0,0,1,3.9,1.929A8.722,8.722,0,0,1,122.872,6.3a9.531,9.531,0,0,1-1.437,5.729,4.552,4.552,0,0,1-3.859,1.93M138.6-3.783a5.27,5.27,0,0,0-4.717,2.652l-.051-2.286h-3.29V16.345h3.383V2.32a4.442,4.442,0,0,1,4.5-2.83,10.154,10.154,0,0,1,1.666.127V-3.519a3.352,3.352,0,0,0-1.5-.263m12.036,0a7.878,7.878,0,0,0-4.378,1.309,8.794,8.794,0,0,0-3.137,3.612,11.806,11.806,0,0,0-1.13,5.253v.621a9.8,9.8,0,0,0,2.524,7.063,8.63,8.63,0,0,0,6.537,2.635,8.311,8.311,0,0,0,7.454-3.816l-2.065-1.607a7.663,7.663,0,0,1-2.176,1.938,5.884,5.884,0,0,1-3.034.731,5.351,5.351,0,0,1-4.148-1.8,6.991,6.991,0,0,1-1.708-4.718h13.387V6.026q0-4.726-2.142-7.267a7.384,7.384,0,0,0-5.984-2.542m4.743,8.44h-9.894A7.181,7.181,0,0,1,147.2.484,4.5,4.5,0,0,1,150.633-1,4.244,4.244,0,0,1,153.99.408a6.451,6.451,0,0,1,1.385,4v.255m14.45-8.44A8.025,8.025,0,0,0,164.573-2.1a5.126,5.126,0,0,0-2.057,4.106,4.381,4.381,0,0,0,.723,2.524,5.777,5.777,0,0,0,2.227,1.827,16.936,16.936,0,0,0,4.072,1.309,10.062,10.062,0,0,1,3.6,1.309,2.485,2.485,0,0,1,1.029,2.125,2.383,2.383,0,0,1-1.156,2.074,5.448,5.448,0,0,1-3.085.782,5.261,5.261,0,0,1-3.349-1,3.5,3.5,0,0,1-1.36-2.686h-3.375a5.656,5.656,0,0,0,1.029,3.255,6.894,6.894,0,0,0,2.856,2.346,9.938,9.938,0,0,0,4.2.841,8.885,8.885,0,0,0,5.5-1.6,5.062,5.062,0,0,0,2.117-4.25,4.64,4.64,0,0,0-.757-2.686,6,6,0,0,0-2.329-1.9,18.3,18.3,0,0,0-4.1-1.352,11.733,11.733,0,0,1-3.493-1.181A2.048,2.048,0,0,1,165.9,1.9a2.524,2.524,0,0,1,1.037-2.1A4.623,4.623,0,0,1,169.826-1a4.424,4.424,0,0,1,2.966,1,3.056,3.056,0,0,1,1.173,2.4h3.4a5.508,5.508,0,0,0-2.091-4.437,8.228,8.228,0,0,0-5.449-1.742m19.278,0A7.99,7.99,0,0,0,183.859-2.1,5.126,5.126,0,0,0,181.8,2.006a4.381,4.381,0,0,0,.723,2.524,5.777,5.777,0,0,0,2.227,1.827,16.935,16.935,0,0,0,4.071,1.309,9.962,9.962,0,0,1,3.6,1.309,2.478,2.478,0,0,1,1.037,2.125,2.38,2.38,0,0,1-1.165,2.074,5.406,5.406,0,0,1-3.077.782,5.239,5.239,0,0,1-3.349-1,3.5,3.5,0,0,1-1.36-2.686h-3.383a5.624,5.624,0,0,0,1.037,3.255,6.823,6.823,0,0,0,2.856,2.346,9.938,9.938,0,0,0,4.2.841,8.885,8.885,0,0,0,5.5-1.6,5.062,5.062,0,0,0,2.117-4.25,4.64,4.64,0,0,0-.757-2.686,6.005,6.005,0,0,0-2.329-1.9,18.5,18.5,0,0,0-4.1-1.352,11.87,11.87,0,0,1-3.5-1.181,2.048,2.048,0,0,1-.969-1.845,2.517,2.517,0,0,1,1.046-2.1A4.585,4.585,0,0,1,189.1-1a4.4,4.4,0,0,1,2.967,1,3.048,3.048,0,0,1,1.181,2.4h3.4a5.508,5.508,0,0,0-2.091-4.437A8.242,8.242,0,0,0,189.1-3.783M100.942-16.7h3.375a5,5,0,0,1,5,5v3.293q.121-.006.244-.006h3.085a4.99,4.99,0,0,1,1.673.287,13.38,13.38,0,0,1,4.226-.653A11.787,11.787,0,0,1,126.3-6.074a5,5,0,0,1,4.236-2.343h3.29a5,5,0,0,1,1.331.179,10.784,10.784,0,0,1,3.438-.545,8.09,8.09,0,0,1,3.791.821,5,5,0,0,1,1.434,1.111,12.809,12.809,0,0,1,6.811-1.932,12.334,12.334,0,0,1,9.525,4,11.7,11.7,0,0,1,1.249-1.182,12.919,12.919,0,0,1,8.419-2.813,13.114,13.114,0,0,1,8.647,2.9,11.664,11.664,0,0,1,1.061,1,11.752,11.752,0,0,1,1.156-1.082A12.884,12.884,0,0,1,189.1-8.783a13.127,13.127,0,0,1,8.656,2.9,10.458,10.458,0,0,1,3.892,8.28,4.981,4.981,0,0,1-1.234,3.289,9.627,9.627,0,0,1,1.413,5.177,10.055,10.055,0,0,1-4.1,8.24,13.781,13.781,0,0,1-8.512,2.608,14.931,14.931,0,0,1-6.29-1.3,12.22,12.22,0,0,1-3.37-2.269,11.1,11.1,0,0,1-1.114.961,13.781,13.781,0,0,1-8.512,2.608,14.931,14.931,0,0,1-6.29-1.3l-.008,0a12.325,12.325,0,0,1-3.2-2.113,12.665,12.665,0,0,1-2.761,1.913,14.391,14.391,0,0,1-6.624,1.5A13.665,13.665,0,0,1,140.9,17.529a13.507,13.507,0,0,1-1.975-2.652v1.468a5,5,0,0,1-5,5h-3.383a5,5,0,0,1-4.249-2.362,11.323,11.323,0,0,1-2.323,1.525,12.046,12.046,0,0,1-5.371,1.2q-.337,0-.661-.014v2.247a5,5,0,0,1-5,5h-3.374a5,5,0,0,1-5-5v-2.6c-.081,0-.163.006-.244.006h-3.1a4.991,4.991,0,0,1-1.632-.273,13.34,13.34,0,0,1-4.174.638,11.71,11.71,0,0,1-9.562-4.762l-.006-.007a14.285,14.285,0,0,1-1.3-2.031v1.435a5,5,0,0,1-5,5H76.156a5,5,0,0,1-4.433-2.686,13.466,13.466,0,0,1-1.42,1.018l-.013.008a13.731,13.731,0,0,1-7.352,2.025A13.319,13.319,0,0,1,52.693,17.24,14.076,14.076,0,0,1,51.06,15l-.611,2.521a5,5,0,0,1-4.859,3.822h-3.2a5,5,0,0,1-4.811-3.638l-1.169-4.13L35.19,17.752a5,5,0,0,1-4.8,3.594H27.2a5,5,0,0,1-4.86-3.825L15.91-9.068a5,5,0,0,1,.931-4.267,5,5,0,0,1,3.929-1.908h3.51a5,5,0,0,1,4.872,3.876l.434,1.882.6-2.123A5,5,0,0,1,35-15.243h2.958a5,5,0,0,1,4.82,3.669l.5,1.813.361-1.589a5,5,0,0,1,4.876-3.893h3.519a5,5,0,0,1,3.93,1.909,5,5,0,0,1,.929,4.269L56.45-7.241A13.692,13.692,0,0,1,62.9-8.783a13.479,13.479,0,0,1,8.811,3.066,5,5,0,0,1,4.441-2.7h3.29a5,5,0,0,1,1.331.179,10.784,10.784,0,0,1,3.438-.545A8.09,8.09,0,0,1,88-7.961a5,5,0,0,1,1.2.863,11.878,11.878,0,0,1,6.241-1.684q.251,0,.5.008V-11.7A5,5,0,0,1,100.942-16.7ZM62.989,4c-.022,0-.05,0-.085,0h-.045l-.029.037-.008.011a4.558,4.558,0,0,0-.493,2.636,3.9,3.9,0,0,0,.493,2.23l.014.019.019.025c.022,0,.05,0,.083,0l.073,0,.012-.016.006-.008a4.593,4.593,0,0,0,.511-2.65,4.028,4.028,0,0,0-.511-2.234C63.013,4.028,63,4.013,62.989,4Z" fill="#f8ffe5"/><path d="M24.28-10.243l4.2,18.207.51,3.5.748-3.154L35-10.243h2.958L43.082,8.313l.731,3.213.569-3.579,4.131-18.19h3.519L45.59,16.346h-3.2L36.911-3.026l-.417-2.032L36.07-3.026,30.392,16.346H27.2L20.77-10.243ZM53.937,6.52V6.281a11.687,11.687,0,0,1,1.139-5.219,8.475,8.475,0,0,1,3.179-3.579A8.6,8.6,0,0,1,62.9-3.783h0a8.341,8.341,0,0,1,6.528,2.8,10.769,10.769,0,0,1,2.491,7.438h0v.229a11.8,11.8,0,0,1-1.105,5.185,8.425,8.425,0,0,1-3.162,3.57,8.769,8.769,0,0,1-4.718,1.275h0a8.305,8.305,0,0,1-6.511-2.8,10.686,10.686,0,0,1-2.491-7.395Zm3.391.161h0a8.43,8.43,0,0,0,1.53,5.279,4.867,4.867,0,0,0,4.08,2h0a4.84,4.84,0,0,0,4.089-2.023A9.248,9.248,0,0,0,68.54,6.281h0A8.472,8.472,0,0,0,67,1.012,4.912,4.912,0,0,0,62.9-1h0A4.847,4.847,0,0,0,58.867.986a9.146,9.146,0,0,0-1.538,5.695ZM85.71-3.519V-.382A10.154,10.154,0,0,0,84.044-.51h0a4.442,4.442,0,0,0-4.505,2.83h0V16.346H76.156V-3.417h3.29L79.5-1.131a5.27,5.27,0,0,1,4.718-2.652h0a3.352,3.352,0,0,1,1.5.263ZM87.648,6.554V6.3a11.574,11.574,0,0,1,2.15-7.31,6.819,6.819,0,0,1,5.644-2.771h0a6.856,6.856,0,0,1,5.5,2.38h0V-11.7h3.375v28.05h-3.1l-.162-2.117a6.891,6.891,0,0,1-5.644,2.482h0a6.758,6.758,0,0,1-5.6-2.813A11.734,11.734,0,0,1,87.648,6.554Zm3.375.128h0a8.769,8.769,0,0,0,1.385,5.261,4.5,4.5,0,0,0,3.842,1.9h0a4.927,4.927,0,0,0,4.692-2.89h0V1.879A4.976,4.976,0,0,0,96.284-.909h0A4.526,4.526,0,0,0,92.408,1a9.669,9.669,0,0,0-1.385,5.678Zm35.224-.306v.306a11.886,11.886,0,0,1-2.057,7.276,6.625,6.625,0,0,1-5.593,2.754h0a7.244,7.244,0,0,1-5.661-2.287h0v9.52h-3.374V-3.417h3.086l.161,2.193a6.964,6.964,0,0,1,5.738-2.559h0A6.74,6.74,0,0,1,124.181-1.1q2.065,2.686,2.065,7.472ZM122.872,6.3h0a8.722,8.722,0,0,0-1.428-5.279,4.579,4.579,0,0,0-3.9-1.93h0a4.977,4.977,0,0,0-4.607,2.72h0v9.443a4.986,4.986,0,0,0,4.641,2.7h0a4.552,4.552,0,0,0,3.859-1.93A9.531,9.531,0,0,0,122.872,6.3Zm17.221-9.818V-.382a10.154,10.154,0,0,0-1.666-.127h0a4.442,4.442,0,0,0-4.505,2.83h0V16.346h-3.383V-3.417h3.289l.051,2.287A5.27,5.27,0,0,1,138.6-3.783h0a3.352,3.352,0,0,1,1.5.263Zm10.956,20.23h0a8.63,8.63,0,0,1-6.536-2.635,9.8,9.8,0,0,1-2.525-7.064h0V6.392a11.806,11.806,0,0,1,1.131-5.253,8.794,8.794,0,0,1,3.136-3.613,7.878,7.878,0,0,1,4.378-1.309h0a7.384,7.384,0,0,1,5.984,2.542q2.142,2.541,2.142,7.267h0V7.437H145.371a6.991,6.991,0,0,0,1.708,4.718,5.351,5.351,0,0,0,4.148,1.8h0a5.885,5.885,0,0,0,3.035-.731,7.663,7.663,0,0,0,2.176-1.938h0l2.066,1.607a8.311,8.311,0,0,1-7.455,3.817ZM150.633-1h0A4.5,4.5,0,0,0,147.2.485a7.181,7.181,0,0,0-1.717,4.173h9.894V4.4A6.451,6.451,0,0,0,153.99.408,4.244,4.244,0,0,0,150.633-1Zm23.536,12.1h0a2.485,2.485,0,0,0-1.029-2.125,10.062,10.062,0,0,0-3.6-1.309,16.935,16.935,0,0,1-4.071-1.309,5.777,5.777,0,0,1-2.227-1.828,4.381,4.381,0,0,1-.723-2.525h0A5.126,5.126,0,0,1,164.573-2.1a8.025,8.025,0,0,1,5.253-1.683h0a8.228,8.228,0,0,1,5.449,1.743A5.508,5.508,0,0,1,177.365,2.4h-3.4A3.056,3.056,0,0,0,172.792,0a4.424,4.424,0,0,0-2.967-1h0a4.623,4.623,0,0,0-2.89.808A2.524,2.524,0,0,0,165.9,1.9h0a2.048,2.048,0,0,0,.969,1.844,11.733,11.733,0,0,0,3.494,1.181,18.3,18.3,0,0,1,4.1,1.352,6,6,0,0,1,2.329,1.9,4.64,4.64,0,0,1,.757,2.686h0a5.062,5.062,0,0,1-2.117,4.25,8.885,8.885,0,0,1-5.5,1.6h0a9.938,9.938,0,0,1-4.2-.841,6.894,6.894,0,0,1-2.856-2.346,5.656,5.656,0,0,1-1.029-3.255h3.374a3.5,3.5,0,0,0,1.36,2.686,5.261,5.261,0,0,0,3.349,1h0a5.448,5.448,0,0,0,3.086-.782,2.383,2.383,0,0,0,1.156-2.074Zm19.286,0h0a2.478,2.478,0,0,0-1.037-2.125,9.962,9.962,0,0,0-3.6-1.309,16.935,16.935,0,0,1-4.071-1.309,5.777,5.777,0,0,1-2.227-1.828,4.381,4.381,0,0,1-.723-2.525h0A5.126,5.126,0,0,1,183.859-2.1,7.99,7.99,0,0,1,189.1-3.783h0a8.242,8.242,0,0,1,5.457,1.743A5.508,5.508,0,0,1,196.652,2.4h-3.4A3.048,3.048,0,0,0,192.07,0,4.4,4.4,0,0,0,189.1-1h0a4.585,4.585,0,0,0-2.882.808,2.517,2.517,0,0,0-1.046,2.1h0a2.048,2.048,0,0,0,.969,1.844,11.871,11.871,0,0,0,3.5,1.181,18.5,18.5,0,0,1,4.1,1.352,6,6,0,0,1,2.329,1.9,4.64,4.64,0,0,1,.757,2.686h0a5.062,5.062,0,0,1-2.117,4.25,8.885,8.885,0,0,1-5.5,1.6h0a9.938,9.938,0,0,1-4.2-.841,6.823,6.823,0,0,1-2.856-2.346,5.624,5.624,0,0,1-1.037-3.255h3.383a3.5,3.5,0,0,0,1.36,2.686,5.239,5.239,0,0,0,3.349,1h0a5.406,5.406,0,0,0,3.077-.782,2.38,2.38,0,0,0,1.164-2.074Z" fill="#285943"/></g></g><g transform="translate(0 6.777)"><g transform="translate(497.813 -604)"><g transform="translate(23.818 -326)"><g transform="translate(5687.251 5736.264)"><g transform="matrix(1, 0, 0, 1, -12.2, -68.85)" filter="url(#a)"><path d="M110.816,213.646a14.584,14.584,0,0,1-3.841-.517L45.161,195.963a14.556,14.556,0,0,1-10.55-12.671L20.843,28.829A14.488,14.488,0,0,1,35.27,13.056H186.552a14.487,14.487,0,0,1,14.427,15.766L187.193,183.268a14.557,14.557,0,0,1-10.559,12.673l-61.95,17.182a14.629,14.629,0,0,1-3.868.524Z" transform="translate(-10.79 53.94)" fill="#f8ffe5"/></g><path d="M98.331,189.086a12.343,12.343,0,0,1-3.309-.454L41.781,173.568a12.714,12.714,0,0,1-9.087-11.119L20.835,26.9a12.906,12.906,0,0,1,3.218-9.705,12.4,12.4,0,0,1,9.208-4.137h130.3a12.4,12.4,0,0,1,9.208,4.137,12.9,12.9,0,0,1,3.218,9.7L164.115,162.427a12.715,12.715,0,0,1-9.095,11.121l-53.358,15.078a12.383,12.383,0,0,1-3.332.46Z" transform="translate(-9.467 -2.882)" fill="#285943"/><path d="M157.852,168.233l11.58-129.159H108.8v142.7Z" transform="translate(-17.885 -12.555)" fill="#3fb17f"/></g></g></g><g transform="translate(0 3.204)"><path d="M20.992,47.048l24.556,67.258A51.481,51.481,0,0,1,20.992,47.048Zm81.75,18.363c0-6.363-2.274-10.766-4.234-14.2-2.613-4.234-5.056-7.839-5.056-12.073,0-4.742,3.581-9.145,8.637-9.145.218,0,.435.024.677.048a51.465,51.465,0,0,0-77.782,9.677c1.21.048,2.347.073,3.315.073,5.371,0,13.718-.653,13.718-.653a2.124,2.124,0,0,1,.339,4.234s-2.782.315-5.879.484L55.226,99.6,66.5,65.823,58.492,43.855c-2.782-.169-5.4-.484-5.4-.484-2.782-.169-2.444-4.4.315-4.234,0,0,8.492.653,13.548.653,5.371,0,13.718-.653,13.718-.653a2.124,2.124,0,0,1,.339,4.234s-2.782.315-5.879.484l18.6,55.331,5.129-17.153c2.177-7.113,3.871-12.218,3.871-16.621ZM68.9,72.5,53.46,117.379a51.285,51.285,0,0,0,31.621-.823,3.856,3.856,0,0,1-.363-.7Zm44.274-29.2a40.1,40.1,0,0,1,.339,5.3,48.353,48.353,0,0,1-3.919,18.435l-15.726,45.46A51.521,51.521,0,0,0,113.169,43.3ZM128,68A60,60,0,1,1,68,8,60.067,60.067,0,0,1,128,68Zm-2.758,0A57.242,57.242,0,1,0,68,125.242,57.31,57.31,0,0,0,125.242,68Z" transform="translate(6228.683 4833.5)" fill="#f8ffe5"/></g></g></g></g></svg>