<svg xmlns="http://www.w3.org/2000/svg" xmlns:xlink="http://www.w3.org/1999/xlink" width="200" height="280" viewBox="0 0 200 280"><defs><filter id="a" x="0" y="59" width="204.248" height="224.59" filterUnits="userSpaceOnUse"><feOffset dx="2" dy="4" input="SourceAlpha"/><feGaussianBlur stdDeviation="4" result="b"/><feFlood flood-color="#4a3958"/><feComposite operator="in" in2="b"/><feComposite in="SourceGraphic"/></filter><clipPath id="d"><rect width="200" height="280"/></clipPath></defs><g id="c" clip-path="url(#d)"><g transform="translate(-5698.746 -5341.409)"><g transform="translate(23.694 -326)"><g transform="translate(5687.251 5736.264)"><g transform="matrix(1, 0, 0, 1, -12.2, -68.85)" filter="url(#a)"><path d="M110.816,213.646a14.584,14.584,0,0,1-3.841-.517L45.161,195.963a14.556,14.556,0,0,1-10.55-12.671L20.843,28.829A14.488,14.488,0,0,1,35.27,13.056H186.552a14.487,14.487,0,0,1,14.427,15.766L187.193,183.268a14.557,14.557,0,0,1-10.559,12.673l-61.95,17.182a14.629,14.629,0,0,1-3.868.524Z" transform="translate(-10.79 53.94)" fill="#f8ffe5"/></g><path d="M98.331,189.086a12.343,12.343,0,0,1-3.309-.454L41.781,173.568a12.714,12.714,0,0,1-9.087-11.119L20.835,26.9a12.906,12.906,0,0,1,3.218-9.705,12.4,12.4,0,0,1,9.208-4.137h130.3a12.4,12.4,0,0,1,9.208,4.137,12.9,12.9,0,0,1,3.218,9.7L164.115,162.427a12.715,12.715,0,0,1-9.095,11.121l-53.358,15.078a12.383,12.383,0,0,1-3.332.46Z" transform="translate(-9.467 -2.882)" fill="#285943"/><path d="M157.852,168.233l11.58-129.159H108.8v142.7Z" transform="translate(-17.885 -12.555)" fill="#3fb17f"/></g></g><path d="M199.6,149.5a7.365,7.365,0,0,1-7.2,7.5H178.8V142h13.6A7.365,7.365,0,0,1,199.6,149.5Zm9.6,0c0-9.657-7.528-17.5-16.8-17.5H169.2v50h9.6V167h13.6C201.672,167,209.2,159.157,209.2,149.5Z" transform="translate(5572.669 5299)" fill="#f8ffe5"/><path d="M199.6,149.5a7.365,7.365,0,0,1-7.2,7.5H178.8V142h13.6A7.365,7.365,0,0,1,199.6,149.5Zm9.6,0c0-9.657-7.528-17.5-16.8-17.5H169.2v50h9.6V167h13.6C201.672,167,209.2,159.157,209.2,149.5Z" transform="translate(5652.669 5387)" fill="#285943"/><path d="M168.7,131.5h23.7c9.538,0,17.3,8.075,17.3,18s-7.76,18-17.3,18H179.3v15H168.7Zm23.7,35c8.986,0,16.3-7.626,16.3-17s-7.311-17-16.3-17H169.7v49h8.6v-15Zm-14.1-25h14.1a8.006,8.006,0,0,1,0,16H178.3Zm14.1,15a7.007,7.007,0,0,0,0-14H179.3v14Z" transform="translate(5652.669 5387)" fill="#3fb17f"/><g transform="translate(-42.631 -227.861)"><path d="M20,59.424V51.515H9.205V31.744c.017.023-9.209,0-9.209,0V81.666H9.205V59.424Z" transform="translate(5824.504 5661.195)" fill="#f8ffe5"/><path d="M30.788,59.424V81.666c.006-.021,9.209,0,9.209,0V31.744H30.788V51.515H20c0,.021.016,7.865,0,7.908Z" transform="translate(5824.504 5661.195)" fill="#285943"/></g></g></g></svg>