<svg xmlns="http://www.w3.org/2000/svg" xmlns:xlink="http://www.w3.org/1999/xlink" width="200" height="280" viewBox="0 0 200 280"><defs><filter id="a" x="0" y="59" width="204.248" height="224.59" filterUnits="userSpaceOnUse"><feOffset dx="2" dy="4" input="SourceAlpha"/><feGaussianBlur stdDeviation="4" result="b"/><feFlood flood-color="#4a3958"/><feComposite operator="in" in2="b"/><feComposite in="SourceGraphic"/></filter><clipPath id="d"><rect width="200" height="280"/></clipPath></defs><g id="c" clip-path="url(#d)"><g transform="translate(12.199 68.855)"><g transform="matrix(1, 0, 0, 1, -12.2, -68.85)" filter="url(#a)"><path d="M110.816,213.646a14.584,14.584,0,0,1-3.841-.517L45.161,195.963a14.556,14.556,0,0,1-10.55-12.671L20.843,28.829A14.488,14.488,0,0,1,35.27,13.056H186.552a14.487,14.487,0,0,1,14.427,15.766L187.193,183.268a14.557,14.557,0,0,1-10.559,12.673l-61.95,17.182a14.629,14.629,0,0,1-3.868.524Z" transform="translate(-10.79 53.94)" fill="#f8ffe5"/></g><path d="M98.331,189.086a12.343,12.343,0,0,1-3.309-.454L41.781,173.568a12.714,12.714,0,0,1-9.087-11.119L20.835,26.9a12.906,12.906,0,0,1,3.218-9.705,12.4,12.4,0,0,1,9.208-4.137h130.3a12.4,12.4,0,0,1,9.208,4.137,12.9,12.9,0,0,1,3.218,9.7L164.115,162.427a12.715,12.715,0,0,1-9.095,11.121l-53.358,15.078a12.383,12.383,0,0,1-3.332.46Z" transform="translate(-9.467 -2.882)" fill="#285943"/><path d="M157.852,168.233l11.58-129.159H108.8v142.7Z" transform="translate(-17.885 -12.555)" fill="#3fb17f"/></g><g transform="translate(-15.2 24.8)"><g transform="translate(0 -6.356)"><g transform="translate(-13.801 -7.55)"><path d="M96.865,4.107V38.963H92.247V22.856H74.681V38.963h-4.6V4.107h4.6V19.1H92.247V4.107Zm31.548,0V7.9h-11.2V38.963h-4.572V7.9H101.461V4.107Zm5.17,0h5.94l11.4,28.434L162.3,4.107h5.963V38.963h-4.6V25.384l.425-14.648L152.665,38.963h-3.527L137.73,10.816l.448,14.567V38.963h-4.6Zm47.413,0v31.1h16.521v3.757H176.378V4.107Z" transform="translate(0 0)" fill="#f8ffe5"/><path d="M70.086,4.107V38.963h4.6V22.856H92.247V38.963h4.618V4.107H92.247V19.1H74.681V4.107h-4.6m31.375,0V7.9h11.178V38.963h4.572V7.9h11.2V4.107H101.461m32.122,0V38.963h4.6V25.384l-.448-14.567,11.408,28.147h3.527L164.1,10.736l-.425,14.648V38.963h4.6V4.107H162.3L150.919,32.541l-11.4-28.434h-5.94m42.795,0V38.963h21.139V35.206H181V4.107h-4.618m-106.292-5h4.6a5,5,0,0,1,5,5V14.1h7.566V4.107a5,5,0,0,1,5-5h4.618a4.979,4.979,0,0,1,2.3.558,4.978,4.978,0,0,1,2.3-.558h26.952A4.976,4.976,0,0,1,131-.174a4.976,4.976,0,0,1,2.585-.719h5.94a5,5,0,0,1,4.641,3.14L150.917,19.1l6.746-16.847A5,5,0,0,1,162.3-.893h5.963a4.994,4.994,0,0,1,4.055,2.075,4.994,4.994,0,0,1,4.055-2.075H181a5,5,0,0,1,5,5v26.1h11.521a5,5,0,0,1,5,5v3.757a5,5,0,0,1-5,5H176.378a4.994,4.994,0,0,1-4.055-2.075,4.994,4.994,0,0,1-4.055,2.075h-4.6a5,5,0,0,1-5-5v-1.51L157.3,40.84a5,5,0,0,1-4.634,3.123h-3.527a5,5,0,0,1-4.634-3.122l-1.326-3.272v1.394a5,5,0,0,1-5,5h-4.6a5,5,0,0,1-5-5V12.9l-.17,0h-6.2V38.963a5,5,0,0,1-5,5h-4.572a5,5,0,0,1-5-5V12.9h-5.774V38.963a5,5,0,0,1-5,5H92.247a5,5,0,0,1-5-5V27.856H79.681V38.963a5,5,0,0,1-5,5h-4.6a5,5,0,0,1-5-5V4.107A5,5,0,0,1,70.086-.893Z" transform="translate(0 0)" fill="#f8ffe5"/><g transform="translate(70.086 4.107)"><path d="M96.865,4.107V38.963H92.247V22.856H74.681V38.963h-4.6V4.107h4.6V19.1H92.247V4.107Zm31.547,0V7.9h-11.2V38.963h-4.572V7.9H101.461V4.107Zm5.17,0h5.94l11.4,28.434L162.3,4.107h5.963V38.963h-4.6V25.384l.425-14.648L152.665,38.963h-3.527L137.73,10.816l.448,14.567V38.963h-4.6Zm47.413,0v31.1h16.52v3.757H176.377V4.107Z" transform="translate(-70.086 -4.107)" fill="#285943"/></g></g></g><g transform="translate(-0.24 -1)"><path d="M115.2,120V100.8h41.28L153.12,156,115.2,168.48V148.32l19.68-6.72,1.44-21.6Zm42.72-38.4,1.44-19.2H115.2V81.6Z" transform="translate(4.8 28.8)" fill="#f8ffe5"/><path d="M115.2,148.32v20.16L77.28,156l-1.92-26.4h19.2l.96,12ZM91.68,81.6H115.2V62.4H71.52L74.88,120H115.2V100.8H93.12Z" transform="translate(4.8 28.8)" fill="#f8ffe5"/></g></g></g></svg>