<svg xmlns="http://www.w3.org/2000/svg" xmlns:xlink="http://www.w3.org/1999/xlink" width="200" height="280" viewBox="0 0 200 280"><defs><filter id="a" x="0" y="59" width="204.248" height="224.59" filterUnits="userSpaceOnUse"><feOffset dx="2" dy="4" input="SourceAlpha"/><feGaussianBlur stdDeviation="4" result="b"/><feFlood flood-color="#4a3958"/><feComposite operator="in" in2="b"/><feComposite in="SourceGraphic"/></filter><clipPath id="d"><rect width="200" height="280"/></clipPath></defs><g id="c" clip-path="url(#d)"><g transform="translate(-7763.124 -5359)"><g transform="translate(0.124 6.162)"><g transform="translate(490 8.615)"><g transform="translate(1081.5 2.814)"><g transform="translate(241.755)"><g transform="translate(251)"><g transform="translate(23.694 -326)"><g transform="translate(5687.251 5736.264)"><g transform="matrix(1, 0, 0, 1, -12.2, -68.86)" filter="url(#a)"><path d="M110.816,213.646a14.584,14.584,0,0,1-3.841-.517L45.161,195.963a14.556,14.556,0,0,1-10.55-12.671L20.843,28.829A14.488,14.488,0,0,1,35.27,13.056H186.552a14.487,14.487,0,0,1,14.427,15.766L187.193,183.268a14.557,14.557,0,0,1-10.559,12.673l-61.95,17.182a14.629,14.629,0,0,1-3.868.524Z" transform="translate(-10.79 53.94)" fill="#f8ffe5"/></g><path d="M98.331,189.086a12.343,12.343,0,0,1-3.309-.454L41.781,173.568a12.714,12.714,0,0,1-9.087-11.119L20.835,26.9a12.906,12.906,0,0,1,3.218-9.705,12.4,12.4,0,0,1,9.208-4.137h130.3a12.4,12.4,0,0,1,9.208,4.137,12.9,12.9,0,0,1,3.218,9.7L164.115,162.427a12.715,12.715,0,0,1-9.095,11.121l-53.358,15.078a12.383,12.383,0,0,1-3.332.46Z" transform="translate(-9.467 -2.882)" fill="#285943"/><path d="M157.852,168.233l11.58-129.159H108.8v142.7Z" transform="translate(-17.885 -12.555)" fill="#3fb17f"/></g></g></g></g></g></g><path d="M73.788,66.652c0-4.521-3.191-7.016-8.8-7.016H54.683V74.2h8.694C70.086,74.18,73.788,71.48,73.788,66.652Zm37.536-2.618c-1.943-6.321-2.23-14.074-2-20.067A11.444,11.444,0,0,0,98.131,32H30.872A11.443,11.443,0,0,0,19.683,43.967c.2,5.994-.061,13.746-2,20.067C15.714,70.375,12.421,74.385,7,74.9v5.83c5.4.511,8.714,4.521,10.678,10.862,1.943,6.321,2.23,14.074,2,20.067a11.444,11.444,0,0,0,11.189,11.967H98.11A11.443,11.443,0,0,0,109.3,111.655c-.2-5.994.061-13.746,2-20.067,1.964-6.341,5.257-10.351,10.657-10.862V74.9C116.582,74.385,113.268,70.375,111.325,64.034Zm-44.348,38.15H46.95V53.438H66.874c8.857,0,14.667,4.787,14.667,12.151a10.859,10.859,0,0,1-8.9,10.6v.266C79.434,77.187,84,81.892,84,88.376,84,96.988,77.593,102.184,66.977,102.184ZM64.931,79.949H54.683V95.986h10.7c7,0,10.7-2.8,10.7-8.08C76.079,82.649,72.275,79.949,64.931,79.949Z" transform="translate(7801.625 5441.531)" fill="#f8ffe5"/></g><g transform="translate(7752.829 5358.66)"><g transform="translate(20.567 15.34)"><path d="M30.605,47.521V17.34h9.867q4.91,0,7.389,2.027a7.334,7.334,0,0,1,2.478,6.016,6.154,6.154,0,0,1-1.2,3.74,7.766,7.766,0,0,1-3.28,2.515,7.031,7.031,0,0,1,3.869,2.607,7.465,7.465,0,0,1,1.419,4.57A8.069,8.069,0,0,1,48.515,45.2q-2.635,2.322-7.444,2.322Zm3.98-14.114V44.269h6.569a6.3,6.3,0,0,0,4.385-1.446,5.046,5.046,0,0,0,1.612-3.971q0-5.445-5.933-5.445Zm0-12.787V30.21H40.6a6.33,6.33,0,0,0,4.173-1.3,4.379,4.379,0,0,0,1.566-3.547,4.3,4.3,0,0,0-1.456-3.621,7.148,7.148,0,0,0-4.413-1.124ZM55.415,36.1a13.18,13.18,0,0,1,1.3-5.924,9.666,9.666,0,0,1,3.611-4.063,9.793,9.793,0,0,1,5.27-1.428,9.484,9.484,0,0,1,7.416,3.169,12.189,12.189,0,0,1,2.828,8.43v.276a13.4,13.4,0,0,1-1.253,5.878,9.551,9.551,0,0,1-3.593,4.044,9.893,9.893,0,0,1-5.353,1.456,9.435,9.435,0,0,1-7.389-3.169,12.145,12.145,0,0,1-2.838-8.4Zm3.86.461a9.581,9.581,0,0,0,1.732,5.988,5.873,5.873,0,0,0,9.277-.028A10.544,10.544,0,0,0,72,36.1a9.59,9.59,0,0,0-1.75-5.979A5.562,5.562,0,0,0,65.6,27.824a5.5,5.5,0,0,0-4.579,2.266A10.408,10.408,0,0,0,59.275,36.558Zm20.36-.461a13.258,13.258,0,0,1,1.29-5.924,9.666,9.666,0,0,1,3.611-4.063,9.793,9.793,0,0,1,5.27-1.428,9.484,9.484,0,0,1,7.416,3.169,12.189,12.189,0,0,1,2.828,8.43v.276A13.4,13.4,0,0,1,98.8,42.436a9.551,9.551,0,0,1-3.593,4.044,9.893,9.893,0,0,1-5.353,1.456,9.435,9.435,0,0,1-7.389-3.169,12.169,12.169,0,0,1-2.828-8.4Zm3.851.461a9.581,9.581,0,0,0,1.732,5.988,5.873,5.873,0,0,0,9.277-.028A10.5,10.5,0,0,0,96.218,36.1a9.555,9.555,0,0,0-1.76-5.979,5.562,5.562,0,0,0-4.652-2.294,5.5,5.5,0,0,0-4.579,2.266,10.408,10.408,0,0,0-1.741,6.467Zm22.737-16.9h3.842v5.426h4.183v2.967h-4.183V41.966a3.125,3.125,0,0,0,.553,2.018,2.346,2.346,0,0,0,1.907.682,8.971,8.971,0,0,0,1.824-.258v3.114a11.084,11.084,0,0,1-2.939.415,4.779,4.779,0,0,1-3.879-1.557,6.65,6.65,0,0,1-1.308-4.413V28.054h-4.081V25.088h4.081ZM131.789,41.57a2.825,2.825,0,0,0-1.179-2.414,11.357,11.357,0,0,0-4.081-1.483A19.1,19.1,0,0,1,121.9,36.18a6.539,6.539,0,0,1-2.524-2.073,4.932,4.932,0,0,1-.82-2.856,5.817,5.817,0,0,1,2.331-4.662,9.106,9.106,0,0,1,5.961-1.907,9.407,9.407,0,0,1,6.191,1.962,6.267,6.267,0,0,1,2.368,5.039h-3.851a3.47,3.47,0,0,0-1.336-2.718,5.028,5.028,0,0,0-3.372-1.142,5.191,5.191,0,0,0-3.271.921,2.843,2.843,0,0,0-1.188,2.377,2.314,2.314,0,0,0,1.106,2.091,13.387,13.387,0,0,0,3.962,1.354,20.293,20.293,0,0,1,4.652,1.529,6.775,6.775,0,0,1,2.644,2.147,5.248,5.248,0,0,1,.866,3.059,5.741,5.741,0,0,1-2.4,4.818,10.078,10.078,0,0,1-6.237,1.815,11.259,11.259,0,0,1-4.772-.958,7.7,7.7,0,0,1-3.243-2.662,6.4,6.4,0,0,1-1.17-3.694h3.833a3.965,3.965,0,0,0,1.548,3.059,6.005,6.005,0,0,0,3.8,1.124,6.217,6.217,0,0,0,3.492-.875,2.717,2.717,0,0,0,1.317-2.358Zm10.2-21.908h3.833v5.426H150v2.967H145.82V41.966a3.088,3.088,0,0,0,.562,2.018,2.317,2.317,0,0,0,1.9.682,9.1,9.1,0,0,0,1.833-.258v3.114a11.185,11.185,0,0,1-2.948.415,4.779,4.779,0,0,1-3.879-1.557,6.683,6.683,0,0,1-1.3-4.413V28.054H137.9V25.088h4.09Zm23.336,8.872a11.278,11.278,0,0,0-1.889-.147,5.046,5.046,0,0,0-5.113,3.215v15.92H154.48V25.088h3.731l.064,2.6a5.979,5.979,0,0,1,5.353-3,3.96,3.96,0,0,1,1.7.286Zm20.563,18.988H181.87a8.108,8.108,0,0,1-.544-2.358,8.558,8.558,0,0,1-6.384,2.773,7.921,7.921,0,0,1-5.445-1.879,6.062,6.062,0,0,1-2.119-4.754,6.354,6.354,0,0,1,2.663-5.445q2.663-1.935,7.49-1.935h3.731v-1.76a4.314,4.314,0,0,0-1.2-3.206,4.854,4.854,0,0,0-3.547-1.188,5.623,5.623,0,0,0-3.446,1.032,3.064,3.064,0,0,0-1.382,2.506h-3.86a5.279,5.279,0,0,1,1.2-3.243,8.209,8.209,0,0,1,3.234-2.478,10.945,10.945,0,0,1,4.487-.9,8.884,8.884,0,0,1,6.071,1.935,6.973,6.973,0,0,1,2.285,5.334V42.279a12.68,12.68,0,0,0,.783,4.91ZM175.5,44.6a6.714,6.714,0,0,0,3.418-.94,5.58,5.58,0,0,0,2.34-2.423v-4.6h-3q-7.048,0-7.048,4.118a3.493,3.493,0,0,0,1.2,2.819,4.622,4.622,0,0,0,3.1,1.023Zm34.557-8.043a13.4,13.4,0,0,1-2.349,8.245,7.5,7.5,0,0,1-6.338,3.132,8.23,8.23,0,0,1-6.431-2.589v10.8H191.11V25.088h3.5l.193,2.487a7.9,7.9,0,0,1,6.5-2.893,7.647,7.647,0,0,1,6.394,3.04q2.358,3.049,2.358,8.485Zm-3.842-.442a9.939,9.939,0,0,0-1.612-5.988,5.224,5.224,0,0,0-4.441-2.193,5.638,5.638,0,0,0-5.224,3.086V41.735a5.655,5.655,0,0,0,5.27,3.068A5.193,5.193,0,0,0,204.6,42.62Q206.219,40.427,206.219,36.116Z" transform="translate(-30.605 -17.34)" fill="#285943"/><path d="M194.943,56.144v-10.8a8.23,8.23,0,0,0,6.431,2.589,7.5,7.5,0,0,0,6.338-3.132,13.4,13.4,0,0,0,2.349-8.245v-.35q0-5.436-2.358-8.485a7.647,7.647,0,0,0-6.394-3.04,7.9,7.9,0,0,0-6.5,2.893l-.193-2.487h-3.5V56.144h3.833m5.224-28.21a5.224,5.224,0,0,1,4.441,2.193,9.939,9.939,0,0,1,1.612,5.988q0,4.312-1.621,6.5a5.193,5.193,0,0,1-4.385,2.183,5.655,5.655,0,0,1-5.27-3.068V31.021a5.638,5.638,0,0,1,5.224-3.086m-25.225,20a8.558,8.558,0,0,0,6.384-2.773,8.108,8.108,0,0,0,.544,2.359h4.017v-.332a12.68,12.68,0,0,1-.783-4.91V31.951a6.973,6.973,0,0,0-2.285-5.334,8.884,8.884,0,0,0-6.071-1.935,10.945,10.945,0,0,0-4.487.9,8.209,8.209,0,0,0-3.234,2.478,5.279,5.279,0,0,0-1.2,3.243h3.86a3.064,3.064,0,0,1,1.382-2.506,5.623,5.623,0,0,1,3.446-1.032,4.854,4.854,0,0,1,3.547,1.188,4.314,4.314,0,0,1,1.2,3.206v1.76h-3.731q-4.828,0-7.49,1.935a6.354,6.354,0,0,0-2.662,5.445,6.062,6.062,0,0,0,2.119,4.754,7.921,7.921,0,0,0,5.445,1.879M175.5,44.6h0a4.622,4.622,0,0,1-3.1-1.023,3.493,3.493,0,0,1-1.2-2.819q0-4.118,7.048-4.118h3v4.6a5.58,5.58,0,0,1-2.34,2.423,6.714,6.714,0,0,1-3.418.94m-28.339,3.335a11.185,11.185,0,0,0,2.948-.415V44.407a9.1,9.1,0,0,1-1.833.258,2.316,2.316,0,0,1-1.9-.682,3.088,3.088,0,0,1-.562-2.018V28.054H150V25.088H145.82V19.662h-3.833v5.426H137.9v2.967h4.09V41.966a6.683,6.683,0,0,0,1.3,4.413,4.78,4.78,0,0,0,3.879,1.557m-20.185,0a10.078,10.078,0,0,0,6.237-1.815,5.741,5.741,0,0,0,2.4-4.818,5.248,5.248,0,0,0-.866-3.059,6.775,6.775,0,0,0-2.644-2.147,20.292,20.292,0,0,0-4.652-1.529,13.386,13.386,0,0,1-3.962-1.354,2.314,2.314,0,0,1-1.106-2.091,2.843,2.843,0,0,1,1.188-2.377,5.191,5.191,0,0,1,3.271-.921,5.028,5.028,0,0,1,3.372,1.142,3.47,3.47,0,0,1,1.336,2.718h3.851a6.267,6.267,0,0,0-2.368-5.039,9.407,9.407,0,0,0-6.191-1.962,9.106,9.106,0,0,0-5.961,1.907,5.817,5.817,0,0,0-2.331,4.662,4.932,4.932,0,0,0,.82,2.856A6.539,6.539,0,0,0,121.9,36.18a19.105,19.105,0,0,0,4.625,1.492,11.356,11.356,0,0,1,4.081,1.483,2.825,2.825,0,0,1,1.179,2.414h0a2.717,2.717,0,0,1-1.317,2.358,6.217,6.217,0,0,1-3.492.875,6.005,6.005,0,0,1-3.8-1.124,3.965,3.965,0,0,1-1.548-3.059h-3.833a6.4,6.4,0,0,0,1.17,3.694,7.7,7.7,0,0,0,3.243,2.662,11.259,11.259,0,0,0,4.772.958m-15.57,0a11.084,11.084,0,0,0,2.939-.415V44.407a8.972,8.972,0,0,1-1.824.258,2.346,2.346,0,0,1-1.907-.682,3.125,3.125,0,0,1-.553-2.018V28.054h4.183V25.088h-4.183V19.662h-3.842v5.426h-4.081v2.967h4.081V41.966a6.65,6.65,0,0,0,1.308,4.413,4.779,4.779,0,0,0,3.879,1.557m-21.558,0a9.893,9.893,0,0,0,5.353-1.456A9.552,9.552,0,0,0,98.8,42.436a13.4,13.4,0,0,0,1.253-5.878v-.276a12.189,12.189,0,0,0-2.828-8.43,9.484,9.484,0,0,0-7.416-3.169,9.794,9.794,0,0,0-5.27,1.428,9.666,9.666,0,0,0-3.611,4.063,13.258,13.258,0,0,0-1.29,5.924v.267a12.169,12.169,0,0,0,2.828,8.4,9.435,9.435,0,0,0,7.389,3.169m-.046-20.111a5.562,5.562,0,0,1,4.652,2.294,9.554,9.554,0,0,1,1.76,5.979A10.5,10.5,0,0,1,94.5,42.519a5.873,5.873,0,0,1-9.277.028,9.58,9.58,0,0,1-1.732-5.988h0a10.409,10.409,0,0,1,1.741-6.467,5.5,5.5,0,0,1,4.579-2.266M65.641,47.936a9.893,9.893,0,0,0,5.353-1.456,9.551,9.551,0,0,0,3.593-4.044,13.4,13.4,0,0,0,1.253-5.878v-.276a12.189,12.189,0,0,0-2.828-8.43A9.484,9.484,0,0,0,65.6,24.683a9.794,9.794,0,0,0-5.27,1.428,9.666,9.666,0,0,0-3.611,4.063,13.18,13.18,0,0,0-1.3,5.924v.267a12.145,12.145,0,0,0,2.838,8.4,9.435,9.435,0,0,0,7.389,3.169M65.6,27.824a5.562,5.562,0,0,1,4.652,2.294A9.59,9.59,0,0,1,72,36.1a10.544,10.544,0,0,1-1.714,6.421,5.873,5.873,0,0,1-9.277.028,9.581,9.581,0,0,1-1.732-5.988,10.408,10.408,0,0,1,1.741-6.467A5.5,5.5,0,0,1,65.6,27.824m92.727,19.7V31.6a5.046,5.046,0,0,1,5.113-3.215,11.28,11.28,0,0,1,1.889.147V24.968a3.959,3.959,0,0,0-1.7-.286,5.98,5.98,0,0,0-5.353,3l-.064-2.6H154.48V47.521h3.842m-117.251,0q4.809,0,7.444-2.322a8.069,8.069,0,0,0,2.635-6.384,7.466,7.466,0,0,0-1.419-4.57,7.031,7.031,0,0,0-3.869-2.607,7.766,7.766,0,0,0,3.28-2.515,6.154,6.154,0,0,0,1.2-3.74,7.334,7.334,0,0,0-2.478-6.016q-2.478-2.027-7.389-2.027H30.605V47.521H41.071M34.585,33.407h6.633q5.933,0,5.933,5.445a5.046,5.046,0,0,1-1.612,3.971,6.3,6.3,0,0,1-4.385,1.446H34.585V33.407m0-12.787h5.887a7.148,7.148,0,0,1,4.413,1.124,4.3,4.3,0,0,1,1.456,3.621,4.379,4.379,0,0,1-1.566,3.547,6.33,6.33,0,0,1-4.173,1.3H34.585V20.62M194.943,61.144H191.11a5,5,0,0,1-5-5V52.516q-.111,0-.224,0H181.87a4.994,4.994,0,0,1-2.083-.454,13.644,13.644,0,0,1-4.845.869,14.227,14.227,0,0,1-4.651-.743,12.161,12.161,0,0,1-4.1-2.388,11.156,11.156,0,0,1-2.865-3.874v1.591a5,5,0,0,1-5,5H154.48a4.98,4.98,0,0,1-2.184-.5,5.009,5.009,0,0,1-.867.325,16.23,16.23,0,0,1-4.264.591,9.435,9.435,0,0,1-8.787-4.925,11.47,11.47,0,0,1-2.149,2.1,14.978,14.978,0,0,1-9.249,2.824,16.26,16.26,0,0,1-6.866-1.417,13.892,13.892,0,0,1-1.78-.977,4.992,4.992,0,0,1-2.662,1.8,16.131,16.131,0,0,1-4.262.593,9.624,9.624,0,0,1-7.705-3.339,9.859,9.859,0,0,1-1.665-2.836,14.3,14.3,0,0,1-4.19,3.963,14.859,14.859,0,0,1-8,2.212A14.469,14.469,0,0,1,78.733,48.1l0-.005a15.474,15.474,0,0,1-.979-1.218,14.291,14.291,0,0,1-4.111,3.851,14.859,14.859,0,0,1-8,2.212A14.468,14.468,0,0,1,54.522,48.1q-.477-.535-.9-1.106a12.536,12.536,0,0,1-1.8,1.961c-2.689,2.369-6.305,3.57-10.749,3.57H30.605a5,5,0,0,1-5-5V17.34a5,5,0,0,1,5-5h9.867a21.378,21.378,0,0,1,5.625.685A13.243,13.243,0,0,1,51.026,15.5l.009.007a11.833,11.833,0,0,1,4.225,8.25,14.229,14.229,0,0,1,2.439-1.9,14.763,14.763,0,0,1,7.9-2.174A15.454,15.454,0,0,1,71.7,20.877a14.237,14.237,0,0,1,5.033,3.639l.005.006a15.352,15.352,0,0,1,1,1.248,14.287,14.287,0,0,1,4.166-3.914,14.763,14.763,0,0,1,7.9-2.174,15.454,15.454,0,0,1,6.108,1.194,13.922,13.922,0,0,1,2.232,1.2,5,5,0,0,1,3.077-1.91v-.511a5,5,0,0,1,5-5h3.842a5,5,0,0,1,5,5v.493a5,5,0,0,1,3.289,2.081,14.19,14.19,0,0,1,8.5-2.553,15.027,15.027,0,0,1,7.54,1.841,4.987,4.987,0,0,1,2.6-1.353v-.509a5,5,0,0,1,5-5h3.833a5,5,0,0,1,5,5v.493a4.966,4.966,0,0,1,1.421.461,4.979,4.979,0,0,1,2.239-.528h3.731a5,5,0,0,1,1.538.241,11.517,11.517,0,0,1,3.879-.646,8.682,8.682,0,0,1,3.9.8,4.994,4.994,0,0,1,1.5,1.135q.565-.316,1.173-.59l.027-.012a15.959,15.959,0,0,1,6.513-1.332,13.737,13.737,0,0,1,9.372,3.179q.185.163.363.332a5,5,0,0,1,4.629-3.106h3.5a4.985,4.985,0,0,1,1.9.375,14.414,14.414,0,0,1,4.8-.78,12.614,12.614,0,0,1,10.35,4.983c2.257,2.918,3.4,6.8,3.4,11.542v.35A18.3,18.3,0,0,1,211.712,47.8a12.453,12.453,0,0,1-10.338,5.132q-.728,0-1.431-.061v3.269A5,5,0,0,1,194.943,61.144Zm5-21.354a2.557,2.557,0,0,0,.27.013,1.03,1.03,0,0,0,.243-.022.9.9,0,0,0,.127-.141c.118-.164.637-1.027.637-3.524a5.535,5.535,0,0,0-.639-3.024.818.818,0,0,0-.111-.126,1.1,1.1,0,0,0-.3-.031c-.085,0-.159,0-.224,0ZM89.806,32.824a.581.581,0,0,0-.614.313l-.006.008c-.21.273-.7,1.152-.7,3.413a5.18,5.18,0,0,0,.7,2.944c.173.225.231.3.667.3s.48-.068.648-.291a5.775,5.775,0,0,0,.718-3.415,4.841,4.841,0,0,0-.727-2.936l-.008-.01A.638.638,0,0,0,89.806,32.824Zm-24.211,0a.581.581,0,0,0-.614.313l-.006.008c-.211.273-.7,1.152-.7,3.413a5.18,5.18,0,0,0,.7,2.944c.173.225.231.3.667.3.421,0,.478-.066.642-.283A5.826,5.826,0,0,0,67,36.1a4.877,4.877,0,0,0-.725-2.946A.638.638,0,0,0,65.6,32.824Zm-26.01,6.445h1.569a2.675,2.675,0,0,0,.98-.132,2.016,2.016,0,0,0,.017-.285c0-.153-.007-.277-.017-.375a5.063,5.063,0,0,0-.916-.07H39.585Zm123.737-5.8V36.5q.109-.254.23-.5a10.952,10.952,0,0,1,.688-1.207A5.012,5.012,0,0,1,163.322,33.473Z" transform="translate(-30.605 -17.34)" fill="#f8ffe5"/><path d="M41.071,47.521H30.605V17.34h9.867q4.91,0,7.389,2.027a7.334,7.334,0,0,1,2.478,6.016h0a6.154,6.154,0,0,1-1.2,3.74,7.766,7.766,0,0,1-3.28,2.515h0a7.031,7.031,0,0,1,3.869,2.607,7.465,7.465,0,0,1,1.419,4.57h0A8.069,8.069,0,0,1,48.515,45.2q-2.635,2.322-7.444,2.322Zm.147-14.114H34.585V44.269h6.569a6.3,6.3,0,0,0,4.385-1.446,5.046,5.046,0,0,0,1.612-3.971h0q0-5.445-5.933-5.445ZM34.585,20.62V30.21H40.6a6.33,6.33,0,0,0,4.173-1.3,4.379,4.379,0,0,0,1.566-3.547h0a4.3,4.3,0,0,0-1.456-3.621,7.148,7.148,0,0,0-4.413-1.124H34.585Zm20.83,15.745V36.1a13.18,13.18,0,0,1,1.3-5.924,9.666,9.666,0,0,1,3.611-4.063,9.793,9.793,0,0,1,5.27-1.428h0a9.484,9.484,0,0,1,7.416,3.169,12.189,12.189,0,0,1,2.828,8.43h0v.276a13.4,13.4,0,0,1-1.253,5.878,9.551,9.551,0,0,1-3.593,4.044,9.893,9.893,0,0,1-5.353,1.456h0a9.435,9.435,0,0,1-7.389-3.169,12.145,12.145,0,0,1-2.838-8.4Zm3.86.193h0a9.581,9.581,0,0,0,1.732,5.988A5.544,5.544,0,0,0,65.641,44.8h0a5.514,5.514,0,0,0,4.643-2.285A10.544,10.544,0,0,0,72,36.1h0a9.59,9.59,0,0,0-1.75-5.979A5.562,5.562,0,0,0,65.6,27.824h0a5.5,5.5,0,0,0-4.579,2.266A10.408,10.408,0,0,0,59.275,36.558Zm20.36-.193V36.1a13.258,13.258,0,0,1,1.29-5.924,9.666,9.666,0,0,1,3.611-4.063,9.793,9.793,0,0,1,5.27-1.428h0a9.484,9.484,0,0,1,7.416,3.169,12.189,12.189,0,0,1,2.828,8.43h0v.276A13.4,13.4,0,0,1,98.8,42.436a9.551,9.551,0,0,1-3.593,4.044,9.893,9.893,0,0,1-5.353,1.456h0a9.435,9.435,0,0,1-7.389-3.169,12.169,12.169,0,0,1-2.828-8.4Zm3.851.193h0a9.581,9.581,0,0,0,1.732,5.988A5.544,5.544,0,0,0,89.852,44.8h0A5.514,5.514,0,0,0,94.5,42.519,10.5,10.5,0,0,0,96.218,36.1h0a9.555,9.555,0,0,0-1.76-5.979,5.562,5.562,0,0,0-4.652-2.294h0a5.5,5.5,0,0,0-4.579,2.266,10.408,10.408,0,0,0-1.741,6.467Zm22.737-16.9h3.842v5.426h4.183v2.967h-4.183V41.966a3.125,3.125,0,0,0,.553,2.018,2.346,2.346,0,0,0,1.907.682h0a8.971,8.971,0,0,0,1.824-.258h0v3.114a11.084,11.084,0,0,1-2.939.415h0a4.779,4.779,0,0,1-3.879-1.557,6.65,6.65,0,0,1-1.308-4.413h0V28.054h-4.081V25.088h4.081ZM131.789,41.57h0a2.825,2.825,0,0,0-1.179-2.414,11.357,11.357,0,0,0-4.081-1.483A19.1,19.1,0,0,1,121.9,36.18a6.539,6.539,0,0,1-2.524-2.073,4.932,4.932,0,0,1-.82-2.856h0a5.817,5.817,0,0,1,2.331-4.662,9.106,9.106,0,0,1,5.961-1.907h0a9.407,9.407,0,0,1,6.191,1.962,6.267,6.267,0,0,1,2.368,5.039h-3.851a3.47,3.47,0,0,0-1.336-2.718,5.028,5.028,0,0,0-3.372-1.142h0a5.191,5.191,0,0,0-3.271.921,2.843,2.843,0,0,0-1.188,2.377h0a2.314,2.314,0,0,0,1.106,2.091,13.387,13.387,0,0,0,3.962,1.354,20.293,20.293,0,0,1,4.652,1.529,6.775,6.775,0,0,1,2.644,2.147,5.248,5.248,0,0,1,.866,3.059h0a5.741,5.741,0,0,1-2.4,4.818,10.078,10.078,0,0,1-6.237,1.815h0a11.259,11.259,0,0,1-4.772-.958,7.7,7.7,0,0,1-3.243-2.662,6.4,6.4,0,0,1-1.17-3.694h3.833a3.965,3.965,0,0,0,1.548,3.059,6.005,6.005,0,0,0,3.8,1.124h0a6.217,6.217,0,0,0,3.492-.875,2.717,2.717,0,0,0,1.317-2.358Zm10.2-21.908h3.833v5.426H150v2.967H145.82V41.966a3.088,3.088,0,0,0,.562,2.018,2.317,2.317,0,0,0,1.9.682h0a9.1,9.1,0,0,0,1.833-.258h0v3.114a11.185,11.185,0,0,1-2.948.415h0a4.779,4.779,0,0,1-3.879-1.557,6.683,6.683,0,0,1-1.3-4.413h0V28.054H137.9V25.088h4.09Zm23.336,5.307v3.565a11.278,11.278,0,0,0-1.889-.147h0a5.046,5.046,0,0,0-5.113,3.215h0v15.92H154.48V25.088h3.731l.064,2.6a5.979,5.979,0,0,1,5.353-3h0a3.96,3.96,0,0,1,1.7.286Zm20.563,22.553H181.87a8.108,8.108,0,0,1-.544-2.358h0a8.558,8.558,0,0,1-6.384,2.773h0a7.921,7.921,0,0,1-5.445-1.879,6.062,6.062,0,0,1-2.119-4.754h0a6.354,6.354,0,0,1,2.663-5.445q2.663-1.935,7.49-1.935h3.731v-1.76a4.314,4.314,0,0,0-1.2-3.206,4.854,4.854,0,0,0-3.547-1.188h0a5.623,5.623,0,0,0-3.446,1.032,3.064,3.064,0,0,0-1.382,2.506h-3.86a5.279,5.279,0,0,1,1.2-3.243,8.209,8.209,0,0,1,3.234-2.478,10.945,10.945,0,0,1,4.487-.9h0a8.884,8.884,0,0,1,6.071,1.935,6.973,6.973,0,0,1,2.285,5.334h0V42.279a12.68,12.68,0,0,0,.783,4.91h0ZM175.5,44.6h0a6.714,6.714,0,0,0,3.418-.94,5.58,5.58,0,0,0,2.34-2.423h0v-4.6h-3q-7.048,0-7.048,4.118h0a3.493,3.493,0,0,0,1.2,2.819,4.622,4.622,0,0,0,3.1,1.023Zm34.557-8.393v.35a13.4,13.4,0,0,1-2.349,8.245,7.5,7.5,0,0,1-6.338,3.132h0a8.23,8.23,0,0,1-6.431-2.589h0v10.8H191.11V25.088h3.5l.193,2.487a7.9,7.9,0,0,1,6.5-2.893h0a7.647,7.647,0,0,1,6.394,3.04q2.358,3.049,2.358,8.485Zm-3.842-.092h0a9.939,9.939,0,0,0-1.612-5.988,5.224,5.224,0,0,0-4.441-2.193h0a5.638,5.638,0,0,0-5.224,3.086h0V41.735a5.655,5.655,0,0,0,5.27,3.068h0A5.193,5.193,0,0,0,204.6,42.62Q206.219,40.427,206.219,36.116Z" transform="translate(-30.605 -17.34)" fill="#285943"/></g></g></g></g></svg>