<svg xmlns="http://www.w3.org/2000/svg" xmlns:xlink="http://www.w3.org/1999/xlink" width="200" height="280" viewBox="0 0 200 280"><defs><filter id="a" x="0" y="59" width="204.248" height="224.59" filterUnits="userSpaceOnUse"><feOffset dx="2" dy="4" input="SourceAlpha"/><feGaussianBlur stdDeviation="4" result="b"/><feFlood flood-color="#4a3958"/><feComposite operator="in" in2="b"/><feComposite in="SourceGraphic"/></filter><clipPath id="d"><rect width="200" height="280"/></clipPath></defs><g id="c" clip-path="url(#d)"><g transform="translate(-8813 -4749)"><g transform="translate(-2 -589)"><g transform="translate(-1.421 -14.838)"><g transform="translate(548.52 -5)"><g transform="translate(994.901 13.615)"><g transform="translate(1081.5 2.814)"><g transform="translate(241.755)"><g transform="translate(251)"><g transform="translate(23.694 -326)"><g transform="translate(5687.251 5736.264)"><g transform="matrix(1, 0, 0, 1, -12.2, -68.86)" filter="url(#a)"><path d="M110.816,213.646a14.584,14.584,0,0,1-3.841-.517L45.161,195.963a14.556,14.556,0,0,1-10.55-12.671L20.843,28.829A14.488,14.488,0,0,1,35.27,13.056H186.552a14.487,14.487,0,0,1,14.427,15.766L187.193,183.268a14.557,14.557,0,0,1-10.559,12.673l-61.95,17.182a14.629,14.629,0,0,1-3.868.524Z" transform="translate(-10.79 53.94)" fill="#f8ffe5"/></g><path d="M98.331,189.086a12.343,12.343,0,0,1-3.309-.454L41.781,173.568a12.714,12.714,0,0,1-9.087-11.119L20.835,26.9a12.906,12.906,0,0,1,3.218-9.705,12.4,12.4,0,0,1,9.208-4.137h130.3a12.4,12.4,0,0,1,9.208,4.137,12.9,12.9,0,0,1,3.218,9.7L164.115,162.427a12.715,12.715,0,0,1-9.095,11.121l-53.358,15.078a12.383,12.383,0,0,1-3.332.46Z" transform="translate(-9.467 -2.882)" fill="#285943"/><path d="M157.852,168.233l11.58-129.159H108.8v142.7Z" transform="translate(-17.885 -12.555)" fill="#3fb17f"/></g></g></g></g></g></g></g><g transform="translate(8856.559 5392.932)"><g transform="translate(0 91.218)"><path d="M59.987,48.66c14.867,0,21.675,6.906,27.556,12.875,3.612,3.664,6.873,6.976,11.435,8.116q12,3,21-9-6,23.991-29.993,23.99c-14.869,0-21.675-6.908-27.554-12.875-3.612-3.664-6.873-6.976-11.437-8.116q-12-3-21,9Q35.992,48.66,59.987,48.66ZM29.993,84.642c14.869,0,21.675,6.908,27.554,12.877,3.612,3.662,6.874,6.973,11.438,8.113q12,3,21-9-6,23.991-29.993,23.99c-14.867,0-21.675-6.908-27.556-12.877-3.612-3.662-6.873-6.971-11.435-8.113q-12-3-21,9Q6,84.641,29.993,84.642Z" transform="translate(0 -48.66)" fill="#f8ffe5"/><path d="M59.987,43.594c16.991,0,25.184,8.314,31.166,14.385,3.287,3.335,5.877,5.962,9.054,6.756a14.29,14.29,0,0,0,3.447.448c4.433,0,8.445-2.476,12.267-7.571a5.067,5.067,0,0,1,8.968,4.27c-4.552,18.2-16.623,27.827-34.909,27.827-16.989,0-25.18-8.314-31.162-14.384-3.288-3.336-5.878-5.964-9.057-6.757a14.3,14.3,0,0,0-3.45-.448c-4.432,0-8.444,2.476-12.265,7.568a5.067,5.067,0,0,1-8.968-4.27C29.63,53.215,41.7,43.594,59.987,43.594Zm43.667,31.722a24.421,24.421,0,0,1-5.9-.75c-5.94-1.484-9.94-5.542-13.808-9.467-5.767-5.853-11.206-11.373-23.956-11.373-6.428,0-11.595,1.415-15.623,4.344a23.87,23.87,0,0,1,7.853.666c5.942,1.484,9.942,5.542,13.81,9.466,5.768,5.854,11.206,11.373,23.954,11.373,6.428,0,11.595-1.415,15.623-4.344Q104.639,75.316,103.654,75.316Zm-73.66,4.26c16.992,0,25.183,8.316,31.164,14.388,3.29,3.335,5.878,5.959,9.055,6.753a14.288,14.288,0,0,0,3.452.449c4.431,0,8.442-2.476,12.263-7.569a5.067,5.067,0,0,1,8.968,4.27c-4.552,18.2-16.623,27.827-34.909,27.827-16.989,0-25.183-8.316-31.166-14.388-3.286-3.331-5.877-5.958-9.057-6.754a14.28,14.28,0,0,0-3.448-.448c-4.431,0-8.442,2.476-12.263,7.569a5.067,5.067,0,0,1-6.231,1.534,5.067,5.067,0,0,1-2.737-5.8C-.363,89.2,11.708,79.576,29.993,79.576ZM73.664,111.3a24.413,24.413,0,0,1-5.908-.751c-5.937-1.483-9.935-5.536-13.8-9.455C48.181,95.23,42.743,89.709,29.993,89.709c-6.429,0-11.6,1.416-15.625,4.345a23.856,23.856,0,0,1,7.856.667c5.939,1.487,9.938,5.542,13.806,9.463,5.769,5.855,11.209,11.376,23.956,11.376,6.429,0,11.6-1.416,15.625-4.345Q74.648,111.3,73.664,111.3Z" transform="translate(0 -48.66)" fill="#f8ffe5"/><path d="M59.987,48.66q-23.995,0-29.993,23.987,9-11.994,21-9c4.564,1.14,7.826,4.452,11.437,8.116,5.879,5.966,12.685,12.875,27.554,12.875q23.995,0,29.993-23.99-9,11.994-21,9c-4.561-1.14-7.823-4.452-11.435-8.116C81.662,55.566,74.854,48.66,59.987,48.66ZM29.993,84.642Q6,84.642,0,108.632q9-11.994,21-9c4.561,1.142,7.823,4.452,11.435,8.113,5.881,5.969,12.69,12.877,27.556,12.877q23.995,0,29.993-23.99-9,11.994-21,9c-4.564-1.14-7.826-4.452-11.438-8.113-5.879-5.969-12.685-12.877-27.554-12.877Z" transform="translate(0 -48.66)" fill="#285943"/></g></g></g></g></g><g transform="translate(-8804.961 -5356.215)"><g transform="translate(8809.961 5370.596)"><path d="M30.161,22.717v3.244H22.2V52.543H18.956V25.961H11.015V22.717ZM46.076,52.543h-3.3a9.039,9.039,0,0,1-.441-2.34A6.536,6.536,0,0,1,37.1,52.946,5.872,5.872,0,0,1,32.634,51.1a6.589,6.589,0,0,1-1.746-4.7,6.772,6.772,0,0,1,2.187-5.377A9.022,9.022,0,0,1,39.22,39.1h3.06v-1.74A4.8,4.8,0,0,0,41.3,34.2a3.584,3.584,0,0,0-2.914-1.18,4.08,4.08,0,0,0-2.824,1.022,3.244,3.244,0,0,0-1.134,2.487H31.263a5.948,5.948,0,0,1,.979-3.215,6.969,6.969,0,0,1,2.652-2.438,7.615,7.615,0,0,1,3.681-.9,6.515,6.515,0,0,1,4.986,1.917,7.638,7.638,0,0,1,1.869,5.269v10.2a14.767,14.767,0,0,0,.645,4.846Zm-8.52-2.89a4.841,4.841,0,0,0,2.807-.924,5.29,5.29,0,0,0,1.918-2.4V41.788H39.816q-5.778,0-5.778,4.08a3.794,3.794,0,0,0,.987,2.782,3.4,3.4,0,0,0,2.53,1ZM53.78,30.385V52.543h-3.15V30.385Zm-3.4-5.879a2.584,2.584,0,0,1,.465-1.563,1.853,1.853,0,0,1,2.783,0,2.552,2.552,0,0,1,.473,1.563,2.451,2.451,0,0,1-.473,1.534,1.893,1.893,0,0,1-2.783,0A2.481,2.481,0,0,1,50.376,24.506Zm11.85-3.421V52.543H59.084V21.085Zm16.951,9.3,4.374,16.928,3.534-16.928h3.142L84.874,52.543H82.327l-4.472-16.8L73.5,52.543H70.951L65.613,30.385h3.126l3.624,16.584,4.285-16.584Zm17.669,0V52.543H93.7V30.385Zm-3.4-5.879a2.584,2.584,0,0,1,.465-1.563,1.853,1.853,0,0,1,2.783,0,2.552,2.552,0,0,1,.473,1.563,2.451,2.451,0,0,1-.473,1.534,1.893,1.893,0,0,1-2.783,0A2.481,2.481,0,0,1,93.443,24.506Zm8.43,5.879h2.979l.106,2.782a6.358,6.358,0,0,1,5.509-3.195q5.827,0,5.876,7.923V52.543H113.2V37.876a5.764,5.764,0,0,0-.914-3.539,3.287,3.287,0,0,0-2.775-1.15,4.007,4.007,0,0,0-2.685.983,6.5,6.5,0,0,0-1.8,2.576v15.8h-3.15Zm18.452,10.892a14.925,14.925,0,0,1,2.008-8.208,6.04,6.04,0,0,1,5.248-3.1,5.969,5.969,0,0,1,5.125,2.664V21.085h3.142V52.543h-2.889l-.155-2.379a6.1,6.1,0,0,1-10.463-.364,15.091,15.091,0,0,1-2.016-8.238Zm3.142.433a11.345,11.345,0,0,0,1.3,5.9,3.986,3.986,0,0,0,3.566,2.123q3,0,4.374-3.234V36.323q-1.412-3.136-4.342-3.136a4,4,0,0,0-3.6,2.153,12.506,12.506,0,0,0-1.3,6.37Zm35.966,1.366a12,12,0,0,1-2.905,7.3,8.526,8.526,0,0,1-6.48,2.566,8.187,8.187,0,0,1-7.035-3.785q-2.644-3.785-2.644-10.135V36.155a20.023,20.023,0,0,1,1.232-7.314A10.674,10.674,0,0,1,145.095,24a8.51,8.51,0,0,1,5.239-1.691,8.1,8.1,0,0,1,6.325,2.644,12.19,12.19,0,0,1,2.775,7.343h-3.289a9.44,9.44,0,0,0-1.844-5.161,5.039,5.039,0,0,0-3.966-1.593,5.539,5.539,0,0,0-4.9,2.782q-1.779,2.792-1.779,7.923v2.89a15.252,15.252,0,0,0,1.681,7.727,5.235,5.235,0,0,0,4.717,2.861,5.573,5.573,0,0,0,4.17-1.484q1.453-1.484,1.926-5.171Zm11.744-3.824a14.553,14.553,0,0,1-6.113-3.578,7.535,7.535,0,0,1-1.91-5.23,7.839,7.839,0,0,1,2.334-5.83,8.308,8.308,0,0,1,6.08-2.3,8.692,8.692,0,0,1,4.546,1.189,8.045,8.045,0,0,1,3.093,3.274,9.608,9.608,0,0,1,1.1,4.561h-3.281a6.012,6.012,0,0,0-1.428-4.247,6.1,6.1,0,0,0-7.794-.265,4.655,4.655,0,0,0-1.355,3.559,4.147,4.147,0,0,0,1.281,3.077,11.756,11.756,0,0,0,4.374,2.3,18.515,18.515,0,0,1,4.823,2.31,8.1,8.1,0,0,1,2.587,2.939,8.735,8.735,0,0,1,.841,3.952,7.531,7.531,0,0,1-2.342,5.8,8.856,8.856,0,0,1-6.276,2.182,9.993,9.993,0,0,1-4.758-1.17,8.465,8.465,0,0,1-3.411-3.234,9,9,0,0,1-1.2-4.64h3.281a5.584,5.584,0,0,0,1.657,4.266,6.194,6.194,0,0,0,4.432,1.563,5.625,5.625,0,0,0,3.958-1.268A4.468,4.468,0,0,0,177.078,45a4.434,4.434,0,0,0-1.273-3.392,13.461,13.461,0,0,0-4.627-2.359Zm20.656,0a14.554,14.554,0,0,1-6.113-3.578,7.535,7.535,0,0,1-1.91-5.23,7.839,7.839,0,0,1,2.334-5.83,8.308,8.308,0,0,1,6.08-2.3,8.735,8.735,0,0,1,4.554,1.189,8.117,8.117,0,0,1,3.093,3.274,9.667,9.667,0,0,1,1.094,4.561h-3.281a6.012,6.012,0,0,0-1.428-4.247,6.1,6.1,0,0,0-7.794-.265,4.655,4.655,0,0,0-1.355,3.559,4.147,4.147,0,0,0,1.281,3.077,11.756,11.756,0,0,0,4.374,2.3,18.671,18.671,0,0,1,4.831,2.31,8.127,8.127,0,0,1,2.579,2.939,8.735,8.735,0,0,1,.841,3.952,7.531,7.531,0,0,1-2.342,5.8,8.856,8.856,0,0,1-6.276,2.182,10.024,10.024,0,0,1-4.758-1.17,8.465,8.465,0,0,1-3.411-3.234,9,9,0,0,1-1.2-4.64h3.281a5.584,5.584,0,0,0,1.657,4.266,6.212,6.212,0,0,0,4.431,1.563,5.656,5.656,0,0,0,3.966-1.268A4.482,4.482,0,0,0,197.734,45a4.434,4.434,0,0,0-1.273-3.392,13.46,13.46,0,0,0-4.627-2.359Z" transform="translate(-11.015 -21.085)" fill="#285943"/><path d="M59.084,21.085V52.543h3.142V21.085H59.084m73.622,0V32.636a5.969,5.969,0,0,0-5.125-2.664,6.04,6.04,0,0,0-5.248,3.1,14.925,14.925,0,0,0-2.008,8.208v.285a15.092,15.092,0,0,0,2.016,8.238,6.1,6.1,0,0,0,10.463.364l.155,2.379h2.889V21.085h-3.142m-4.374,28.646a3.986,3.986,0,0,1-3.566-2.123,11.345,11.345,0,0,1-1.3-5.9,12.506,12.506,0,0,1,1.3-6.37,4,4,0,0,1,3.6-2.153q2.93,0,4.342,3.136V46.5q-1.379,3.234-4.374,3.234m-76.1-27.417a1.628,1.628,0,0,0-1.387.629,2.584,2.584,0,0,0-.465,1.563,2.481,2.481,0,0,0,.465,1.534,1.893,1.893,0,0,0,2.783,0,2.451,2.451,0,0,0,.473-1.534,2.553,2.553,0,0,0-.473-1.563,1.637,1.637,0,0,0-1.4-.629m43.066,0a1.628,1.628,0,0,0-1.387.629,2.584,2.584,0,0,0-.465,1.563,2.481,2.481,0,0,0,.465,1.534,1.893,1.893,0,0,0,2.783,0,2.451,2.451,0,0,0,.473-1.534,2.552,2.552,0,0,0-.473-1.563,1.637,1.637,0,0,0-1.4-.629m55.039,0A8.51,8.51,0,0,0,145.095,24a10.675,10.675,0,0,0-3.493,4.837,20.024,20.024,0,0,0-1.232,7.314v2.871q0,6.351,2.644,10.135a8.187,8.187,0,0,0,7.035,3.785,8.525,8.525,0,0,0,6.48-2.566,12,12,0,0,0,2.905-7.3h-3.289q-.473,3.686-1.926,5.171a5.573,5.573,0,0,1-4.17,1.484,5.235,5.235,0,0,1-4.717-2.861,15.252,15.252,0,0,1-1.681-7.727v-2.89q0-5.132,1.779-7.923a5.539,5.539,0,0,1,4.9-2.782,5.039,5.039,0,0,1,3.966,1.593,9.44,9.44,0,0,1,1.844,5.161h3.289a12.19,12.19,0,0,0-2.775-7.343,8.1,8.1,0,0,0-6.325-2.644m21.235,0a8.307,8.307,0,0,0-6.08,2.3,7.839,7.839,0,0,0-2.334,5.83,7.536,7.536,0,0,0,1.91,5.23,14.553,14.553,0,0,0,6.113,3.578,13.461,13.461,0,0,1,4.627,2.359A4.434,4.434,0,0,1,177.078,45a4.468,4.468,0,0,1-1.379,3.46,5.625,5.625,0,0,1-3.958,1.268,6.194,6.194,0,0,1-4.432-1.563,5.584,5.584,0,0,1-1.657-4.266h-3.281a9,9,0,0,0,1.2,4.64,8.465,8.465,0,0,0,3.411,3.234,9.993,9.993,0,0,0,4.758,1.17,8.856,8.856,0,0,0,6.276-2.182,7.531,7.531,0,0,0,2.342-5.8,8.735,8.735,0,0,0-.841-3.952,8.1,8.1,0,0,0-2.587-2.939,18.516,18.516,0,0,0-4.823-2.31,11.756,11.756,0,0,1-4.374-2.3,4.147,4.147,0,0,1-1.281-3.077,4.655,4.655,0,0,1,1.355-3.559,6.1,6.1,0,0,1,7.794.265,6.012,6.012,0,0,1,1.428,4.247h3.281a9.608,9.608,0,0,0-1.1-4.561,8.045,8.045,0,0,0-3.093-3.274,8.692,8.692,0,0,0-4.546-1.189m20.656,0a8.308,8.308,0,0,0-6.08,2.3,7.839,7.839,0,0,0-2.334,5.83,7.536,7.536,0,0,0,1.91,5.23,14.554,14.554,0,0,0,6.113,3.578,13.461,13.461,0,0,1,4.627,2.359A4.434,4.434,0,0,1,197.734,45a4.482,4.482,0,0,1-1.371,3.46,5.656,5.656,0,0,1-3.966,1.268,6.212,6.212,0,0,1-4.431-1.563,5.583,5.583,0,0,1-1.657-4.266h-3.281a9,9,0,0,0,1.2,4.64,8.465,8.465,0,0,0,3.411,3.234,10.024,10.024,0,0,0,4.758,1.17,8.856,8.856,0,0,0,6.276-2.182,7.531,7.531,0,0,0,2.342-5.8,8.735,8.735,0,0,0-.841-3.952,8.127,8.127,0,0,0-2.579-2.939,18.672,18.672,0,0,0-4.831-2.31,11.756,11.756,0,0,1-4.374-2.3,4.147,4.147,0,0,1-1.281-3.077,4.655,4.655,0,0,1,1.355-3.559,6.1,6.1,0,0,1,7.794.265,6.012,6.012,0,0,1,1.428,4.247h3.281a9.667,9.667,0,0,0-1.094-4.561,8.117,8.117,0,0,0-3.093-3.274,8.735,8.735,0,0,0-4.554-1.189m-181.21.4v3.244h7.941V52.543H22.2V25.961h7.957V22.717H11.015m27.56,7.255a7.615,7.615,0,0,0-3.681.9,6.969,6.969,0,0,0-2.652,2.438,5.948,5.948,0,0,0-.979,3.215H34.43a3.244,3.244,0,0,1,1.134-2.487,4.08,4.08,0,0,1,2.824-1.022A3.584,3.584,0,0,1,41.3,34.2a4.8,4.8,0,0,1,.979,3.165V39.1H39.22a9.022,9.022,0,0,0-6.145,1.917A6.772,6.772,0,0,0,30.888,46.4a6.589,6.589,0,0,0,1.747,4.7A5.872,5.872,0,0,0,37.1,52.946,6.536,6.536,0,0,0,42.338,50.2a9.04,9.04,0,0,0,.441,2.34h3.3v-.334a14.767,14.767,0,0,1-.645-4.846v-10.2a7.638,7.638,0,0,0-1.869-5.269,6.515,6.515,0,0,0-4.986-1.917m-1.02,19.681a3.4,3.4,0,0,1-2.53-1,3.794,3.794,0,0,1-.987-2.782q0-4.08,5.778-4.08h2.465V46.33a5.29,5.29,0,0,1-1.918,2.4,4.841,4.841,0,0,1-2.807.924m72.912-19.681a6.358,6.358,0,0,0-5.509,3.195l-.106-2.782h-2.979V52.543h3.15v-15.8a6.5,6.5,0,0,1,1.8-2.576,4.006,4.006,0,0,1,2.685-.983,3.287,3.287,0,0,1,2.775,1.15,5.764,5.764,0,0,1,.914,3.539V52.543h3.142V37.9q-.049-7.923-5.876-7.923m-59.838.413V52.543h3.15V30.385h-3.15m14.984,0,5.337,22.158H73.5l4.358-16.8,4.472,16.8h2.546l5.354-22.158H87.085L83.551,47.313,79.177,30.385h-2.53L72.363,46.969,68.739,30.385H65.613m28.083,0V52.543h3.15V30.385H93.7m-34.611-14.3h3.142a5,5,0,0,1,5,5v4.3h1.513a5,5,0,0,1,3.954,1.939,5,5,0,0,1,3.954-1.939h2.53a5,5,0,0,1,3.954,1.939,5,5,0,0,1,3.954-1.939h1.4a8.214,8.214,0,0,1-.047-.879A7.591,7.591,0,0,1,89.866,20l.047-.063a6.843,6.843,0,0,1,10.774,0l.022.029a7.556,7.556,0,0,1,1.456,4.54,8.171,8.171,0,0,1-.047.879h2.735a4.992,4.992,0,0,1,1.666.285,11.67,11.67,0,0,1,8.56.242,9.58,9.58,0,0,1,3.787,3.063q.068.091.134.184a11.559,11.559,0,0,1,3.109-2.719,10.619,10.619,0,0,1,5.473-1.468h.125V21.085a5,5,0,0,1,5-5h3.142a5,5,0,0,1,5,4.969,13.933,13.933,0,0,1,1.262-1.06,13.444,13.444,0,0,1,8.224-2.679,13.111,13.111,0,0,1,10.039,4.3l.006.007q.274.305.53.627a13.021,13.021,0,0,1,1.07-1.192l.006-.006a12.687,12.687,0,0,1,4.425-2.834,14.527,14.527,0,0,1,5.158-.9,13.661,13.661,0,0,1,7.1,1.888,13,13,0,0,1,3.212,2.664q.359-.42.759-.813l.006-.006a12.687,12.687,0,0,1,4.425-2.834,14.527,14.527,0,0,1,5.158-.9,13.705,13.705,0,0,1,7.1,1.888h0a13.083,13.083,0,0,1,4.969,5.247l0,.005a14.66,14.66,0,0,1,1.666,6.885,5,5,0,0,1-3.213,4.671,12.423,12.423,0,0,1,1.894,2.766,13.709,13.709,0,0,1,1.369,6.188,12.536,12.536,0,0,1-3.942,9.466,12.7,12.7,0,0,1-4.5,2.694,15.729,15.729,0,0,1-5.174.823,15.019,15.019,0,0,1-7.1-1.75l-.015-.008a13.879,13.879,0,0,1-3.248-2.376q-.3.318-.621.618a12.7,12.7,0,0,1-4.5,2.694,15.73,15.73,0,0,1-5.174.823,14.987,14.987,0,0,1-7.1-1.754l-.008,0a13.7,13.7,0,0,1-3.875-3.041q-.287.346-.6.672l-.007.007a12.885,12.885,0,0,1-4.622,3.127,14.826,14.826,0,0,1-5.481.993,12.957,12.957,0,0,1-9.436-3.881,5,5,0,0,1-4.764,3.478h-2.889a4.994,4.994,0,0,1-1.526-.237,11.651,11.651,0,0,1-3.885.641,10.45,10.45,0,0,1-5.483-1.507,10.961,10.961,0,0,1-1.552-1.137,5,5,0,0,1-4.171,2.241H113.2a4.994,4.994,0,0,1-4.089-2.121,4.994,4.994,0,0,1-4.089,2.121h-3.15a4.977,4.977,0,0,1-2.514-.677,4.977,4.977,0,0,1-2.514.677H93.7A5,5,0,0,1,89.284,54.9a5,5,0,0,1-4.411,2.644H82.327a5,5,0,0,1-4.415-2.653A5,5,0,0,1,73.5,57.543H70.951a5,5,0,0,1-4.362-2.555,5,5,0,0,1-4.362,2.555H59.084a4.976,4.976,0,0,1-2.652-.761,4.976,4.976,0,0,1-2.652.761h-3.15A4.978,4.978,0,0,1,48.352,57a4.978,4.978,0,0,1-2.277.547h-3.3a4.993,4.993,0,0,1-1.733-.31,11.15,11.15,0,0,1-3.947.713A10.86,10.86,0,0,1,29,54.532l-.009-.01A11.213,11.213,0,0,1,27.2,52.006v.537a5,5,0,0,1-5,5H18.956a5,5,0,0,1-5-5V30.961H11.015a5,5,0,0,1-5-5V22.717a5,5,0,0,1,5-5H30.161a5,5,0,0,1,5,5v2.7a12.969,12.969,0,0,1,3.414-.447,11.771,11.771,0,0,1,7.292,2.291,7.789,7.789,0,0,1-.491-2.756A7.591,7.591,0,0,1,46.8,20l.047-.063a6.651,6.651,0,0,1,5.383-2.623,6.94,6.94,0,0,1,2.953.645A4.991,4.991,0,0,1,59.084,16.085Zm91.531,14.479a2.226,2.226,0,0,0-.281-.016c-.289,0-.387,0-.688.469h0c-.372.584-1,2.04-1,5.236v2.89a10.389,10.389,0,0,0,.992,5.194,1.832,1.832,0,0,0,.288.387.927.927,0,0,0,.118.006,3.038,3.038,0,0,0,.6-.05,8,8,0,0,0,.533-2.242,5,5,0,0,1,4.959-4.363h3.289a5,5,0,0,1,1.268.164q-.361-.472-.672-.973a5,5,0,0,1-.6.036h-3.289a5,5,0,0,1-4.965-4.408A7.237,7.237,0,0,0,150.615,30.564Zm-122.794.4H27.2v1.193A11.855,11.855,0,0,1,27.822,30.961ZM27.572,39.9a5.021,5.021,0,0,1-.368-.453v1.117Q27.381,40.22,27.572,39.9Zm164.5,4.816c-.2-.093-.438-.2-.719-.311a.634.634,0,0,0,.036.117l0,0A1.319,1.319,0,0,0,192.073,44.718Zm-20.654,0c-.2-.094-.439-.2-.721-.312a.636.636,0,0,0,.036.118l.007.006A1.265,1.265,0,0,0,171.419,44.719Z" transform="translate(-11.015 -21.085)" fill="#f8ffe5"/><g transform="translate(0 0)"><path d="M30.161,22.717v3.244H22.2V52.543H18.956V25.961H11.015V22.717ZM46.076,52.543h-3.3a9.039,9.039,0,0,1-.441-2.34h0A6.536,6.536,0,0,1,37.1,52.946h0A5.872,5.872,0,0,1,32.634,51.1a6.589,6.589,0,0,1-1.746-4.7h0a6.772,6.772,0,0,1,2.187-5.377A9.022,9.022,0,0,1,39.22,39.1h3.06v-1.74A4.8,4.8,0,0,0,41.3,34.2a3.584,3.584,0,0,0-2.914-1.18h0a4.08,4.08,0,0,0-2.824,1.022,3.244,3.244,0,0,0-1.134,2.487H31.263a5.948,5.948,0,0,1,.979-3.215,6.969,6.969,0,0,1,2.652-2.438,7.615,7.615,0,0,1,3.681-.9h0a6.515,6.515,0,0,1,4.986,1.917,7.638,7.638,0,0,1,1.869,5.269h0v10.2a14.767,14.767,0,0,0,.645,4.846h0Zm-8.52-2.89h0a4.841,4.841,0,0,0,2.807-.924,5.29,5.29,0,0,0,1.918-2.4h0V41.788H39.816q-5.778,0-5.778,4.08h0a3.794,3.794,0,0,0,.987,2.782,3.4,3.4,0,0,0,2.53,1ZM53.78,30.385V52.543h-3.15V30.385Zm-3.4-5.879h0a2.584,2.584,0,0,1,.465-1.563,1.853,1.853,0,0,1,2.783,0,2.552,2.552,0,0,1,.473,1.563,2.451,2.451,0,0,1-.473,1.534,1.893,1.893,0,0,1-2.783,0A2.481,2.481,0,0,1,50.376,24.506Zm11.85-3.421V52.543H59.084V21.085Zm16.951,9.3,4.374,16.928,3.534-16.928h3.142L84.874,52.543H82.327l-4.472-16.8L73.5,52.543H70.951L65.613,30.385h3.126l3.624,16.584,4.285-16.584Zm17.669,0V52.543H93.7V30.385Zm-3.4-5.879h0a2.584,2.584,0,0,1,.465-1.563,1.853,1.853,0,0,1,2.783,0,2.552,2.552,0,0,1,.473,1.563,2.451,2.451,0,0,1-.473,1.534,1.893,1.893,0,0,1-2.783,0A2.481,2.481,0,0,1,93.443,24.506Zm8.43,5.879h2.979l.106,2.782a6.358,6.358,0,0,1,5.509-3.195h0q5.827,0,5.876,7.923h0V52.543H113.2V37.876a5.764,5.764,0,0,0-.914-3.539,3.287,3.287,0,0,0-2.775-1.15h0a4.007,4.007,0,0,0-2.685.983,6.5,6.5,0,0,0-1.8,2.576h0v15.8h-3.15Zm18.452,11.177v-.285a14.925,14.925,0,0,1,2.008-8.208,6.04,6.04,0,0,1,5.248-3.1h0a5.969,5.969,0,0,1,5.125,2.664h0V21.085h3.142V52.543h-2.889l-.155-2.379a6,6,0,0,1-5.256,2.782h0a6.007,6.007,0,0,1-5.207-3.146A15.091,15.091,0,0,1,120.326,41.562Zm3.142.147h0a11.345,11.345,0,0,0,1.3,5.9,3.986,3.986,0,0,0,3.566,2.123h0q3,0,4.374-3.234h0V36.323q-1.412-3.136-4.342-3.136h0a4,4,0,0,0-3.6,2.153,12.506,12.506,0,0,0-1.3,6.37Zm32.677,1.366h3.289a12,12,0,0,1-2.905,7.3,8.526,8.526,0,0,1-6.48,2.566h0a8.187,8.187,0,0,1-7.035-3.785q-2.644-3.785-2.644-10.135h0V36.155a20.023,20.023,0,0,1,1.232-7.314A10.674,10.674,0,0,1,145.095,24a8.51,8.51,0,0,1,5.239-1.691h0a8.1,8.1,0,0,1,6.325,2.644,12.19,12.19,0,0,1,2.775,7.343h-3.289a9.44,9.44,0,0,0-1.844-5.161,5.039,5.039,0,0,0-3.966-1.593h0a5.539,5.539,0,0,0-4.9,2.782q-1.779,2.792-1.779,7.923h0v2.89a15.252,15.252,0,0,0,1.681,7.727,5.235,5.235,0,0,0,4.717,2.861h0a5.573,5.573,0,0,0,4.17-1.484Q155.672,46.763,156.145,43.076Zm15.033-3.824h0a14.553,14.553,0,0,1-6.113-3.578,7.535,7.535,0,0,1-1.91-5.23h0a7.839,7.839,0,0,1,2.334-5.83,8.308,8.308,0,0,1,6.08-2.3h0a8.692,8.692,0,0,1,4.546,1.189,8.045,8.045,0,0,1,3.093,3.274,9.608,9.608,0,0,1,1.1,4.561h-3.281a6.012,6.012,0,0,0-1.428-4.247,5.22,5.22,0,0,0-4.032-1.543h0a5.247,5.247,0,0,0-3.762,1.278,4.655,4.655,0,0,0-1.355,3.559h0a4.147,4.147,0,0,0,1.281,3.077,11.756,11.756,0,0,0,4.374,2.3,18.515,18.515,0,0,1,4.823,2.31,8.1,8.1,0,0,1,2.587,2.939,8.735,8.735,0,0,1,.841,3.952h0a7.531,7.531,0,0,1-2.342,5.8,8.856,8.856,0,0,1-6.276,2.182h0a9.993,9.993,0,0,1-4.758-1.17,8.465,8.465,0,0,1-3.411-3.234,9,9,0,0,1-1.2-4.64h3.281a5.584,5.584,0,0,0,1.657,4.266,6.194,6.194,0,0,0,4.432,1.563h0a5.625,5.625,0,0,0,3.958-1.268A4.468,4.468,0,0,0,177.078,45a4.434,4.434,0,0,0-1.273-3.392,13.461,13.461,0,0,0-4.627-2.359Zm20.656,0h0a14.554,14.554,0,0,1-6.113-3.578,7.535,7.535,0,0,1-1.91-5.23h0a7.839,7.839,0,0,1,2.334-5.83,8.308,8.308,0,0,1,6.08-2.3h0a8.735,8.735,0,0,1,4.554,1.189,8.117,8.117,0,0,1,3.093,3.274,9.667,9.667,0,0,1,1.094,4.561h-3.281a6.012,6.012,0,0,0-1.428-4.247,5.22,5.22,0,0,0-4.032-1.543h0a5.247,5.247,0,0,0-3.762,1.278,4.655,4.655,0,0,0-1.355,3.559h0a4.147,4.147,0,0,0,1.281,3.077,11.756,11.756,0,0,0,4.374,2.3,18.671,18.671,0,0,1,4.831,2.31,8.127,8.127,0,0,1,2.579,2.939,8.735,8.735,0,0,1,.841,3.952h0a7.531,7.531,0,0,1-2.342,5.8,8.856,8.856,0,0,1-6.276,2.182h0a10.024,10.024,0,0,1-4.758-1.17,8.465,8.465,0,0,1-3.411-3.234,9,9,0,0,1-1.2-4.64h3.281a5.584,5.584,0,0,0,1.657,4.266,6.212,6.212,0,0,0,4.431,1.563h0a5.656,5.656,0,0,0,3.966-1.268A4.482,4.482,0,0,0,197.734,45a4.434,4.434,0,0,0-1.273-3.392,13.46,13.46,0,0,0-4.627-2.359Z" transform="translate(-11.015 -21.085)" fill="#285943"/><path d="M59.084,21.085V52.543h3.142V21.085H59.084m73.622,0V32.636a5.969,5.969,0,0,0-5.125-2.664,6.04,6.04,0,0,0-5.248,3.1,14.925,14.925,0,0,0-2.008,8.208v.285a15.092,15.092,0,0,0,2.016,8.238,6.1,6.1,0,0,0,10.463.364l.155,2.379h2.889V21.085h-3.142m-4.374,28.646a3.986,3.986,0,0,1-3.566-2.123,11.345,11.345,0,0,1-1.3-5.9,12.506,12.506,0,0,1,1.3-6.37,4,4,0,0,1,3.6-2.153q2.93,0,4.342,3.136V46.5q-1.379,3.234-4.374,3.234m-76.1-27.417a1.628,1.628,0,0,0-1.387.629,2.584,2.584,0,0,0-.465,1.563,2.481,2.481,0,0,0,.465,1.534,1.893,1.893,0,0,0,2.783,0,2.451,2.451,0,0,0,.473-1.534,2.552,2.552,0,0,0-.473-1.563,1.637,1.637,0,0,0-1.4-.629m43.066,0a1.628,1.628,0,0,0-1.387.629,2.584,2.584,0,0,0-.465,1.563,2.481,2.481,0,0,0,.465,1.534,1.893,1.893,0,0,0,2.783,0,2.451,2.451,0,0,0,.473-1.534,2.553,2.553,0,0,0-.473-1.563,1.637,1.637,0,0,0-1.4-.629m55.039,0A8.51,8.51,0,0,0,145.095,24a10.674,10.674,0,0,0-3.493,4.837,20.023,20.023,0,0,0-1.232,7.314v2.871q0,6.351,2.644,10.135a8.187,8.187,0,0,0,7.035,3.785,8.526,8.526,0,0,0,6.48-2.566,12,12,0,0,0,2.905-7.3h-3.289q-.473,3.686-1.926,5.171a5.573,5.573,0,0,1-4.17,1.484,5.235,5.235,0,0,1-4.717-2.861,15.252,15.252,0,0,1-1.681-7.727v-2.89q0-5.132,1.779-7.923a5.539,5.539,0,0,1,4.9-2.782,5.039,5.039,0,0,1,3.966,1.593,9.44,9.44,0,0,1,1.844,5.161h3.289a12.19,12.19,0,0,0-2.775-7.343,8.1,8.1,0,0,0-6.325-2.644m21.235,0a8.307,8.307,0,0,0-6.08,2.3,7.839,7.839,0,0,0-2.334,5.83,7.535,7.535,0,0,0,1.91,5.23,14.553,14.553,0,0,0,6.113,3.578h0a13.461,13.461,0,0,1,4.627,2.359A4.434,4.434,0,0,1,177.078,45a4.468,4.468,0,0,1-1.379,3.46,5.625,5.625,0,0,1-3.958,1.268,6.194,6.194,0,0,1-4.432-1.563,5.584,5.584,0,0,1-1.657-4.266h-3.281a9,9,0,0,0,1.2,4.64,8.465,8.465,0,0,0,3.411,3.234,9.993,9.993,0,0,0,4.758,1.17,8.856,8.856,0,0,0,6.276-2.182,7.531,7.531,0,0,0,2.342-5.8,8.735,8.735,0,0,0-.841-3.952,8.1,8.1,0,0,0-2.587-2.939,18.516,18.516,0,0,0-4.823-2.31,11.756,11.756,0,0,1-4.374-2.3,4.147,4.147,0,0,1-1.281-3.077,4.655,4.655,0,0,1,1.355-3.559,6.1,6.1,0,0,1,7.794.265,6.012,6.012,0,0,1,1.428,4.247h3.281a9.609,9.609,0,0,0-1.1-4.561,8.044,8.044,0,0,0-3.093-3.274,8.692,8.692,0,0,0-4.546-1.189m20.656,0a8.308,8.308,0,0,0-6.08,2.3,7.839,7.839,0,0,0-2.334,5.83,7.535,7.535,0,0,0,1.91,5.23,14.554,14.554,0,0,0,6.113,3.578,13.46,13.46,0,0,1,4.627,2.359A4.434,4.434,0,0,1,197.734,45a4.482,4.482,0,0,1-1.371,3.46,5.656,5.656,0,0,1-3.966,1.268,6.212,6.212,0,0,1-4.431-1.563,5.584,5.584,0,0,1-1.657-4.266h-3.281a9,9,0,0,0,1.2,4.64,8.465,8.465,0,0,0,3.411,3.234,10.024,10.024,0,0,0,4.758,1.17,8.856,8.856,0,0,0,6.276-2.182,7.531,7.531,0,0,0,2.342-5.8,8.735,8.735,0,0,0-.841-3.952,8.126,8.126,0,0,0-2.579-2.939,18.671,18.671,0,0,0-4.831-2.31,11.756,11.756,0,0,1-4.374-2.3,4.147,4.147,0,0,1-1.281-3.077,4.655,4.655,0,0,1,1.355-3.559,6.1,6.1,0,0,1,7.794.265,6.011,6.011,0,0,1,1.428,4.247h3.281a9.666,9.666,0,0,0-1.094-4.561,8.116,8.116,0,0,0-3.093-3.274,8.735,8.735,0,0,0-4.554-1.189m-181.21.4v3.244h7.941V52.543H22.2V25.961h7.957V22.717H11.015m27.56,7.255a7.615,7.615,0,0,0-3.681.9,6.969,6.969,0,0,0-2.652,2.438,5.948,5.948,0,0,0-.979,3.215H34.43a3.244,3.244,0,0,1,1.134-2.487,4.08,4.08,0,0,1,2.824-1.022A3.584,3.584,0,0,1,41.3,34.2a4.8,4.8,0,0,1,.979,3.165V39.1H39.22a9.022,9.022,0,0,0-6.145,1.917A6.772,6.772,0,0,0,30.888,46.4a6.589,6.589,0,0,0,1.746,4.7A5.872,5.872,0,0,0,37.1,52.946,6.536,6.536,0,0,0,42.338,50.2a9.04,9.04,0,0,0,.441,2.34h3.3v-.334a14.766,14.766,0,0,1-.645-4.846v-10.2a7.638,7.638,0,0,0-1.869-5.269,6.515,6.515,0,0,0-4.986-1.917m-1.02,19.681a3.4,3.4,0,0,1-2.53-1,3.794,3.794,0,0,1-.987-2.782q0-4.08,5.778-4.08h2.465V46.33a5.29,5.29,0,0,1-1.918,2.4,4.841,4.841,0,0,1-2.807.924h0m72.912-19.681a6.358,6.358,0,0,0-5.509,3.195l-.106-2.782h-2.979V52.543h3.15v-15.8a6.5,6.5,0,0,1,1.8-2.576,4.007,4.007,0,0,1,2.685-.983,3.287,3.287,0,0,1,2.775,1.15,5.764,5.764,0,0,1,.914,3.539V52.543h3.142V37.9q-.049-7.923-5.876-7.923m-59.838.413V52.543h3.15V30.385h-3.15m14.984,0,5.337,22.158H73.5l4.358-16.8,4.472,16.8h2.546l5.354-22.158H87.085L83.551,47.313,79.177,30.385h-2.53L72.363,46.969,68.739,30.385H65.613m28.082,0V52.543h3.15V30.385H93.7M59.084,20.135h3.142a.95.95,0,0,1,.95.95V52.543a.95.95,0,0,1-.95.95H59.084a.95.95,0,0,1-.95-.95V21.085A.95.95,0,0,1,59.084,20.135Zm73.622,0h3.142a.95.95,0,0,1,.95.95V52.543a.95.95,0,0,1-.95.95h-2.889a.95.95,0,0,1-.948-.888l-.011-.17a7.072,7.072,0,0,1-10.458-2.122,16.079,16.079,0,0,1-2.166-8.751v-.285a15.909,15.909,0,0,1,2.16-8.724,7.1,7.1,0,0,1,10.221-2.24V21.085A.95.95,0,0,1,132.706,20.135Zm-.95,16.4a3.584,3.584,0,0,0-3.392-2.4,3.051,3.051,0,0,0-2.784,1.691,11.692,11.692,0,0,0-1.163,5.882,10.5,10.5,0,0,0,1.159,5.4,3.035,3.035,0,0,0,2.755,1.667,3.582,3.582,0,0,0,3.424-2.484ZM52.229,21.364a2.564,2.564,0,0,1,2.155,1.008l0,.006a3.492,3.492,0,0,1,.66,2.129,3.388,3.388,0,0,1-.669,2.11l0,.006a2.837,2.837,0,0,1-4.284,0l-.009-.012a3.419,3.419,0,0,1-.656-2.1,3.524,3.524,0,0,1,.647-2.122l.009-.012A2.557,2.557,0,0,1,52.229,21.364Zm43.066,0a2.564,2.564,0,0,1,2.155,1.008l0,.006a3.491,3.491,0,0,1,.66,2.129,3.388,3.388,0,0,1-.669,2.11l0,.006a2.836,2.836,0,0,1-4.284,0l-.009-.012a3.418,3.418,0,0,1-.656-2.1,3.524,3.524,0,0,1,.647-2.122l.009-.012A2.557,2.557,0,0,1,95.3,21.364Zm55.039,0a9.048,9.048,0,0,1,7.031,2.958,13.161,13.161,0,0,1,3.016,7.9.95.95,0,0,1-.947,1.029h-3.289a.95.95,0,0,1-.943-.838,8.619,8.619,0,0,0-1.612-4.643,4.1,4.1,0,0,0-3.255-1.273,4.607,4.607,0,0,0-4.1,2.344c-1.081,1.7-1.629,4.19-1.629,7.412v2.89a14.416,14.416,0,0,0,1.551,7.247,4.309,4.309,0,0,0,3.9,2.391,4.636,4.636,0,0,0,3.491-1.2c.816-.834,1.376-2.391,1.663-4.627a.95.95,0,0,1,.942-.829h3.289a.95.95,0,0,1,.945,1.043,12.967,12.967,0,0,1-3.161,7.864,9.477,9.477,0,0,1-7.17,2.862,9.124,9.124,0,0,1-7.814-4.191c-1.868-2.674-2.815-6.267-2.815-10.679V36.155a21.054,21.054,0,0,1,1.3-7.659,11.653,11.653,0,0,1,3.811-5.253A9.476,9.476,0,0,1,150.334,21.364Zm21.235,0a9.667,9.667,0,0,1,5.031,1.323,9.016,9.016,0,0,1,3.45,3.651,10.588,10.588,0,0,1,1.21,5,.95.95,0,0,1-.95.95h-3.281a.95.95,0,0,1-.95-.95,5.064,5.064,0,0,0-1.175-3.6,5.178,5.178,0,0,0-6.443-.222,3.722,3.722,0,0,0-1.059,2.87,3.205,3.205,0,0,0,1,2.4,10.962,10.962,0,0,0,4.013,2.078,19.526,19.526,0,0,1,5.076,2.441,9.074,9.074,0,0,1,2.88,3.284,9.711,9.711,0,0,1,.941,4.377,8.477,8.477,0,0,1-2.646,6.5,9.81,9.81,0,0,1-6.922,2.436,10.978,10.978,0,0,1-5.2-1.281,9.44,9.44,0,0,1-3.786-3.594,9.972,9.972,0,0,1-1.329-5.119.95.95,0,0,1,.95-.95h3.281a.95.95,0,0,1,.95.95,4.638,4.638,0,0,0,1.359,3.575,5.24,5.24,0,0,0,3.78,1.3,4.754,4.754,0,0,0,3.313-1.016A3.534,3.534,0,0,0,176.128,45a3.5,3.5,0,0,0-.975-2.7,12.719,12.719,0,0,0-4.286-2.153,15.525,15.525,0,0,1-6.507-3.839,8.492,8.492,0,0,1-2.155-5.867,8.791,8.791,0,0,1,2.617-6.506A9.261,9.261,0,0,1,171.569,21.364Zm20.656,0a9.711,9.711,0,0,1,5.04,1.323,9.088,9.088,0,0,1,3.448,3.648,10.652,10.652,0,0,1,1.2,5,.95.95,0,0,1-.95.95h-3.281a.95.95,0,0,1-.95-.95,5.064,5.064,0,0,0-1.175-3.6,5.178,5.178,0,0,0-6.443-.222,3.722,3.722,0,0,0-1.059,2.87,3.205,3.205,0,0,0,1,2.4,10.962,10.962,0,0,0,4.013,2.078,19.684,19.684,0,0,1,5.083,2.439,9.1,9.1,0,0,1,2.873,3.285,9.71,9.71,0,0,1,.941,4.377,8.477,8.477,0,0,1-2.646,6.5A9.81,9.81,0,0,1,192.4,53.9a11.01,11.01,0,0,1-5.2-1.28,9.442,9.442,0,0,1-3.788-3.595,9.972,9.972,0,0,1-1.329-5.119.95.95,0,0,1,.95-.95h3.281a.95.95,0,0,1,.95.95,4.638,4.638,0,0,0,1.359,3.575,5.256,5.256,0,0,0,3.78,1.3,4.785,4.785,0,0,0,3.323-1.017A3.545,3.545,0,0,0,196.784,45a3.5,3.5,0,0,0-.975-2.7,12.719,12.719,0,0,0-4.286-2.153,15.525,15.525,0,0,1-6.507-3.839,8.492,8.492,0,0,1-2.155-5.867,8.791,8.791,0,0,1,2.617-6.506A9.261,9.261,0,0,1,192.225,21.364Zm-181.21.4H30.161a.95.95,0,0,1,.95.95v3.244a.95.95,0,0,1-.95.95H23.154V52.543a.95.95,0,0,1-.95.95H18.956a.95.95,0,0,1-.95-.95V26.911H11.015a.95.95,0,0,1-.95-.95V22.717A.95.95,0,0,1,11.015,21.767Zm27.56,7.255a7.453,7.453,0,0,1,5.678,2.216,8.584,8.584,0,0,1,2.127,5.9c0,.007,0,.014,0,.021v10.2a13.938,13.938,0,0,0,.589,4.526.949.949,0,0,1,.056.321v.334a.95.95,0,0,1-.95.95h-3.3a.95.95,0,0,1-.875-.581,4.524,4.524,0,0,1-.218-.686A7.039,7.039,0,0,1,37.1,53.9a6.813,6.813,0,0,1-5.155-2.146A7.539,7.539,0,0,1,29.938,46.4a7.709,7.709,0,0,1,2.511-6.092,9.969,9.969,0,0,1,6.771-2.153h2.11v-.79a3.912,3.912,0,0,0-.76-2.559,2.667,2.667,0,0,0-2.183-.836,3.136,3.136,0,0,0-2.188.778,2.284,2.284,0,0,0-.821,1.782.95.95,0,0,1-.95.95H31.263a.95.95,0,0,1-.95-.95,6.909,6.909,0,0,1,1.126-3.721,7.942,7.942,0,0,1,3.008-2.769A8.585,8.585,0,0,1,38.575,29.022Zm2.755,13.716H39.816a6.693,6.693,0,0,0-3.786.846,2.552,2.552,0,0,0-1.042,2.284,2.868,2.868,0,0,0,.714,2.115,2.464,2.464,0,0,0,1.853.719,3.88,3.88,0,0,0,2.265-.754,4.311,4.311,0,0,0,1.51-1.812Zm69.136-13.716a6.03,6.03,0,0,1,5.146,2.365c1.113,1.5,1.663,3.628,1.68,6.5,0,0,0,0,0,.006V52.543a.95.95,0,0,1-.95.95H113.2a.95.95,0,0,1-.95-.95V37.879a4.928,4.928,0,0,0-.71-2.954l-.005-.006a2.383,2.383,0,0,0-2.023-.781,3.058,3.058,0,0,0-2.068.755,5.519,5.519,0,0,0-1.471,2.044V52.543a.95.95,0,0,1-.95.95h-3.15a.95.95,0,0,1-.95-.95V30.385a.95.95,0,0,1,.95-.95h2.979a.95.95,0,0,1,.949.914l.015.381A6.9,6.9,0,0,1,110.467,29.022Zm-59.838.413h3.15a.95.95,0,0,1,.95.95V52.543a.95.95,0,0,1-.95.95h-3.15a.95.95,0,0,1-.95-.95V30.385A.95.95,0,0,1,50.629,29.435Zm14.984,0h3.126a.95.95,0,0,1,.928.747l2.773,12.69,3.288-12.725a.95.95,0,0,1,.92-.712h2.53a.95.95,0,0,1,.92.712l3.356,12.988,2.7-12.945a.95.95,0,0,1,.93-.756h3.142a.95.95,0,0,1,.923,1.173L85.8,52.766a.95.95,0,0,1-.923.727H82.327a.95.95,0,0,1-.918-.706L77.867,39.48l-3.45,13.3a.95.95,0,0,1-.92.711H70.951a.95.95,0,0,1-.924-.728L64.69,30.607a.95.95,0,0,1,.924-1.172Zm28.082,0h3.15a.95.95,0,0,1,.95.95V52.543a.95.95,0,0,1-.95.95H93.7a.95.95,0,0,1-.95-.95V30.385A.95.95,0,0,1,93.7,29.435Z" transform="translate(-11.015 -21.085)" fill="#285943"/></g></g></g></g></svg>