<svg xmlns="http://www.w3.org/2000/svg" xmlns:xlink="http://www.w3.org/1999/xlink" width="200" height="280" viewBox="0 0 200 280"><defs><filter id="a" x="0" y="59" width="204.248" height="224.59" filterUnits="userSpaceOnUse"><feOffset dx="2" dy="4" input="SourceAlpha"/><feGaussianBlur stdDeviation="4" result="b"/><feFlood flood-color="#4a3958"/><feComposite operator="in" in2="b"/><feComposite in="SourceGraphic"/></filter><linearGradient id="c" x1="0.5" y1="-0.002" x2="0.5" y2="0.993" gradientUnits="objectBoundingBox"><stop offset="0" stop-color="#285943"/><stop offset="0.519" stop-color="#007f5f"/><stop offset="1" stop-color="#f8ffe5"/></linearGradient><linearGradient id="d" x1="0.5" x2="0.5" y2="1" gradientUnits="objectBoundingBox"><stop offset="0" stop-color="#f8ffe5"/><stop offset="0.519" stop-color="#3fb380"/><stop offset="1" stop-color="#285943"/></linearGradient><linearGradient id="f" x1="0.5" y1="-0.002" x2="0.5" y2="0.993" xlink:href="#c"/><clipPath id="h"><rect width="200" height="280"/></clipPath></defs><g id="g" clip-path="url(#h)"><g transform="translate(-8268.025 -5356.513)"><g transform="translate(995.025 12.29)"><g transform="translate(1081.5 2.814)"><g transform="translate(241.755)"><g transform="translate(251)"><g transform="translate(23.694 -326)"><g transform="translate(5687.251 5736.264)"><g transform="matrix(1, 0, 0, 1, -12.2, -68.86)" filter="url(#a)"><path d="M110.816,213.646a14.584,14.584,0,0,1-3.841-.517L45.161,195.963a14.556,14.556,0,0,1-10.55-12.671L20.843,28.829A14.488,14.488,0,0,1,35.27,13.056H186.552a14.487,14.487,0,0,1,14.427,15.766L187.193,183.268a14.557,14.557,0,0,1-10.559,12.673l-61.95,17.182a14.629,14.629,0,0,1-3.868.524Z" transform="translate(-10.79 53.94)" fill="#f8ffe5"/></g><path d="M98.331,189.086a12.343,12.343,0,0,1-3.309-.454L41.781,173.568a12.714,12.714,0,0,1-9.087-11.119L20.835,26.9a12.906,12.906,0,0,1,3.218-9.705,12.4,12.4,0,0,1,9.208-4.137h130.3a12.4,12.4,0,0,1,9.208,4.137,12.9,12.9,0,0,1,3.218,9.7L164.115,162.427a12.715,12.715,0,0,1-9.095,11.121l-53.358,15.078a12.383,12.383,0,0,1-3.332.46Z" transform="translate(-9.467 -2.882)" fill="#285943"/><path d="M157.852,168.233l11.58-129.159H108.8v142.7Z" transform="translate(-17.885 -12.555)" fill="#3fb17f"/></g></g></g></g></g></g><g transform="translate(9288.18 5468.288)"><g transform="translate(-1019 -57)"><g transform="translate(8.958 1.288)"><path d="M137.891,109.091a2.607,2.607,0,0,1-.75-.112l-33.164-10.2a2.556,2.556,0,0,1-1.732-1.844L89.227,42.7,74.02,97.024a2.559,2.559,0,0,1-1.648,1.732L41.76,108.96a2.551,2.551,0,0,1-3.255-3.145L62.688,24.471l3.878-13.045A2.555,2.555,0,0,1,69.013,9.6h40.817a2.556,2.556,0,0,1,2.446,1.824l28.061,94.389a2.55,2.55,0,0,1-2.446,3.278ZM94.513,160.109a2.525,2.525,0,0,1-1.13-.265c-8.13-4.066-12.253-9.232-12.253-15.357,0-.9.043-1.842.084-2.8.176-3.916.179-6.725-1.423-7.179a3.217,3.217,0,0,0-2.832.24c-1.832,1.166-2.712,4.344-2.878,5.367a2.553,2.553,0,0,1-4.324,1.4C61.916,133.667,62.2,122,63.064,115.736a2.55,2.55,0,0,1,4.255-1.528c2.661,2.449,10.709,5.087,22.1,5.087,11.36,0,19.839-2.676,22.347-5.321a2.552,2.552,0,0,1,4.339,1.2c2.452,10.939-1.281,19.781-10.24,24.263-12.707,6.352-9.39,16.1-8.972,17.194a2.557,2.557,0,0,1-2.383,3.48Z" transform="translate(0 30.402)" fill="#285943"/><path d="M94.513,163.309a5.755,5.755,0,0,1-2.561-.6c-9.3-4.654-14.022-10.783-14.022-18.219,0-.874.038-1.8.078-2.732.036-.812.1-2.237.074-3.379a6.723,6.723,0,0,0-.842,2.248,5.724,5.724,0,0,1-3.915,4.555,10.35,10.35,0,0,1-1.763.28,5.8,5.8,0,0,1-4.063-1.682c-8.828-8.828-8.554-21.632-7.605-28.479a5.739,5.739,0,0,1,3.746-4.624,10.231,10.231,0,0,1,1.948-.34,5.741,5.741,0,0,1,3.9,1.52c1.782,1.64,8.77,4.242,19.936,4.242,10.865,0,18.372-2.58,20.025-4.323a5.77,5.77,0,0,1,4.171-1.792,10.344,10.344,0,0,1,1.529.207,5.741,5.741,0,0,1,4.084,4.283c2.758,12.308-1.7,22.71-11.93,27.827-9.965,4.982-7.926,11.857-7.417,13.185a5.756,5.756,0,0,1-5.37,7.827ZM78.5,131.1a7.869,7.869,0,0,1,2.173.326c4.148,1.176,3.928,6.075,3.734,10.4-.045,1.044-.081,1.873-.081,2.66,0,4.575,3.188,8.6,9.481,11.976-1.779-4.554-1.18-13.987,10.626-19.889,7.348-3.676,10.438-10.608,8.775-19.595-4.151,3.332-13.43,5.516-23.79,5.516-10.043,0-18.966-2-23.331-5.169-.621,5.6-.506,14.648,5.112,21.047.468-1.715,1.61-4.782,4.04-6.328A6.018,6.018,0,0,1,78.5,131.1ZM40.95,112.294a5.753,5.753,0,0,1-5.516-7.379L63.5,10.515A5.793,5.793,0,0,1,69.013,6.4h40.817a5.792,5.792,0,0,1,5.512,4.106L143.4,104.9a5.75,5.75,0,0,1-5.514,7.39,10.544,10.544,0,0,1-1.667-.246l-33.188-10.212a5.781,5.781,0,0,1-3.9-4.152L88.99,55.417,77.1,97.887a5.755,5.755,0,0,1-3.715,3.9L42.772,112A10.328,10.328,0,0,1,40.95,112.294ZM89.226,39.5h.06a3.2,3.2,0,0,1,3.052,2.453l13.018,54.233,31.572,9.394-27.72-93.241-40.2.464L65.755,25.383,41.927,105.532,71.36,95.721,86.146,41.835A3.2,3.2,0,0,1,89.226,39.5Z" transform="translate(0 30.402)" fill="#f8ffe5"/><g transform="translate(38.867 40.002)"><path d="M96.235,148.844c-10.9,0-20.176-2.4-23.829-5.763-.824,5.957-1.048,16.6,5.972,23.62,0,0,1.569-9.755,8.929-7.653,4.464,1.276,3.189,7.653,3.189,12.436,0,2.551.638,7.972,10.842,13.074,0,0-5.1-12.755,10.2-20.408,10.709-5.355,10.176-15.689,8.893-21.421C117.064,146.281,107.513,148.844,96.235,148.844Z" transform="translate(-45.215 -36.599)" fill="url(#c)"/><path d="M137.891,109.091a2.607,2.607,0,0,1-.75-.112l-33.164-10.2a2.556,2.556,0,0,1-1.732-1.844L89.227,42.7,74.02,97.024a2.559,2.559,0,0,1-1.648,1.732L41.76,108.96a2.551,2.551,0,0,1-3.255-3.145L66.566,11.427A2.555,2.555,0,0,1,69.013,9.6h40.817a2.556,2.556,0,0,1,2.446,1.824l28.061,94.389a2.55,2.55,0,0,1-2.446,3.278ZM106.868,94.325,134.09,102.7l-26.163-88H70.916L44.793,102.57l24.681-8.23L84.319,41.325A5.154,5.154,0,0,1,89.327,37.6a5.043,5.043,0,0,1,4.865,3.911Z" transform="translate(-38.401 -9.6)" fill="url(#d)"/><path d="M100.678,186.458a2.526,2.526,0,0,1-1.13-.265c-8.13-4.066-12.253-9.232-12.253-15.357,0-.9.043-1.842.084-2.8.176-3.916.179-6.725-1.423-7.179a3.217,3.217,0,0,0-2.832.24c-1.832,1.166-2.712,4.344-2.878,5.367a2.553,2.553,0,0,1-4.324,1.4c-7.842-7.842-7.561-19.513-6.694-25.773a2.55,2.55,0,0,1,4.255-1.528c2.661,2.449,10.709,5.087,22.1,5.087,11.36,0,19.839-2.676,22.347-5.321a2.552,2.552,0,0,1,4.339,1.2c2.452,10.939-1.281,19.781-10.24,24.263-12.707,6.352-9.39,16.1-8.972,17.194a2.557,2.557,0,0,1-2.383,3.48Zm-16-30.9a9.81,9.81,0,0,1,2.681.39c5.6,1.6,5.324,7.8,5.12,12.316-.041.883-.079,1.753-.079,2.574,0,1.214,0,4.429,4.964,8.1-.005-5.145,2.074-12.561,12.388-17.72,6.944-3.472,8.475-9.37,8.12-14.7-5.1,2.63-13.214,4.222-22.286,4.222-8.628,0-16.523-1.477-21.656-3.921-.158,4.235.357,9.508,2.941,13.954a10.472,10.472,0,0,1,3.515-3.99,7.87,7.87,0,0,1,4.291-1.235Z" transform="translate(-44.566 -35.95)" fill="url(#d)"/><path d="M100.678,187.459h0a3.545,3.545,0,0,1-1.577-.371,28.013,28.013,0,0,1-9.51-7.177,14.287,14.287,0,0,1-3.3-9.074c0-.852.039-1.759.076-2.637l.009-.209a28.89,28.89,0,0,0-.036-4.7c-.087-.61-.272-1.36-.661-1.47a3.707,3.707,0,0,0-1.013-.162,1.764,1.764,0,0,0-1.013.286c-1.388.883-2.246,3.585-2.424,4.681a3.534,3.534,0,0,1-2.41,2.811,3.489,3.489,0,0,1-1.1.176,3.584,3.584,0,0,1-2.51-1.041c-8.152-8.152-7.871-20.176-6.979-26.619a3.551,3.551,0,0,1,5.923-2.127c1.288,1.186,3.966,2.363,7.348,3.229a57.93,57.93,0,0,0,14.077,1.594c10.959,0,19.319-2.581,21.621-5.009a3.552,3.552,0,0,1,6.041,1.667,29.047,29.047,0,0,1,.717,8.055,21.51,21.51,0,0,1-1.612,7.107,19.17,19.17,0,0,1-3.876,5.872,21.865,21.865,0,0,1-6,4.344c-5.043,2.521-8.03,5.846-8.877,9.882a11.288,11.288,0,0,0,.391,6.059,3.557,3.557,0,0,1-3.316,4.838ZM84.67,159.653a5.678,5.678,0,0,1,1.563.24c1.718.487,2,2.462,2.091,3.111a30.233,30.233,0,0,1,.054,5.073l-.009.207c-.038.9-.074,1.743-.074,2.552,0,5.714,3.936,10.58,11.7,14.463a1.534,1.534,0,0,0,.683.16h0a1.553,1.553,0,0,0,1.047-.406,1.57,1.57,0,0,0,.4-1.715,13.413,13.413,0,0,1-.481-7.188,13.628,13.628,0,0,1,2.786-5.779,21.215,21.215,0,0,1,7.153-5.48c8.514-4.259,12.054-12.7,9.711-23.15a1.552,1.552,0,0,0-2.638-.73c-1.437,1.515-4.394,2.912-8.329,3.933a59.907,59.907,0,0,1-14.744,1.7,59.943,59.943,0,0,1-14.574-1.656c-3.745-.96-6.66-2.272-8.206-3.695a1.55,1.55,0,0,0-2.587.929c-.842,6.075-1.128,17.391,6.41,24.929a1.568,1.568,0,0,0,1.1.456,1.491,1.491,0,0,0,.47-.076l.009,0A1.542,1.542,0,0,0,79.26,166.3a12.985,12.985,0,0,1,.886-2.873,6.951,6.951,0,0,1,2.442-3.178A3.791,3.791,0,0,1,84.67,159.653Zm13.7,21.273-1.6-1.183a13.933,13.933,0,0,1-4.664-5.377,8.2,8.2,0,0,1-.7-3.531c0-.82.036-1.672.08-2.62a24.194,24.194,0,0,0-.351-6.953,5.535,5.535,0,0,0-4.045-4.355,8.831,8.831,0,0,0-2.406-.352h0a6.868,6.868,0,0,0-3.753,1.078,9.406,9.406,0,0,0-3.17,3.617l-.845,1.585-.9-1.553a22.589,22.589,0,0,1-2.619-7.382,33.317,33.317,0,0,1-.457-7.112l.057-1.519,1.372.653c5.1,2.43,12.84,3.824,21.226,3.824,8.809,0,16.765-1.5,21.827-4.111l1.355-.7.1,1.521a17.224,17.224,0,0,1-1.415,8.535,15.183,15.183,0,0,1-7.255,7.123c-9.791,4.9-11.84,11.852-11.835,16.824ZM84.678,154.555h0a10.832,10.832,0,0,1,2.954.428,7.552,7.552,0,0,1,5.431,5.773,26.075,26.075,0,0,1,.414,7.551c-.043.924-.078,1.751-.078,2.529,0,.94,0,3.245,3.066,6.072a18.281,18.281,0,0,1,2.356-7.322c2.154-3.743,5.681-6.859,10.483-9.26a12.913,12.913,0,0,0,7.615-12.242c-5.329,2.338-12.984,3.662-21.333,3.662-7.945,0-15.368-1.229-20.681-3.4a25.739,25.739,0,0,0,2.044,10.405,10.509,10.509,0,0,1,2.9-2.807A8.836,8.836,0,0,1,84.678,154.555Z" transform="translate(-44.566 -35.95)" fill="#285943"/><path d="M107.7,22.4H78.3L56.058,97.227l12.814-4.273L82.986,42.546a10.223,10.223,0,0,1,9.867-7.454h.077l.077,0a10.08,10.08,0,0,1,9.73,7.821l12,49.988,15.334,4.717Z" transform="translate(-41.981 -12.196)" fill="url(#f)"/></g></g><g transform="translate(-14.404 -27.083)"><path d="M74.642,30.315,70.54,19.1H52.515l-4.046,11.22H42.628L59.046-12.692h4.962L80.465,30.315Zm-13.11-36-7.3,20.114H68.858ZM104,21.837a4.032,4.032,0,0,0-1.664-3.441,16,16,0,0,0-5.823-2.108,27.69,27.69,0,0,1-6.588-2.127,9.4,9.4,0,0,1-3.6-2.959,7.073,7.073,0,0,1-1.163-4.074A8.285,8.285,0,0,1,88.48.484a12.981,12.981,0,0,1,8.5-2.722A13.32,13.32,0,0,1,105.787.569a8.919,8.919,0,0,1,3.384,7.184h-5.492a4.937,4.937,0,0,0-1.909-3.875,7.111,7.111,0,0,0-4.792-1.626,7.453,7.453,0,0,0-4.669,1.3A4.08,4.08,0,0,0,90.626,6.95a3.318,3.318,0,0,0,1.56,2.987,19.4,19.4,0,0,0,5.662,1.919,29.486,29.486,0,0,1,6.626,2.183,9.743,9.743,0,0,1,3.771,3.062,7.545,7.545,0,0,1,1.219,4.357,8.171,8.171,0,0,1-3.422,6.862,14.37,14.37,0,0,1-8.894,2.59,16.032,16.032,0,0,1-6.787-1.361,11.085,11.085,0,0,1-4.632-3.8,9.177,9.177,0,0,1-1.664-5.274H89.53a5.664,5.664,0,0,0,2.2,4.357,8.5,8.5,0,0,0,5.416,1.616,8.827,8.827,0,0,0,4.981-1.257A3.864,3.864,0,0,0,104,21.837Zm14.537-31.22H124v7.741h5.964V2.583H124V22.4a4.416,4.416,0,0,0,.794,2.873,3.368,3.368,0,0,0,2.722.964,13.066,13.066,0,0,0,2.6-.359v4.433a15.724,15.724,0,0,1-4.2.6,6.794,6.794,0,0,1-5.52-2.221,9.494,9.494,0,0,1-1.862-6.286V2.583h-5.823V-1.642h5.823ZM151.8,3.263a16.405,16.405,0,0,0-2.694-.208q-5.378,0-7.3,4.575V30.315h-5.463V-1.642h5.322l.085,3.686a8.5,8.5,0,0,1,7.618-4.282,5.6,5.6,0,0,1,2.429.416Zm2.977,10.775a18.913,18.913,0,0,1,1.843-8.45A13.858,13.858,0,0,1,161.763-.2a14,14,0,0,1,7.524-2.042A13.486,13.486,0,0,1,179.845,2.28q4.027,4.528,4.027,12.023v.388a19.041,19.041,0,0,1-1.786,8.375,13.6,13.6,0,0,1-5.1,5.775,14.156,14.156,0,0,1-7.637,2.07,13.422,13.422,0,0,1-10.53-4.528q-4.036-4.518-4.036-11.957Zm5.492.652a13.678,13.678,0,0,0,2.467,8.535,8.356,8.356,0,0,0,13.224-.047q2.448-3.261,2.448-9.14a13.634,13.634,0,0,0-2.5-8.516,7.923,7.923,0,0,0-6.626-3.27,7.839,7.839,0,0,0-6.531,3.223q-2.486,3.223-2.486,9.216Z" fill="#f8ffe5"/><path d="M169.343,30.911a14.156,14.156,0,0,0,7.637-2.07,13.6,13.6,0,0,0,5.1-5.775,19.041,19.041,0,0,0,1.786-8.375V14.3q0-7.5-4.027-12.023a13.486,13.486,0,0,0-10.558-4.518A14,14,0,0,0,161.763-.2a13.858,13.858,0,0,0-5.142,5.785,18.913,18.913,0,0,0-1.843,8.45v.388q0,7.439,4.036,11.957a13.422,13.422,0,0,0,10.53,4.528m-.057-28.659a7.923,7.923,0,0,1,6.626,3.27,13.634,13.634,0,0,1,2.5,8.516q0,5.879-2.448,9.14a8.356,8.356,0,0,1-13.224.047,13.678,13.678,0,0,1-2.467-8.535q0-5.993,2.486-9.216a7.839,7.839,0,0,1,6.531-3.223M125.92,30.911a15.725,15.725,0,0,0,4.2-.6V25.882a13.067,13.067,0,0,1-2.6.359,3.368,3.368,0,0,1-2.722-.964A4.416,4.416,0,0,1,124,22.4V2.583h5.964V-1.642H124V-9.384h-5.463v7.741h-5.823V2.583h5.823V22.4a9.495,9.495,0,0,0,1.862,6.286,6.794,6.794,0,0,0,5.52,2.221m-28.772,0a14.37,14.37,0,0,0,8.894-2.59,8.171,8.171,0,0,0,3.422-6.862,7.545,7.545,0,0,0-1.219-4.357,9.743,9.743,0,0,0-3.771-3.062,29.486,29.486,0,0,0-6.626-2.183,19.4,19.4,0,0,1-5.662-1.919,3.318,3.318,0,0,1-1.56-2.987,4.08,4.08,0,0,1,1.682-3.393,7.452,7.452,0,0,1,4.669-1.3,7.111,7.111,0,0,1,4.792,1.626,4.937,4.937,0,0,1,1.909,3.875h5.492A8.919,8.919,0,0,0,105.787.569a13.32,13.32,0,0,0-8.809-2.807A12.981,12.981,0,0,0,88.48.484a8.285,8.285,0,0,0-3.318,6.645A7.073,7.073,0,0,0,86.325,11.2a9.4,9.4,0,0,0,3.6,2.959,27.691,27.691,0,0,0,6.588,2.127,16,16,0,0,1,5.823,2.108A4.032,4.032,0,0,1,104,21.837a3.865,3.865,0,0,1-1.872,3.356,8.827,8.827,0,0,1-4.981,1.257,8.5,8.5,0,0,1-5.416-1.616,5.664,5.664,0,0,1-2.2-4.357H84.066A9.177,9.177,0,0,0,85.73,25.75a11.085,11.085,0,0,0,4.632,3.8,16.032,16.032,0,0,0,6.787,1.361m44.661-.6V7.63q1.919-4.575,7.3-4.575a16.4,16.4,0,0,1,2.694.208V-1.822a5.6,5.6,0,0,0-2.429-.416,8.5,8.5,0,0,0-7.618,4.282l-.085-3.686h-5.322V30.315h5.463m-61.344,0L64.009-12.692H59.046L42.628,30.315h5.841L52.515,19.1H70.54l4.1,11.22h5.823m-18.933-36,7.325,20.114H54.235l7.3-20.114m107.811,41.6a19.779,19.779,0,0,1-7.859-1.539,18.121,18.121,0,0,1-6.405-4.665c-3.518-3.941-5.3-9.083-5.3-15.281v-.388a25.727,25.727,0,0,1,.666-5.916,12.562,12.562,0,0,0-1.337-.067c-1.327,0-1.929.3-2.3.786V30.315a5,5,0,0,1-5,5h-5.463a4.978,4.978,0,0,1-3.114-1.088,4.989,4.989,0,0,1-1.783.908,20.792,20.792,0,0,1-5.528.776,11.637,11.637,0,0,1-9.352-4.009,12.86,12.86,0,0,1-2.752-6.153,13.208,13.208,0,0,1-4.763,6.564,19.285,19.285,0,0,1-11.905,3.6,21.05,21.05,0,0,1-8.882-1.821,17.355,17.355,0,0,1-3.173-1.881,5,5,0,0,1-4.628,3.107H74.642a5,5,0,0,1-4.7-3.283l-2.9-7.937H56.027l-2.854,7.916a5,5,0,0,1-4.7,3.3H42.628a5,5,0,0,1-4.671-6.783L54.375-14.475a5,5,0,0,1,4.671-3.217h4.962a5,5,0,0,1,4.67,3.213l11.976,31.3a4.982,4.982,0,0,1,2.751-1.3,11.747,11.747,0,0,1-3.243-8.39A13.275,13.275,0,0,1,85.315-3.386,17.893,17.893,0,0,1,96.978-7.238a18.525,18.525,0,0,1,11.256,3.376,5,5,0,0,1,4.481-2.78h.823V-9.384a5,5,0,0,1,5-5H124a5,5,0,0,1,5,5v2.741h.964a4.979,4.979,0,0,1,3.19,1.15,4.979,4.979,0,0,1,3.19-1.15h5.322a4.981,4.981,0,0,1,2.158.489,14.067,14.067,0,0,1,5.545-1.084,10.275,10.275,0,0,1,4.665.944,5,5,0,0,1,2.692,3.623,18.284,18.284,0,0,1,2.4-1.773l.005,0a18.988,18.988,0,0,1,10.155-2.79,19.883,19.883,0,0,1,7.868,1.533,18.148,18.148,0,0,1,6.419,4.654l.007.008c3.51,3.947,5.29,9.11,5.29,15.346v.388a24.076,24.076,0,0,1-2.283,10.546,18.58,18.58,0,0,1-6.961,7.846l-.005,0A19.141,19.141,0,0,1,169.343,35.911Zm-.057-28.659a2.882,2.882,0,0,0-2.567,1.27l-.006.007c-.945,1.226-1.445,3.357-1.445,6.162a8.97,8.97,0,0,0,1.438,5.5,2.938,2.938,0,0,0,2.637,1.262,2.9,2.9,0,0,0,2.619-1.274c.945-1.259,1.445-3.381,1.445-6.137a8.906,8.906,0,0,0-1.466-5.478l0-.006A2.962,2.962,0,0,0,169.287,7.252ZM95.165,21.112a4.087,4.087,0,0,0,1.4.317c-.326-.081-.686-.164-1.085-.249l-.011,0Zm34.952-.23a5,5,0,0,1,1.229.153V7.39a5,5,0,0,1-1.38.193H129V21.008l.055-.012A5,5,0,0,1,130.117,20.882Zm-19.269-8.417a12.427,12.427,0,0,1,1.516,1.8l.01.015a11.54,11.54,0,0,1,1.164,2.17V10.19A5.016,5.016,0,0,1,110.848,12.465Z" fill="#f8ffe5"/><g transform="translate(42.628 -12.692)"><path d="M74.642,30.315,70.54,19.1H52.515l-4.046,11.22H42.628L59.046-12.692h4.962L80.465,30.315Zm-13.11-36-7.3,20.114H68.858ZM104,21.837h0a4.032,4.032,0,0,0-1.664-3.441,16,16,0,0,0-5.823-2.108,27.69,27.69,0,0,1-6.588-2.127,9.4,9.4,0,0,1-3.6-2.959,7.073,7.073,0,0,1-1.163-4.074h0A8.285,8.285,0,0,1,88.48.484a12.981,12.981,0,0,1,8.5-2.722h0A13.32,13.32,0,0,1,105.787.569a8.919,8.919,0,0,1,3.384,7.184h-5.492a4.937,4.937,0,0,0-1.909-3.875,7.111,7.111,0,0,0-4.792-1.626h0a7.453,7.453,0,0,0-4.669,1.3A4.08,4.08,0,0,0,90.626,6.95h0a3.318,3.318,0,0,0,1.56,2.987,19.4,19.4,0,0,0,5.662,1.919,29.486,29.486,0,0,1,6.626,2.183,9.743,9.743,0,0,1,3.771,3.062,7.545,7.545,0,0,1,1.219,4.357h0a8.171,8.171,0,0,1-3.422,6.862,14.37,14.37,0,0,1-8.894,2.59h0a16.032,16.032,0,0,1-6.787-1.361,11.085,11.085,0,0,1-4.632-3.8,9.177,9.177,0,0,1-1.664-5.274H89.53a5.664,5.664,0,0,0,2.2,4.357,8.5,8.5,0,0,0,5.416,1.616h0a8.827,8.827,0,0,0,4.981-1.257A3.864,3.864,0,0,0,104,21.837Zm14.537-31.22H124v7.741h5.964V2.583H124V22.4a4.416,4.416,0,0,0,.794,2.873,3.368,3.368,0,0,0,2.722.964h0a13.066,13.066,0,0,0,2.6-.359h0v4.433a15.724,15.724,0,0,1-4.2.6h0a6.794,6.794,0,0,1-5.52-2.221,9.494,9.494,0,0,1-1.862-6.286h0V2.583h-5.823V-1.642h5.823ZM151.8-1.822V3.263a16.405,16.405,0,0,0-2.694-.208h0q-5.378,0-7.3,4.575h0V30.315h-5.463V-1.642h5.322l.085,3.686a8.5,8.5,0,0,1,7.618-4.282h0a5.6,5.6,0,0,1,2.429.416Zm2.977,16.248v-.388a18.913,18.913,0,0,1,1.843-8.45A13.858,13.858,0,0,1,161.763-.2a14,14,0,0,1,7.524-2.042h0A13.486,13.486,0,0,1,179.845,2.28q4.027,4.528,4.027,12.023h0v.388a19.041,19.041,0,0,1-1.786,8.375,13.6,13.6,0,0,1-5.1,5.775,14.156,14.156,0,0,1-7.637,2.07h0a13.422,13.422,0,0,1-10.53-4.528q-4.036-4.518-4.036-11.957Zm5.492.265h0a13.678,13.678,0,0,0,2.467,8.535,7.9,7.9,0,0,0,6.607,3.223h0a7.85,7.85,0,0,0,6.616-3.27q2.448-3.261,2.448-9.14h0a13.634,13.634,0,0,0-2.5-8.516,7.923,7.923,0,0,0-6.626-3.27h0a7.839,7.839,0,0,0-6.531,3.223q-2.486,3.223-2.486,9.216Z" transform="translate(-42.628 12.692)" fill="#285943"/></g></g></g></g></g></g></svg>