<svg xmlns="http://www.w3.org/2000/svg" xmlns:xlink="http://www.w3.org/1999/xlink" width="200" height="280" viewBox="0 0 200 280"><defs><filter id="a" x="0" y="59" width="204.248" height="224.59" filterUnits="userSpaceOnUse"><feOffset dx="2" dy="4" input="SourceAlpha"/><feGaussianBlur stdDeviation="4" result="b"/><feFlood flood-color="#4a3958"/><feComposite operator="in" in2="b"/><feComposite in="SourceGraphic"/></filter><clipPath id="d"><rect width="200" height="280"/></clipPath></defs><g id="c" clip-path="url(#d)"><g transform="translate(12.199 68.855)"><g transform="matrix(1, 0, 0, 1, -12.2, -68.85)" filter="url(#a)"><path d="M110.816,213.646a14.584,14.584,0,0,1-3.841-.517L45.161,195.963a14.556,14.556,0,0,1-10.55-12.671L20.843,28.829A14.488,14.488,0,0,1,35.27,13.056H186.552a14.487,14.487,0,0,1,14.427,15.766L187.193,183.268a14.557,14.557,0,0,1-10.559,12.673l-61.95,17.182a14.629,14.629,0,0,1-3.868.524Z" transform="translate(-10.79 53.94)" fill="#f8ffe5"/></g><path d="M98.331,189.086a12.343,12.343,0,0,1-3.309-.454L41.781,173.568a12.714,12.714,0,0,1-9.087-11.119L20.835,26.9a12.906,12.906,0,0,1,3.218-9.705,12.4,12.4,0,0,1,9.208-4.137h130.3a12.4,12.4,0,0,1,9.208,4.137,12.9,12.9,0,0,1,3.218,9.7L164.115,162.427a12.715,12.715,0,0,1-9.095,11.121l-53.358,15.078a12.383,12.383,0,0,1-3.332.46Z" transform="translate(-9.467 -2.882)" fill="#285943"/><path d="M157.852,168.233l11.58-129.159H108.8v142.7Z" transform="translate(-17.885 -12.555)" fill="#3fb17f"/></g><g transform="translate(-8.746 56.587)"><path d="M108.8,95.65l2.176,8.7-2.176,8.7H67.325L65.78,95.65Z" fill="#f8ffe5"/><path d="M108.8,58.658l2.176,8.7-2.176,8.7H64.064L62.495,58.658Z" fill="#f8ffe5"/><path d="M110.976,152.226l-2.176,10.53L70.829,152.248,68.3,123.938H86.866l1.262,14.013,20.672,5.571Z" fill="#f8ffe5"/><path d="M108.8,58.658V76.066h26.045L133.089,95.65H108.8c-.02,0-.017,17.408-.017,17.408H131.6l-2.235,24.893L108.8,143.522v19.236l37.862-10.51.261-3.133,4.352-48.677.457-4.983L155,58.658Z" fill="#f8ffe5"/></g><g transform="translate(-23.417 18.284)"><path d="M106.019,23.333q-.7,6.067-4.473,9.366T91.524,36A13.476,13.476,0,0,1,80.663,31.13q-4.078-4.856-4.078-12.987V14.461a21.841,21.841,0,0,1,1.9-9.379,14.183,14.183,0,0,1,5.4-6.2,15.008,15.008,0,0,1,8.081-2.162q6.092,0,9.774,3.4a14.251,14.251,0,0,1,4.275,9.416h-5.066Q100.3,4.958,98.1,2.907A8.613,8.613,0,0,0,91.969.856a9.021,9.021,0,0,0-7.575,3.571Q81.651,8,81.651,14.6v3.695q0,6.228,2.595,9.9a8.414,8.414,0,0,0,7.278,3.682,9.72,9.72,0,0,0,6.45-1.9q2.237-1.9,2.978-6.636Zm18.14-4.906q-6.475-1.866-9.441-4.584a8.758,8.758,0,0,1-2.953-6.71A9.23,9.23,0,0,1,115.386-.33a14.332,14.332,0,0,1,9.379-2.953,15.722,15.722,0,0,1,7.031,1.52,11.526,11.526,0,0,1,4.77,4.2,10.7,10.7,0,0,1,1.705,5.857h-5.079a6.954,6.954,0,0,0-2.2-5.449A8.991,8.991,0,0,0,124.764.856,9.173,9.173,0,0,0,118.957,2.5a5.478,5.478,0,0,0-2.088,4.56,4.936,4.936,0,0,0,1.977,3.954,19.754,19.754,0,0,0,6.747,2.953,31.059,31.059,0,0,1,7.464,2.953,11.189,11.189,0,0,1,3.991,3.769,9.617,9.617,0,0,1,1.3,5.066,8.924,8.924,0,0,1-3.621,7.439q-3.633,2.8-9.7,2.805a17.825,17.825,0,0,1-7.34-1.52,12.386,12.386,0,0,1-5.276-4.127,10.161,10.161,0,0,1-1.841-5.968h5.066a6.574,6.574,0,0,0,2.558,5.474,10.742,10.742,0,0,0,6.833,2.014,9.912,9.912,0,0,0,6.129-1.631,5.293,5.293,0,0,0,2.125-4.436,5.2,5.2,0,0,0-1.977-4.35q-1.965-1.532-7.142-3.027Zm31.905,0q-6.487-1.866-9.441-4.584a8.758,8.758,0,0,1-2.953-6.71A9.242,9.242,0,0,1,147.279-.33a14.383,14.383,0,0,1,9.391-2.953,15.722,15.722,0,0,1,7.031,1.52,11.527,11.527,0,0,1,4.77,4.2,10.76,10.76,0,0,1,1.693,5.857H165.1a6.954,6.954,0,0,0-2.2-5.449A8.991,8.991,0,0,0,156.67.856,9.2,9.2,0,0,0,150.85,2.5a5.491,5.491,0,0,0-2.076,4.56,4.936,4.936,0,0,0,1.977,3.954,19.6,19.6,0,0,0,6.747,2.953,31.059,31.059,0,0,1,7.464,2.953,11.328,11.328,0,0,1,3.991,3.769,9.617,9.617,0,0,1,1.3,5.066,8.924,8.924,0,0,1-3.621,7.439Q163,36,156.929,36a17.911,17.911,0,0,1-7.352-1.52,12.4,12.4,0,0,1-5.264-4.127,10.161,10.161,0,0,1-1.841-5.968h5.066a6.574,6.574,0,0,0,2.558,5.474,10.742,10.742,0,0,0,6.833,2.014,9.945,9.945,0,0,0,6.129-1.631,5.293,5.293,0,0,0,2.125-4.436,5.2,5.2,0,0,0-1.977-4.35q-1.965-1.532-7.142-3.027Z" fill="#f8ffe5"/><path d="M156.929,36q6.067,0,9.7-2.805a8.924,8.924,0,0,0,3.621-7.439,9.617,9.617,0,0,0-1.3-5.066,11.328,11.328,0,0,0-3.991-3.769,31.059,31.059,0,0,0-7.464-2.953,19.6,19.6,0,0,1-6.747-2.953,4.936,4.936,0,0,1-1.977-3.954A5.491,5.491,0,0,1,150.85,2.5,9.2,9.2,0,0,1,156.67.856,8.991,8.991,0,0,1,162.9,2.845a6.954,6.954,0,0,1,2.2,5.449h5.066a10.759,10.759,0,0,0-1.693-5.857,11.527,11.527,0,0,0-4.77-4.2,15.722,15.722,0,0,0-7.031-1.52A14.383,14.383,0,0,0,147.279-.33a9.242,9.242,0,0,0-3.608,7.464,8.758,8.758,0,0,0,2.953,6.71q2.953,2.718,9.441,4.584h0q5.177,1.5,7.142,3.027a5.2,5.2,0,0,1,1.977,4.35,5.293,5.293,0,0,1-2.125,4.436,9.945,9.945,0,0,1-6.129,1.631,10.742,10.742,0,0,1-6.833-2.014,6.574,6.574,0,0,1-2.558-5.474h-5.066a10.161,10.161,0,0,0,1.841,5.968,12.4,12.4,0,0,0,5.264,4.127A17.911,17.911,0,0,0,156.929,36m-31.905,0q6.067,0,9.7-2.805a8.924,8.924,0,0,0,3.621-7.439,9.617,9.617,0,0,0-1.3-5.066,11.189,11.189,0,0,0-3.991-3.769,31.059,31.059,0,0,0-7.464-2.953,19.754,19.754,0,0,1-6.747-2.953,4.936,4.936,0,0,1-1.977-3.954,5.478,5.478,0,0,1,2.088-4.56A9.173,9.173,0,0,1,124.764.856a8.991,8.991,0,0,1,6.228,1.989,6.954,6.954,0,0,1,2.2,5.449h5.079a10.7,10.7,0,0,0-1.705-5.857,11.526,11.526,0,0,0-4.77-4.2,15.721,15.721,0,0,0-7.031-1.52A14.332,14.332,0,0,0,115.386-.33a9.23,9.23,0,0,0-3.621,7.464,8.758,8.758,0,0,0,2.953,6.71q2.966,2.718,9.441,4.584h0q5.178,1.5,7.142,3.027a5.2,5.2,0,0,1,1.977,4.35,5.293,5.293,0,0,1-2.125,4.436,9.912,9.912,0,0,1-6.129,1.631,10.742,10.742,0,0,1-6.833-2.014,6.574,6.574,0,0,1-2.558-5.474h-5.066a10.161,10.161,0,0,0,1.841,5.968,12.386,12.386,0,0,0,5.276,4.127,17.825,17.825,0,0,0,7.34,1.52m-33.5,0q6.253,0,10.021-3.3t4.473-9.367h-5.066q-.741,4.733-2.978,6.636a9.72,9.72,0,0,1-6.45,1.9,8.414,8.414,0,0,1-7.278-3.682q-2.595-3.67-2.595-9.9V14.6q0-6.6,2.743-10.17A9.021,9.021,0,0,1,91.969.856,8.613,8.613,0,0,1,98.1,2.907q2.2,2.051,2.854,6.623h5.066A14.251,14.251,0,0,0,101.744.115q-3.682-3.4-9.774-3.4a15.008,15.008,0,0,0-8.081,2.162,14.184,14.184,0,0,0-5.4,6.2,21.841,21.841,0,0,0-1.9,9.379v3.682q0,8.131,4.078,12.987A13.476,13.476,0,0,0,91.524,36m65.4,5a22.959,22.959,0,0,1-9.38-1.95,17.648,17.648,0,0,1-6.732-5.034,14.684,14.684,0,0,1-3.039,3.138c-3.3,2.551-7.6,3.846-12.754,3.846a22.875,22.875,0,0,1-9.359-1.946,17.357,17.357,0,0,1-7.339-5.814l-.015-.022q-.155-.222-.3-.447a17.06,17.06,0,0,1-3.169,3.691C101.4,39.472,96.92,41,91.524,41a19.782,19.782,0,0,1-8.146-1.655,18.287,18.287,0,0,1-6.544-5c-3.484-4.149-5.249-9.6-5.249-16.2V14.461a26.881,26.881,0,0,1,2.377-11.5l0-.005A19.165,19.165,0,0,1,81.251-5.37h0A20,20,0,0,1,91.969-8.284c5.339,0,9.769,1.589,13.165,4.724l.006.006A17.324,17.324,0,0,1,108.359.463a14.989,14.989,0,0,1,3.86-4.662h0a19.241,19.241,0,0,1,12.546-4.084A20.738,20.738,0,0,1,134-6.25l.007,0a16.519,16.519,0,0,1,6.709,5.9A15.238,15.238,0,0,1,144.112-4.2l.007-.005A19.293,19.293,0,0,1,156.67-8.284a20.738,20.738,0,0,1,9.238,2.034l.007,0A16.5,16.5,0,0,1,172.7-.232a15.734,15.734,0,0,1,2.465,8.526,5,5,0,0,1-5,5h-1.6a15.754,15.754,0,0,1,4.661,4.8l0,.007a14.579,14.579,0,0,1,2.017,7.65,13.913,13.913,0,0,1-5.567,11.4C166.379,39.7,162.087,41,156.929,41Zm-4.787-18.568a4.983,4.983,0,0,1,.4,1.953,1.617,1.617,0,0,0,.639,1.537l.012.009a6.057,6.057,0,0,0,3.74.942c2.118,0,2.9-.456,3.091-.6a.619.619,0,0,0,.124-.116h0a1.041,1.041,0,0,0,.039-.349,1.563,1.563,0,0,0-.038-.4l-.017-.014c-.2-.154-1.406-1-5.451-2.164Q153.348,22.849,152.142,22.431Zm-31.906,0a4.984,4.984,0,0,1,.4,1.954,1.617,1.617,0,0,0,.639,1.537l.012.009a6.057,6.057,0,0,0,3.74.942c2.14,0,2.9-.457,3.085-.6a.636.636,0,0,0,.13-.121h0a1.041,1.041,0,0,0,.039-.349,1.563,1.563,0,0,0-.038-.4l-.017-.014c-.2-.154-1.406-1-5.451-2.164Q121.443,22.848,120.236,22.429ZM91.969,5.856a4.039,4.039,0,0,0-3.61,1.617c-1.118,1.455-1.708,3.918-1.708,7.124v3.695c0,3.078.564,5.437,1.677,7.011a3.442,3.442,0,0,0,3.2,1.569,5.483,5.483,0,0,0,3.214-.714c.1-.088.839-.818,1.274-3.6a5,5,0,0,1,4.94-4.226h5.066a5,5,0,0,1,3.268,1.216,5.008,5.008,0,0,1,1.28-.165h3.192a18.171,18.171,0,0,1-2.419-1.855l-.008-.007a14.332,14.332,0,0,1-2.87-3.629,5,5,0,0,1-2.443.637h-5.066A5,5,0,0,1,96,10.239c-.376-2.623-1.1-3.476-1.315-3.676l-.01-.01A3.886,3.886,0,0,0,91.969,5.856Zm49.359,12.25a13.428,13.428,0,0,1,.689,1.3q.225-.02.454-.02h3.188a18.04,18.04,0,0,1-2.422-1.862,14.141,14.141,0,0,1-3.313-4.507,4.993,4.993,0,0,1-1.654.28h-1.6A15.6,15.6,0,0,1,141.328,18.106Zm17.528-8.951q.723.2,1.405.411a5,5,0,0,1-.164-1.271c0-1.244-.366-1.573-.542-1.731a4.268,4.268,0,0,0-2.885-.708,4.528,4.528,0,0,0-2.722.568.41.41,0,0,0-.1.109,1.289,1.289,0,0,0-.069.48,1.51,1.51,0,0,0,.137.126c.289.232,1.471,1.035,4.945,2.016Zm-31.906,0q.723.2,1.4.411a5.007,5.007,0,0,1-.163-1.271c0-1.244-.366-1.573-.542-1.731a4.268,4.268,0,0,0-2.885-.708,4.468,4.468,0,0,0-2.715.573.458.458,0,0,0-.113.115,1.366,1.366,0,0,0-.068.469,1.49,1.49,0,0,0,.131.121C122.3,7.373,123.5,8.178,126.95,9.155Z" fill="#f8ffe5"/><g transform="translate(76.585 -3.284)"><path d="M100.953,23.333h5.066q-.7,6.067-4.473,9.366T91.524,36h0A13.476,13.476,0,0,1,80.663,31.13q-4.078-4.856-4.078-12.987h0V14.461a21.841,21.841,0,0,1,1.9-9.379,14.183,14.183,0,0,1,5.4-6.2,15.008,15.008,0,0,1,8.081-2.162h0q6.092,0,9.774,3.4a14.251,14.251,0,0,1,4.275,9.416h-5.066Q100.3,4.958,98.1,2.907A8.613,8.613,0,0,0,91.969.856h0a9.021,9.021,0,0,0-7.575,3.571Q81.651,8,81.651,14.6h0v3.695q0,6.228,2.595,9.9a8.414,8.414,0,0,0,7.278,3.682h0a9.72,9.72,0,0,0,6.45-1.9q2.237-1.9,2.978-6.636Zm23.206-4.906h0q-6.475-1.866-9.441-4.584a8.758,8.758,0,0,1-2.953-6.71h0A9.23,9.23,0,0,1,115.386-.33a14.332,14.332,0,0,1,9.379-2.953h0a15.722,15.722,0,0,1,7.031,1.52,11.526,11.526,0,0,1,4.77,4.2,10.7,10.7,0,0,1,1.705,5.857h-5.079a6.954,6.954,0,0,0-2.2-5.449A8.991,8.991,0,0,0,124.764.856h0A9.173,9.173,0,0,0,118.957,2.5a5.478,5.478,0,0,0-2.088,4.56h0a4.936,4.936,0,0,0,1.977,3.954,19.754,19.754,0,0,0,6.747,2.953,31.059,31.059,0,0,1,7.464,2.953,11.189,11.189,0,0,1,3.991,3.769,9.617,9.617,0,0,1,1.3,5.066h0a8.924,8.924,0,0,1-3.621,7.439q-3.633,2.8-9.7,2.805h0a17.825,17.825,0,0,1-7.34-1.52,12.386,12.386,0,0,1-5.276-4.127,10.161,10.161,0,0,1-1.841-5.968h5.066a6.574,6.574,0,0,0,2.558,5.474,10.742,10.742,0,0,0,6.833,2.014h0a9.912,9.912,0,0,0,6.129-1.631,5.293,5.293,0,0,0,2.125-4.436,5.2,5.2,0,0,0-1.977-4.35q-1.965-1.532-7.142-3.027Zm31.905,0h0q-6.487-1.866-9.441-4.584a8.758,8.758,0,0,1-2.953-6.71h0A9.242,9.242,0,0,1,147.279-.33a14.383,14.383,0,0,1,9.391-2.953h0a15.722,15.722,0,0,1,7.031,1.52,11.527,11.527,0,0,1,4.77,4.2,10.76,10.76,0,0,1,1.693,5.857H165.1a6.954,6.954,0,0,0-2.2-5.449A8.991,8.991,0,0,0,156.67.856h0A9.2,9.2,0,0,0,150.85,2.5a5.491,5.491,0,0,0-2.076,4.56h0a4.936,4.936,0,0,0,1.977,3.954,19.6,19.6,0,0,0,6.747,2.953,31.059,31.059,0,0,1,7.464,2.953,11.328,11.328,0,0,1,3.991,3.769,9.617,9.617,0,0,1,1.3,5.066h0a8.924,8.924,0,0,1-3.621,7.439Q163,36,156.929,36h0a17.911,17.911,0,0,1-7.352-1.52,12.4,12.4,0,0,1-5.264-4.127,10.161,10.161,0,0,1-1.841-5.968h5.066a6.574,6.574,0,0,0,2.558,5.474,10.742,10.742,0,0,0,6.833,2.014h0a9.945,9.945,0,0,0,6.129-1.631,5.293,5.293,0,0,0,2.125-4.436,5.2,5.2,0,0,0-1.977-4.35q-1.965-1.532-7.142-3.027Z" transform="translate(-76.585 3.284)" fill="#285943"/></g></g></g></svg>