<svg xmlns="http://www.w3.org/2000/svg" xmlns:xlink="http://www.w3.org/1999/xlink" width="460" height="422" viewBox="0 0 460 422"><defs><clipPath id="b"><rect width="460" height="422"/></clipPath></defs><g id="a" clip-path="url(#b)"><g transform="translate(0 -38.076)"><g transform="translate(8 66.076)"><path d="M28.3-1116.52a5.411,5.411,0,0,0-3.3,5.095,5.473,5.473,0,0,0,3.371,5.272l.938.38v37.767h32.14l.253.71a7.035,7.035,0,0,0,2.864,3.118,5.847,5.847,0,0,0,7.2-2.155,4.468,4.468,0,0,0,.76-2.915,4.6,4.6,0,0,0-.71-2.89,5.89,5.89,0,0,0-7.046-2.357,7,7,0,0,0-3.042,3.143l-.279.811H31.844v-35.232l.836-.329a5.658,5.658,0,0,0,3.473-5.2,5.385,5.385,0,0,0-5.576-5.6A7.251,7.251,0,0,0,28.3-1116.52Zm4.258,2.991a2.176,2.176,0,0,1,.938,2.155,2.3,2.3,0,0,1-.786,2.078,2.982,2.982,0,0,1-5.171-2.053,2.991,2.991,0,0,1,3.118-3.042A2.511,2.511,0,0,1,32.553-1113.53Zm36.449,42a3.02,3.02,0,0,1-1.622,5.221,3.157,3.157,0,0,1-2.94-1.242,4.292,4.292,0,0,1-.127-3.27A3.242,3.242,0,0,1,69-1071.53Z" transform="translate(-25 1116.957)" fill="#f8ffe5"/><path d="M92.225-1116.365a4.272,4.272,0,0,0-2.636,2.687,5.205,5.205,0,0,0,.177,4.841,4.857,4.857,0,0,0,4.588,2.966,4.421,4.421,0,0,0,2.484-.3l.786-.38,4.132,4.157,4.132,4.182h81.389l5.12,5.12,5.12,5.12-.406.76a6.272,6.272,0,0,0,.152,4.638,5.6,5.6,0,0,0,9.759.507,5.652,5.652,0,0,0-6.818-8.289l-.938.3-5.374-5.348-5.348-5.348H107.179l-3.777-3.777-3.8-3.8.3-.963c.558-1.85.583-2.053.3-3.219A5.543,5.543,0,0,0,92.225-1116.365Zm3.9,2.281a2.9,2.9,0,0,1,1.546,2.687,2.964,2.964,0,0,1-4.309,2.712,3.863,3.863,0,0,1-1.774-2.712,3.863,3.863,0,0,1,1.774-2.712A3.115,3.115,0,0,1,96.128-1114.084ZM203.9-1087.647a3.492,3.492,0,0,1,1.5,2.611,3.523,3.523,0,0,1-2.991,3.042,3.185,3.185,0,0,1-3.092-3.3,2.219,2.219,0,0,1,.862-1.926,2.219,2.219,0,0,1,1.926-.862A4.378,4.378,0,0,1,203.9-1087.647Z" transform="translate(-72.834 1117.004)" fill="#f8ffe5"/><path d="M159.092-1116.559a5.678,5.678,0,0,0-3.092,5.221,6.434,6.434,0,0,0,2.459,4.486,6.1,6.1,0,0,0,5.272.558,6.838,6.838,0,0,0,3.219-3.219l.253-.735,41.848.051,41.873.076L251-1108.3l.076,1.825-.963.406a5.675,5.675,0,0,0-3.473,5.348,5.6,5.6,0,0,0,9.936,3.5,5.566,5.566,0,0,0-1.648-8.466l-1.318-.634v-3.244l-.025-3.219H167.229l-.456-.989A5.748,5.748,0,0,0,159.092-1116.559Zm3.979,2.357a2.9,2.9,0,0,1,1.546,2.813,2.892,2.892,0,0,1-3.65,2.814,3.119,3.119,0,0,1-2.1-4.106A3.032,3.032,0,0,1,163.072-1114.2Zm90.716,10.8a3.786,3.786,0,0,1,1.572,2.687,3.6,3.6,0,0,1-1.5,2.458,4.374,4.374,0,0,1-1.8.431,2.219,2.219,0,0,1-1.926-.862,2.2,2.2,0,0,1-.862-1.9,2.939,2.939,0,0,1,1.572-2.89A2.687,2.687,0,0,1,253.788-1103.4Z" transform="translate(-122.796 1117.122)" fill="#f8ffe5"/><path d="M81.953-1013.681a6.173,6.173,0,0,0-3.143,2.307,6.032,6.032,0,0,0,.811,7.325,5.668,5.668,0,0,0,8.973-1.648l.558-1.141h20.86l6.666,6.666,6.641,6.641v4.943l-.811.33a5.881,5.881,0,0,0-2.991,2.864,5.76,5.76,0,0,0,.406,5.475,6.244,6.244,0,0,0,4.664,2.484,6.3,6.3,0,0,0,4.664-2.459,6.286,6.286,0,0,0,.659-5.019,5.945,5.945,0,0,0-2.966-3.219l-1.09-.482v-2.966l-.025-2.966L118.4-1002.1l-7.4-7.528H88.949l-.3-.862a6.186,6.186,0,0,0-1.419-1.876A5.3,5.3,0,0,0,81.953-1013.681Zm3.092,2.915a2.927,2.927,0,0,1,.735,4.537,2.958,2.958,0,0,1-5.221-1.445A3.018,3.018,0,0,1,85.045-1010.766Zm41.062,25.093a2.927,2.927,0,0,1,.735,4.537,2.9,2.9,0,0,1-4.816-.406C120.455-984.076,123.42-987.066,126.107-985.672Z" transform="translate(-64.514 1040.072)" fill="#f8ffe5"/><path d="M409.673-950.506a6.354,6.354,0,0,0-2.89,3.042l-.329.811h-32.14v40.225l-1.014.456a6.312,6.312,0,0,0-3.042,3.3,6.285,6.285,0,0,0,.659,5.019,6.3,6.3,0,0,0,4.664,2.459,6.3,6.3,0,0,0,4.664-2.459,6.1,6.1,0,0,0,.558-5.272,6.838,6.838,0,0,0-3.219-3.219l-.735-.253v-37.716h29.58l.456,1.014a6.313,6.313,0,0,0,3.3,3.042,6.212,6.212,0,0,0,4.993-.659,6.33,6.33,0,0,0,2.484-4.664,6.426,6.426,0,0,0-2.484-4.689A6.264,6.264,0,0,0,409.673-950.506Zm4.486,3.067a2.728,2.728,0,0,1,0,4.106,2.958,2.958,0,0,1-4.74-.532,3.537,3.537,0,0,1,.025-3.194A3.034,3.034,0,0,1,414.16-947.439Zm-37.209,43.875a3.257,3.257,0,0,1,1.673,2.839,3.268,3.268,0,0,1-2.433,2.89,3.113,3.113,0,0,1-3.574-2.509A3.06,3.06,0,0,1,376.951-903.564Z" transform="translate(-282.559 993.069)" fill="#f8ffe5"/><path d="M171.8-891.557a5.712,5.712,0,0,0-2.053,9.353,5.36,5.36,0,0,0,5.7,1.343l1.318-.456,6.818,6.818,6.793,6.793v65.9l-6.92,6.92-6.92,6.92-.938-.406a5.276,5.276,0,0,0-4.512.3,4.925,4.925,0,0,0-2.966,4.486,4.856,4.856,0,0,0,1.521,4.436,5.457,5.457,0,0,0,7.553.355,5.614,5.614,0,0,0,1.648-6.337l-.406-.938,7.249-7.249,7.224-7.224v-68.183l-7.122-7.148-7.122-7.148.38-1.5a5.708,5.708,0,0,0-1.724-6.083A5.732,5.732,0,0,0,171.8-891.557Zm2.966,2.535a2.933,2.933,0,0,1,1.926,2.864,2.212,2.212,0,0,1-.862,2,2.291,2.291,0,0,1-2.1.862,3.813,3.813,0,0,1-1.825-.406,4,4,0,0,1-1.293-2.712,3.408,3.408,0,0,1,2.028-2.636C173.775-889.428,173.775-889.428,174.764-889.022Zm.482,103.364a3.651,3.651,0,0,1,1.445,2.56,3.451,3.451,0,0,1-1.318,2.56,3.666,3.666,0,0,1-1.774.406,2.669,2.669,0,0,1-2.915-2.687,2.188,2.188,0,0,1,.456-1.977A3.157,3.157,0,0,1,175.245-785.658Z" transform="translate(-131.826 948.973)" fill="#f8ffe5"/><path d="M172.106-831.342a5.791,5.791,0,0,0-3.726,3.675,5.744,5.744,0,0,0,3.244,6.844l.786.329v61.187l-.862.3a6.189,6.189,0,0,0-1.876,1.419,5.584,5.584,0,0,0,5.627,9.176,4.947,4.947,0,0,0,3.32-2.535,5.829,5.829,0,0,0,.634-4.436A6.633,6.633,0,0,0,176.06-759l-.862-.3v-61.162l.989-.456a5.377,5.377,0,0,0,2.839-3.016,5.538,5.538,0,0,0-1.141-5.931A5.9,5.9,0,0,0,172.106-831.342Zm3.473,2.991a2.9,2.9,0,0,1-.684,5.145,2.145,2.145,0,0,1-2.1.025,2.891,2.891,0,0,1-1.039-4.867,2.212,2.212,0,0,1,2-.862A2.8,2.8,0,0,1,175.578-828.351Zm.127,72.137a3.193,3.193,0,0,1,1.014,3.244,3.081,3.081,0,0,1-2.966,2.129,2.212,2.212,0,0,1-2-.862,2.231,2.231,0,0,1-.862-2.028,3.836,3.836,0,0,1,.431-1.85A3.17,3.17,0,0,1,175.705-756.214Z" transform="translate(-131.855 903.966)" fill="#f8ffe5"/><path d="M298.628-705.33a5.782,5.782,0,0,0-3.27,7.4,6.587,6.587,0,0,0,3.092,3.118l.836.279v46.511l-.989.456a5.587,5.587,0,0,0,.507,10.392,5.542,5.542,0,0,0,7.4-5.221,5.609,5.609,0,0,0-3.625-5.348l-.76-.253v-23.218l.025-23.243,1.267-.608a5.626,5.626,0,0,0,1.9-8.517A5.951,5.951,0,0,0,298.628-705.33Zm3.042,2.484a2.933,2.933,0,0,1,1.926,2.864,2.212,2.212,0,0,1-.862,2,2.291,2.291,0,0,1-2.1.862,3.814,3.814,0,0,1-1.825-.406,4,4,0,0,1-1.293-2.712,3.408,3.408,0,0,1,2.028-2.636C300.681-703.252,300.681-703.252,301.669-702.846Zm0,57.537a3.04,3.04,0,0,1-.2,5.728,3.184,3.184,0,0,1-3.954-2.915,3.379,3.379,0,0,1,2.028-2.839C300.681-645.714,300.681-645.714,301.669-645.309Z" transform="translate(-226.541 809.942)" fill="#f8ffe5"/><path d="M223.656-650.672a5.692,5.692,0,0,0-4.309,5.3,5.451,5.451,0,0,0,3.067,5.247l1.242.634v50.44l-22.1-.025H179.426l-.634-1.318a5.549,5.549,0,0,0-10.063.279,5.545,5.545,0,0,0,5.019,7.908,7.06,7.06,0,0,0,2.281-.355,6.488,6.488,0,0,0,3.042-3.067l.33-.887h46.79v-52.975l1.141-.532a5.682,5.682,0,0,0-1.014-10.6A4.174,4.174,0,0,0,223.656-650.672Zm2.737,2.915a3.332,3.332,0,0,1,1.572,2.737,3.082,3.082,0,0,1-4.03,2.737,2.739,2.739,0,0,1-1.926-2.839,2.177,2.177,0,0,1,.938-2.129A2.876,2.876,0,0,1,226.393-647.757ZM175.9-590.042a3.036,3.036,0,0,1-3.447,4.917,2.636,2.636,0,0,1-1.521-2.611,2.532,2.532,0,0,1,1.343-2.611A3.212,3.212,0,0,1,175.9-590.042Z" transform="translate(-131.901 769.047)" fill="#f8ffe5"/><path d="M346.852-1013.73c-.127.051-.684.152-1.217.253a5.865,5.865,0,0,0-3.523,3.092l-.482,1.09H312v59.438l7.5,7.5,7.5,7.5-.406,1.343a9.738,9.738,0,0,0-.406,1.876,6.084,6.084,0,0,0,3.422,4.993,5.735,5.735,0,0,0,6.286-1.191,5.564,5.564,0,0,0-3.954-9.505,7.428,7.428,0,0,0-2.281.355l-.887.38-7.122-7.224-7.122-7.224v-55.712h27.07l.558,1.141a5.479,5.479,0,0,0,7.629,2.459,4.922,4.922,0,0,0,2.966-4.334,5.257,5.257,0,0,0-1.293-4.233C350.324-1013.045,347.866-1014.11,346.852-1013.73Zm1.9,3.042c2.915,1.521,1.115,6.21-2.129,5.6a3.1,3.1,0,0,1-1.926-4.664A3.082,3.082,0,0,1,348.753-1010.688Zm-14.8,76.7a4.088,4.088,0,0,1,.887,1.521,2.033,2.033,0,0,1-.177,1.926c-1.419,2.864-5.678,2.028-5.678-1.115a2.548,2.548,0,0,1,1.343-2.636A3.212,3.212,0,0,1,333.95-933.989Z" transform="translate(-238.893 1040.248)" fill="#f8ffe5"/><g transform="translate(111.659 86.501)"><g transform="translate(0 0.56)"><path d="M289.664-1161.544c-1.175.5-1.007,76.99.112,81.8,1.343,5.6,5.092,11.918,7.553,12.7.783.224,2.909-.951,7.553-4.252l6.49-4.532-1.343-1.511a17.82,17.82,0,0,1-3.917-6.267c-.448-1.343-.727-12.7-.951-39.95l-.28-38.047-7.274-.112A76.037,76.037,0,0,0,289.664-1161.544Z" transform="translate(-201.428 1161.727)" fill="#f8ffe5"/><path d="M295.477-1161.727a54.928,54.928,0,0,0-5.812.183c-1.175.5-1.007,76.99.112,81.8,1.343,5.6,5.092,11.918,7.553,12.7.784.224,2.91-.951,7.553-4.252l6.49-4.532-1.343-1.511a17.82,17.82,0,0,1-3.917-6.267c-.448-1.343-.727-12.7-.951-39.95l-.28-38.047-7.274-.112c-.728-.01-1.446-.015-2.133-.015m0-8,2.245.016,7.284.112a8,8,0,0,1,7.877,7.94l.28,38.047c.068,8.322.271,33,.714,37.879a10.069,10.069,0,0,0,1.975,2.908l1.5,1.684a8,8,0,0,1,1.966,6.251,8,8,0,0,1-3.365,5.623l-6.49,4.532c-5.658,4.022-8.585,5.72-11.924,5.72a9.59,9.59,0,0,1-2.408-.334c-7.757-2.464-12.1-14.2-13.134-18.526-.884-3.8-1.105-26.22-1.137-44.369-.078-44.2-.078-44.2,5.652-46.652C288.091-1169.452,288.916-1169.727,295.477-1169.727Z" transform="translate(-201.428 1161.727)" fill="#285943"/><path d="M654.833-1157.029c-7.665,5.371-7.553,5.2-5.763,7.05,2.91,3.021,4.029,6.546,4.252,13.428.112,3.469,0,6.323-.224,6.323a23.478,23.478,0,0,1-3.861-2.518c-4.476-3.413-6.714-4.084-9.568-2.742-3.245,1.455-13.372,11.75-14.883,15.107-1.231,2.63-1.287,3.245-1.287,19.248,0,19.639-.168,19.08,7.106,26.633,8.617,8.952,11.3,9.959,16.9,6.211,1.734-1.175,4.14-3.021,5.371-4.084,2.182-2.014,3.357-2.126,3.357-.336a15.012,15.012,0,0,0,.615,3.021l.56,2.126H669.66v-39.054c0-36.536-.056-39.278-1.063-42.8-1.343-4.924-5.987-11.694-7.889-11.582C660.54-1160.945,657.91-1159.211,654.833-1157.029Zm-5.651,37.991c4.029,2.574,4.252,3.525,4.252,17.457a120.641,120.641,0,0,1-.56,13.988c-.671,2.35-4.252,5.26-7.274,5.875-1.455.28-2.07,0-3.693-1.567a9.806,9.806,0,0,1-2.462-3.861c-.727-2.574-.727-25.4,0-28.032s3.637-5.539,5.539-5.539A11.523,11.523,0,0,1,649.182-1119.037Z" transform="translate(-348.832 1161.408)" fill="#f8ffe5"/><path d="M660.755-1161h-.047c-.168.056-2.8,1.79-5.875,3.973-7.665,5.371-7.553,5.2-5.763,7.05,2.91,3.021,4.029,6.546,4.252,13.428.112,3.469,0,6.323-.224,6.323a23.478,23.478,0,0,1-3.861-2.518c-4.476-3.413-6.714-4.085-9.568-2.742-3.245,1.455-13.372,11.75-14.883,15.107-1.231,2.63-1.287,3.245-1.287,19.248,0,19.639-.168,19.08,7.106,26.633,8.617,8.952,11.3,9.96,16.9,6.211,1.734-1.175,4.14-3.021,5.371-4.084,2.182-2.015,3.357-2.126,3.357-.336a15.012,15.012,0,0,0,.615,3.021l.56,2.126H669.66v-39.054c0-36.536-.056-39.278-1.063-42.8-1.332-4.883-5.911-11.583-7.842-11.583m-16.008,79.381c-.919,0-1.571-.438-2.839-1.662a9.806,9.806,0,0,1-2.462-3.861c-.727-2.574-.727-25.4,0-28.032s3.637-5.539,5.539-5.539a11.523,11.523,0,0,1,4.2,1.679c4.029,2.574,4.252,3.525,4.252,17.457a120.641,120.641,0,0,1-.56,13.988c-.671,2.35-4.252,5.26-7.274,5.875a4.543,4.543,0,0,1-.854.1M660.755-1169c9.989,0,15.512,17.3,15.56,17.478,1.345,4.705,1.345,7.741,1.345,44.908v39.054a8,8,0,0,1-8,8H657.407a7.993,7.993,0,0,1-5.411-2.108l-.005,0a17.343,17.343,0,0,1-9.706,3.429c-6.6,0-11.6-4.644-17.442-10.715-9.346-9.7-9.346-12.519-9.342-30.883v-1.3c0-16.548,0-18.278,2.041-22.639,2.307-5.128,13.792-16.745,18.856-19.016a13.671,13.671,0,0,1,5.878-1.347,13.068,13.068,0,0,1,1.371.072c-.115-.135-.229-.253-.339-.368a9.7,9.7,0,0,1-3.2-7.822c.427-4.528,3.275-6.522,9.514-10.892,6.916-4.9,7.677-5.153,8.558-5.447a8,8,0,0,1,2.06-.4C660.393-1169,660.6-1169,660.755-1169Z" transform="translate(-348.832 1161.408)" fill="#285943"/><path d="M148.267-1115.322c-3.357,2.126-9.9,8.729-12.421,12.533-2.686,4.084-3.245,7.665-3.245,21.038,0,17.4.56,19.024,9.512,28.088,5.707,5.707,8.84,7.553,11.414,6.714,2.238-.839,5.931-3.413,9.736-6.882a17.437,17.437,0,0,1,3.357-2.686c.056.112.951,1.343,1.846,2.742,2.8,4.029,5.651,6.882,6.434,6.378.392-.224,2.91-2.294,5.651-4.644l4.868-4.2-2.182-2.294a13.749,13.749,0,0,1-2.8-3.8c-.392-1.007-.615-10.575-.615-27.3v-25.682H167.738l-.671,3.357c-.392,1.846-.9,3.357-1.175,3.357a32.742,32.742,0,0,1-4.252-3.077c-3.973-3.189-7.889-5.315-9.68-5.315A11.838,11.838,0,0,0,148.267-1115.322Zm10.911,15.667c3.973,2.574,4.14,3.357,4.14,17.625,0,6.77-.168,12.981-.448,13.82a6.753,6.753,0,0,1-1.679,2.742c-1.623,1.511-5.092,3.3-6.434,3.3-1.511,0-3.973-2.63-5.315-5.6-1.063-2.294-1.175-3.581-1.175-13.988,0-10.743.112-11.638,1.343-14.436C151.959-1101.557,154.645-1102.509,159.177-1099.655Z" transform="translate(-132.6 1142.025)" fill="#f8ffe5"/><path d="M151.959-1117a11.838,11.838,0,0,0-3.693,1.678c-3.357,2.126-9.9,8.729-12.421,12.533-2.686,4.084-3.245,7.665-3.245,21.038,0,17.4.56,19.024,9.512,28.088,5.707,5.707,8.841,7.553,11.414,6.714,2.238-.839,5.931-3.413,9.736-6.882a17.458,17.458,0,0,1,3.357-2.686c.056.112.951,1.343,1.846,2.742,2.8,4.029,5.651,6.883,6.434,6.378.392-.224,2.91-2.294,5.651-4.644l4.868-4.2-2.182-2.294a13.749,13.749,0,0,1-2.8-3.8c-.392-1.007-.615-10.575-.615-27.3v-25.682H167.738l-.671,3.357c-.392,1.846-.9,3.357-1.175,3.357a32.742,32.742,0,0,1-4.252-3.077c-3.973-3.189-7.889-5.315-9.68-5.315m2.8,54.833c-1.511,0-3.973-2.63-5.315-5.6-1.063-2.294-1.175-3.581-1.175-13.988,0-10.743.112-11.638,1.343-14.436,2.35-5.371,5.036-6.323,9.568-3.469,3.973,2.574,4.14,3.357,4.14,17.625,0,6.77-.168,12.981-.448,13.82a6.753,6.753,0,0,1-1.679,2.742c-1.623,1.511-5.092,3.3-6.434,3.3m-2.8-62.833c3.27,0,6.975,1.746,10.274,3.873a7.989,7.989,0,0,1,5.5-2.195h12.086a8,8,0,0,1,8,8v25.682c0,16.531.215,22.533.347,24.658.19.218.455.526.723.794l2.322,2.437a8,8,0,0,1,2.194,5.909,8,8,0,0,1-2.767,5.664l-4.868,4.2c-5.548,4.755-6.4,5.241-6.908,5.532a8.882,8.882,0,0,1-4.183,1.11c-2.48,0-5.348-.774-9.513-5.6a35.487,35.487,0,0,1-8.834,5.479,12.348,12.348,0,0,1-4.022.7c-5.5,0-10.147-3.539-15.858-9.25-10.98-11.117-11.855-15.288-11.855-33.745,0-13.144.412-19.124,4.561-25.433,3.173-4.794,10.509-12.163,14.825-14.9C148.73-1125,151.076-1125,151.959-1125Z" transform="translate(-132.6 1142.025)" fill="#285943"/><path d="M358.758-1115.322c-4.2,2.126-13.2,9.624-15.331,12.757-2.294,3.413-2.854,6.434-3.189,17.513-.28,9.624.168,16.114,1.567,20.87.783,2.8,5.371,7.665,11.694,12.421,6.043,4.588,8.728,5.651,11.694,4.756,4.029-1.175,15.387-9.9,18.128-13.876,2.574-3.749,3.357-9.68,3.021-23-.28-12.981-.839-15.89-3.357-19.248-3.917-5.147-16.338-13.876-19.7-13.876A15.4,15.4,0,0,0,358.758-1115.322Zm9.4,16.282c2.238,2.8,2.854,7.442,2.574,20.087-.224,10.127-.224,10.463-1.734,12.981-1.79,3.021-3.973,4.924-5.707,4.924-1.567,0-5.2-3.525-6.267-6.1-1.119-2.574-1.623-18.744-.839-24.843.615-4.868,2.294-7.945,5.371-9.848,1.623-1.063,1.79-1.063,3.357-.168A14.194,14.194,0,0,1,368.158-1099.04Z" transform="translate(-224.026 1142.025)" fill="#f8ffe5"/><path d="M363.29-1117a15.4,15.4,0,0,0-4.532,1.678c-4.2,2.126-13.2,9.624-15.331,12.757-2.294,3.413-2.854,6.434-3.189,17.513-.28,9.624.168,16.114,1.567,20.87.783,2.8,5.371,7.665,11.694,12.421,6.043,4.588,8.729,5.651,11.694,4.756,4.029-1.175,15.387-9.9,18.128-13.876,2.574-3.749,3.357-9.68,3.021-23-.28-12.981-.839-15.89-3.357-19.248-3.917-5.147-16.338-13.876-19.7-13.876m0,55.952c-1.567,0-5.2-3.525-6.267-6.1-1.119-2.574-1.623-18.744-.839-24.843.615-4.868,2.294-7.945,5.371-9.848,1.623-1.063,1.791-1.063,3.357-.168a14.194,14.194,0,0,1,3.245,2.965c2.238,2.8,2.854,7.442,2.574,20.087-.224,10.127-.224,10.463-1.734,12.981-1.79,3.021-3.973,4.924-5.707,4.924m0-63.952c7.57,0,22.2,11.952,26.062,17.032,4.231,5.641,4.7,10.749,4.989,23.919.335,13.285-.271,21.646-4.424,27.7-3.579,5.186-16.254,15.211-22.484,17.028a14.333,14.333,0,0,1-4.112.61c-4.908,0-9.092-2.447-14.659-6.675-5.707-4.293-12.894-10.685-14.56-16.636-1.609-5.468-2.174-12.454-1.86-23.26.338-11.15.844-16.234,4.546-21.743,3.155-4.65,13.33-12.885,18.355-15.431C357.367-1123.6,360.634-1125,363.29-1125Z" transform="translate(-224.026 1142.025)" fill="#285943"/><path d="M464.934-1115.834a45.945,45.945,0,0,0-6.1,4.308c-3.581,2.965-3.917,3.133-4.476,2.182-1.4-2.406-5.2-6.77-6.043-6.938-.951-.168-13.317,8.113-13.317,8.9a7,7,0,0,0,1.4,2.07,26.311,26.311,0,0,1,2.686,4.42c1.231,2.63,1.231,3.189,1.4,27.7l.168,25.066h16.17l.112-24.171.168-24.171,2.965-2.406c1.623-1.343,3.469-2.406,4.084-2.406,1.343,0,3.189,2.854,3.637,5.707.224,1.175.615,2.126.9,2.126.615,0,11.246-7.553,12.142-8.617,1.958-2.35-4.364-10.855-10.407-13.988C468.124-1117.233,467.676-1117.177,464.934-1115.834Z" transform="translate(-265.802 1141.978)" fill="#f8ffe5"/><path d="M467.967-1116.893a7.446,7.446,0,0,0-3.033,1.059,45.945,45.945,0,0,0-6.1,4.308c-3.581,2.965-3.917,3.133-4.476,2.182-1.4-2.406-5.2-6.77-6.043-6.938-.948-.166-13.317,8.113-13.317,8.9a7,7,0,0,0,1.4,2.07,26.311,26.311,0,0,1,2.686,4.42c1.231,2.63,1.231,3.189,1.4,27.7l.168,25.066h16.17l.112-24.171.168-24.171,2.965-2.406c1.623-1.343,3.469-2.406,4.084-2.406,1.343,0,3.189,2.854,3.637,5.707.224,1.175.615,2.126.9,2.126.615,0,11.246-7.553,12.142-8.617,1.958-2.35-4.364-10.855-10.407-13.988a5.523,5.523,0,0,0-2.451-.835m0-8h0a12.894,12.894,0,0,1,6.1,1.715c6.1,3.165,13.508,10.79,14.884,17.621a10.059,10.059,0,0,1-1.979,8.609c-.123.146-12.765,11.5-18.287,11.5a8.359,8.359,0,0,1-3.652-.869l-.1,14.074-.112,24.153a8,8,0,0,1-8,7.963h-16.17a8,8,0,0,1-8-7.946l-.168-25.066c-.1-15.171-.155-22.671-.5-24.067a21.035,21.035,0,0,0-1.763-3.026c-2.833-3.231-3.217-5.528-3.217-7.148,0-7.723,18.274-16.9,21.284-16.9a8.366,8.366,0,0,1,1.425.125c2.408.481,4.762,2.342,6.71,4.386a38.067,38.067,0,0,1,4.936-3.216A14.516,14.516,0,0,1,467.967-1124.893Z" transform="translate(-265.802 1141.978)" fill="#285943"/><path d="M542.316-1115.6c-3.413,1.678-12.7,9.288-15.331,12.533-2.686,3.413-3.413,6.826-3.749,17.457-.336,9.9.392,18.8,1.79,22.213,1.79,4.2,14.6,14.827,19.863,16.394a7.134,7.134,0,0,0,4.7-.056,46.272,46.272,0,0,0,12.086-6.826c2.742-2.574,6.155-6.77,6.155-7.665,0-.783-9.456-8.057-11.47-8.784-.5-.224-1.231.56-1.958,2.126-1.9,3.749-5.483,7.162-7.553,7.162-3.693,0-6.434-4.7-7.274-12.477-.336-2.965-.28-3.749.336-3.749H554.4c7.554,0,14.044-.224,14.492-.5.56-.392.671-2.406.5-9.9-.168-8.113-.392-9.792-1.4-12.03-2.574-5.707-17.121-17.345-21.541-17.289A16.874,16.874,0,0,0,542.316-1115.6Zm7.5,14.659c2.518,1.846,3.469,4.029,3.637,8.113l.112,3.525H539.574l.168-1.958c.28-3.8,1.79-7.721,3.749-9.792C545.617-1103.348,546.624-1103.348,549.813-1100.942Z" transform="translate(-304.632 1142.026)" fill="#f8ffe5"/><path d="M546.488-1117h-.032a16.874,16.874,0,0,0-4.14,1.4c-3.413,1.678-12.7,9.288-15.331,12.533-2.686,3.413-3.413,6.826-3.749,17.457-.336,9.9.392,18.8,1.79,22.213,1.79,4.2,14.6,14.827,19.863,16.394a7.134,7.134,0,0,0,4.7-.056,46.272,46.272,0,0,0,12.086-6.826c2.742-2.574,6.155-6.77,6.155-7.665,0-.783-9.456-8.057-11.47-8.784-.5-.224-1.231.56-1.958,2.126-1.9,3.749-5.483,7.162-7.553,7.162-3.693,0-6.434-4.7-7.274-12.477-.336-2.965-.28-3.749.336-3.749H554.4c7.554,0,14.044-.224,14.492-.5.56-.392.671-2.406.5-9.9-.168-8.113-.392-9.792-1.4-12.03C565.43-1105.4,550.947-1117,546.488-1117m7.074,27.7H539.574l.168-1.958c.28-3.8,1.79-7.721,3.749-9.792,2.126-2.294,3.133-2.294,6.323.112,2.518,1.846,3.469,4.029,3.637,8.113l.112,3.525m-7.074-35.7h0c8.688,0,25.437,14.543,28.8,22,1.732,3.849,1.933,6.854,2.1,15.153.216,9.663.306,13.669-3.914,16.623a7.8,7.8,0,0,1-2.725,1.218c2.825,2.585,5.074,5.553,5.074,8.454,0,3.55-2.92,8.092-8.679,13.5-3.2,2.959-11.382,7.571-15.4,8.7a14.625,14.625,0,0,1-9.156.015c-6.955-2.072-22.012-14.095-24.922-20.917-2.828-6.9-2.572-21.355-2.428-25.623.352-11.16,1.189-16.709,5.457-22.133,3.165-3.907,13.367-12.444,18.087-14.765a24.111,24.111,0,0,1,7.058-2.2C546.047-1124.992,546.284-1125,546.489-1125Z" transform="translate(-304.632 1142.026)" fill="#285943"/><path d="M240.369-1113.615c-.5.5-.4,39.851.1,45.112a35.215,35.215,0,0,0,1.538,7.3c.993,2.68,4.963,7.841,6.055,7.841.5,0,9.181-5.856,10.918-7.345.794-.695.794-.844-.4-2.233a21.7,21.7,0,0,1-2.332-3.524c-1.092-1.985-1.092-2.531-1.34-24.615l-.248-22.581-7-.149A51.574,51.574,0,0,0,240.369-1113.615Z" transform="translate(-179.926 1148.332)" fill="#f8ffe5"/><path d="M245.7-1113.826a34.854,34.854,0,0,0-5.331.212c-.5.5-.4,39.851.1,45.112a35.215,35.215,0,0,0,1.538,7.3c.993,2.68,4.963,7.841,6.055,7.841.5,0,9.181-5.856,10.918-7.345.794-.695.794-.844-.4-2.233a21.7,21.7,0,0,1-2.332-3.524c-1.092-1.985-1.092-2.531-1.34-24.615l-.248-22.581-7-.149c-.676-.009-1.336-.013-1.964-.013m0-8,2.069.014,7.064.15a8,8,0,0,1,7.829,7.91l.248,22.581c.151,13.415.224,19.961.5,21.329.279.338.949,1.34,1.2,1.643,6.151,7.175.773,12.512-.367,13.509-.169.146-11.189,9.324-16.186,9.324-8.069,0-13.508-12.932-13.557-13.063a42.4,42.4,0,0,1-2-9.262c-.048-.511-2.859-46.52,2.2-51.581a8.013,8.013,0,0,1,.854-.741C237.872-1121.743,239.836-1121.826,245.7-1121.826Z" transform="translate(-179.926 1148.332)" fill="#285943"/></g><path d="M240.428-542.465c-2.249,1.678-4.428,3.928-4.428,4.642,0,.643,4.749,5.07,6.034,5.57,1.035.429,1.25.393,2.5-.428,1.714-1.143,5.392-4.677,5.392-5.213,0-1.035-5.784-6.106-6.963-6.106A9.872,9.872,0,0,0,240.428-542.465Z" transform="translate(-174.447 553.815)" fill="#f8ffe5"/><path d="M242.963-544a9.872,9.872,0,0,0-2.535,1.535c-2.249,1.678-4.428,3.928-4.428,4.642,0,.643,4.749,5.07,6.034,5.57,1.035.429,1.25.393,2.5-.428,1.714-1.143,5.392-4.677,5.392-5.213,0-1.035-5.784-6.106-6.963-6.106m0-8c4.82,0,14.963,7.9,14.963,14.106,0,5.325-6.262,10.075-8.954,11.87a10.485,10.485,0,0,1-5.96,2.043,10.364,10.364,0,0,1-4.036-.879c.034.017-10.975-5.876-10.975-12.962,0-1.464,0-5.351,7.644-11.054C239.1-551.467,241.069-552,242.963-552Z" transform="translate(-174.447 553.815)" fill="#285943"/></g></g><g transform="translate(93.046 280.124)"><g transform="translate(0 0)"><path d="M741.456-589.377a4.726,4.726,0,0,0-2.82,2.1c-.543.75-.6,1.113-.518,2.665.1,1.682.155,1.811,1.164,2.743a4.574,4.574,0,0,0,4.244,1.346l1.009-.259,3.7,4.58c2.044,2.51,3.778,4.684,3.881,4.865.1.155-1.682,8.358-3.985,18.242-2.277,9.859-4.4,18.967-4.684,20.261-.647,2.846-.828,3.234-1.6,3.234a4.907,4.907,0,0,0-2.82,1.863,5.8,5.8,0,0,0-.466,4.166,4.956,4.956,0,0,0,5.072,2.924,4.976,4.976,0,0,0,3.752-4.632,5.352,5.352,0,0,0-1.785-3.571l-.8-.621,3.623-15.655c1.992-8.617,4.192-18.113,4.891-21.089,1.113-4.709,1.242-5.512.932-5.951-.181-.285-2.1-2.665-4.218-5.279-3.856-4.735-3.881-4.787-3.467-5.408a5.014,5.014,0,0,0-.259-4.632A4.564,4.564,0,0,0,741.456-589.377Zm2.82,2.743a2.473,2.473,0,0,1-1.242,4.063,2.87,2.87,0,0,1-2.613-1.061,3.4,3.4,0,0,1,0-2.665,2.787,2.787,0,0,1,2.562-1.087A3.36,3.36,0,0,1,744.277-586.635Zm.362,59.773a2.436,2.436,0,0,1-2.82,3.881,2.305,2.305,0,0,1-.673-3.8A2.417,2.417,0,0,1,744.639-526.861Z" transform="translate(-660.731 602.571)" fill="#f8ffe5"/><path d="M441.816-639.629a4.557,4.557,0,0,0-2.122,6.365,4.545,4.545,0,0,0,7.892.026l.6-1.061,17.88.052,17.88.078,2.381,9.833,2.355,9.833-.828.725a4.575,4.575,0,0,0,3.027,8.021,4.535,4.535,0,0,0,4.451-4.451,4.515,4.515,0,0,0-3.7-4.58l-.957-.155-2.536-10.713-2.562-10.713H448.156l-.362-.854A4.612,4.612,0,0,0,441.816-639.629Zm3.519,2.458c2.174,2.2-.932,5.589-3.26,3.571a2.491,2.491,0,0,1-.828-1.656,1.708,1.708,0,0,1,.647-1.889A2.259,2.259,0,0,1,445.335-637.17Zm47.224,25.151a2.394,2.394,0,0,1-1.76,4.114,2.229,2.229,0,0,1-2.277-1.656A2.434,2.434,0,0,1,492.559-612.019Z" transform="translate(-439.134 639.988)" fill="#f8ffe5"/><path d="M752.141-639.448a4.54,4.54,0,0,0-.724,7.659,4.614,4.614,0,0,0,6.857-1.682l.31-.776h29.059l2.381,9.393,2.381,9.367-.621.517a4.8,4.8,0,0,0-1.087,5.952,4.562,4.562,0,0,0,7.866-.1,4.525,4.525,0,0,0-2.924-6.624l-1.242-.311-2.588-10.117-2.562-10.143H758.791l-.492-.983a4.1,4.1,0,0,0-2.432-2.251A4.379,4.379,0,0,0,752.141-639.448Zm3.493,2.225a2.137,2.137,0,0,1,.7,2.82,2.3,2.3,0,0,1-3.778.725A2.348,2.348,0,0,1,755.634-637.222Zm40,23.677a2.891,2.891,0,0,1,1.449,2.458,2.631,2.631,0,0,1-2.458,2.2,2.532,2.532,0,0,1-2.458-2.381A2.423,2.423,0,0,1,795.639-613.546Z" transform="translate(-669.295 639.936)" fill="#f8ffe5"/><path d="M1042.727-639.327a4.421,4.421,0,0,0-.88,7.219,4.537,4.537,0,0,0,7.142-1.242l.44-.88h27.532l-.259.957c-.155.543-1.346,4.994-2.665,9.859l-2.355,8.9-1.423.466c-3.881,1.32-4.451,5.9-1.009,8.229a3.193,3.193,0,0,0,2.51.517c2.432-.155,3.907-1.449,4.14-3.648a4.3,4.3,0,0,0-1.216-4.063l-.983-.983,2.95-11.075c1.63-6.107,2.95-11.1,2.95-11.153s-6.805-.078-15.137-.078c-12.524,0-15.137-.052-15.137-.336a4.118,4.118,0,0,0-.75-1.4A4.526,4.526,0,0,0,1042.727-639.327Zm3.338,1.76a2.761,2.761,0,0,1,1.294,2.691,3.208,3.208,0,0,1-2.3,1.941,2.5,2.5,0,0,1-2.122-3.907A2.528,2.528,0,0,1,1046.065-637.568Zm27.092,26.083a2.419,2.419,0,0,1-2.976,3.778,2.438,2.438,0,0,1-.233-3.907A2.217,2.217,0,0,1,1073.157-611.485Z" transform="translate(-884.789 639.919)" fill="#f8ffe5"/><path d="M451.856-598.558a4.786,4.786,0,0,0-2.355,5.926,4.562,4.562,0,0,0,6.314,2.225c1.113-.543,1.139-.543,1.811-.052.388.285,3.105,2.174,6.055,4.192,4.58,3.131,5.408,3.778,5.589,4.5.129.466,2.846,11.282,6.029,24.039l5.8,23.237-.75.7a4.536,4.536,0,0,0,2.51,8,4.5,4.5,0,0,0,4.839-5.563,4.762,4.762,0,0,0-3.881-3.493c-.621-.129-.828-.8-6.7-24.4-5.848-23.5-6.081-24.3-6.831-24.918-.414-.362-3.338-2.406-6.443-4.528l-5.667-3.907-.052-1.785a4.215,4.215,0,0,0-.673-2.691A4.967,4.967,0,0,0,451.856-598.558Zm3.519,2.458a2.419,2.419,0,0,1-2.976,3.778,2.438,2.438,0,0,1-.233-3.907A2.217,2.217,0,0,1,455.376-596.1Zm29.447,63.784a3.747,3.747,0,0,1,.725,1.113,1.783,1.783,0,0,1-.052,1.76,2.374,2.374,0,0,1-4.425,0,2.182,2.182,0,0,1,.492-2.665A2.586,2.586,0,0,1,484.822-532.316Z" transform="translate(-446.586 609.526)" fill="#f8ffe5"/><path d="M555.717-598.453A5.173,5.173,0,0,0,553-594.235a4.9,4.9,0,0,0,3.648,4.373c.75.129,1.061.311,1.164.725.078.311.983,4.114,2.018,8.436l1.889,7.892,5.719,2.329,5.693,2.329.155,1.19a4.6,4.6,0,0,0,6.443,3.752,4.555,4.555,0,0,0,2.536-5.046,4.554,4.554,0,0,0-7.711-2.277l-.569.518-4.865-1.992c-2.665-1.087-5.046-2.07-5.253-2.2-.259-.129-1.035-2.924-2.277-8.073l-1.889-7.84.647-.492a4.475,4.475,0,0,0,1.785-3.623,4.213,4.213,0,0,0-4.166-4.5A5.119,5.119,0,0,0,555.717-598.453Zm3.053,1.992a2.365,2.365,0,0,1,.44,3.907,2.375,2.375,0,0,1-3.778-.6,2.128,2.128,0,0,1,0-2.277A2.565,2.565,0,0,1,558.77-596.46Zm20.83,27.506a2.185,2.185,0,0,1-.155,3.286,2.285,2.285,0,0,1-3.8-.724C574.477-568.825,577.66-570.9,579.6-568.954Z" transform="translate(-523.536 609.421)" fill="#f8ffe5"/><path d="M1110.944-597.576a4.362,4.362,0,0,0-3.39,4.321,4.142,4.142,0,0,0,1.578,3.571l.828.673-1.63,6.961-1.63,6.935,3.027,4.5,3.053,4.528-.569,1.113a4.646,4.646,0,0,0,1.889,6.133,5.486,5.486,0,0,0,4.244,0,4.627,4.627,0,0,0,1.915-6.055c-.906-1.811-2.173-2.484-4.813-2.51l-1.035-.026-2.743-4.088-2.769-4.088.466-1.863c.259-1.035.957-3.907,1.553-6.417l1.061-4.528,1.113-.31a4.565,4.565,0,0,0,2.717-6.935,4.823,4.823,0,0,0-1.837-1.5A3.233,3.233,0,0,0,1110.944-597.576Zm2.639,2.588a2.455,2.455,0,0,1-.414,4.037,2.407,2.407,0,0,1-3.545-2.225A2.42,2.42,0,0,1,1113.583-594.989Zm4.4,30.559a2.087,2.087,0,0,1,.052,3.028,2.137,2.137,0,0,1-2.821.7,2.45,2.45,0,0,1,.1-4.5A2.251,2.251,0,0,1,1117.982-564.429Z" transform="translate(-933.961 608.7)" fill="#f8ffe5"/><path d="M805.49-591.206a4.126,4.126,0,0,0-2.795,2.355c-1.76,3.623,1.889,7.737,5.615,6.314A5.728,5.728,0,0,0,811-585.151l.31-.75,2.1.078,2.07.078,2.251,9.134c1.216,5.02,2.277,9.16,2.329,9.212s2.846,1.32,6.184,2.82l6.081,2.691.155,1.164a4.845,4.845,0,0,0,1.941,3.467,4.623,4.623,0,0,0,6.34-.983,5.185,5.185,0,0,0,.181-4.994c-1.449-2.458-5.175-2.976-7.012-.957-.466.518-.492.518-4.14-1.113-2.018-.88-4.658-2.07-5.874-2.639l-2.225-1.035-.31-1.4c-.181-.776-1.216-5.046-2.277-9.5l-1.992-8.073h-2.95c-2.562,0-2.95-.052-3.105-.466A4.571,4.571,0,0,0,805.49-591.206Zm3,2.639a2.436,2.436,0,0,1-2.82,3.881,2.305,2.305,0,0,1-.673-3.8A2.417,2.417,0,0,1,808.491-588.567Zm30.146,25.876a1.8,1.8,0,0,1,.8,1.786,1.8,1.8,0,0,1-.8,1.785,2.415,2.415,0,0,1-3.856-2.717A2.42,2.42,0,0,1,838.637-562.691Z" transform="translate(-708.282 603.986)" fill="#f8ffe5"/><path d="M1023.9-589.476a5,5,0,0,0-2.484,2.225,5.927,5.927,0,0,0,.026,4.062,4.968,4.968,0,0,0,4.813,2.51l.983-.155,2.614,3.726c1.423,2.07,2.665,3.907,2.743,4.114.1.311-8.823,35.139-9.031,35.243a10.9,10.9,0,0,1-1.138.336,4.542,4.542,0,0,0-2.846,6.65,4.5,4.5,0,0,0,8.461-2.225,4.545,4.545,0,0,0-1.6-3.467c-.569-.466-.75-.828-.673-1.242.078-.311,2.2-8.461,4.709-18.113l4.58-17.544-2.872-4.114c-1.578-2.277-2.924-4.3-2.976-4.477a2.654,2.654,0,0,1,.388-1.346,4.2,4.2,0,0,0,.026-3.881,3.9,3.9,0,0,0-2.536-2.355A3.788,3.788,0,0,0,1023.9-589.476Zm3.364,2.588a2.473,2.473,0,0,1-1.242,4.063,2.87,2.87,0,0,1-2.614-1.061,3.4,3.4,0,0,1,0-2.665,2.787,2.787,0,0,1,2.562-1.087A3.356,3.356,0,0,1,1027.261-586.888Zm-2.872,51.622a2.464,2.464,0,0,1,.932,3.933,2.269,2.269,0,0,1-2.821.569,2.4,2.4,0,0,1-.052-4.373C1023.432-535.628,1023.354-535.628,1024.389-535.266Z" transform="translate(-868.935 602.824)" fill="#f8ffe5"/><path d="M464.765-551.489a4.539,4.539,0,0,0,1.423,8.461l.932.155,2.381,9.082c1.32,5.02,4.088,15.5,6.133,23.34,2.07,7.815,4.891,18.424,6.236,23.521l2.432,9.315-.75.776c-2.82,2.9-1.423,7.219,2.484,7.815a4.729,4.729,0,0,0,4.632-2.536,5.375,5.375,0,0,0,0-4.011,5.1,5.1,0,0,0-2.691-2.3c-1.76-.362-1.475.44-5.434-14.62-2.018-7.737-5.874-22.331-8.539-32.423l-4.865-18.372.932-.932a4.563,4.563,0,0,0-1.216-7.4A5.175,5.175,0,0,0,464.765-551.489Zm3.338,1.863a2.791,2.791,0,0,1,1.294,2.665,3.088,3.088,0,0,1-.647,1.164,2.428,2.428,0,0,1-3.985-2.665A2.393,2.393,0,0,1,468.1-549.625Zm20.209,74.393a2.5,2.5,0,0,1-1.475,4.166c-.854.129-1.061.052-1.915-.8s-.932-1.061-.8-1.915A2.494,2.494,0,0,1,488.312-475.232Z" transform="translate(-456.39 574.748)" fill="#f8ffe5"/><path d="M667.4-540.451a4.52,4.52,0,0,0-.466,7.323l.828.7-5.641,23.547c-3.079,12.938-5.641,23.6-5.667,23.677s-1.32-5.149-2.9-11.618l-2.846-11.722.776-.7a4.3,4.3,0,0,0,1.552-3.907,4.016,4.016,0,0,0-2.355-3.648,4.656,4.656,0,0,0-6.184,2.122,4.508,4.508,0,0,0,3.286,6.365,2.319,2.319,0,0,1,.906.259c0,.155,6.133,25.669,6.495,27.04.233.932.311.983,1.268.983.569,0,1.035-.078,1.035-.181,0-.285,12.213-51.441,12.343-51.648.052-.1.285-.181.517-.181a4.952,4.952,0,0,0,3.312-2.174A4.552,4.552,0,0,0,667.4-540.451Zm4.088,2.148a1.9,1.9,0,0,1,.8,1.734,1.9,1.9,0,0,1-.8,1.734,2.348,2.348,0,0,1-3.907-.957A2.374,2.374,0,0,1,671.492-538.3Zm-21.218,23.832a2.419,2.419,0,0,1-2.976,3.778,2.438,2.438,0,0,1-.233-3.907A2.217,2.217,0,0,1,650.274-514.471Z" transform="translate(-591.027 566.712)" fill="#f8ffe5"/><path d="M957.5-536.3a4.348,4.348,0,0,0-1.035,7.219l.983.957-5.667,23.237c-3.131,12.757-5.719,23.262-5.744,23.314-.052.052-1.294-4.632-2.769-10.4l-2.639-10.48.932-1.035c1.5-1.656,1.837-3.234,1.087-4.994a5.891,5.891,0,0,0-2.9-2.665,6.062,6.062,0,0,0-3.959.647,4.973,4.973,0,0,0-1.475,5.693,5.4,5.4,0,0,0,3.234,2.51l1.009.155,2.018,7.944c1.113,4.347,2.562,10.014,3.209,12.576L945-476.969l1.035.078,1.061.078,1.061-4.347c1.785-7.426,10.894-44.662,11.152-45.645.233-.8.388-.957,1.19-1.087a4.844,4.844,0,0,0,3.105-2.329,5.222,5.222,0,0,0,.44-2.174A4.419,4.419,0,0,0,957.5-536.3Zm3.907,2.329a2.359,2.359,0,0,1-.569,3.7,2.239,2.239,0,0,1-2.846-.336,2.2,2.2,0,0,1,.026-3.493,1.872,1.872,0,0,1,1.889-.621A2.194,2.194,0,0,1,961.41-533.973Zm-21.374,25.41a2.368,2.368,0,0,1-.543,3.959,2.408,2.408,0,0,1-3.467-2.122A2.427,2.427,0,0,1,940.037-508.563Z" transform="translate(-805.905 563.521)" fill="#f8ffe5"/><path d="M830.368-474.5a4.628,4.628,0,0,0-1.76,6.391,4.775,4.775,0,0,0,3.416,2.225c.466,0,.673.569,1.76,4.839,3.183,12.679,18.864,74.445,19.355,76.2l.518,2.018h28.282l.6,1.087a4.072,4.072,0,0,0,3.778,2.381,4.58,4.58,0,0,0,4.709-4.011,4.861,4.861,0,0,0-2.484-4.554A4.541,4.541,0,0,0,882.4-385.9l-.466.983-13.352.026H855.235l-2.018-7.944c-1.113-4.4-3.674-14.542-5.719-22.59-9.626-37.831-12.783-50.406-12.783-50.691,0-.181.31-.569.673-.88a5.5,5.5,0,0,0,1.656-3.467,4.881,4.881,0,0,0-2.639-4.114A5.583,5.583,0,0,0,830.368-474.5Zm3.338,1.889a3.389,3.389,0,0,1,1.268,2.355,3.115,3.115,0,0,1-.906,1.449c-.828.828-1.035.906-1.889.776-2.924-.466-2.794-4.839.129-4.839A4.075,4.075,0,0,1,833.706-472.611Zm54.288,86.788a3.742,3.742,0,0,1,.725,1.113,2.353,2.353,0,0,1-1.346,3.079,1.681,1.681,0,0,1-1.889-.078,2.394,2.394,0,0,1-1.294-3.105A2.654,2.654,0,0,1,887.993-385.823Z" transform="translate(-727.365 517.632)" fill="#f8ffe5"/><path d="M931.53-462.291a5.7,5.7,0,0,0-1.708.75,5.449,5.449,0,0,0-1.811,3.649,5.387,5.387,0,0,0,1.76,3.623l.776.621-2.976,12.55c-1.63,6.909-3.053,12.627-3.157,12.757-.1.1-2.743.932-5.848,1.863s-5.667,1.708-5.693,1.734c-.026.052-4.554,17.415-7.711,29.5l-.233.983H898.1l-3.053-11.592c-1.708-6.366-5.149-19.381-7.685-28.9-4.451-16.794-4.58-17.337-4.114-17.751a4.734,4.734,0,0,0,.129-7.375,3.99,3.99,0,0,0-2.562-.828,3.351,3.351,0,0,0-2.691.647A4.8,4.8,0,0,0,876-456.339a4.9,4.9,0,0,0,3.726,4.528l1.035.233,3.7,13.973c2.044,7.685,5.563,21.011,7.84,29.6s4.218,15.733,4.3,15.836a70.957,70.957,0,0,0,9.936.1c0-.388,8.073-30.818,8.229-30.973.155-.129,6.443-2.07,10.143-3.105a3.661,3.661,0,0,0,1.164-.492c.155-.129,1.656-6.133,3.364-13.326l3.105-13.093,1.268-.492c2.381-.906,3.39-2.329,3.208-4.658A4.388,4.388,0,0,0,931.53-462.291Zm2.795,2.846a2.409,2.409,0,0,1-2.717,3.855,2.392,2.392,0,0,1-.776-3.907A2.26,2.26,0,0,1,934.324-459.444Zm-52.088,1.5a2.419,2.419,0,0,1-2.976,3.778,2.438,2.438,0,0,1-.233-3.907A2.217,2.217,0,0,1,882.236-457.943Z" transform="translate(-762.957 508.372)" fill="#f8ffe5"/><path d="M1068.957-432.56a4.153,4.153,0,0,0-2.458,4.166,4.742,4.742,0,0,0,1.682,3.571l.6.518-5.615,21.089c-3.105,11.592-6.365,23.909-7.3,27.351l-1.656,6.262-.957.155a5.509,5.509,0,0,0-2.924,1.863,4.712,4.712,0,0,0,2.225,6.909c3.053,1.242,6.547-1.63,6.055-4.942a4.09,4.09,0,0,0-1.268-2.381l-1.113-1.19,6.547-24.582c3.6-13.533,6.883-25.8,7.3-27.3l.724-2.691,1.242-.31a4.589,4.589,0,0,0,.906-8.539A5.437,5.437,0,0,0,1068.957-432.56Zm3.26,1.915a3.389,3.389,0,0,1,1.268,2.355,3.114,3.114,0,0,1-.906,1.449c-.828.828-1.035.906-1.889.776a2.387,2.387,0,0,1-1.32-4.166A2.593,2.593,0,0,1,1072.217-430.645Zm-16.535,63.862a2.974,2.974,0,0,1,.725,1.242,2.305,2.305,0,0,1-1.449,2.846,2.279,2.279,0,0,1-3.1-1.371,1.644,1.644,0,0,1,0-1.811A2.5,2.5,0,0,1,1055.683-366.783Z" transform="translate(-891.612 486.534)" fill="#f8ffe5"/><path d="M808.169-393.533a3.894,3.894,0,0,0-2.536,2.406,4.44,4.44,0,0,0,3.209,6.262,1.757,1.757,0,0,1,.983.543c.129.207,4.321,16.638,9.315,36.485,4.968,19.847,9.186,36.537,9.315,37.054l.259.983h16.561c15.526,0,16.561.026,16.716.44a5.643,5.643,0,0,0,2.225,2.562,5.222,5.222,0,0,0,2.174.44A4.419,4.419,0,0,0,870.3-312.9a4.735,4.735,0,0,0-3.234-2.484,4.82,4.82,0,0,0-4.891,2.665l-.362.854H830.371l-4.761-18.838c-2.613-10.35-6.779-26.833-9.238-36.614l-4.5-17.829.776-.647a4.464,4.464,0,0,0-1.164-7.608A3.721,3.721,0,0,0,808.169-393.533ZM811.4-391.1a2.475,2.475,0,0,1,.6,2.872,2.17,2.17,0,0,1-2.2,1.32,2.117,2.117,0,0,1-2.225-1.449A2.438,2.438,0,0,1,811.4-391.1ZM868.1-312.36a2.083,2.083,0,0,1,.155,2.924,2.3,2.3,0,0,1-2.717.932,2.476,2.476,0,0,1-.1-4.632A2.251,2.251,0,0,1,868.1-312.36Z" transform="translate(-710.47 457.547)" fill="#f8ffe5"/><path d="M670.789-337.62c-2.458.6-4.14,3.131-3.519,5.33l.233.906-5.46,3.933c-3.027,2.148-7.53,5.382-10.014,7.194L647.5-317l-2.2,8.9-2.225,8.927H635.39l-1.915-9.678-1.915-9.678.8-.647a4.627,4.627,0,0,0-.88-7.84,3.765,3.765,0,0,0-3.441-.1,4.146,4.146,0,0,0-2.458,2.3,4.988,4.988,0,0,0,.233,4.5,4.757,4.757,0,0,0,2.846,1.863.863.863,0,0,1,.828.569c.1.336,1.113,5.175,2.225,10.739l2.018,10.169h11l1.863-7.711c1.035-4.218,2.07-8.436,2.3-9.367l.414-1.682,9.678-6.961,9.678-6.961.7.414a4.611,4.611,0,0,0,6.883-3.338,3.7,3.7,0,0,0-.518-2.536,3.471,3.471,0,0,0-2.018-2.07C672.315-337.879,672.057-337.93,670.789-337.62Zm2.588,2.743a2.459,2.459,0,0,1-1.449,4.166,2.457,2.457,0,0,1-2.458-3.493,2.192,2.192,0,0,1,2.3-1.32A1.984,1.984,0,0,1,673.376-334.877Zm-41.867,10.4a2.418,2.418,0,0,1-1.863,3.959,2.533,2.533,0,0,1-2.2-3.623A2.556,2.556,0,0,1,631.509-324.475Z" transform="translate(-577.023 415.995)" fill="#f8ffe5"/><path d="M621.055-283.472a4.707,4.707,0,0,0-2.717,4.218,5.516,5.516,0,0,0,1.708,3.623c.336.207.621.543.621.725,0,.285-2.3,9.911-9.6,40.289l-1.061,4.347H573.443l-2.251-8.461-2.225-8.487.621-.492a5.228,5.228,0,0,0,1.294-5.8,4.422,4.422,0,0,0-3.752-2.329,3.939,3.939,0,0,0-3.7,1.423,4.51,4.51,0,0,0,2.174,7.375l1.371.388,1.734,6.573c.957,3.623,2.044,7.763,2.432,9.238l.7,2.639,19.95-.052,19.95-.078,5.486-22.848c3-12.576,5.537-23.03,5.615-23.237a.743.743,0,0,1,.673-.362,4.573,4.573,0,0,0,3.234-2.148,4.66,4.66,0,0,0-1.294-6.107A5.205,5.205,0,0,0,621.055-283.472Zm2.82,1.967a2.891,2.891,0,0,1,1.449,2.458,2.631,2.631,0,0,1-2.458,2.2,2.533,2.533,0,0,1-2.2-3.623,3.277,3.277,0,0,1,2.122-1.294A3.419,3.419,0,0,1,623.875-281.505Zm-55.711,27.946a3.389,3.389,0,0,1,1.268,2.355,3.114,3.114,0,0,1-.906,1.449c-.828.828-1.035.906-1.889.776a2.387,2.387,0,0,1-1.32-4.166A2.593,2.593,0,0,1,568.165-253.559Z" transform="translate(-530.394 375.949)" fill="#f8ffe5"/><path d="M1010.741-283.726a4.707,4.707,0,0,0-2.717,4.166,4.343,4.343,0,0,0,1.449,3.26l.906.932-2.355,8.9c-1.294,4.891-2.51,8.979-2.665,9.082a1.973,1.973,0,0,1-.854.207,4.937,4.937,0,0,0-2.769,1.863,4.393,4.393,0,0,0-.647,2.251,3.546,3.546,0,0,0,.569,2.717,4.51,4.51,0,0,0,7.582.181,4.249,4.249,0,0,0-.492-5.615l-1.061-1.164,2.148-8.2c1.19-4.5,2.251-8.591,2.381-9.057.181-.6.388-.828.776-.828a4.86,4.86,0,0,0,3.442-2.174C1018.633-280.983,1014.7-285.485,1010.741-283.726Zm2.821,1.967a2.891,2.891,0,0,1,1.449,2.458,2.631,2.631,0,0,1-2.458,2.2,2.533,2.533,0,0,1-2.2-3.623,3.277,3.277,0,0,1,2.122-1.294A3.419,3.419,0,0,1,1013.562-281.759Zm-6.288,27.4a2.17,2.17,0,0,1,.362,2.846,2.426,2.426,0,0,1-4.528-1.164A2.4,2.4,0,0,1,1007.274-254.356Z" transform="translate(-855.65 376.203)" fill="#f8ffe5"/><path d="M630.35-241.56a4.2,4.2,0,0,0-2.536,3.959,5.169,5.169,0,0,0,1.63,3.7c.285.181.518.44.518.6,0,.129-1.294,4.942-2.872,10.687l-2.924,10.4-10.609-.052-10.635-.078-.776-3.752c-.44-2.07-1.371-6.572-2.1-10.04l-1.268-6.288.854-.647a4.541,4.541,0,0,0-3.467-8.047,4.5,4.5,0,0,0-3.752,5.641,4.741,4.741,0,0,0,3.105,3.157l1.19.362,2.251,10.842c1.242,5.951,2.251,10.868,2.277,10.894,0,.052,5.512.078,12.265.078h12.239l1.708-6.029c.932-3.286,2.355-8.41,3.183-11.334l1.475-5.356,1.009-.129a4.931,4.931,0,0,0,3.83-4.4,5.338,5.338,0,0,0-2.639-4.218A5.369,5.369,0,0,0,630.35-241.56Zm3.39,2.044a2.846,2.846,0,0,1,1.035,2.613,2.68,2.68,0,0,1-2.406,1.915,2.517,2.517,0,0,1-2.406-2.458A2.49,2.49,0,0,1,633.74-239.516Zm-35.786.673a2.475,2.475,0,0,1,1.294,2.355,1.965,1.965,0,0,1-.8,1.553,2.317,2.317,0,0,1-3.8-.7c-.466-1.035-.466-1.371-.026-2.174A2.565,2.565,0,0,1,597.953-238.843Z" transform="translate(-552.627 344.957)" fill="#f8ffe5"/><path d="M1010.741-283.726a4.707,4.707,0,0,0-2.717,4.166,4.343,4.343,0,0,0,1.449,3.26l.906.932-2.355,8.9c-1.294,4.891-2.51,8.979-2.665,9.082a1.973,1.973,0,0,1-.854.207,4.937,4.937,0,0,0-2.769,1.863,4.393,4.393,0,0,0-.647,2.251,3.546,3.546,0,0,0,.569,2.717,4.51,4.51,0,0,0,7.582.181,4.249,4.249,0,0,0-.492-5.615l-1.061-1.164,2.148-8.2c1.19-4.5,2.251-8.591,2.381-9.057.181-.6.388-.828.776-.828a4.86,4.86,0,0,0,3.442-2.174C1018.633-280.983,1014.7-285.485,1010.741-283.726Zm2.821,1.967a2.891,2.891,0,0,1,1.449,2.458,2.631,2.631,0,0,1-2.458,2.2,2.533,2.533,0,0,1-2.2-3.623,3.277,3.277,0,0,1,2.122-1.294A3.419,3.419,0,0,1,1013.562-281.759Zm-6.288,27.4a2.17,2.17,0,0,1,.362,2.846,2.426,2.426,0,0,1-4.528-1.164A2.4,2.4,0,0,1,1007.274-254.356Z" transform="matrix(0.799, -0.602, 0.602, 0.799, -600.39, 881.706)" fill="#f8ffe5"/></g><g transform="translate(194.811 56.21)"><path d="M1046.031-1156.86c-3.189,2.238-6.043,4.364-6.379,4.7-.448.448-.112,1.175,1.231,2.686,3.8,4.364,3.637,2.126,3.8,43.978l.168,37.936H1057l.336-1.567c.168-.839.448-2.462.671-3.637a5.561,5.561,0,0,1,.56-2.07,35.686,35.686,0,0,1,3.861,3.077c4.588,3.861,8.84,6.1,10.8,5.6,2.294-.56,5.707-3.189,10.519-8.169,7.218-7.442,7.106-7.162,7.386-23.724s-.224-21.038-2.574-24.451c-3.525-5.036-11.862-12.533-15.107-13.54-1.846-.615-4.7.559-8.281,3.3-1.734,1.4-3.413,2.35-3.637,2.182-.28-.168-.5-3.637-.5-7.665,0-8.225-.839-12.533-3.133-16.506-1.79-3.021-4.644-6.267-5.483-6.267A61.053,61.053,0,0,0,1046.031-1156.86Zm26.577,37.935c2.91,3.133,2.965,3.413,2.965,17.513,0,14.436-.168,15.5-3.245,18.408-1.4,1.287-2.07,1.567-3.469,1.287-2.574-.559-6.658-3.581-7.106-5.316-.56-1.958-.56-26.241,0-28.2.5-1.846,5.6-5.483,7.665-5.483A5.063,5.063,0,0,1,1072.609-1118.924Z" transform="translate(-985.212 1161)" fill="#f8ffe5"/><path d="M1052.41-1161a61.053,61.053,0,0,0-6.379,4.14c-3.189,2.238-6.043,4.364-6.379,4.7-.448.448-.112,1.175,1.231,2.686,3.8,4.364,3.637,2.126,3.8,43.978l.168,37.936H1057l.336-1.567c.168-.839.448-2.462.671-3.637a5.561,5.561,0,0,1,.56-2.07,35.686,35.686,0,0,1,3.861,3.077c4.588,3.861,8.841,6.1,10.8,5.6,2.294-.56,5.707-3.189,10.519-8.169,7.218-7.442,7.106-7.162,7.386-23.724s-.224-21.038-2.574-24.451c-3.525-5.036-11.862-12.533-15.107-13.54-1.846-.615-4.7.559-8.281,3.3-1.734,1.4-3.412,2.35-3.637,2.182-.28-.168-.5-3.637-.5-7.665,0-8.225-.839-12.533-3.133-16.506-1.79-3.021-4.644-6.267-5.483-6.267m17.314,79.383a4.42,4.42,0,0,1-.864-.1c-2.574-.559-6.658-3.581-7.106-5.316-.56-1.958-.56-26.241,0-28.2.5-1.846,5.6-5.483,7.665-5.483a5.063,5.063,0,0,1,3.189,1.79c2.91,3.133,2.965,3.413,2.965,17.513,0,14.436-.168,15.5-3.245,18.408-1.078.992-1.725,1.386-2.6,1.386M1052.41-1169c4.2,0,8.36,3.428,12.366,10.188,2.709,4.691,3.76,9.46,4.1,15.089a12.17,12.17,0,0,1,7.1.088c5.735,1.778,15.355,11.147,19.131,16.542,3.83,5.563,4.317,11.526,4.019,29.174-.3,17.694-.623,19.862-9.428,28.938-6.3,6.515-10.6,9.62-14.58,10.592a13.94,13.94,0,0,1-2.5.3c-2.94,0-6.33-1.226-10.122-3.655a7.99,7.99,0,0,1-5.5,2.186h-12.142a8,8,0,0,1-8-7.965l-.187-42.8c-.077-19.887-.119-30.842-.835-32.9-.021-.023-.96-.969-.981-.993-6.473-7.281-1.851-12.606-.858-13.6,1.123-1.122,5.577-4.285,7.441-5.592,7.24-5.08,8.151-5.232,9.66-5.483A8,8,0,0,1,1052.41-1169Z" transform="translate(-985.212 1161)" fill="#285943"/><path d="M961.859-1115.881c-3.245,1.511-10.855,7.5-14.659,11.638-4.476,4.812-4.7,5.875-4.7,23.052,0,13.652.056,14.38,1.287,17.121,2.126,4.644,11.47,13.037,17.9,16.058,3.357,1.567,3.749,1.623,6.49,1.007,3.861-.839,9.232-4.028,13.484-8,3.077-2.854,5.931-6.826,5.315-7.33-2.518-1.846-11.694-8.225-11.918-8.225a6.4,6.4,0,0,0-1.567,2.294,24.464,24.464,0,0,1-3.413,4.756c-1.79,1.958-2.63,2.462-4.085,2.462-3.3,0-5.875-3.413-6.938-9.232-.839-4.364-.783-6.994.112-6.994h14.38c7.554,0,14.044-.224,14.492-.5.615-.392.671-2.182.448-9.344a76.123,76.123,0,0,0-1.007-11.358c-1.567-5.483-17.009-18.52-22.045-18.52A12.347,12.347,0,0,0,961.859-1115.881Zm6.155,14.492c3.077,1.9,4.252,4.252,4.532,8.729l.168,3.357H958.726l.168-2.8c.224-3.581,2.07-7.777,4.14-9.512a7,7,0,0,1,2.07-1.4A15.784,15.784,0,0,1,968.014-1101.389Z" transform="translate(-942.5 1141.619)" fill="#f8ffe5"/><path d="M965.44-1117a12.347,12.347,0,0,0-3.581,1.119c-3.245,1.511-10.855,7.5-14.659,11.638-4.476,4.812-4.7,5.875-4.7,23.052,0,13.652.056,14.38,1.287,17.121,2.126,4.644,11.47,13.037,17.9,16.058,3.357,1.567,3.749,1.623,6.49,1.007,3.861-.839,9.232-4.028,13.484-8,3.077-2.854,5.931-6.826,5.315-7.33-2.518-1.846-11.694-8.225-11.918-8.225a6.4,6.4,0,0,0-1.567,2.294,24.464,24.464,0,0,1-3.413,4.756c-1.79,1.958-2.63,2.462-4.085,2.462-3.3,0-5.875-3.413-6.938-9.232-.839-4.364-.783-6.994.112-6.994h14.38c7.554,0,14.044-.224,14.492-.5.615-.392.671-2.182.448-9.344a76.123,76.123,0,0,0-1.007-11.358c-1.567-5.483-17.009-18.52-22.045-18.52m7.274,27.7H958.726l.168-2.8c.224-3.581,2.07-7.777,4.14-9.512a7,7,0,0,1,2.07-1.4,15.784,15.784,0,0,1,2.91,1.623c3.077,1.9,4.252,4.252,4.532,8.729l.168,3.357M965.44-1125c9.166,0,27.344,15.946,29.737,24.322.923,3.166,1.254,11.621,1.31,13.283.289,9.248.42,13.459-4.148,16.366a6.808,6.808,0,0,1-2.294,1.023q.8.583,1.668,1.219a8.493,8.493,0,0,1,3.349,6.411c.146,4.706-4.246,9.8-7.956,13.235-5.333,4.983-11.942,8.8-17.225,9.952a17.937,17.937,0,0,1-4.057.548c-2.968,0-5.177-1.031-7.516-2.123-7.461-3.5-18.6-12.988-21.8-19.977-2.013-4.483-2.013-6.611-2.013-20.452,0-17.086,0-21.145,6.842-28.5,4.039-4.4,12.428-11.248,17.141-13.442A19,19,0,0,1,965.44-1125Z" transform="translate(-942.5 1141.619)" fill="#285943"/></g></g></g></g></svg>