<svg xmlns="http://www.w3.org/2000/svg" xmlns:xlink="http://www.w3.org/1999/xlink" width="817" height="213" viewBox="0 0 817 213"><defs><clipPath id="b"><rect width="817" height="213"/></clipPath></defs><g id="a" clip-path="url(#b)"><g transform="translate(8 -54.076)"><g transform="translate(8 66.076)"><path d="M28.3-1116.52a5.411,5.411,0,0,0-3.3,5.095,5.473,5.473,0,0,0,3.371,5.272l.938.38v37.767h32.14l.253.71a7.035,7.035,0,0,0,2.864,3.118,5.847,5.847,0,0,0,7.2-2.155,4.468,4.468,0,0,0,.76-2.915,4.6,4.6,0,0,0-.71-2.89,5.89,5.89,0,0,0-7.046-2.357,7,7,0,0,0-3.042,3.143l-.279.811H31.844v-35.232l.836-.329a5.658,5.658,0,0,0,3.473-5.2,5.385,5.385,0,0,0-5.576-5.6A7.251,7.251,0,0,0,28.3-1116.52Zm4.258,2.991a2.176,2.176,0,0,1,.938,2.155,2.3,2.3,0,0,1-.786,2.078,2.982,2.982,0,0,1-5.171-2.053,2.991,2.991,0,0,1,3.118-3.042A2.511,2.511,0,0,1,32.553-1113.53Zm36.449,42a3.02,3.02,0,0,1-1.622,5.221,3.157,3.157,0,0,1-2.94-1.242,4.292,4.292,0,0,1-.127-3.27A3.242,3.242,0,0,1,69-1071.53Z" transform="translate(-25 1116.957)" fill="#007f5f"/><path d="M92.225-1116.365a4.272,4.272,0,0,0-2.636,2.687,5.205,5.205,0,0,0,.177,4.841,4.857,4.857,0,0,0,4.588,2.966,4.421,4.421,0,0,0,2.484-.3l.786-.38,4.132,4.157,4.132,4.182h81.389l5.12,5.12,5.12,5.12-.406.76a6.272,6.272,0,0,0,.152,4.638,5.6,5.6,0,0,0,9.759.507,5.652,5.652,0,0,0-6.818-8.289l-.938.3-5.374-5.348-5.348-5.348H107.179l-3.777-3.777-3.8-3.8.3-.963c.558-1.85.583-2.053.3-3.219A5.543,5.543,0,0,0,92.225-1116.365Zm3.9,2.281a2.9,2.9,0,0,1,1.546,2.687,2.964,2.964,0,0,1-4.309,2.712,3.863,3.863,0,0,1-1.774-2.712,3.863,3.863,0,0,1,1.774-2.712A3.115,3.115,0,0,1,96.128-1114.084ZM203.9-1087.647a3.492,3.492,0,0,1,1.5,2.611,3.523,3.523,0,0,1-2.991,3.042,3.185,3.185,0,0,1-3.092-3.3,2.219,2.219,0,0,1,.862-1.926,2.219,2.219,0,0,1,1.926-.862A4.378,4.378,0,0,1,203.9-1087.647Z" transform="translate(-72.834 1117.004)" fill="#007f5f"/><path d="M159.092-1116.559a5.678,5.678,0,0,0-3.092,5.221,6.434,6.434,0,0,0,2.459,4.486,6.1,6.1,0,0,0,5.272.558,6.838,6.838,0,0,0,3.219-3.219l.253-.735,41.848.051,41.873.076L251-1108.3l.076,1.825-.963.406a5.675,5.675,0,0,0-3.473,5.348,5.6,5.6,0,0,0,9.936,3.5,5.566,5.566,0,0,0-1.648-8.466l-1.318-.634v-3.244l-.025-3.219H167.229l-.456-.989A5.748,5.748,0,0,0,159.092-1116.559Zm3.979,2.357a2.9,2.9,0,0,1,1.546,2.813,2.892,2.892,0,0,1-3.65,2.814,3.119,3.119,0,0,1-2.1-4.106A3.032,3.032,0,0,1,163.072-1114.2Zm90.716,10.8a3.786,3.786,0,0,1,1.572,2.687,3.6,3.6,0,0,1-1.5,2.458,4.374,4.374,0,0,1-1.8.431,2.219,2.219,0,0,1-1.926-.862,2.2,2.2,0,0,1-.862-1.9,2.939,2.939,0,0,1,1.572-2.89A2.687,2.687,0,0,1,253.788-1103.4Z" transform="translate(-122.796 1117.122)" fill="#007f5f"/><path d="M81.953-1013.681a6.173,6.173,0,0,0-3.143,2.307,6.032,6.032,0,0,0,.811,7.325,5.668,5.668,0,0,0,8.973-1.648l.558-1.141h20.86l6.666,6.666,6.641,6.641v4.943l-.811.33a5.881,5.881,0,0,0-2.991,2.864,5.76,5.76,0,0,0,.406,5.475,6.244,6.244,0,0,0,4.664,2.484,6.3,6.3,0,0,0,4.664-2.459,6.286,6.286,0,0,0,.659-5.019,5.945,5.945,0,0,0-2.966-3.219l-1.09-.482v-2.966l-.025-2.966L118.4-1002.1l-7.4-7.528H88.949l-.3-.862a6.186,6.186,0,0,0-1.419-1.876A5.3,5.3,0,0,0,81.953-1013.681Zm3.092,2.915a2.927,2.927,0,0,1,.735,4.537,2.958,2.958,0,0,1-5.221-1.445A3.018,3.018,0,0,1,85.045-1010.766Zm41.062,25.093a2.927,2.927,0,0,1,.735,4.537,2.9,2.9,0,0,1-4.816-.406C120.455-984.076,123.42-987.066,126.107-985.672Z" transform="translate(-64.514 1040.072)" fill="#007f5f"/><path d="M409.673-950.506a6.354,6.354,0,0,0-2.89,3.042l-.329.811h-32.14v40.225l-1.014.456a6.312,6.312,0,0,0-3.042,3.3,6.285,6.285,0,0,0,.659,5.019,6.3,6.3,0,0,0,4.664,2.459,6.3,6.3,0,0,0,4.664-2.459,6.1,6.1,0,0,0,.558-5.272,6.838,6.838,0,0,0-3.219-3.219l-.735-.253v-37.716h29.58l.456,1.014a6.313,6.313,0,0,0,3.3,3.042,6.212,6.212,0,0,0,4.993-.659,6.33,6.33,0,0,0,2.484-4.664,6.426,6.426,0,0,0-2.484-4.689A6.264,6.264,0,0,0,409.673-950.506Zm4.486,3.067a2.728,2.728,0,0,1,0,4.106,2.958,2.958,0,0,1-4.74-.532,3.537,3.537,0,0,1,.025-3.194A3.034,3.034,0,0,1,414.16-947.439Zm-37.209,43.875a3.257,3.257,0,0,1,1.673,2.839,3.268,3.268,0,0,1-2.433,2.89,3.113,3.113,0,0,1-3.574-2.509A3.06,3.06,0,0,1,376.951-903.564Z" transform="translate(-282.559 993.069)" fill="#007f5f"/><path d="M171.8-891.557a5.712,5.712,0,0,0-2.053,9.353,5.36,5.36,0,0,0,5.7,1.343l1.318-.456,6.818,6.818,6.793,6.793v65.9l-6.92,6.92-6.92,6.92-.938-.406a5.276,5.276,0,0,0-4.512.3,4.925,4.925,0,0,0-2.966,4.486,4.856,4.856,0,0,0,1.521,4.436,5.457,5.457,0,0,0,7.553.355,5.614,5.614,0,0,0,1.648-6.337l-.406-.938,7.249-7.249,7.224-7.224v-68.183l-7.122-7.148-7.122-7.148.38-1.5a5.708,5.708,0,0,0-1.724-6.083A5.732,5.732,0,0,0,171.8-891.557Zm2.966,2.535a2.933,2.933,0,0,1,1.926,2.864,2.212,2.212,0,0,1-.862,2,2.291,2.291,0,0,1-2.1.862,3.813,3.813,0,0,1-1.825-.406,4,4,0,0,1-1.293-2.712,3.408,3.408,0,0,1,2.028-2.636C173.775-889.428,173.775-889.428,174.764-889.022Zm.482,103.364a3.651,3.651,0,0,1,1.445,2.56,3.451,3.451,0,0,1-1.318,2.56,3.666,3.666,0,0,1-1.774.406,2.669,2.669,0,0,1-2.915-2.687,2.188,2.188,0,0,1,.456-1.977A3.157,3.157,0,0,1,175.245-785.658Z" transform="translate(-131.826 948.973)" fill="#007f5f"/><path d="M172.106-831.342a5.791,5.791,0,0,0-3.726,3.675,5.744,5.744,0,0,0,3.244,6.844l.786.329v61.187l-.862.3a6.189,6.189,0,0,0-1.876,1.419,5.584,5.584,0,0,0,5.627,9.176,4.947,4.947,0,0,0,3.32-2.535,5.829,5.829,0,0,0,.634-4.436A6.633,6.633,0,0,0,176.06-759l-.862-.3v-61.162l.989-.456a5.377,5.377,0,0,0,2.839-3.016,5.538,5.538,0,0,0-1.141-5.931A5.9,5.9,0,0,0,172.106-831.342Zm3.473,2.991a2.9,2.9,0,0,1-.684,5.145,2.145,2.145,0,0,1-2.1.025,2.891,2.891,0,0,1-1.039-4.867,2.212,2.212,0,0,1,2-.862A2.8,2.8,0,0,1,175.578-828.351Zm.127,72.137a3.193,3.193,0,0,1,1.014,3.244,3.081,3.081,0,0,1-2.966,2.129,2.212,2.212,0,0,1-2-.862,2.231,2.231,0,0,1-.862-2.028,3.836,3.836,0,0,1,.431-1.85A3.17,3.17,0,0,1,175.705-756.214Z" transform="translate(-131.855 903.966)" fill="#007f5f"/><path d="M298.628-705.33a5.782,5.782,0,0,0-3.27,7.4,6.587,6.587,0,0,0,3.092,3.118l.836.279v46.511l-.989.456a5.587,5.587,0,0,0,.507,10.392,5.542,5.542,0,0,0,7.4-5.221,5.609,5.609,0,0,0-3.625-5.348l-.76-.253v-23.218l.025-23.243,1.267-.608a5.626,5.626,0,0,0,1.9-8.517A5.951,5.951,0,0,0,298.628-705.33Zm3.042,2.484a2.933,2.933,0,0,1,1.926,2.864,2.212,2.212,0,0,1-.862,2,2.291,2.291,0,0,1-2.1.862,3.814,3.814,0,0,1-1.825-.406,4,4,0,0,1-1.293-2.712,3.408,3.408,0,0,1,2.028-2.636C300.681-703.252,300.681-703.252,301.669-702.846Zm0,57.537a3.04,3.04,0,0,1-.2,5.728,3.184,3.184,0,0,1-3.954-2.915,3.379,3.379,0,0,1,2.028-2.839C300.681-645.714,300.681-645.714,301.669-645.309Z" transform="translate(-226.541 809.942)" fill="#007f5f"/><path d="M223.656-650.672a5.692,5.692,0,0,0-4.309,5.3,5.451,5.451,0,0,0,3.067,5.247l1.242.634v50.44l-22.1-.025H179.426l-.634-1.318a5.549,5.549,0,0,0-10.063.279,5.545,5.545,0,0,0,5.019,7.908,7.06,7.06,0,0,0,2.281-.355,6.488,6.488,0,0,0,3.042-3.067l.33-.887h46.79v-52.975l1.141-.532a5.682,5.682,0,0,0-1.014-10.6A4.174,4.174,0,0,0,223.656-650.672Zm2.737,2.915a3.332,3.332,0,0,1,1.572,2.737,3.082,3.082,0,0,1-4.03,2.737,2.739,2.739,0,0,1-1.926-2.839,2.177,2.177,0,0,1,.938-2.129A2.876,2.876,0,0,1,226.393-647.757ZM175.9-590.042a3.036,3.036,0,0,1-3.447,4.917,2.636,2.636,0,0,1-1.521-2.611,2.532,2.532,0,0,1,1.343-2.611A3.212,3.212,0,0,1,175.9-590.042Z" transform="translate(-131.901 769.047)" fill="#007f5f"/><path d="M346.852-1013.73c-.127.051-.684.152-1.217.253a5.865,5.865,0,0,0-3.523,3.092l-.482,1.09H312v59.438l7.5,7.5,7.5,7.5-.406,1.343a9.738,9.738,0,0,0-.406,1.876,6.084,6.084,0,0,0,3.422,4.993,5.735,5.735,0,0,0,6.286-1.191,5.564,5.564,0,0,0-3.954-9.505,7.428,7.428,0,0,0-2.281.355l-.887.38-7.122-7.224-7.122-7.224v-55.712h27.07l.558,1.141a5.479,5.479,0,0,0,7.629,2.459,4.922,4.922,0,0,0,2.966-4.334,5.257,5.257,0,0,0-1.293-4.233C350.324-1013.045,347.866-1014.11,346.852-1013.73Zm1.9,3.042c2.915,1.521,1.115,6.21-2.129,5.6a3.1,3.1,0,0,1-1.926-4.664A3.082,3.082,0,0,1,348.753-1010.688Zm-14.8,76.7a4.088,4.088,0,0,1,.887,1.521,2.033,2.033,0,0,1-.177,1.926c-1.419,2.864-5.678,2.028-5.678-1.115a2.548,2.548,0,0,1,1.343-2.636A3.212,3.212,0,0,1,333.95-933.989Z" transform="translate(-238.893 1040.248)" fill="#007f5f"/><g transform="translate(111.659 86.501)"><g transform="translate(0 0.56)"><path d="M289.664-1161.544c-1.175.5-1.007,76.99.112,81.8,1.343,5.6,5.092,11.918,7.553,12.7.783.224,2.909-.951,7.553-4.252l6.49-4.532-1.343-1.511a17.82,17.82,0,0,1-3.917-6.267c-.448-1.343-.727-12.7-.951-39.95l-.28-38.047-7.274-.112A76.037,76.037,0,0,0,289.664-1161.544Z" transform="translate(-201.428 1161.727)" fill="#007f5f"/><path d="M295.477-1161.727a54.928,54.928,0,0,0-5.812.183c-1.175.5-1.007,76.99.112,81.8,1.343,5.6,5.092,11.918,7.553,12.7.784.224,2.91-.951,7.553-4.252l6.49-4.532-1.343-1.511a17.82,17.82,0,0,1-3.917-6.267c-.448-1.343-.727-12.7-.951-39.95l-.28-38.047-7.274-.112c-.728-.01-1.446-.015-2.133-.015m0-8,2.245.016,7.284.112a8,8,0,0,1,7.877,7.94l.28,38.047c.068,8.322.271,33,.714,37.879a10.069,10.069,0,0,0,1.975,2.908l1.5,1.684a8,8,0,0,1,1.966,6.251,8,8,0,0,1-3.365,5.623l-6.49,4.532c-5.658,4.022-8.585,5.72-11.924,5.72a9.59,9.59,0,0,1-2.408-.334c-7.757-2.464-12.1-14.2-13.134-18.526-.884-3.8-1.105-26.22-1.137-44.369-.078-44.2-.078-44.2,5.652-46.652C288.091-1169.452,288.916-1169.727,295.477-1169.727Z" transform="translate(-201.428 1161.727)" fill="#f8ffe5"/><path d="M654.833-1157.029c-7.665,5.371-7.553,5.2-5.763,7.05,2.91,3.021,4.029,6.546,4.252,13.428.112,3.469,0,6.323-.224,6.323a23.478,23.478,0,0,1-3.861-2.518c-4.476-3.413-6.714-4.084-9.568-2.742-3.245,1.455-13.372,11.75-14.883,15.107-1.231,2.63-1.287,3.245-1.287,19.248,0,19.639-.168,19.08,7.106,26.633,8.617,8.952,11.3,9.959,16.9,6.211,1.734-1.175,4.14-3.021,5.371-4.084,2.182-2.014,3.357-2.126,3.357-.336a15.012,15.012,0,0,0,.615,3.021l.56,2.126H669.66v-39.054c0-36.536-.056-39.278-1.063-42.8-1.343-4.924-5.987-11.694-7.889-11.582C660.54-1160.945,657.91-1159.211,654.833-1157.029Zm-5.651,37.991c4.029,2.574,4.252,3.525,4.252,17.457a120.641,120.641,0,0,1-.56,13.988c-.671,2.35-4.252,5.26-7.274,5.875-1.455.28-2.07,0-3.693-1.567a9.806,9.806,0,0,1-2.462-3.861c-.727-2.574-.727-25.4,0-28.032s3.637-5.539,5.539-5.539A11.523,11.523,0,0,1,649.182-1119.037Z" transform="translate(-348.832 1161.408)" fill="#007f5f"/><path d="M660.755-1161h-.047c-.168.056-2.8,1.79-5.875,3.973-7.665,5.371-7.553,5.2-5.763,7.05,2.91,3.021,4.029,6.546,4.252,13.428.112,3.469,0,6.323-.224,6.323a23.478,23.478,0,0,1-3.861-2.518c-4.476-3.413-6.714-4.085-9.568-2.742-3.245,1.455-13.372,11.75-14.883,15.107-1.231,2.63-1.287,3.245-1.287,19.248,0,19.639-.168,19.08,7.106,26.633,8.617,8.952,11.3,9.96,16.9,6.211,1.734-1.175,4.14-3.021,5.371-4.084,2.182-2.015,3.357-2.126,3.357-.336a15.012,15.012,0,0,0,.615,3.021l.56,2.126H669.66v-39.054c0-36.536-.056-39.278-1.063-42.8-1.332-4.883-5.911-11.583-7.842-11.583m-16.008,79.381c-.919,0-1.571-.438-2.839-1.662a9.806,9.806,0,0,1-2.462-3.861c-.727-2.574-.727-25.4,0-28.032s3.637-5.539,5.539-5.539a11.523,11.523,0,0,1,4.2,1.679c4.029,2.574,4.252,3.525,4.252,17.457a120.641,120.641,0,0,1-.56,13.988c-.671,2.35-4.252,5.26-7.274,5.875a4.543,4.543,0,0,1-.854.1M660.755-1169c9.989,0,15.512,17.3,15.56,17.478,1.345,4.705,1.345,7.741,1.345,44.908v39.054a8,8,0,0,1-8,8H657.407a7.993,7.993,0,0,1-5.411-2.108l-.005,0a17.343,17.343,0,0,1-9.706,3.429c-6.6,0-11.6-4.644-17.442-10.715-9.346-9.7-9.346-12.519-9.342-30.883v-1.3c0-16.548,0-18.278,2.041-22.639,2.307-5.128,13.792-16.745,18.856-19.016a13.671,13.671,0,0,1,5.878-1.347,13.068,13.068,0,0,1,1.371.072c-.115-.135-.229-.253-.339-.368a9.7,9.7,0,0,1-3.2-7.822c.427-4.528,3.275-6.522,9.514-10.892,6.916-4.9,7.677-5.153,8.558-5.447a8,8,0,0,1,2.06-.4C660.393-1169,660.6-1169,660.755-1169Z" transform="translate(-348.832 1161.408)" fill="#f8ffe5"/><path d="M148.267-1115.322c-3.357,2.126-9.9,8.729-12.421,12.533-2.686,4.084-3.245,7.665-3.245,21.038,0,17.4.56,19.024,9.512,28.088,5.707,5.707,8.84,7.553,11.414,6.714,2.238-.839,5.931-3.413,9.736-6.882a17.437,17.437,0,0,1,3.357-2.686c.056.112.951,1.343,1.846,2.742,2.8,4.029,5.651,6.882,6.434,6.378.392-.224,2.91-2.294,5.651-4.644l4.868-4.2-2.182-2.294a13.749,13.749,0,0,1-2.8-3.8c-.392-1.007-.615-10.575-.615-27.3v-25.682H167.738l-.671,3.357c-.392,1.846-.9,3.357-1.175,3.357a32.742,32.742,0,0,1-4.252-3.077c-3.973-3.189-7.889-5.315-9.68-5.315A11.838,11.838,0,0,0,148.267-1115.322Zm10.911,15.667c3.973,2.574,4.14,3.357,4.14,17.625,0,6.77-.168,12.981-.448,13.82a6.753,6.753,0,0,1-1.679,2.742c-1.623,1.511-5.092,3.3-6.434,3.3-1.511,0-3.973-2.63-5.315-5.6-1.063-2.294-1.175-3.581-1.175-13.988,0-10.743.112-11.638,1.343-14.436C151.959-1101.557,154.645-1102.509,159.177-1099.655Z" transform="translate(-132.6 1142.025)" fill="#007f5f"/><path d="M151.959-1117a11.838,11.838,0,0,0-3.693,1.678c-3.357,2.126-9.9,8.729-12.421,12.533-2.686,4.084-3.245,7.665-3.245,21.038,0,17.4.56,19.024,9.512,28.088,5.707,5.707,8.841,7.553,11.414,6.714,2.238-.839,5.931-3.413,9.736-6.882a17.458,17.458,0,0,1,3.357-2.686c.056.112.951,1.343,1.846,2.742,2.8,4.029,5.651,6.883,6.434,6.378.392-.224,2.91-2.294,5.651-4.644l4.868-4.2-2.182-2.294a13.749,13.749,0,0,1-2.8-3.8c-.392-1.007-.615-10.575-.615-27.3v-25.682H167.738l-.671,3.357c-.392,1.846-.9,3.357-1.175,3.357a32.742,32.742,0,0,1-4.252-3.077c-3.973-3.189-7.889-5.315-9.68-5.315m2.8,54.833c-1.511,0-3.973-2.63-5.315-5.6-1.063-2.294-1.175-3.581-1.175-13.988,0-10.743.112-11.638,1.343-14.436,2.35-5.371,5.036-6.323,9.568-3.469,3.973,2.574,4.14,3.357,4.14,17.625,0,6.77-.168,12.981-.448,13.82a6.753,6.753,0,0,1-1.679,2.742c-1.623,1.511-5.092,3.3-6.434,3.3m-2.8-62.833c3.27,0,6.975,1.746,10.274,3.873a7.989,7.989,0,0,1,5.5-2.195h12.086a8,8,0,0,1,8,8v25.682c0,16.531.215,22.533.347,24.658.19.218.455.526.723.794l2.322,2.437a8,8,0,0,1,2.194,5.909,8,8,0,0,1-2.767,5.664l-4.868,4.2c-5.548,4.755-6.4,5.241-6.908,5.532a8.882,8.882,0,0,1-4.183,1.11c-2.48,0-5.348-.774-9.513-5.6a35.487,35.487,0,0,1-8.834,5.479,12.348,12.348,0,0,1-4.022.7c-5.5,0-10.147-3.539-15.858-9.25-10.98-11.117-11.855-15.288-11.855-33.745,0-13.144.412-19.124,4.561-25.433,3.173-4.794,10.509-12.163,14.825-14.9C148.73-1125,151.076-1125,151.959-1125Z" transform="translate(-132.6 1142.025)" fill="#f8ffe5"/><path d="M358.758-1115.322c-4.2,2.126-13.2,9.624-15.331,12.757-2.294,3.413-2.854,6.434-3.189,17.513-.28,9.624.168,16.114,1.567,20.87.783,2.8,5.371,7.665,11.694,12.421,6.043,4.588,8.728,5.651,11.694,4.756,4.029-1.175,15.387-9.9,18.128-13.876,2.574-3.749,3.357-9.68,3.021-23-.28-12.981-.839-15.89-3.357-19.248-3.917-5.147-16.338-13.876-19.7-13.876A15.4,15.4,0,0,0,358.758-1115.322Zm9.4,16.282c2.238,2.8,2.854,7.442,2.574,20.087-.224,10.127-.224,10.463-1.734,12.981-1.79,3.021-3.973,4.924-5.707,4.924-1.567,0-5.2-3.525-6.267-6.1-1.119-2.574-1.623-18.744-.839-24.843.615-4.868,2.294-7.945,5.371-9.848,1.623-1.063,1.79-1.063,3.357-.168A14.194,14.194,0,0,1,368.158-1099.04Z" transform="translate(-224.026 1142.025)" fill="#007f5f"/><path d="M363.29-1117a15.4,15.4,0,0,0-4.532,1.678c-4.2,2.126-13.2,9.624-15.331,12.757-2.294,3.413-2.854,6.434-3.189,17.513-.28,9.624.168,16.114,1.567,20.87.783,2.8,5.371,7.665,11.694,12.421,6.043,4.588,8.729,5.651,11.694,4.756,4.029-1.175,15.387-9.9,18.128-13.876,2.574-3.749,3.357-9.68,3.021-23-.28-12.981-.839-15.89-3.357-19.248-3.917-5.147-16.338-13.876-19.7-13.876m0,55.952c-1.567,0-5.2-3.525-6.267-6.1-1.119-2.574-1.623-18.744-.839-24.843.615-4.868,2.294-7.945,5.371-9.848,1.623-1.063,1.791-1.063,3.357-.168a14.194,14.194,0,0,1,3.245,2.965c2.238,2.8,2.854,7.442,2.574,20.087-.224,10.127-.224,10.463-1.734,12.981-1.79,3.021-3.973,4.924-5.707,4.924m0-63.952c7.57,0,22.2,11.952,26.062,17.032,4.231,5.641,4.7,10.749,4.989,23.919.335,13.285-.271,21.646-4.424,27.7-3.579,5.186-16.254,15.211-22.484,17.028a14.333,14.333,0,0,1-4.112.61c-4.908,0-9.092-2.447-14.659-6.675-5.707-4.293-12.894-10.685-14.56-16.636-1.609-5.468-2.174-12.454-1.86-23.26.338-11.15.844-16.234,4.546-21.743,3.155-4.65,13.33-12.885,18.355-15.431C357.367-1123.6,360.634-1125,363.29-1125Z" transform="translate(-224.026 1142.025)" fill="#f8ffe5"/><path d="M464.934-1115.834a45.945,45.945,0,0,0-6.1,4.308c-3.581,2.965-3.917,3.133-4.476,2.182-1.4-2.406-5.2-6.77-6.043-6.938-.951-.168-13.317,8.113-13.317,8.9a7,7,0,0,0,1.4,2.07,26.311,26.311,0,0,1,2.686,4.42c1.231,2.63,1.231,3.189,1.4,27.7l.168,25.066h16.17l.112-24.171.168-24.171,2.965-2.406c1.623-1.343,3.469-2.406,4.084-2.406,1.343,0,3.189,2.854,3.637,5.707.224,1.175.615,2.126.9,2.126.615,0,11.246-7.553,12.142-8.617,1.958-2.35-4.364-10.855-10.407-13.988C468.124-1117.233,467.676-1117.177,464.934-1115.834Z" transform="translate(-265.802 1141.978)" fill="#007f5f"/><path d="M467.967-1116.893a7.446,7.446,0,0,0-3.033,1.059,45.945,45.945,0,0,0-6.1,4.308c-3.581,2.965-3.917,3.133-4.476,2.182-1.4-2.406-5.2-6.77-6.043-6.938-.948-.166-13.317,8.113-13.317,8.9a7,7,0,0,0,1.4,2.07,26.311,26.311,0,0,1,2.686,4.42c1.231,2.63,1.231,3.189,1.4,27.7l.168,25.066h16.17l.112-24.171.168-24.171,2.965-2.406c1.623-1.343,3.469-2.406,4.084-2.406,1.343,0,3.189,2.854,3.637,5.707.224,1.175.615,2.126.9,2.126.615,0,11.246-7.553,12.142-8.617,1.958-2.35-4.364-10.855-10.407-13.988a5.523,5.523,0,0,0-2.451-.835m0-8h0a12.894,12.894,0,0,1,6.1,1.715c6.1,3.165,13.508,10.79,14.884,17.621a10.059,10.059,0,0,1-1.979,8.609c-.123.146-12.765,11.5-18.287,11.5a8.359,8.359,0,0,1-3.652-.869l-.1,14.074-.112,24.153a8,8,0,0,1-8,7.963h-16.17a8,8,0,0,1-8-7.946l-.168-25.066c-.1-15.171-.155-22.671-.5-24.067a21.035,21.035,0,0,0-1.763-3.026c-2.833-3.231-3.217-5.528-3.217-7.148,0-7.723,18.274-16.9,21.284-16.9a8.366,8.366,0,0,1,1.425.125c2.408.481,4.762,2.342,6.71,4.386a38.067,38.067,0,0,1,4.936-3.216A14.516,14.516,0,0,1,467.967-1124.893Z" transform="translate(-265.802 1141.978)" fill="#f8ffe5"/><path d="M542.316-1115.6c-3.413,1.678-12.7,9.288-15.331,12.533-2.686,3.413-3.413,6.826-3.749,17.457-.336,9.9.392,18.8,1.79,22.213,1.79,4.2,14.6,14.827,19.863,16.394a7.134,7.134,0,0,0,4.7-.056,46.272,46.272,0,0,0,12.086-6.826c2.742-2.574,6.155-6.77,6.155-7.665,0-.783-9.456-8.057-11.47-8.784-.5-.224-1.231.56-1.958,2.126-1.9,3.749-5.483,7.162-7.553,7.162-3.693,0-6.434-4.7-7.274-12.477-.336-2.965-.28-3.749.336-3.749H554.4c7.554,0,14.044-.224,14.492-.5.56-.392.671-2.406.5-9.9-.168-8.113-.392-9.792-1.4-12.03-2.574-5.707-17.121-17.345-21.541-17.289A16.874,16.874,0,0,0,542.316-1115.6Zm7.5,14.659c2.518,1.846,3.469,4.029,3.637,8.113l.112,3.525H539.574l.168-1.958c.28-3.8,1.79-7.721,3.749-9.792C545.617-1103.348,546.624-1103.348,549.813-1100.942Z" transform="translate(-304.632 1142.026)" fill="#007f5f"/><path d="M546.488-1117h-.032a16.874,16.874,0,0,0-4.14,1.4c-3.413,1.678-12.7,9.288-15.331,12.533-2.686,3.413-3.413,6.826-3.749,17.457-.336,9.9.392,18.8,1.79,22.213,1.79,4.2,14.6,14.827,19.863,16.394a7.134,7.134,0,0,0,4.7-.056,46.272,46.272,0,0,0,12.086-6.826c2.742-2.574,6.155-6.77,6.155-7.665,0-.783-9.456-8.057-11.47-8.784-.5-.224-1.231.56-1.958,2.126-1.9,3.749-5.483,7.162-7.553,7.162-3.693,0-6.434-4.7-7.274-12.477-.336-2.965-.28-3.749.336-3.749H554.4c7.554,0,14.044-.224,14.492-.5.56-.392.671-2.406.5-9.9-.168-8.113-.392-9.792-1.4-12.03C565.43-1105.4,550.947-1117,546.488-1117m7.074,27.7H539.574l.168-1.958c.28-3.8,1.79-7.721,3.749-9.792,2.126-2.294,3.133-2.294,6.323.112,2.518,1.846,3.469,4.029,3.637,8.113l.112,3.525m-7.074-35.7h0c8.688,0,25.437,14.543,28.8,22,1.732,3.849,1.933,6.854,2.1,15.153.216,9.663.306,13.669-3.914,16.623a7.8,7.8,0,0,1-2.725,1.218c2.825,2.585,5.074,5.553,5.074,8.454,0,3.55-2.92,8.092-8.679,13.5-3.2,2.959-11.382,7.571-15.4,8.7a14.625,14.625,0,0,1-9.156.015c-6.955-2.072-22.012-14.095-24.922-20.917-2.828-6.9-2.572-21.355-2.428-25.623.352-11.16,1.189-16.709,5.457-22.133,3.165-3.907,13.367-12.444,18.087-14.765a24.111,24.111,0,0,1,7.058-2.2C546.047-1124.992,546.284-1125,546.489-1125Z" transform="translate(-304.632 1142.026)" fill="#f8ffe5"/><path d="M240.369-1113.615c-.5.5-.4,39.851.1,45.112a35.215,35.215,0,0,0,1.538,7.3c.993,2.68,4.963,7.841,6.055,7.841.5,0,9.181-5.856,10.918-7.345.794-.695.794-.844-.4-2.233a21.7,21.7,0,0,1-2.332-3.524c-1.092-1.985-1.092-2.531-1.34-24.615l-.248-22.581-7-.149A51.574,51.574,0,0,0,240.369-1113.615Z" transform="translate(-179.926 1148.332)" fill="#007f5f"/><path d="M245.7-1113.826a34.854,34.854,0,0,0-5.331.212c-.5.5-.4,39.851.1,45.112a35.215,35.215,0,0,0,1.538,7.3c.993,2.68,4.963,7.841,6.055,7.841.5,0,9.181-5.856,10.918-7.345.794-.695.794-.844-.4-2.233a21.7,21.7,0,0,1-2.332-3.524c-1.092-1.985-1.092-2.531-1.34-24.615l-.248-22.581-7-.149c-.676-.009-1.336-.013-1.964-.013m0-8,2.069.014,7.064.15a8,8,0,0,1,7.829,7.91l.248,22.581c.151,13.415.224,19.961.5,21.329.279.338.949,1.34,1.2,1.643,6.151,7.175.773,12.512-.367,13.509-.169.146-11.189,9.324-16.186,9.324-8.069,0-13.508-12.932-13.557-13.063a42.4,42.4,0,0,1-2-9.262c-.048-.511-2.859-46.52,2.2-51.581a8.013,8.013,0,0,1,.854-.741C237.872-1121.743,239.836-1121.826,245.7-1121.826Z" transform="translate(-179.926 1148.332)" fill="#f8ffe5"/></g><path d="M240.428-542.465c-2.249,1.678-4.428,3.928-4.428,4.642,0,.643,4.749,5.07,6.034,5.57,1.035.429,1.25.393,2.5-.428,1.714-1.143,5.392-4.677,5.392-5.213,0-1.035-5.784-6.106-6.963-6.106A9.872,9.872,0,0,0,240.428-542.465Z" transform="translate(-174.447 553.815)" fill="#007f5f"/><path d="M242.963-544a9.872,9.872,0,0,0-2.535,1.535c-2.249,1.678-4.428,3.928-4.428,4.642,0,.643,4.749,5.07,6.034,5.57,1.035.429,1.25.393,2.5-.428,1.714-1.143,5.392-4.677,5.392-5.213,0-1.035-5.784-6.106-6.963-6.106m0-8c4.82,0,14.963,7.9,14.963,14.106,0,5.325-6.262,10.075-8.954,11.87a10.485,10.485,0,0,1-5.96,2.043,10.364,10.364,0,0,1-4.036-.879c.034.017-10.975-5.876-10.975-12.962,0-1.464,0-5.351,7.644-11.054C239.1-551.467,241.069-552,242.963-552Z" transform="translate(-174.447 553.815)" fill="#f8ffe5"/></g></g><g transform="translate(494.08 93.698)"><g transform="translate(-21.933 -17.909)"><path d="M742.065-589.353a5.58,5.58,0,0,0-3.331,2.475c-.642.886-.7,1.314-.611,3.147.122,1.986.183,2.139,1.375,3.239a5.4,5.4,0,0,0,5.011,1.589l1.192-.306,4.369,5.408c2.414,2.964,4.461,5.53,4.583,5.744.122.183-1.986,9.869-4.705,21.541-2.689,11.641-5.194,22.4-5.53,23.924-.764,3.361-.978,3.819-1.894,3.819a5.794,5.794,0,0,0-3.33,2.2,6.849,6.849,0,0,0-.55,4.919,5.852,5.852,0,0,0,5.989,3.453,5.876,5.876,0,0,0,4.43-5.469,6.319,6.319,0,0,0-2.108-4.216l-.947-.733,4.278-18.486c2.353-10.175,4.95-21.388,5.775-24.9,1.314-5.561,1.467-6.508,1.1-7.027-.214-.336-2.475-3.147-4.98-6.233-4.553-5.592-4.583-5.653-4.094-6.386a5.921,5.921,0,0,0-.306-5.469A5.39,5.39,0,0,0,742.065-589.353Zm3.33,3.239a2.92,2.92,0,0,1-1.467,4.8,3.389,3.389,0,0,1-3.086-1.253,4.018,4.018,0,0,1,0-3.147A3.291,3.291,0,0,1,743.868-587,3.967,3.967,0,0,1,745.4-586.115Zm.428,70.581c2.261,2.292-.519,6.08-3.33,4.583a2.722,2.722,0,0,1-.794-4.491A2.854,2.854,0,0,1,745.823-515.534Z" transform="translate(-646.745 604.932)" fill="#007f5f"/><g transform="translate(0)"><path d="M442.3-639.564a5.381,5.381,0,0,0-2.505,7.516,5.366,5.366,0,0,0,9.319.031l.7-1.253,21.113.061,21.113.092,2.811,11.611,2.781,11.611-.978.855a5.4,5.4,0,0,0,3.575,9.472,5.356,5.356,0,0,0,5.255-5.255,5.332,5.332,0,0,0-4.369-5.408l-1.131-.183-2.994-12.65-3.025-12.65H449.787l-.428-1.008A5.446,5.446,0,0,0,442.3-639.564Zm4.155,2.9c2.567,2.6-1.1,6.6-3.85,4.217a2.941,2.941,0,0,1-.978-1.956,2.017,2.017,0,0,1,.764-2.23A2.667,2.667,0,0,1,446.457-636.661Zm55.762,29.7a2.827,2.827,0,0,1-2.078,4.858,2.632,2.632,0,0,1-2.689-1.955A2.875,2.875,0,0,1,502.218-606.962Z" transform="translate(-439.134 639.988)" fill="#007f5f"/><path d="M752.593-639.363a5.361,5.361,0,0,0-.855,9.044c2.628,2.017,6.875.978,8.1-1.986l.367-.917h34.313l2.811,11.091,2.811,11.061-.733.611a5.666,5.666,0,0,0-1.283,7.028,5.387,5.387,0,0,0,9.289-.122,5.343,5.343,0,0,0-3.453-7.822l-1.467-.367-3.055-11.947-3.025-11.977H760.446l-.581-1.161a4.84,4.84,0,0,0-2.872-2.658A5.171,5.171,0,0,0,752.593-639.363Zm4.125,2.628a2.523,2.523,0,0,1,.825,3.33,2.713,2.713,0,0,1-4.461.856A2.772,2.772,0,0,1,756.718-636.735Zm47.237,27.957a3.414,3.414,0,0,1,1.711,2.9,3.106,3.106,0,0,1-2.9,2.6,2.99,2.99,0,0,1-2.9-2.811A2.861,2.861,0,0,1,803.955-608.778Z" transform="translate(-654.768 639.939)" fill="#007f5f"/><path d="M1043.155-639.225a5.221,5.221,0,0,0-1.039,8.525,5.358,5.358,0,0,0,8.433-1.467l.519-1.039h32.51l-.306,1.13c-.183.642-1.589,5.9-3.147,11.641l-2.78,10.511-1.681.55c-4.583,1.558-5.255,6.966-1.192,9.716.917.611,1.344.7,2.964.611,2.872-.183,4.614-1.711,4.889-4.308.244-2.23-.122-3.483-1.436-4.8l-1.161-1.161,3.483-13.077c1.925-7.211,3.483-13.108,3.483-13.169s-8.036-.092-17.874-.092c-14.788,0-17.874-.061-17.874-.4a4.864,4.864,0,0,0-.886-1.65A5.344,5.344,0,0,0,1043.155-639.225Zm3.941,2.078a3.26,3.26,0,0,1,1.528,3.178,3.788,3.788,0,0,1-2.719,2.292,2.946,2.946,0,0,1-2.505-4.614A2.985,2.985,0,0,1,1047.1-637.147Zm31.991,30.8c2.414,2.414-.672,6.325-3.514,4.461a2.878,2.878,0,0,1-.275-4.614A2.618,2.618,0,0,1,1079.087-606.348Z" transform="translate(-856.661 639.924)" fill="#007f5f"/><path d="M452.339-598.5a5.652,5.652,0,0,0-2.78,7,5.387,5.387,0,0,0,7.455,2.628c1.314-.642,1.344-.642,2.139-.061.458.336,3.667,2.567,7.15,4.95,5.408,3.7,6.386,4.461,6.6,5.316.153.55,3.361,13.322,7.119,28.385l6.844,27.438-.886.825a5.356,5.356,0,0,0,2.964,9.441,5.316,5.316,0,0,0,5.714-6.569,5.623,5.623,0,0,0-4.583-4.125c-.733-.153-.978-.947-7.914-28.813-6.905-27.743-7.18-28.691-8.066-29.424-.489-.428-3.942-2.842-7.608-5.347l-6.691-4.614-.061-2.108a4.978,4.978,0,0,0-.794-3.178A5.865,5.865,0,0,0,452.339-598.5Zm4.155,2.9c2.414,2.414-.672,6.325-3.514,4.461a2.879,2.879,0,0,1-.275-4.614A2.618,2.618,0,0,1,456.494-595.6Zm34.771,75.317a4.424,4.424,0,0,1,.856,1.314,2.105,2.105,0,0,1-.061,2.078,2.8,2.8,0,0,1-5.225,0,2.576,2.576,0,0,1,.581-3.147A3.053,3.053,0,0,1,491.265-520.278Z" transform="translate(-446.116 611.449)" fill="#007f5f"/><path d="M556.208-598.4a6.109,6.109,0,0,0-3.208,4.98,5.781,5.781,0,0,0,4.308,5.164c.886.153,1.253.367,1.375.856.092.367,1.161,4.858,2.383,9.961l2.231,9.319,6.752,2.75,6.722,2.75.183,1.405a5.436,5.436,0,0,0,7.608,4.43,5.378,5.378,0,0,0,2.994-5.958,5.377,5.377,0,0,0-9.105-2.689l-.672.611-5.744-2.353c-3.147-1.283-5.958-2.444-6.2-2.6-.306-.153-1.222-3.453-2.689-9.533l-2.23-9.258.764-.58a5.284,5.284,0,0,0,2.108-4.278,4.975,4.975,0,0,0-4.919-5.316A6.043,6.043,0,0,0,556.208-598.4Zm3.606,2.353a2.792,2.792,0,0,1,.519,4.614,2.8,2.8,0,0,1-4.461-.7,2.513,2.513,0,0,1,0-2.689A3.029,3.029,0,0,1,559.814-596.046Zm24.6,32.479a2.58,2.58,0,0,1-.183,3.88,2.7,2.7,0,0,1-4.491-.855C578.36-563.414,582.119-565.859,584.41-563.567Z" transform="translate(-518.209 611.35)" fill="#007f5f"/><path d="M1111.711-597.54a5.151,5.151,0,0,0-4,5.1,4.891,4.891,0,0,0,1.864,4.216l.978.794-1.925,8.219-1.925,8.189,3.575,5.316,3.605,5.347-.672,1.314a5.486,5.486,0,0,0,2.23,7.241,6.478,6.478,0,0,0,5.011,0,5.464,5.464,0,0,0,2.261-7.15c-1.069-2.139-2.567-2.933-5.683-2.964l-1.222-.031-3.239-4.828L1109.3-571.6l.55-2.2c.306-1.222,1.13-4.614,1.833-7.578l1.253-5.347,1.314-.367a5.391,5.391,0,0,0,3.208-8.189,5.694,5.694,0,0,0-2.169-1.772C1113.605-597.876,1113.361-597.937,1111.711-597.54Zm3.116,3.056a2.9,2.9,0,0,1-.489,4.766,2.842,2.842,0,0,1-4.186-2.628A2.858,2.858,0,0,1,1114.828-594.485Zm5.194,36.085a2.465,2.465,0,0,1,.061,3.575,2.523,2.523,0,0,1-3.331.825,2.893,2.893,0,0,1,.122-5.317A2.658,2.658,0,0,1,1120.022-558.4Z" transform="translate(-902.729 610.675)" fill="#007f5f"/><path d="M806.077-591.168a4.872,4.872,0,0,0-3.3,2.78c-2.078,4.278,2.23,9.136,6.63,7.455a6.763,6.763,0,0,0,3.178-3.086l.367-.886,2.475.092,2.444.092,2.658,10.786c1.436,5.928,2.689,10.816,2.75,10.877s3.361,1.558,7.3,3.33l7.18,3.178.183,1.375a5.721,5.721,0,0,0,2.292,4.094,5.459,5.459,0,0,0,7.486-1.161,6.122,6.122,0,0,0,.214-5.9c-1.711-2.9-6.111-3.514-8.28-1.131-.55.611-.581.611-4.889-1.314-2.383-1.039-5.5-2.444-6.936-3.117l-2.628-1.222-.367-1.65c-.214-.917-1.436-5.958-2.689-11.214l-2.353-9.533h-3.483c-3.025,0-3.483-.061-3.667-.55A5.4,5.4,0,0,0,806.077-591.168Zm3.544,3.117c2.261,2.292-.519,6.08-3.33,4.583a2.722,2.722,0,0,1-.794-4.491A2.854,2.854,0,0,1,809.622-588.051Zm35.6,30.554a2.121,2.121,0,0,1,.947,2.108,2.121,2.121,0,0,1-.947,2.108,2.851,2.851,0,0,1-4.553-3.208A2.857,2.857,0,0,1,845.218-557.5Z" transform="translate(-691.295 606.258)" fill="#007f5f"/><path d="M1024.788-589.408a5.9,5.9,0,0,0-2.933,2.628,7,7,0,0,0,.03,4.8,5.866,5.866,0,0,0,5.683,2.964l1.161-.183,3.086,4.4c1.68,2.444,3.147,4.614,3.239,4.858.122.367-10.419,41.493-10.663,41.615a12.87,12.87,0,0,1-1.344.4,5.364,5.364,0,0,0-3.361,7.852,5.318,5.318,0,0,0,9.991-2.628,5.367,5.367,0,0,0-1.894-4.094c-.672-.55-.886-.978-.794-1.467.092-.367,2.6-9.991,5.561-21.388l5.408-20.716-3.392-4.858c-1.864-2.689-3.453-5.072-3.514-5.286a3.137,3.137,0,0,1,.458-1.589,4.955,4.955,0,0,0,.031-4.583,4.6,4.6,0,0,0-2.994-2.78A4.473,4.473,0,0,0,1024.788-589.408Zm3.972,3.055a2.92,2.92,0,0,1-1.466,4.8,3.39,3.39,0,0,1-3.086-1.253,4.02,4.02,0,0,1,0-3.147,3.292,3.292,0,0,1,3.025-1.283A3.962,3.962,0,0,1,1028.76-586.352Zm-3.391,60.956a2.909,2.909,0,0,1,1.1,4.644,2.679,2.679,0,0,1-3.331.672,2.837,2.837,0,0,1-.061-5.164C1024.238-525.824,1024.146-525.824,1025.368-525.4Z" transform="translate(-841.807 605.17)" fill="#007f5f"/><path d="M465.19-551.4a5.359,5.359,0,0,0,1.68,9.991l1.1.184,2.811,10.725c1.558,5.927,4.828,18.3,7.241,27.56,2.444,9.227,5.775,21.755,7.364,27.774l2.872,11-.886.917c-3.331,3.422-1.681,8.525,2.933,9.227a5.584,5.584,0,0,0,5.469-2.994,6.346,6.346,0,0,0,0-4.736,6.016,6.016,0,0,0-3.178-2.719c-2.078-.428-1.742.52-6.416-17.263-2.383-9.136-6.936-26.368-10.083-38.285l-5.744-21.694,1.1-1.1c2.689-2.689,1.925-7.333-1.436-8.739A6.111,6.111,0,0,0,465.19-551.4Zm3.942,2.2a3.3,3.3,0,0,1,1.528,3.147,3.647,3.647,0,0,1-.764,1.375,2.867,2.867,0,0,1-4.705-3.147A2.826,2.826,0,0,1,469.131-549.2Zm23.863,87.844a2.951,2.951,0,0,1-1.742,4.919c-1.008.153-1.253.061-2.261-.947s-1.1-1.253-.947-2.261A2.944,2.944,0,0,1,492.994-461.357Z" transform="translate(-455.3 578.866)" fill="#007f5f"/><path d="M671.626-540.328a5.338,5.338,0,0,0-.55,8.647l.978.825-6.661,27.8c-3.636,15.277-6.661,27.866-6.691,27.957s-1.558-6.08-3.422-13.719l-3.361-13.841.917-.825a5.072,5.072,0,0,0,1.833-4.614,4.742,4.742,0,0,0-2.78-4.308,5.5,5.5,0,0,0-7.3,2.505,5.324,5.324,0,0,0,3.88,7.516,2.736,2.736,0,0,1,1.069.306c0,.183,7.242,30.31,7.669,31.929.275,1.1.367,1.161,1.5,1.161.672,0,1.222-.092,1.222-.214,0-.336,14.422-60.742,14.574-60.987.061-.122.336-.214.611-.214a5.848,5.848,0,0,0,3.911-2.567A5.375,5.375,0,0,0,671.626-540.328Zm4.828,2.536a2.248,2.248,0,0,1,.947,2.047,2.248,2.248,0,0,1-.947,2.047,2.772,2.772,0,0,1-4.614-1.131A2.8,2.8,0,0,1,676.454-537.792ZM651.4-509.651c2.414,2.414-.672,6.325-3.514,4.461a2.878,2.878,0,0,1-.275-4.614A2.618,2.618,0,0,1,651.4-509.651Z" transform="translate(-581.44 571.337)" fill="#007f5f"/><path d="M961.763-536.207a5.134,5.134,0,0,0-1.222,8.525l1.161,1.13-6.692,27.438c-3.7,15.063-6.753,27.468-6.783,27.53-.061.061-1.528-5.469-3.269-12.283l-3.117-12.375,1.1-1.222c1.772-1.955,2.169-3.819,1.283-5.9a6.955,6.955,0,0,0-3.422-3.147,7.158,7.158,0,0,0-4.675.764,5.872,5.872,0,0,0-1.742,6.722,6.377,6.377,0,0,0,3.819,2.964l1.192.183,2.383,9.38c1.314,5.133,3.025,11.825,3.789,14.849l1.436,5.5,1.222.092,1.253.092,1.253-5.133c2.108-8.769,12.864-52.737,13.169-53.9.275-.947.458-1.13,1.406-1.283a5.72,5.72,0,0,0,3.667-2.75,6.166,6.166,0,0,0,.52-2.567A5.218,5.218,0,0,0,961.763-536.207Zm4.614,2.75c1.222,1.589.917,3.575-.672,4.369a2.644,2.644,0,0,1-3.361-.4,2.6,2.6,0,0,1,.031-4.125,2.21,2.21,0,0,1,2.23-.733A2.59,2.59,0,0,1,966.377-533.457Zm-25.238,30a2.8,2.8,0,0,1-.642,4.675,2.843,2.843,0,0,1-4.094-2.506C936.4-503.728,939.458-505.134,941.139-503.453Z" transform="translate(-782.755 568.347)" fill="#007f5f"/><path d="M830.8-474.424a5.465,5.465,0,0,0-2.078,7.547,5.638,5.638,0,0,0,4.033,2.628c.55,0,.794.672,2.078,5.714,3.758,14.972,22.274,87.905,22.855,89.983l.611,2.383h33.4l.7,1.283a4.808,4.808,0,0,0,4.461,2.811,5.409,5.409,0,0,0,5.561-4.736,5.74,5.74,0,0,0-2.933-5.378,5.362,5.362,0,0,0-7.241,2.383l-.55,1.161-15.766.031H860.162l-2.383-9.38c-1.314-5.194-4.339-17.172-6.753-26.674-11.366-44.671-15.094-59.52-15.094-59.856,0-.214.367-.672.794-1.039a6.49,6.49,0,0,0,1.955-4.094,5.764,5.764,0,0,0-3.116-4.858A6.592,6.592,0,0,0,830.8-474.424Zm3.941,2.23a4,4,0,0,1,1.5,2.78,3.679,3.679,0,0,1-1.069,1.711c-.978.978-1.222,1.069-2.231.917-3.453-.55-3.3-5.714.153-5.714A4.813,4.813,0,0,1,834.741-472.194Zm64.1,102.48a4.419,4.419,0,0,1,.856,1.314,2.778,2.778,0,0,1-1.589,3.636,1.985,1.985,0,0,1-2.23-.092,2.826,2.826,0,0,1-1.528-3.667A3.134,3.134,0,0,1,898.844-369.714Z" transform="translate(-709.172 525.354)" fill="#007f5f"/><path d="M941.57-462.266a6.73,6.73,0,0,0-2.016.886,6.435,6.435,0,0,0-2.139,4.308,6.36,6.36,0,0,0,2.078,4.278l.917.733L936.9-437.242c-1.925,8.158-3.605,14.911-3.728,15.063-.122.122-3.239,1.1-6.905,2.2s-6.692,2.017-6.722,2.047c-.03.061-5.378,20.563-9.105,34.832l-.275,1.161h-8.066l-3.605-13.688c-2.016-7.516-6.08-22.885-9.075-34.129-5.255-19.83-5.408-20.472-4.858-20.96,2.811-2.414,2.9-6.6.153-8.708a4.712,4.712,0,0,0-3.025-.978,3.957,3.957,0,0,0-3.178.764,5.663,5.663,0,0,0-2.505,4.4,5.785,5.785,0,0,0,4.4,5.347l1.222.275,4.369,16.5c2.414,9.075,6.569,24.81,9.258,34.954s4.981,18.577,5.072,18.7c.153.275,11.733.4,11.733.122,0-.458,9.533-36.39,9.716-36.574.183-.153,7.608-2.444,11.977-3.667a4.321,4.321,0,0,0,1.375-.581c.183-.153,1.955-7.241,3.972-15.736l3.666-15.461,1.5-.581c2.811-1.069,4-2.75,3.789-5.5A5.181,5.181,0,0,0,941.57-462.266Zm3.3,3.361a2.845,2.845,0,0,1-3.208,4.553,2.824,2.824,0,0,1-.916-4.614A2.669,2.669,0,0,1,944.87-458.9Zm-61.506,1.772c2.414,2.414-.672,6.325-3.514,4.461a2.878,2.878,0,0,1-.275-4.614A2.618,2.618,0,0,1,883.364-457.133Z" transform="translate(-742.518 516.68)" fill="#007f5f"/><path d="M1072.463-432.487a4.9,4.9,0,0,0-2.9,4.919,5.6,5.6,0,0,0,1.986,4.217l.7.611-6.631,24.9c-3.666,13.688-7.516,28.232-8.616,32.3l-1.956,7.394-1.13.183a6.5,6.5,0,0,0-3.453,2.2,5.563,5.563,0,0,0,2.627,8.158c3.605,1.467,7.73-1.925,7.15-5.836a4.831,4.831,0,0,0-1.5-2.811l-1.313-1.405,7.73-29.027c4.247-15.98,8.128-30.463,8.616-32.235l.855-3.178,1.467-.367a5.419,5.419,0,0,0,1.069-10.083A6.42,6.42,0,0,0,1072.463-432.487Zm3.85,2.261a4,4,0,0,1,1.5,2.78,3.678,3.678,0,0,1-1.07,1.711c-.978.978-1.222,1.069-2.23.917a2.819,2.819,0,0,1-1.558-4.919A3.062,3.062,0,0,1,1076.313-430.226Zm-19.525,75.408a3.51,3.51,0,0,1,.856,1.467,2.723,2.723,0,0,1-1.711,3.361,2.691,2.691,0,0,1-3.666-1.619,1.941,1.941,0,0,1,0-2.139A2.954,2.954,0,0,1,1056.788-354.817Z" transform="translate(-863.053 496.219)" fill="#007f5f"/><path d="M808.708-393.474a4.6,4.6,0,0,0-2.994,2.842,5.243,5.243,0,0,0,3.789,7.394,2.074,2.074,0,0,1,1.161.642c.153.244,5.1,19.647,11,43.082,5.866,23.435,10.847,43.143,11,43.754l.306,1.161h19.555c18.333,0,19.555.031,19.738.519a6.663,6.663,0,0,0,2.628,3.025,6.167,6.167,0,0,0,2.567.519,5.218,5.218,0,0,0,4.614-7.73,5.591,5.591,0,0,0-3.819-2.933,5.691,5.691,0,0,0-5.775,3.147l-.428,1.008H834.924L829.3-319.288c-3.086-12.222-8.005-31.685-10.908-43.234l-5.316-21.052.917-.764a5.271,5.271,0,0,0-1.375-8.983A4.394,4.394,0,0,0,808.708-393.474Zm3.819,2.872a2.922,2.922,0,0,1,.7,3.392,2.563,2.563,0,0,1-2.6,1.558,2.5,2.5,0,0,1-2.628-1.711A2.879,2.879,0,0,1,812.527-390.6Zm66.945,92.977a2.459,2.459,0,0,1,.183,3.453,2.716,2.716,0,0,1-3.208,1.1,2.924,2.924,0,0,1-.122-5.469A2.658,2.658,0,0,1,879.472-297.625Z" transform="translate(-693.344 469.062)" fill="#007f5f"/><path d="M679.039-337.587c-2.9.7-4.889,3.7-4.156,6.294l.275,1.069-6.447,4.644c-3.575,2.536-8.891,6.355-11.825,8.494l-5.347,3.85-2.6,10.511-2.628,10.541H637.24l-2.261-11.427-2.261-11.427.947-.764a5.464,5.464,0,0,0-1.039-9.258,4.446,4.446,0,0,0-4.064-.122,4.9,4.9,0,0,0-2.9,2.719,5.89,5.89,0,0,0,.275,5.316,5.617,5.617,0,0,0,3.361,2.2,1.019,1.019,0,0,1,.978.672c.122.4,1.314,6.111,2.628,12.68l2.383,12.008h12.985l2.2-9.105c1.222-4.98,2.445-9.961,2.719-11.061l.489-1.986,11.427-8.219,11.427-8.219.825.489a5.445,5.445,0,0,0,8.127-3.942,4.366,4.366,0,0,0-.611-2.994,4.1,4.1,0,0,0-2.383-2.444C680.842-337.893,680.536-337.954,679.039-337.587Zm3.055,3.239a2.9,2.9,0,0,1-1.711,4.919,2.9,2.9,0,0,1-2.9-4.125,2.589,2.589,0,0,1,2.719-1.558A2.343,2.343,0,0,1,682.094-334.348Zm-49.437,12.283a2.855,2.855,0,0,1-2.2,4.675,2.991,2.991,0,0,1-2.6-4.278A3.018,3.018,0,0,1,632.657-322.066Z" transform="translate(-568.32 430.133)" fill="#007f5f"/><path d="M631.687-283.417a5.558,5.558,0,0,0-3.208,4.98,6.514,6.514,0,0,0,2.017,4.278c.4.244.733.642.733.856,0,.336-2.719,11.7-11.336,47.573L618.64-220.6H575.467l-2.658-9.991-2.628-10.022.733-.581a6.173,6.173,0,0,0,1.528-6.844,5.222,5.222,0,0,0-4.43-2.75,4.652,4.652,0,0,0-4.369,1.681,5.326,5.326,0,0,0,2.567,8.708l1.619.458,2.047,7.761c1.13,4.278,2.414,9.166,2.872,10.908l.825,3.117,23.558-.061,23.557-.092,6.477-26.98c3.544-14.849,6.539-27.193,6.63-27.438a.877.877,0,0,1,.794-.428,5.4,5.4,0,0,0,3.819-2.536,5.5,5.5,0,0,0-1.528-7.211A6.146,6.146,0,0,0,631.687-283.417Zm3.33,2.322a3.413,3.413,0,0,1,1.711,2.9,3.106,3.106,0,0,1-2.9,2.6,2.992,2.992,0,0,1-2.6-4.278,3.869,3.869,0,0,1,2.506-1.528A4.036,4.036,0,0,1,635.017-281.095Zm-65.784,33a4,4,0,0,1,1.5,2.78,3.676,3.676,0,0,1-1.069,1.711c-.978.978-1.222,1.069-2.23.917a2.819,2.819,0,0,1-1.558-4.919A3.063,3.063,0,0,1,569.234-248.1Z" transform="translate(-524.634 392.615)" fill="#007f5f"/><path d="M1012.493-283.654a5.558,5.558,0,0,0-3.208,4.919,5.128,5.128,0,0,0,1.711,3.85l1.069,1.1-2.781,10.511c-1.528,5.775-2.964,10.6-3.147,10.725a2.33,2.33,0,0,1-1.008.244c-.825,0-2.475,1.131-3.269,2.2a5.188,5.188,0,0,0-.764,2.658,4.187,4.187,0,0,0,.672,3.208,5.326,5.326,0,0,0,8.952.214,5.017,5.017,0,0,0-.58-6.63l-1.253-1.375,2.536-9.686c1.405-5.316,2.658-10.144,2.811-10.694.214-.7.458-.978.917-.978a5.739,5.739,0,0,0,4.064-2.567C1021.812-280.416,1017.168-285.732,1012.493-283.654Zm3.331,2.322a3.413,3.413,0,0,1,1.711,2.9,3.106,3.106,0,0,1-2.9,2.6,2.991,2.991,0,0,1-2.6-4.278,3.87,3.87,0,0,1,2.506-1.528A4.036,4.036,0,0,1,1015.824-281.332Zm-7.425,32.357a2.562,2.562,0,0,1,.428,3.361c-1.314,2.567-5.347,1.5-5.347-1.375A2.839,2.839,0,0,1,1008.4-248.975Z" transform="translate(-829.36 392.852)" fill="#007f5f"/><path d="M637.239-241.487a4.958,4.958,0,0,0-2.994,4.675c0,1.558.947,3.789,1.925,4.369.336.214.611.519.611.7,0,.153-1.528,5.836-3.392,12.619l-3.453,12.283-12.527-.061-12.558-.092-.917-4.43c-.519-2.444-1.619-7.761-2.475-11.855l-1.5-7.425,1.008-.764a5.363,5.363,0,0,0-4.094-9.5,5.31,5.31,0,0,0-4.43,6.661,5.6,5.6,0,0,0,3.667,3.728l1.405.428,2.658,12.8c1.467,7.028,2.658,12.833,2.689,12.863,0,.061,6.508.092,14.483.092H631.8l2.017-7.119c1.1-3.88,2.781-9.93,3.758-13.383l1.742-6.325,1.191-.153a5.822,5.822,0,0,0,4.522-5.194,6.3,6.3,0,0,0-3.117-4.98A6.34,6.34,0,0,0,637.239-241.487Zm4,2.414a3.361,3.361,0,0,1,1.222,3.086,3.165,3.165,0,0,1-2.842,2.261,2.973,2.973,0,0,1-2.841-2.9A2.94,2.94,0,0,1,641.242-239.073Zm-42.257.794a2.923,2.923,0,0,1,1.528,2.78,2.32,2.32,0,0,1-.947,1.833,2.736,2.736,0,0,1-4.491-.825c-.55-1.222-.55-1.619-.031-2.567A3.029,3.029,0,0,1,598.985-238.278Z" transform="translate(-545.464 363.578)" fill="#007f5f"/><path d="M11.442.464A5.558,5.558,0,0,0,8.234,5.383a5.128,5.128,0,0,0,1.711,3.85l1.069,1.1L8.234,20.844c-1.528,5.775-2.964,10.6-3.147,10.725a2.33,2.33,0,0,1-1.008.244c-.825,0-2.475,1.131-3.269,2.2a5.189,5.189,0,0,0-.764,2.658,4.187,4.187,0,0,0,.672,3.208,5.326,5.326,0,0,0,8.952.214,5.017,5.017,0,0,0-.58-6.63L7.837,32.088,10.373,22.4c1.405-5.316,2.658-10.144,2.811-10.694.214-.7.458-.978.917-.978a5.739,5.739,0,0,0,4.064-2.567C20.762,3.7,16.117-1.614,11.442.464Zm3.33,2.322a3.413,3.413,0,0,1,1.711,2.9,3.106,3.106,0,0,1-2.9,2.6,2.991,2.991,0,0,1-2.6-4.278A3.87,3.87,0,0,1,13.49,2.481,4.036,4.036,0,0,1,14.773,2.786ZM7.348,35.143A2.562,2.562,0,0,1,7.776,38.5C6.462,41.071,2.429,40,2.429,37.129A2.839,2.839,0,0,1,7.348,35.143Z" transform="matrix(0.848, -0.53, 0.53, 0.848, 34.791, 62.934)" fill="#007f5f"/></g></g><g transform="translate(194.117 55.973)"><path d="M1046.01-1156.873c-3.179,2.231-6.023,4.35-6.358,4.685-.446.446-.112,1.171,1.227,2.677,3.793,4.35,3.625,2.119,3.793,43.837l.167,37.814h12.1l.335-1.562c.167-.837.446-2.454.669-3.625a5.544,5.544,0,0,1,.558-2.064,35.58,35.58,0,0,1,3.848,3.067c4.573,3.848,8.812,6.079,10.764,5.577,2.287-.558,5.689-3.179,10.485-8.143,7.195-7.418,7.083-7.139,7.362-23.648s-.223-20.971-2.566-24.373c-3.514-5.02-11.824-12.493-15.058-13.5-1.841-.614-4.685.558-8.255,3.29-1.729,1.394-3.4,2.343-3.625,2.175-.279-.167-.5-3.625-.5-7.641,0-8.2-.837-12.493-3.123-16.453-1.785-3.012-4.629-6.247-5.466-6.247A60.881,60.881,0,0,0,1046.01-1156.873Zm26.492,37.814c2.9,3.123,2.956,3.4,2.956,17.457,0,14.389-.167,15.449-3.235,18.349-1.394,1.283-2.064,1.562-3.458,1.283-2.566-.558-6.637-3.569-7.083-5.3-.558-1.952-.558-26.157,0-28.109.5-1.84,5.577-5.466,7.641-5.466A5.047,5.047,0,0,1,1072.5-1119.059Z" transform="translate(-985.385 1161)" fill="#007f5f"/><path d="M1052.369-1161a60.881,60.881,0,0,0-6.358,4.127c-3.179,2.231-6.023,4.35-6.358,4.685-.446.446-.112,1.171,1.227,2.677,3.793,4.35,3.625,2.119,3.793,43.837l.167,37.814h12.1l.335-1.562c.167-.837.446-2.454.669-3.625a5.544,5.544,0,0,1,.558-2.064,35.58,35.58,0,0,1,3.848,3.067c4.573,3.848,8.813,6.078,10.764,5.577,2.287-.558,5.689-3.179,10.485-8.143,7.195-7.418,7.083-7.139,7.362-23.648s-.223-20.971-2.566-24.373c-3.514-5.02-11.824-12.493-15.058-13.5-1.841-.613-4.685.558-8.255,3.29-1.729,1.395-3.4,2.342-3.625,2.175-.279-.167-.5-3.625-.5-7.641,0-8.2-.837-12.493-3.123-16.453-1.785-3.012-4.629-6.247-5.466-6.247m17.258,79.129a4.408,4.408,0,0,1-.861-.1c-2.566-.558-6.637-3.569-7.083-5.3-.558-1.952-.558-26.157,0-28.109.5-1.84,5.577-5.466,7.641-5.466a5.047,5.047,0,0,1,3.179,1.785c2.9,3.123,2.956,3.4,2.956,17.457,0,14.389-.167,15.449-3.235,18.349-1.075.989-1.719,1.381-2.6,1.381M1052.369-1169c4.2,0,8.35,3.421,12.348,10.168,2.7,4.671,3.747,9.42,4.093,15.021a12.149,12.149,0,0,1,7.059.1c5.722,1.774,15.317,11.119,19.083,16.5,3.822,5.551,4.308,11.5,4.011,29.1-.3,17.647-.622,19.809-9.405,28.863-6.28,6.5-10.569,9.595-14.545,10.565a13.925,13.925,0,0,1-2.5.3c-2.931,0-6.309-1.22-10.086-3.636a7.99,7.99,0,0,1-5.481,2.172h-12.1a8,8,0,0,1-8-7.965l-.186-42.661c-.076-19.816-.118-30.731-.831-32.788-.021-.023-.952-.958-.973-.981-6.467-7.276-1.846-12.6-.854-13.591,1.119-1.119,5.561-4.272,7.419-5.576,7.221-5.067,8.13-5.219,9.638-5.47A8,8,0,0,1,1052.369-1169Z" transform="translate(-985.385 1161)" fill="#f8ffe5"/><path d="M961.8-1115.885c-3.235,1.506-10.82,7.474-14.612,11.6-4.462,4.8-4.685,5.856-4.685,22.978,0,13.609.056,14.333,1.283,17.067,2.119,4.629,11.433,13,17.847,16.007,3.346,1.562,3.737,1.617,6.47,1,3.848-.837,9.2-4.016,13.441-7.975,3.068-2.844,5.912-6.8,5.3-7.306-2.51-1.84-11.656-8.2-11.88-8.2a6.377,6.377,0,0,0-1.562,2.287,24.384,24.384,0,0,1-3.4,4.741c-1.785,1.952-2.621,2.454-4.071,2.454-3.291,0-5.856-3.4-6.916-9.2-.837-4.35-.781-6.971.112-6.971h14.334c7.529,0,14-.223,14.445-.5.613-.39.669-2.175.446-9.314a75.882,75.882,0,0,0-1-11.322C985.78-1104,970.386-1117,965.367-1117A12.308,12.308,0,0,0,961.8-1115.885Zm6.135,14.445c3.067,1.9,4.239,4.239,4.518,8.7l.167,3.346H958.674l.167-2.789c.223-3.57,2.064-7.753,4.127-9.481a6.974,6.974,0,0,1,2.064-1.394A15.735,15.735,0,0,1,967.932-1101.439Z" transform="translate(-942.5 1141.54)" fill="#007f5f"/><path d="M965.367-1117a12.308,12.308,0,0,0-3.569,1.115c-3.235,1.506-10.82,7.474-14.612,11.6-4.462,4.8-4.685,5.856-4.685,22.978,0,13.609.056,14.333,1.283,17.067,2.119,4.629,11.433,13,17.847,16.007,3.346,1.561,3.737,1.617,6.47,1,3.848-.837,9.2-4.016,13.441-7.975,3.068-2.844,5.912-6.8,5.3-7.306-2.51-1.84-11.656-8.2-11.88-8.2a6.377,6.377,0,0,0-1.562,2.287,24.384,24.384,0,0,1-3.4,4.741c-1.785,1.952-2.621,2.454-4.071,2.454-3.291,0-5.856-3.4-6.916-9.2-.837-4.35-.781-6.971.112-6.971h14.334c7.529,0,14-.223,14.445-.5.613-.39.669-2.175.446-9.314a75.882,75.882,0,0,0-1-11.322C985.78-1104,970.386-1117,965.367-1117m7.25,27.608H958.674l.167-2.789c.223-3.57,2.064-7.753,4.127-9.481a6.974,6.974,0,0,1,2.064-1.394,15.735,15.735,0,0,1,2.9,1.617c3.067,1.9,4.239,4.239,4.518,8.7l.167,3.346M965.367-1125c9.144,0,27.279,15.908,29.667,24.263.921,3.159,1.251,11.589,1.307,13.247.288,9.229.42,13.43-4.147,16.336a6.809,6.809,0,0,1-2.242,1.01q.777.567,1.618,1.183a8.491,8.491,0,0,1,3.349,6.411c.146,4.7-4.237,9.78-7.939,13.213-5.319,4.97-11.911,8.781-17.181,9.927a17.9,17.9,0,0,1-4.049.546c-2.964,0-5.169-1.029-7.5-2.118-7.441-3.494-18.546-12.954-21.738-19.926-2.009-4.474-2.009-6.6-2.009-20.4,0-17.039,0-21.088,6.827-28.427,4.028-4.383,12.394-11.217,17.094-13.4A18.97,18.97,0,0,1,965.367-1125Z" transform="translate(-942.5 1141.54)" fill="#f8ffe5"/></g></g></g></g></svg>