<svg xmlns="http://www.w3.org/2000/svg" xmlns:xlink="http://www.w3.org/1999/xlink" width="817" height="213" viewBox="0 0 817 213"><defs><clipPath id="b"><rect width="817" height="213"/></clipPath></defs><g id="a" clip-path="url(#b)"><g transform="translate(8 -54.076)"><g transform="translate(8 66.076)"><path d="M28.3-1116.52a5.411,5.411,0,0,0-3.3,5.095,5.473,5.473,0,0,0,3.371,5.272l.938.38v37.767h32.14l.253.71a7.035,7.035,0,0,0,2.864,3.118,5.847,5.847,0,0,0,7.2-2.155,4.468,4.468,0,0,0,.76-2.915,4.6,4.6,0,0,0-.71-2.89,5.89,5.89,0,0,0-7.046-2.357,7,7,0,0,0-3.042,3.143l-.279.811H31.844v-35.232l.836-.329a5.658,5.658,0,0,0,3.473-5.2,5.385,5.385,0,0,0-5.576-5.6A7.251,7.251,0,0,0,28.3-1116.52Zm4.258,2.991a2.176,2.176,0,0,1,.938,2.155,2.3,2.3,0,0,1-.786,2.078,2.982,2.982,0,0,1-5.171-2.053,2.991,2.991,0,0,1,3.118-3.042A2.511,2.511,0,0,1,32.553-1113.53Zm36.449,42a3.02,3.02,0,0,1-1.622,5.221,3.157,3.157,0,0,1-2.94-1.242,4.292,4.292,0,0,1-.127-3.27A3.242,3.242,0,0,1,69-1071.53Z" transform="translate(-25 1116.957)" fill="#285943"/><path d="M92.225-1116.365a4.272,4.272,0,0,0-2.636,2.687,5.205,5.205,0,0,0,.177,4.841,4.857,4.857,0,0,0,4.588,2.966,4.421,4.421,0,0,0,2.484-.3l.786-.38,4.132,4.157,4.132,4.182h81.389l5.12,5.12,5.12,5.12-.406.76a6.272,6.272,0,0,0,.152,4.638,5.6,5.6,0,0,0,9.759.507,5.652,5.652,0,0,0-6.818-8.289l-.938.3-5.374-5.348-5.348-5.348H107.179l-3.777-3.777-3.8-3.8.3-.963c.558-1.85.583-2.053.3-3.219A5.543,5.543,0,0,0,92.225-1116.365Zm3.9,2.281a2.9,2.9,0,0,1,1.546,2.687,2.964,2.964,0,0,1-4.309,2.712,3.863,3.863,0,0,1-1.774-2.712,3.863,3.863,0,0,1,1.774-2.712A3.115,3.115,0,0,1,96.128-1114.084ZM203.9-1087.647a3.492,3.492,0,0,1,1.5,2.611,3.523,3.523,0,0,1-2.991,3.042,3.185,3.185,0,0,1-3.092-3.3,2.219,2.219,0,0,1,.862-1.926,2.219,2.219,0,0,1,1.926-.862A4.378,4.378,0,0,1,203.9-1087.647Z" transform="translate(-72.834 1117.004)" fill="#285943"/><path d="M159.092-1116.559a5.678,5.678,0,0,0-3.092,5.221,6.434,6.434,0,0,0,2.459,4.486,6.1,6.1,0,0,0,5.272.558,6.838,6.838,0,0,0,3.219-3.219l.253-.735,41.848.051,41.873.076L251-1108.3l.076,1.825-.963.406a5.675,5.675,0,0,0-3.473,5.348,5.6,5.6,0,0,0,9.936,3.5,5.566,5.566,0,0,0-1.648-8.466l-1.318-.634v-3.244l-.025-3.219H167.229l-.456-.989A5.748,5.748,0,0,0,159.092-1116.559Zm3.979,2.357a2.9,2.9,0,0,1,1.546,2.813,2.892,2.892,0,0,1-3.65,2.814,3.119,3.119,0,0,1-2.1-4.106A3.032,3.032,0,0,1,163.072-1114.2Zm90.716,10.8a3.786,3.786,0,0,1,1.572,2.687,3.6,3.6,0,0,1-1.5,2.458,4.374,4.374,0,0,1-1.8.431,2.219,2.219,0,0,1-1.926-.862,2.2,2.2,0,0,1-.862-1.9,2.939,2.939,0,0,1,1.572-2.89A2.687,2.687,0,0,1,253.788-1103.4Z" transform="translate(-122.796 1117.122)" fill="#285943"/><path d="M81.953-1013.681a6.173,6.173,0,0,0-3.143,2.307,6.032,6.032,0,0,0,.811,7.325,5.668,5.668,0,0,0,8.973-1.648l.558-1.141h20.86l6.666,6.666,6.641,6.641v4.943l-.811.33a5.881,5.881,0,0,0-2.991,2.864,5.76,5.76,0,0,0,.406,5.475,6.244,6.244,0,0,0,4.664,2.484,6.3,6.3,0,0,0,4.664-2.459,6.286,6.286,0,0,0,.659-5.019,5.945,5.945,0,0,0-2.966-3.219l-1.09-.482v-2.966l-.025-2.966L118.4-1002.1l-7.4-7.528H88.949l-.3-.862a6.186,6.186,0,0,0-1.419-1.876A5.3,5.3,0,0,0,81.953-1013.681Zm3.092,2.915a2.927,2.927,0,0,1,.735,4.537,2.958,2.958,0,0,1-5.221-1.445A3.018,3.018,0,0,1,85.045-1010.766Zm41.062,25.093a2.927,2.927,0,0,1,.735,4.537,2.9,2.9,0,0,1-4.816-.406C120.455-984.076,123.42-987.066,126.107-985.672Z" transform="translate(-64.514 1040.072)" fill="#285943"/><path d="M409.673-950.506a6.354,6.354,0,0,0-2.89,3.042l-.329.811h-32.14v40.225l-1.014.456a6.312,6.312,0,0,0-3.042,3.3,6.285,6.285,0,0,0,.659,5.019,6.3,6.3,0,0,0,4.664,2.459,6.3,6.3,0,0,0,4.664-2.459,6.1,6.1,0,0,0,.558-5.272,6.838,6.838,0,0,0-3.219-3.219l-.735-.253v-37.716h29.58l.456,1.014a6.313,6.313,0,0,0,3.3,3.042,6.212,6.212,0,0,0,4.993-.659,6.33,6.33,0,0,0,2.484-4.664,6.426,6.426,0,0,0-2.484-4.689A6.264,6.264,0,0,0,409.673-950.506Zm4.486,3.067a2.728,2.728,0,0,1,0,4.106,2.958,2.958,0,0,1-4.74-.532,3.537,3.537,0,0,1,.025-3.194A3.034,3.034,0,0,1,414.16-947.439Zm-37.209,43.875a3.257,3.257,0,0,1,1.673,2.839,3.268,3.268,0,0,1-2.433,2.89,3.113,3.113,0,0,1-3.574-2.509A3.06,3.06,0,0,1,376.951-903.564Z" transform="translate(-282.559 993.069)" fill="#285943"/><path d="M171.8-891.557a5.712,5.712,0,0,0-2.053,9.353,5.36,5.36,0,0,0,5.7,1.343l1.318-.456,6.818,6.818,6.793,6.793v65.9l-6.92,6.92-6.92,6.92-.938-.406a5.276,5.276,0,0,0-4.512.3,4.925,4.925,0,0,0-2.966,4.486,4.856,4.856,0,0,0,1.521,4.436,5.457,5.457,0,0,0,7.553.355,5.614,5.614,0,0,0,1.648-6.337l-.406-.938,7.249-7.249,7.224-7.224v-68.183l-7.122-7.148-7.122-7.148.38-1.5a5.708,5.708,0,0,0-1.724-6.083A5.732,5.732,0,0,0,171.8-891.557Zm2.966,2.535a2.933,2.933,0,0,1,1.926,2.864,2.212,2.212,0,0,1-.862,2,2.291,2.291,0,0,1-2.1.862,3.813,3.813,0,0,1-1.825-.406,4,4,0,0,1-1.293-2.712,3.408,3.408,0,0,1,2.028-2.636C173.775-889.428,173.775-889.428,174.764-889.022Zm.482,103.364a3.651,3.651,0,0,1,1.445,2.56,3.451,3.451,0,0,1-1.318,2.56,3.666,3.666,0,0,1-1.774.406,2.669,2.669,0,0,1-2.915-2.687,2.188,2.188,0,0,1,.456-1.977A3.157,3.157,0,0,1,175.245-785.658Z" transform="translate(-131.826 948.973)" fill="#285943"/><path d="M172.106-831.342a5.791,5.791,0,0,0-3.726,3.675,5.744,5.744,0,0,0,3.244,6.844l.786.329v61.187l-.862.3a6.189,6.189,0,0,0-1.876,1.419,5.584,5.584,0,0,0,5.627,9.176,4.947,4.947,0,0,0,3.32-2.535,5.829,5.829,0,0,0,.634-4.436A6.633,6.633,0,0,0,176.06-759l-.862-.3v-61.162l.989-.456a5.377,5.377,0,0,0,2.839-3.016,5.538,5.538,0,0,0-1.141-5.931A5.9,5.9,0,0,0,172.106-831.342Zm3.473,2.991a2.9,2.9,0,0,1-.684,5.145,2.145,2.145,0,0,1-2.1.025,2.891,2.891,0,0,1-1.039-4.867,2.212,2.212,0,0,1,2-.862A2.8,2.8,0,0,1,175.578-828.351Zm.127,72.137a3.193,3.193,0,0,1,1.014,3.244,3.081,3.081,0,0,1-2.966,2.129,2.212,2.212,0,0,1-2-.862,2.231,2.231,0,0,1-.862-2.028,3.836,3.836,0,0,1,.431-1.85A3.17,3.17,0,0,1,175.705-756.214Z" transform="translate(-131.855 903.966)" fill="#285943"/><path d="M298.628-705.33a5.782,5.782,0,0,0-3.27,7.4,6.587,6.587,0,0,0,3.092,3.118l.836.279v46.511l-.989.456a5.587,5.587,0,0,0,.507,10.392,5.542,5.542,0,0,0,7.4-5.221,5.609,5.609,0,0,0-3.625-5.348l-.76-.253v-23.218l.025-23.243,1.267-.608a5.626,5.626,0,0,0,1.9-8.517A5.951,5.951,0,0,0,298.628-705.33Zm3.042,2.484a2.933,2.933,0,0,1,1.926,2.864,2.212,2.212,0,0,1-.862,2,2.291,2.291,0,0,1-2.1.862,3.814,3.814,0,0,1-1.825-.406,4,4,0,0,1-1.293-2.712,3.408,3.408,0,0,1,2.028-2.636C300.681-703.252,300.681-703.252,301.669-702.846Zm0,57.537a3.04,3.04,0,0,1-.2,5.728,3.184,3.184,0,0,1-3.954-2.915,3.379,3.379,0,0,1,2.028-2.839C300.681-645.714,300.681-645.714,301.669-645.309Z" transform="translate(-226.541 809.942)" fill="#285943"/><path d="M223.656-650.672a5.692,5.692,0,0,0-4.309,5.3,5.451,5.451,0,0,0,3.067,5.247l1.242.634v50.44l-22.1-.025H179.426l-.634-1.318a5.549,5.549,0,0,0-10.063.279,5.545,5.545,0,0,0,5.019,7.908,7.06,7.06,0,0,0,2.281-.355,6.488,6.488,0,0,0,3.042-3.067l.33-.887h46.79v-52.975l1.141-.532a5.682,5.682,0,0,0-1.014-10.6A4.174,4.174,0,0,0,223.656-650.672Zm2.737,2.915a3.332,3.332,0,0,1,1.572,2.737,3.082,3.082,0,0,1-4.03,2.737,2.739,2.739,0,0,1-1.926-2.839,2.177,2.177,0,0,1,.938-2.129A2.876,2.876,0,0,1,226.393-647.757ZM175.9-590.042a3.036,3.036,0,0,1-3.447,4.917,2.636,2.636,0,0,1-1.521-2.611,2.532,2.532,0,0,1,1.343-2.611A3.212,3.212,0,0,1,175.9-590.042Z" transform="translate(-131.901 769.047)" fill="#285943"/><path d="M346.852-1013.73c-.127.051-.684.152-1.217.253a5.865,5.865,0,0,0-3.523,3.092l-.482,1.09H312v59.438l7.5,7.5,7.5,7.5-.406,1.343a9.738,9.738,0,0,0-.406,1.876,6.084,6.084,0,0,0,3.422,4.993,5.735,5.735,0,0,0,6.286-1.191,5.564,5.564,0,0,0-3.954-9.505,7.428,7.428,0,0,0-2.281.355l-.887.38-7.122-7.224-7.122-7.224v-55.712h27.07l.558,1.141a5.479,5.479,0,0,0,7.629,2.459,4.922,4.922,0,0,0,2.966-4.334,5.257,5.257,0,0,0-1.293-4.233C350.324-1013.045,347.866-1014.11,346.852-1013.73Zm1.9,3.042c2.915,1.521,1.115,6.21-2.129,5.6a3.1,3.1,0,0,1-1.926-4.664A3.082,3.082,0,0,1,348.753-1010.688Zm-14.8,76.7a4.088,4.088,0,0,1,.887,1.521,2.033,2.033,0,0,1-.177,1.926c-1.419,2.864-5.678,2.028-5.678-1.115a2.548,2.548,0,0,1,1.343-2.636A3.212,3.212,0,0,1,333.95-933.989Z" transform="translate(-238.893 1040.248)" fill="#285943"/><g transform="translate(111.659 86.501)"><g transform="translate(0 0.56)"><path d="M289.664-1161.544c-1.175.5-1.007,76.99.112,81.8,1.343,5.6,5.092,11.918,7.553,12.7.783.224,2.909-.951,7.553-4.252l6.49-4.532-1.343-1.511a17.82,17.82,0,0,1-3.917-6.267c-.448-1.343-.727-12.7-.951-39.95l-.28-38.047-7.274-.112A76.037,76.037,0,0,0,289.664-1161.544Z" transform="translate(-201.428 1161.727)" fill="#f8ffe5"/><path d="M295.477-1161.727a54.928,54.928,0,0,0-5.812.183c-1.175.5-1.007,76.99.112,81.8,1.343,5.6,5.092,11.918,7.553,12.7.784.224,2.91-.951,7.553-4.252l6.49-4.532-1.343-1.511a17.82,17.82,0,0,1-3.917-6.267c-.448-1.343-.727-12.7-.951-39.95l-.28-38.047-7.274-.112c-.728-.01-1.446-.015-2.133-.015m0-8,2.245.016,7.284.112a8,8,0,0,1,7.877,7.94l.28,38.047c.068,8.322.271,33,.714,37.879a10.069,10.069,0,0,0,1.975,2.908l1.5,1.684a8,8,0,0,1,1.966,6.251,8,8,0,0,1-3.365,5.623l-6.49,4.532c-5.658,4.022-8.585,5.72-11.924,5.72a9.59,9.59,0,0,1-2.408-.334c-7.757-2.464-12.1-14.2-13.134-18.526-.884-3.8-1.105-26.22-1.137-44.369-.078-44.2-.078-44.2,5.652-46.652C288.091-1169.452,288.916-1169.727,295.477-1169.727Z" transform="translate(-201.428 1161.727)" fill="#285943"/><path d="M654.833-1157.029c-7.665,5.371-7.553,5.2-5.763,7.05,2.91,3.021,4.029,6.546,4.252,13.428.112,3.469,0,6.323-.224,6.323a23.478,23.478,0,0,1-3.861-2.518c-4.476-3.413-6.714-4.084-9.568-2.742-3.245,1.455-13.372,11.75-14.883,15.107-1.231,2.63-1.287,3.245-1.287,19.248,0,19.639-.168,19.08,7.106,26.633,8.617,8.952,11.3,9.959,16.9,6.211,1.734-1.175,4.14-3.021,5.371-4.084,2.182-2.014,3.357-2.126,3.357-.336a15.012,15.012,0,0,0,.615,3.021l.56,2.126H669.66v-39.054c0-36.536-.056-39.278-1.063-42.8-1.343-4.924-5.987-11.694-7.889-11.582C660.54-1160.945,657.91-1159.211,654.833-1157.029Zm-5.651,37.991c4.029,2.574,4.252,3.525,4.252,17.457a120.641,120.641,0,0,1-.56,13.988c-.671,2.35-4.252,5.26-7.274,5.875-1.455.28-2.07,0-3.693-1.567a9.806,9.806,0,0,1-2.462-3.861c-.727-2.574-.727-25.4,0-28.032s3.637-5.539,5.539-5.539A11.523,11.523,0,0,1,649.182-1119.037Z" transform="translate(-348.832 1161.408)" fill="#f8ffe5"/><path d="M660.755-1161h-.047c-.168.056-2.8,1.79-5.875,3.973-7.665,5.371-7.553,5.2-5.763,7.05,2.91,3.021,4.029,6.546,4.252,13.428.112,3.469,0,6.323-.224,6.323a23.478,23.478,0,0,1-3.861-2.518c-4.476-3.413-6.714-4.085-9.568-2.742-3.245,1.455-13.372,11.75-14.883,15.107-1.231,2.63-1.287,3.245-1.287,19.248,0,19.639-.168,19.08,7.106,26.633,8.617,8.952,11.3,9.96,16.9,6.211,1.734-1.175,4.14-3.021,5.371-4.084,2.182-2.015,3.357-2.126,3.357-.336a15.012,15.012,0,0,0,.615,3.021l.56,2.126H669.66v-39.054c0-36.536-.056-39.278-1.063-42.8-1.332-4.883-5.911-11.583-7.842-11.583m-16.008,79.381c-.919,0-1.571-.438-2.839-1.662a9.806,9.806,0,0,1-2.462-3.861c-.727-2.574-.727-25.4,0-28.032s3.637-5.539,5.539-5.539a11.523,11.523,0,0,1,4.2,1.679c4.029,2.574,4.252,3.525,4.252,17.457a120.641,120.641,0,0,1-.56,13.988c-.671,2.35-4.252,5.26-7.274,5.875a4.543,4.543,0,0,1-.854.1M660.755-1169c9.989,0,15.512,17.3,15.56,17.478,1.345,4.705,1.345,7.741,1.345,44.908v39.054a8,8,0,0,1-8,8H657.407a7.993,7.993,0,0,1-5.411-2.108l-.005,0a17.343,17.343,0,0,1-9.706,3.429c-6.6,0-11.6-4.644-17.442-10.715-9.346-9.7-9.346-12.519-9.342-30.883v-1.3c0-16.548,0-18.278,2.041-22.639,2.307-5.128,13.792-16.745,18.856-19.016a13.671,13.671,0,0,1,5.878-1.347,13.068,13.068,0,0,1,1.371.072c-.115-.135-.229-.253-.339-.368a9.7,9.7,0,0,1-3.2-7.822c.427-4.528,3.275-6.522,9.514-10.892,6.916-4.9,7.677-5.153,8.558-5.447a8,8,0,0,1,2.06-.4C660.393-1169,660.6-1169,660.755-1169Z" transform="translate(-348.832 1161.408)" fill="#285943"/><path d="M148.267-1115.322c-3.357,2.126-9.9,8.729-12.421,12.533-2.686,4.084-3.245,7.665-3.245,21.038,0,17.4.56,19.024,9.512,28.088,5.707,5.707,8.84,7.553,11.414,6.714,2.238-.839,5.931-3.413,9.736-6.882a17.437,17.437,0,0,1,3.357-2.686c.056.112.951,1.343,1.846,2.742,2.8,4.029,5.651,6.882,6.434,6.378.392-.224,2.91-2.294,5.651-4.644l4.868-4.2-2.182-2.294a13.749,13.749,0,0,1-2.8-3.8c-.392-1.007-.615-10.575-.615-27.3v-25.682H167.738l-.671,3.357c-.392,1.846-.9,3.357-1.175,3.357a32.742,32.742,0,0,1-4.252-3.077c-3.973-3.189-7.889-5.315-9.68-5.315A11.838,11.838,0,0,0,148.267-1115.322Zm10.911,15.667c3.973,2.574,4.14,3.357,4.14,17.625,0,6.77-.168,12.981-.448,13.82a6.753,6.753,0,0,1-1.679,2.742c-1.623,1.511-5.092,3.3-6.434,3.3-1.511,0-3.973-2.63-5.315-5.6-1.063-2.294-1.175-3.581-1.175-13.988,0-10.743.112-11.638,1.343-14.436C151.959-1101.557,154.645-1102.509,159.177-1099.655Z" transform="translate(-132.6 1142.025)" fill="#f8ffe5"/><path d="M151.959-1117a11.838,11.838,0,0,0-3.693,1.678c-3.357,2.126-9.9,8.729-12.421,12.533-2.686,4.084-3.245,7.665-3.245,21.038,0,17.4.56,19.024,9.512,28.088,5.707,5.707,8.841,7.553,11.414,6.714,2.238-.839,5.931-3.413,9.736-6.882a17.458,17.458,0,0,1,3.357-2.686c.056.112.951,1.343,1.846,2.742,2.8,4.029,5.651,6.883,6.434,6.378.392-.224,2.91-2.294,5.651-4.644l4.868-4.2-2.182-2.294a13.749,13.749,0,0,1-2.8-3.8c-.392-1.007-.615-10.575-.615-27.3v-25.682H167.738l-.671,3.357c-.392,1.846-.9,3.357-1.175,3.357a32.742,32.742,0,0,1-4.252-3.077c-3.973-3.189-7.889-5.315-9.68-5.315m2.8,54.833c-1.511,0-3.973-2.63-5.315-5.6-1.063-2.294-1.175-3.581-1.175-13.988,0-10.743.112-11.638,1.343-14.436,2.35-5.371,5.036-6.323,9.568-3.469,3.973,2.574,4.14,3.357,4.14,17.625,0,6.77-.168,12.981-.448,13.82a6.753,6.753,0,0,1-1.679,2.742c-1.623,1.511-5.092,3.3-6.434,3.3m-2.8-62.833c3.27,0,6.975,1.746,10.274,3.873a7.989,7.989,0,0,1,5.5-2.195h12.086a8,8,0,0,1,8,8v25.682c0,16.531.215,22.533.347,24.658.19.218.455.526.723.794l2.322,2.437a8,8,0,0,1,2.194,5.909,8,8,0,0,1-2.767,5.664l-4.868,4.2c-5.548,4.755-6.4,5.241-6.908,5.532a8.882,8.882,0,0,1-4.183,1.11c-2.48,0-5.348-.774-9.513-5.6a35.487,35.487,0,0,1-8.834,5.479,12.348,12.348,0,0,1-4.022.7c-5.5,0-10.147-3.539-15.858-9.25-10.98-11.117-11.855-15.288-11.855-33.745,0-13.144.412-19.124,4.561-25.433,3.173-4.794,10.509-12.163,14.825-14.9C148.73-1125,151.076-1125,151.959-1125Z" transform="translate(-132.6 1142.025)" fill="#285943"/><path d="M358.758-1115.322c-4.2,2.126-13.2,9.624-15.331,12.757-2.294,3.413-2.854,6.434-3.189,17.513-.28,9.624.168,16.114,1.567,20.87.783,2.8,5.371,7.665,11.694,12.421,6.043,4.588,8.728,5.651,11.694,4.756,4.029-1.175,15.387-9.9,18.128-13.876,2.574-3.749,3.357-9.68,3.021-23-.28-12.981-.839-15.89-3.357-19.248-3.917-5.147-16.338-13.876-19.7-13.876A15.4,15.4,0,0,0,358.758-1115.322Zm9.4,16.282c2.238,2.8,2.854,7.442,2.574,20.087-.224,10.127-.224,10.463-1.734,12.981-1.79,3.021-3.973,4.924-5.707,4.924-1.567,0-5.2-3.525-6.267-6.1-1.119-2.574-1.623-18.744-.839-24.843.615-4.868,2.294-7.945,5.371-9.848,1.623-1.063,1.79-1.063,3.357-.168A14.194,14.194,0,0,1,368.158-1099.04Z" transform="translate(-224.026 1142.025)" fill="#f8ffe5"/><path d="M363.29-1117a15.4,15.4,0,0,0-4.532,1.678c-4.2,2.126-13.2,9.624-15.331,12.757-2.294,3.413-2.854,6.434-3.189,17.513-.28,9.624.168,16.114,1.567,20.87.783,2.8,5.371,7.665,11.694,12.421,6.043,4.588,8.729,5.651,11.694,4.756,4.029-1.175,15.387-9.9,18.128-13.876,2.574-3.749,3.357-9.68,3.021-23-.28-12.981-.839-15.89-3.357-19.248-3.917-5.147-16.338-13.876-19.7-13.876m0,55.952c-1.567,0-5.2-3.525-6.267-6.1-1.119-2.574-1.623-18.744-.839-24.843.615-4.868,2.294-7.945,5.371-9.848,1.623-1.063,1.791-1.063,3.357-.168a14.194,14.194,0,0,1,3.245,2.965c2.238,2.8,2.854,7.442,2.574,20.087-.224,10.127-.224,10.463-1.734,12.981-1.79,3.021-3.973,4.924-5.707,4.924m0-63.952c7.57,0,22.2,11.952,26.062,17.032,4.231,5.641,4.7,10.749,4.989,23.919.335,13.285-.271,21.646-4.424,27.7-3.579,5.186-16.254,15.211-22.484,17.028a14.333,14.333,0,0,1-4.112.61c-4.908,0-9.092-2.447-14.659-6.675-5.707-4.293-12.894-10.685-14.56-16.636-1.609-5.468-2.174-12.454-1.86-23.26.338-11.15.844-16.234,4.546-21.743,3.155-4.65,13.33-12.885,18.355-15.431C357.367-1123.6,360.634-1125,363.29-1125Z" transform="translate(-224.026 1142.025)" fill="#285943"/><path d="M464.934-1115.834a45.945,45.945,0,0,0-6.1,4.308c-3.581,2.965-3.917,3.133-4.476,2.182-1.4-2.406-5.2-6.77-6.043-6.938-.951-.168-13.317,8.113-13.317,8.9a7,7,0,0,0,1.4,2.07,26.311,26.311,0,0,1,2.686,4.42c1.231,2.63,1.231,3.189,1.4,27.7l.168,25.066h16.17l.112-24.171.168-24.171,2.965-2.406c1.623-1.343,3.469-2.406,4.084-2.406,1.343,0,3.189,2.854,3.637,5.707.224,1.175.615,2.126.9,2.126.615,0,11.246-7.553,12.142-8.617,1.958-2.35-4.364-10.855-10.407-13.988C468.124-1117.233,467.676-1117.177,464.934-1115.834Z" transform="translate(-265.802 1141.978)" fill="#f8ffe5"/><path d="M467.967-1116.893a7.446,7.446,0,0,0-3.033,1.059,45.945,45.945,0,0,0-6.1,4.308c-3.581,2.965-3.917,3.133-4.476,2.182-1.4-2.406-5.2-6.77-6.043-6.938-.948-.166-13.317,8.113-13.317,8.9a7,7,0,0,0,1.4,2.07,26.311,26.311,0,0,1,2.686,4.42c1.231,2.63,1.231,3.189,1.4,27.7l.168,25.066h16.17l.112-24.171.168-24.171,2.965-2.406c1.623-1.343,3.469-2.406,4.084-2.406,1.343,0,3.189,2.854,3.637,5.707.224,1.175.615,2.126.9,2.126.615,0,11.246-7.553,12.142-8.617,1.958-2.35-4.364-10.855-10.407-13.988a5.523,5.523,0,0,0-2.451-.835m0-8h0a12.894,12.894,0,0,1,6.1,1.715c6.1,3.165,13.508,10.79,14.884,17.621a10.059,10.059,0,0,1-1.979,8.609c-.123.146-12.765,11.5-18.287,11.5a8.359,8.359,0,0,1-3.652-.869l-.1,14.074-.112,24.153a8,8,0,0,1-8,7.963h-16.17a8,8,0,0,1-8-7.946l-.168-25.066c-.1-15.171-.155-22.671-.5-24.067a21.035,21.035,0,0,0-1.763-3.026c-2.833-3.231-3.217-5.528-3.217-7.148,0-7.723,18.274-16.9,21.284-16.9a8.366,8.366,0,0,1,1.425.125c2.408.481,4.762,2.342,6.71,4.386a38.067,38.067,0,0,1,4.936-3.216A14.516,14.516,0,0,1,467.967-1124.893Z" transform="translate(-265.802 1141.978)" fill="#285943"/><path d="M542.316-1115.6c-3.413,1.678-12.7,9.288-15.331,12.533-2.686,3.413-3.413,6.826-3.749,17.457-.336,9.9.392,18.8,1.79,22.213,1.79,4.2,14.6,14.827,19.863,16.394a7.134,7.134,0,0,0,4.7-.056,46.272,46.272,0,0,0,12.086-6.826c2.742-2.574,6.155-6.77,6.155-7.665,0-.783-9.456-8.057-11.47-8.784-.5-.224-1.231.56-1.958,2.126-1.9,3.749-5.483,7.162-7.553,7.162-3.693,0-6.434-4.7-7.274-12.477-.336-2.965-.28-3.749.336-3.749H554.4c7.554,0,14.044-.224,14.492-.5.56-.392.671-2.406.5-9.9-.168-8.113-.392-9.792-1.4-12.03-2.574-5.707-17.121-17.345-21.541-17.289A16.874,16.874,0,0,0,542.316-1115.6Zm7.5,14.659c2.518,1.846,3.469,4.029,3.637,8.113l.112,3.525H539.574l.168-1.958c.28-3.8,1.79-7.721,3.749-9.792C545.617-1103.348,546.624-1103.348,549.813-1100.942Z" transform="translate(-304.632 1142.026)" fill="#f8ffe5"/><path d="M546.488-1117h-.032a16.874,16.874,0,0,0-4.14,1.4c-3.413,1.678-12.7,9.288-15.331,12.533-2.686,3.413-3.413,6.826-3.749,17.457-.336,9.9.392,18.8,1.79,22.213,1.79,4.2,14.6,14.827,19.863,16.394a7.134,7.134,0,0,0,4.7-.056,46.272,46.272,0,0,0,12.086-6.826c2.742-2.574,6.155-6.77,6.155-7.665,0-.783-9.456-8.057-11.47-8.784-.5-.224-1.231.56-1.958,2.126-1.9,3.749-5.483,7.162-7.553,7.162-3.693,0-6.434-4.7-7.274-12.477-.336-2.965-.28-3.749.336-3.749H554.4c7.554,0,14.044-.224,14.492-.5.56-.392.671-2.406.5-9.9-.168-8.113-.392-9.792-1.4-12.03C565.43-1105.4,550.947-1117,546.488-1117m7.074,27.7H539.574l.168-1.958c.28-3.8,1.79-7.721,3.749-9.792,2.126-2.294,3.133-2.294,6.323.112,2.518,1.846,3.469,4.029,3.637,8.113l.112,3.525m-7.074-35.7h0c8.688,0,25.437,14.543,28.8,22,1.732,3.849,1.933,6.854,2.1,15.153.216,9.663.306,13.669-3.914,16.623a7.8,7.8,0,0,1-2.725,1.218c2.825,2.585,5.074,5.553,5.074,8.454,0,3.55-2.92,8.092-8.679,13.5-3.2,2.959-11.382,7.571-15.4,8.7a14.625,14.625,0,0,1-9.156.015c-6.955-2.072-22.012-14.095-24.922-20.917-2.828-6.9-2.572-21.355-2.428-25.623.352-11.16,1.189-16.709,5.457-22.133,3.165-3.907,13.367-12.444,18.087-14.765a24.111,24.111,0,0,1,7.058-2.2C546.047-1124.992,546.284-1125,546.489-1125Z" transform="translate(-304.632 1142.026)" fill="#285943"/><path d="M240.369-1113.615c-.5.5-.4,39.851.1,45.112a35.215,35.215,0,0,0,1.538,7.3c.993,2.68,4.963,7.841,6.055,7.841.5,0,9.181-5.856,10.918-7.345.794-.695.794-.844-.4-2.233a21.7,21.7,0,0,1-2.332-3.524c-1.092-1.985-1.092-2.531-1.34-24.615l-.248-22.581-7-.149A51.574,51.574,0,0,0,240.369-1113.615Z" transform="translate(-179.926 1148.332)" fill="#f8ffe5"/><path d="M245.7-1113.826a34.854,34.854,0,0,0-5.331.212c-.5.5-.4,39.851.1,45.112a35.215,35.215,0,0,0,1.538,7.3c.993,2.68,4.963,7.841,6.055,7.841.5,0,9.181-5.856,10.918-7.345.794-.695.794-.844-.4-2.233a21.7,21.7,0,0,1-2.332-3.524c-1.092-1.985-1.092-2.531-1.34-24.615l-.248-22.581-7-.149c-.676-.009-1.336-.013-1.964-.013m0-8,2.069.014,7.064.15a8,8,0,0,1,7.829,7.91l.248,22.581c.151,13.415.224,19.961.5,21.329.279.338.949,1.34,1.2,1.643,6.151,7.175.773,12.512-.367,13.509-.169.146-11.189,9.324-16.186,9.324-8.069,0-13.508-12.932-13.557-13.063a42.4,42.4,0,0,1-2-9.262c-.048-.511-2.859-46.52,2.2-51.581a8.013,8.013,0,0,1,.854-.741C237.872-1121.743,239.836-1121.826,245.7-1121.826Z" transform="translate(-179.926 1148.332)" fill="#285943"/></g><path d="M240.428-542.465c-2.249,1.678-4.428,3.928-4.428,4.642,0,.643,4.749,5.07,6.034,5.57,1.035.429,1.25.393,2.5-.428,1.714-1.143,5.392-4.677,5.392-5.213,0-1.035-5.784-6.106-6.963-6.106A9.872,9.872,0,0,0,240.428-542.465Z" transform="translate(-174.447 553.815)" fill="#f8ffe5"/><path d="M242.963-544a9.872,9.872,0,0,0-2.535,1.535c-2.249,1.678-4.428,3.928-4.428,4.642,0,.643,4.749,5.07,6.034,5.57,1.035.429,1.25.393,2.5-.428,1.714-1.143,5.392-4.677,5.392-5.213,0-1.035-5.784-6.106-6.963-6.106m0-8c4.82,0,14.963,7.9,14.963,14.106,0,5.325-6.262,10.075-8.954,11.87a10.485,10.485,0,0,1-5.96,2.043,10.364,10.364,0,0,1-4.036-.879c.034.017-10.975-5.876-10.975-12.962,0-1.464,0-5.351,7.644-11.054C239.1-551.467,241.069-552,242.963-552Z" transform="translate(-174.447 553.815)" fill="#285943"/></g></g><g transform="translate(493.047 93.124)"><g transform="translate(-21.933 -17.909)"><path d="M742.078-589.353a5.6,5.6,0,0,0-3.341,2.483c-.644.889-.7,1.318-.613,3.157.123,1.992.184,2.146,1.379,3.249a5.419,5.419,0,0,0,5.027,1.594l1.2-.307,4.383,5.425c2.422,2.973,4.475,5.548,4.6,5.763.123.184-1.992,9.9-4.72,21.61-2.7,11.679-5.211,22.468-5.548,24-.766,3.372-.981,3.831-1.9,3.831a5.813,5.813,0,0,0-3.341,2.207,6.871,6.871,0,0,0-.552,4.935,5.87,5.87,0,0,0,6.008,3.464,5.9,5.9,0,0,0,4.444-5.487,6.339,6.339,0,0,0-2.115-4.23l-.95-.736,4.291-18.545c2.36-10.207,4.966-21.457,5.793-24.982,1.318-5.579,1.471-6.529,1.1-7.05-.215-.337-2.483-3.157-5-6.253-4.567-5.61-4.6-5.671-4.107-6.406a5.94,5.94,0,0,0-.307-5.487A5.407,5.407,0,0,0,742.078-589.353Zm3.341,3.249a2.93,2.93,0,0,1-1.471,4.812,3.4,3.4,0,0,1-3.1-1.257,4.032,4.032,0,0,1,0-3.157,3.3,3.3,0,0,1,3.035-1.287A3.98,3.98,0,0,1,745.419-586.1Zm.429,70.807c2.268,2.3-.521,6.1-3.341,4.6a2.731,2.731,0,0,1-.8-4.506A2.863,2.863,0,0,1,745.848-515.3Z" transform="translate(-646.608 604.982)" fill="#285943"/><g transform="translate(0)"><path d="M442.311-639.562a5.4,5.4,0,0,0-2.514,7.54,5.384,5.384,0,0,0,9.349.031l.7-1.257,21.181.061,21.181.092,2.82,11.648,2.789,11.648-.981.858a5.42,5.42,0,0,0,3.586,9.5,5.373,5.373,0,0,0,5.272-5.272,5.349,5.349,0,0,0-4.383-5.426l-1.134-.184-3-12.69-3.035-12.69H449.821l-.429-1.011A5.464,5.464,0,0,0,442.311-639.562Zm4.169,2.912c2.575,2.605-1.1,6.621-3.862,4.23a2.95,2.95,0,0,1-.981-1.962,2.023,2.023,0,0,1,.766-2.238A2.676,2.676,0,0,1,446.48-636.65Zm55.941,29.794a2.836,2.836,0,0,1-2.084,4.874,2.641,2.641,0,0,1-2.7-1.962A2.884,2.884,0,0,1,502.421-606.856Z" transform="translate(-439.134 639.988)" fill="#285943"/><path d="M752.6-639.361a5.378,5.378,0,0,0-.858,9.073c2.636,2.023,6.9.981,8.123-1.992l.368-.92h34.423l2.82,11.127,2.82,11.1-.736.613a5.684,5.684,0,0,0-1.287,7.05,5.4,5.4,0,0,0,9.318-.123,5.36,5.36,0,0,0-3.464-7.847l-1.472-.368-3.065-11.985-3.035-12.016H760.48l-.582-1.165a4.855,4.855,0,0,0-2.881-2.667A5.187,5.187,0,0,0,752.6-639.361Zm4.138,2.636a2.531,2.531,0,0,1,.828,3.341,2.722,2.722,0,0,1-4.475.858A2.781,2.781,0,0,1,756.741-636.725Zm47.389,28.047a3.425,3.425,0,0,1,1.716,2.912,3.116,3.116,0,0,1-2.912,2.605,3,3,0,0,1-2.912-2.82A2.87,2.87,0,0,1,804.13-608.678Z" transform="translate(-654.662 639.939)" fill="#285943"/><path d="M1043.164-639.222a5.237,5.237,0,0,0-1.042,8.552,5.375,5.375,0,0,0,8.46-1.471l.521-1.042h32.614l-.307,1.134c-.184.644-1.594,5.916-3.157,11.679l-2.789,10.545-1.686.552c-4.6,1.563-5.272,6.989-1.2,9.748.92.613,1.349.705,2.973.613,2.881-.184,4.628-1.716,4.9-4.322.245-2.238-.123-3.494-1.441-4.812l-1.165-1.165,3.494-13.119c1.931-7.234,3.495-13.15,3.495-13.211s-8.062-.092-17.932-.092c-14.836,0-17.932-.061-17.932-.4a4.879,4.879,0,0,0-.889-1.655A5.361,5.361,0,0,0,1043.164-639.222Zm3.954,2.084a3.27,3.27,0,0,1,1.533,3.188,3.8,3.8,0,0,1-2.728,2.3,2.956,2.956,0,0,1-2.514-4.628A3,3,0,0,1,1047.118-637.138Zm32.093,30.9c2.422,2.422-.674,6.345-3.525,4.475a2.888,2.888,0,0,1-.276-4.629A2.626,2.626,0,0,1,1079.211-606.24Z" transform="translate(-856.43 639.924)" fill="#285943"/><path d="M452.349-598.5a5.67,5.67,0,0,0-2.789,7.019,5.4,5.4,0,0,0,7.479,2.636c1.318-.644,1.349-.644,2.146-.061.46.337,3.678,2.575,7.173,4.966,5.425,3.709,6.406,4.475,6.621,5.333.153.552,3.372,13.365,7.142,28.476l6.866,27.526-.889.828a5.373,5.373,0,0,0,2.973,9.472,5.333,5.333,0,0,0,5.732-6.59,5.641,5.641,0,0,0-4.6-4.138c-.736-.153-.981-.95-7.939-28.905-6.927-27.833-7.2-28.783-8.092-29.518-.49-.429-3.954-2.851-7.632-5.364l-6.713-4.629-.061-2.115a4.993,4.993,0,0,0-.8-3.188A5.884,5.884,0,0,0,452.349-598.5Zm4.169,2.912c2.422,2.422-.674,6.345-3.525,4.475a2.888,2.888,0,0,1-.276-4.629A2.626,2.626,0,0,1,456.518-595.585ZM491.4-520.026a4.439,4.439,0,0,1,.858,1.318,2.112,2.112,0,0,1-.061,2.084,2.812,2.812,0,0,1-5.242,0,2.585,2.585,0,0,1,.582-3.157A3.063,3.063,0,0,1,491.4-520.026Z" transform="translate(-446.106 611.489)" fill="#285943"/><path d="M556.219-598.4a6.128,6.128,0,0,0-3.218,5,5.8,5.8,0,0,0,4.322,5.18c.889.153,1.257.368,1.379.858.092.368,1.165,4.874,2.391,9.993l2.238,9.349,6.774,2.759,6.744,2.759.184,1.41a5.453,5.453,0,0,0,7.633,4.445,5.4,5.4,0,0,0,3-5.977,5.394,5.394,0,0,0-9.135-2.7l-.674.613-5.763-2.36c-3.157-1.287-5.977-2.452-6.222-2.605-.307-.153-1.226-3.464-2.7-9.564l-2.238-9.288.766-.582a5.3,5.3,0,0,0,2.115-4.292,4.991,4.991,0,0,0-4.935-5.334A6.063,6.063,0,0,0,556.219-598.4Zm3.617,2.36a2.8,2.8,0,0,1,.521,4.628,2.813,2.813,0,0,1-4.475-.7,2.521,2.521,0,0,1,0-2.7A3.039,3.039,0,0,1,559.836-596.038Zm24.675,32.584a2.588,2.588,0,0,1-.184,3.893,2.707,2.707,0,0,1-4.506-.858C578.442-563.3,582.212-565.753,584.511-563.454Z" transform="translate(-518.161 611.391)" fill="#285943"/><path d="M1111.727-597.539a5.168,5.168,0,0,0-4.016,5.119,4.907,4.907,0,0,0,1.87,4.23l.981.8-1.931,8.245-1.931,8.215,3.586,5.333,3.617,5.364-.674,1.318a5.5,5.5,0,0,0,2.238,7.265,6.5,6.5,0,0,0,5.027,0,5.481,5.481,0,0,0,2.268-7.173c-1.073-2.146-2.575-2.943-5.7-2.973l-1.226-.031-3.249-4.843-3.28-4.843.552-2.207c.307-1.226,1.134-4.629,1.839-7.6l1.257-5.364,1.318-.368a5.408,5.408,0,0,0,3.219-8.215,5.713,5.713,0,0,0-2.176-1.778C1113.628-597.876,1113.382-597.938,1111.727-597.539Zm3.126,3.065a2.908,2.908,0,0,1-.49,4.782,2.851,2.851,0,0,1-4.2-2.636A2.867,2.867,0,0,1,1114.854-594.474Zm5.211,36.2a2.473,2.473,0,0,1,.061,3.586,2.531,2.531,0,0,1-3.341.828,2.9,2.9,0,0,1,.123-5.334A2.667,2.667,0,0,1,1120.065-558.273Z" transform="translate(-902.434 610.716)" fill="#285943"/><path d="M806.09-591.167a4.888,4.888,0,0,0-3.311,2.789c-2.084,4.291,2.238,9.165,6.652,7.479a6.785,6.785,0,0,0,3.188-3.1l.368-.889,2.483.092,2.452.092,2.667,10.82c1.441,5.947,2.7,10.851,2.759,10.912s3.372,1.563,7.326,3.341l7.2,3.188.184,1.379a5.74,5.74,0,0,0,2.3,4.108,5.476,5.476,0,0,0,7.51-1.165,6.142,6.142,0,0,0,.214-5.916c-1.716-2.912-6.13-3.525-8.307-1.134-.552.613-.582.613-4.9-1.318-2.391-1.042-5.518-2.452-6.958-3.127l-2.636-1.226-.368-1.655c-.215-.92-1.441-5.977-2.7-11.25l-2.36-9.564h-3.494c-3.035,0-3.494-.061-3.678-.552A5.414,5.414,0,0,0,806.09-591.167Zm3.556,3.127c2.268,2.3-.521,6.1-3.341,4.6a2.731,2.731,0,0,1-.8-4.506A2.863,2.863,0,0,1,809.645-588.04Zm35.71,30.652a2.128,2.128,0,0,1,.95,2.115,2.128,2.128,0,0,1-.95,2.115,2.86,2.86,0,0,1-4.567-3.219A2.866,2.866,0,0,1,845.356-557.388Z" transform="translate(-691.156 606.306)" fill="#285943"/><path d="M1024.806-589.406a5.919,5.919,0,0,0-2.942,2.636,7.019,7.019,0,0,0,.03,4.812,5.885,5.885,0,0,0,5.7,2.973l1.165-.184,3.1,4.414c1.686,2.452,3.157,4.629,3.249,4.874.123.368-10.452,41.626-10.7,41.749a12.9,12.9,0,0,1-1.349.4,5.381,5.381,0,0,0-3.372,7.878,5.336,5.336,0,0,0,10.023-2.636,5.384,5.384,0,0,0-1.9-4.107c-.674-.552-.889-.981-.8-1.471.092-.368,2.605-10.023,5.579-21.457l5.426-20.782-3.4-4.874c-1.87-2.7-3.464-5.088-3.525-5.3a3.146,3.146,0,0,1,.46-1.594,4.971,4.971,0,0,0,.031-4.6,4.615,4.615,0,0,0-3-2.789A4.488,4.488,0,0,0,1024.806-589.406Zm3.985,3.065a2.929,2.929,0,0,1-1.471,4.812,3.4,3.4,0,0,1-3.1-1.257,4.032,4.032,0,0,1,0-3.157,3.3,3.3,0,0,1,3.035-1.287A3.975,3.975,0,0,1,1028.791-586.341Zm-3.4,61.152a2.919,2.919,0,0,1,1.1,4.659,2.688,2.688,0,0,1-3.341.674,2.846,2.846,0,0,1-.061-5.18C1024.255-525.618,1024.163-525.618,1025.389-525.189Z" transform="translate(-841.598 605.219)" fill="#285943"/><path d="M465.2-551.4a5.376,5.376,0,0,0,1.686,10.023l1.1.184,2.82,10.759c1.563,5.947,4.843,18.361,7.265,27.649,2.452,9.257,5.793,21.825,7.387,27.863l2.881,11.035-.889.92c-3.341,3.433-1.686,8.552,2.943,9.257a5.6,5.6,0,0,0,5.487-3,6.367,6.367,0,0,0,0-4.751,6.036,6.036,0,0,0-3.188-2.728c-2.084-.429-1.747.521-6.437-17.319-2.391-9.165-6.958-26.453-10.115-38.408l-5.763-21.763,1.1-1.1c2.7-2.7,1.931-7.357-1.441-8.767A6.131,6.131,0,0,0,465.2-551.4Zm3.954,2.207a3.307,3.307,0,0,1,1.533,3.157,3.659,3.659,0,0,1-.766,1.379,2.877,2.877,0,0,1-4.721-3.157A2.835,2.835,0,0,1,469.153-549.192Zm23.94,88.126a2.96,2.96,0,0,1-1.747,4.935c-1.012.153-1.257.061-2.268-.95s-1.1-1.257-.95-2.268A2.954,2.954,0,0,1,493.092-461.066Z" transform="translate(-455.277 578.859)" fill="#285943"/><path d="M671.715-540.325a5.355,5.355,0,0,0-.552,8.675l.981.828-6.682,27.894c-3.648,15.326-6.682,27.955-6.713,28.047s-1.563-6.1-3.433-13.763l-3.372-13.886.92-.828a5.088,5.088,0,0,0,1.839-4.629,4.757,4.757,0,0,0-2.789-4.322,5.515,5.515,0,0,0-7.326,2.513,5.341,5.341,0,0,0,3.893,7.541,2.745,2.745,0,0,1,1.073.307c0,.184,7.265,30.407,7.694,32.032.276,1.1.368,1.165,1.5,1.165.674,0,1.226-.092,1.226-.215,0-.337,14.468-60.937,14.621-61.182.061-.123.337-.215.613-.215a5.867,5.867,0,0,0,3.924-2.575A5.392,5.392,0,0,0,671.715-540.325Zm4.843,2.544a2.255,2.255,0,0,1,.95,2.054,2.255,2.255,0,0,1-.95,2.054,2.781,2.781,0,0,1-4.629-1.134A2.813,2.813,0,0,1,676.558-537.781ZM651.423-509.55c2.422,2.422-.674,6.345-3.525,4.475a2.888,2.888,0,0,1-.276-4.629A2.626,2.626,0,0,1,651.423-509.55Z" transform="translate(-581.354 571.354)" fill="#285943"/><path d="M961.852-536.205a5.151,5.151,0,0,0-1.226,8.552l1.165,1.134-6.713,27.526c-3.709,15.112-6.774,27.557-6.8,27.618-.061.061-1.533-5.487-3.28-12.322l-3.127-12.414,1.1-1.226c1.778-1.962,2.176-3.832,1.287-5.916a6.977,6.977,0,0,0-3.433-3.157,7.181,7.181,0,0,0-4.69.766,5.891,5.891,0,0,0-1.747,6.744,6.4,6.4,0,0,0,3.832,2.973l1.2.184,2.391,9.41c1.318,5.15,3.035,11.863,3.8,14.9l1.441,5.517,1.226.092,1.257.092,1.257-5.15c2.115-8.8,12.9-52.906,13.211-54.071.276-.95.46-1.134,1.41-1.288A5.738,5.738,0,0,0,969.086-529a6.185,6.185,0,0,0,.521-2.575A5.235,5.235,0,0,0,961.852-536.205Zm4.628,2.759c1.226,1.594.92,3.586-.674,4.383a2.652,2.652,0,0,1-3.372-.4,2.6,2.6,0,0,1,.031-4.138,2.218,2.218,0,0,1,2.238-.736A2.6,2.6,0,0,1,966.481-533.447Zm-25.319,30.1a2.805,2.805,0,0,1-.644,4.69,2.852,2.852,0,0,1-4.107-2.514C936.411-503.622,939.476-505.032,941.162-503.346Z" transform="translate(-782.549 568.366)" fill="#285943"/><path d="M830.808-474.422a5.482,5.482,0,0,0-2.084,7.571,5.656,5.656,0,0,0,4.046,2.636c.552,0,.8.674,2.084,5.732,3.77,15.02,22.346,88.187,22.928,90.272l.613,2.391h33.5l.7,1.287a4.824,4.824,0,0,0,4.475,2.82,5.426,5.426,0,0,0,5.579-4.751,5.758,5.758,0,0,0-2.943-5.395,5.38,5.38,0,0,0-7.265,2.391L891.9-368.3l-15.817.031H860.265l-2.391-9.41c-1.318-5.211-4.353-17.227-6.774-26.76-11.4-44.814-15.142-59.711-15.142-60.048,0-.215.368-.674.8-1.042a6.51,6.51,0,0,0,1.962-4.107,5.782,5.782,0,0,0-3.126-4.874A6.614,6.614,0,0,0,830.808-474.422Zm3.954,2.238a4.015,4.015,0,0,1,1.5,2.789,3.69,3.69,0,0,1-1.073,1.717c-.981.981-1.226,1.073-2.238.919-3.464-.552-3.31-5.732.153-5.732A4.829,4.829,0,0,1,834.762-472.185Zm64.309,102.809a4.433,4.433,0,0,1,.858,1.318,2.787,2.787,0,0,1-1.594,3.648,1.992,1.992,0,0,1-2.237-.092,2.835,2.835,0,0,1-1.533-3.678A3.144,3.144,0,0,1,899.071-369.376Z" transform="translate(-709.065 525.237)" fill="#285943"/><path d="M941.78-462.265a6.752,6.752,0,0,0-2.023.889,6.455,6.455,0,0,0-2.146,4.322,6.381,6.381,0,0,0,2.084,4.291l.92.736-3.525,14.867c-1.931,8.184-3.617,14.958-3.74,15.112-.122.123-3.249,1.1-6.927,2.207s-6.713,2.023-6.744,2.054c-.031.061-5.395,20.629-9.134,34.944l-.276,1.165h-8.092l-3.617-13.732c-2.023-7.541-6.1-22.959-9.1-34.239-5.272-19.894-5.425-20.537-4.874-21.028,2.82-2.422,2.912-6.621.153-8.736a4.727,4.727,0,0,0-3.034-.981,3.97,3.97,0,0,0-3.188.766A5.681,5.681,0,0,0,876-455.215a5.8,5.8,0,0,0,4.414,5.364l1.226.276,4.383,16.552c2.422,9.1,6.59,24.89,9.288,35.067s5,18.637,5.088,18.759c.154.276,11.771.4,11.771.123,0-.46,9.564-36.507,9.748-36.691.184-.153,7.632-2.452,12.016-3.678a4.334,4.334,0,0,0,1.379-.582c.184-.153,1.962-7.265,3.985-15.786l3.678-15.51,1.5-.582c2.82-1.073,4.016-2.759,3.8-5.517A5.2,5.2,0,0,0,941.78-462.265Zm3.311,3.372a2.854,2.854,0,0,1-3.219,4.567,2.834,2.834,0,0,1-.919-4.629A2.677,2.677,0,0,1,945.091-458.894Zm-61.7,1.778c2.422,2.422-.674,6.345-3.525,4.475a2.888,2.888,0,0,1-.276-4.628A2.626,2.626,0,0,1,883.387-457.116Z" transform="translate(-742.449 516.695)" fill="#285943"/><path d="M1072.536-432.485a4.919,4.919,0,0,0-2.912,4.935,5.616,5.616,0,0,0,1.992,4.23l.705.613-6.652,24.982c-3.678,13.732-7.54,28.323-8.644,32.4l-1.962,7.418-1.134.184a6.526,6.526,0,0,0-3.464,2.207,5.581,5.581,0,0,0,2.636,8.184c3.617,1.471,7.755-1.931,7.173-5.855a4.847,4.847,0,0,0-1.5-2.82l-1.318-1.41,7.755-29.12c4.261-16.031,8.154-30.561,8.644-32.339l.858-3.188,1.471-.368a5.436,5.436,0,0,0,1.073-10.115A6.441,6.441,0,0,0,1072.536-432.485Zm3.862,2.268a4.015,4.015,0,0,1,1.5,2.789,3.69,3.69,0,0,1-1.073,1.717c-.981.981-1.226,1.073-2.238.919a2.828,2.828,0,0,1-1.563-4.935A3.072,3.072,0,0,1,1076.4-430.217Zm-19.587,75.651a3.521,3.521,0,0,1,.859,1.471,2.731,2.731,0,0,1-1.717,3.372,2.7,2.7,0,0,1-3.678-1.625,1.947,1.947,0,0,1,0-2.146A2.964,2.964,0,0,1,1056.811-354.566Z" transform="translate(-862.814 496.232)" fill="#285943"/><path d="M808.719-393.473a4.613,4.613,0,0,0-3,2.851,5.26,5.26,0,0,0,3.8,7.418,2.08,2.08,0,0,1,1.165.644c.153.245,5.119,19.71,11.035,43.22,5.885,23.511,10.882,43.281,11.035,43.894l.307,1.165h19.618c18.392,0,19.618.031,19.8.521a6.685,6.685,0,0,0,2.636,3.035,6.187,6.187,0,0,0,2.575.521,5.235,5.235,0,0,0,4.629-7.755,5.608,5.608,0,0,0-3.832-2.943,5.709,5.709,0,0,0-5.793,3.157l-.429,1.012H835.019l-5.64-22.315c-3.1-12.261-8.031-31.787-10.943-43.373l-5.333-21.12.919-.766a5.288,5.288,0,0,0-1.379-9.012A4.408,4.408,0,0,0,808.719-393.473Zm3.832,2.881a2.932,2.932,0,0,1,.7,3.4,2.571,2.571,0,0,1-2.605,1.563,2.507,2.507,0,0,1-2.636-1.717A2.889,2.889,0,0,1,812.551-390.591Zm67.16,93.276a2.467,2.467,0,0,1,.184,3.464,2.724,2.724,0,0,1-3.219,1.1,2.933,2.933,0,0,1-.122-5.487A2.667,2.667,0,0,1,879.71-297.316Z" transform="translate(-693.249 469.024)" fill="#285943"/><path d="M679.212-337.586c-2.912.705-4.9,3.709-4.169,6.314l.276,1.073-6.468,4.659c-3.586,2.544-8.92,6.376-11.863,8.521l-5.364,3.862-2.605,10.545-2.636,10.575h-9.1L635.011-303.5l-2.268-11.464.95-.766a5.481,5.481,0,0,0-1.042-9.288,4.46,4.46,0,0,0-4.077-.123,4.911,4.911,0,0,0-2.912,2.728,5.909,5.909,0,0,0,.276,5.334,5.635,5.635,0,0,0,3.372,2.207,1.022,1.022,0,0,1,.981.674c.123.4,1.318,6.13,2.636,12.721l2.391,12.046h13.027l2.207-9.134c1.226-5,2.452-9.993,2.728-11.1l.491-1.992,11.464-8.246,11.464-8.246.828.49a5.462,5.462,0,0,0,8.154-3.954,4.38,4.38,0,0,0-.613-3,4.111,4.111,0,0,0-2.391-2.452C681.02-337.893,680.714-337.954,679.212-337.586Zm3.065,3.249a2.913,2.913,0,0,1-1.717,4.935,2.911,2.911,0,0,1-2.912-4.138,2.6,2.6,0,0,1,2.728-1.563A2.35,2.35,0,0,1,682.277-334.337Zm-49.6,12.322a2.864,2.864,0,0,1-2.207,4.69,3,3,0,0,1-2.605-4.291A3.028,3.028,0,0,1,632.681-322.015Z" transform="translate(-568.258 430.231)" fill="#285943"/><path d="M631.91-283.416a5.576,5.576,0,0,0-3.219,5,6.535,6.535,0,0,0,2.023,4.291c.4.245.736.644.736.858,0,.337-2.728,11.74-11.372,47.726l-1.257,5.15H575.509l-2.667-10.023-2.636-10.054.736-.582a6.193,6.193,0,0,0,1.533-6.866,5.238,5.238,0,0,0-4.445-2.759,4.667,4.667,0,0,0-4.383,1.686,5.343,5.343,0,0,0,2.575,8.736l1.625.46,2.054,7.786c1.134,4.291,2.422,9.2,2.881,10.943l.828,3.127L597.242-218l23.633-.092,6.5-27.066c3.556-14.9,6.56-27.281,6.652-27.526a.88.88,0,0,1,.8-.429,5.418,5.418,0,0,0,3.832-2.544,5.52,5.52,0,0,0-1.533-7.234A6.166,6.166,0,0,0,631.91-283.416Zm3.341,2.33a3.424,3.424,0,0,1,1.717,2.912,3.116,3.116,0,0,1-2.912,2.605,3,3,0,0,1-2.606-4.291,3.882,3.882,0,0,1,2.514-1.533A4.05,4.05,0,0,1,635.251-281.086Zm-65.995,33.1a4.015,4.015,0,0,1,1.5,2.789,3.688,3.688,0,0,1-1.073,1.717c-.981.981-1.226,1.073-2.238.92a2.828,2.828,0,0,1-1.563-4.935A3.072,3.072,0,0,1,569.256-247.981Z" transform="translate(-524.602 392.685)" fill="#285943"/><path d="M1012.53-283.653a5.576,5.576,0,0,0-3.219,4.935,5.144,5.144,0,0,0,1.717,3.862l1.073,1.1-2.79,10.544c-1.532,5.793-2.973,10.636-3.157,10.759a2.338,2.338,0,0,1-1.012.245c-.828,0-2.483,1.134-3.28,2.207a5.205,5.205,0,0,0-.766,2.667,4.2,4.2,0,0,0,.674,3.219,5.343,5.343,0,0,0,8.981.215,5.033,5.033,0,0,0-.582-6.652l-1.257-1.379,2.544-9.717c1.41-5.334,2.667-10.177,2.82-10.728.215-.705.46-.981.92-.981a5.757,5.757,0,0,0,4.077-2.575C1021.879-280.4,1017.22-285.737,1012.53-283.653Zm3.341,2.33a3.424,3.424,0,0,1,1.717,2.912,3.116,3.116,0,0,1-2.912,2.605,3,3,0,0,1-2.605-4.291,3.883,3.883,0,0,1,2.514-1.533A4.049,4.049,0,0,1,1015.871-281.323Zm-7.449,32.461a2.57,2.57,0,0,1,.429,3.372c-1.318,2.575-5.364,1.5-5.364-1.379A2.848,2.848,0,0,1,1008.422-248.862Z" transform="translate(-829.101 392.978)" fill="#285943"/><path d="M637.384-241.485a4.974,4.974,0,0,0-3,4.69c0,1.563.95,3.8,1.931,4.383.337.215.613.521.613.7,0,.153-1.533,5.855-3.4,12.66l-3.464,12.322-12.568-.061-12.6-.092-.92-4.445c-.521-2.452-1.625-7.786-2.483-11.893l-1.5-7.449,1.011-.766a5.38,5.38,0,0,0-4.107-9.533,5.327,5.327,0,0,0-4.445,6.682,5.616,5.616,0,0,0,3.678,3.74l1.41.429L600.2-217.27c1.471,7.05,2.667,12.874,2.7,12.9,0,.061,6.529.092,14.529.092h14.5l2.023-7.142c1.1-3.893,2.789-9.962,3.77-13.426l1.747-6.345,1.2-.153a5.841,5.841,0,0,0,4.537-5.211,6.323,6.323,0,0,0-3.127-5A6.361,6.361,0,0,0,637.384-241.485Zm4.016,2.422a3.371,3.371,0,0,1,1.226,3.1,3.175,3.175,0,0,1-2.851,2.268,2.982,2.982,0,0,1-2.851-2.912A2.949,2.949,0,0,1,641.4-239.064Zm-42.392.8a2.932,2.932,0,0,1,1.532,2.789,2.327,2.327,0,0,1-.95,1.839,2.744,2.744,0,0,1-4.506-.828c-.552-1.226-.552-1.625-.031-2.575A3.039,3.039,0,0,1,599.007-238.267Z" transform="translate(-545.409 363.69)" fill="#285943"/><path d="M11.479.465A5.576,5.576,0,0,0,8.261,5.4,5.144,5.144,0,0,0,9.977,9.263l1.073,1.1L8.261,20.911C6.728,26.7,5.287,31.547,5.1,31.67a2.338,2.338,0,0,1-1.012.245c-.828,0-2.483,1.134-3.28,2.207a5.205,5.205,0,0,0-.766,2.667A4.2,4.2,0,0,0,.72,40.007a5.343,5.343,0,0,0,8.981.215,5.033,5.033,0,0,0-.582-6.652L7.862,32.191l2.544-9.717c1.41-5.334,2.667-10.177,2.82-10.728.215-.705.46-.981.92-.981A5.757,5.757,0,0,0,18.223,8.19C20.828,3.715,16.169-1.619,11.479.465ZM14.82,2.8a3.424,3.424,0,0,1,1.717,2.912,3.116,3.116,0,0,1-2.912,2.605,3,3,0,0,1-2.605-4.291,3.883,3.883,0,0,1,2.514-1.533A4.049,4.049,0,0,1,14.82,2.8ZM7.372,35.256A2.57,2.57,0,0,1,7.8,38.628c-1.318,2.575-5.364,1.5-5.364-1.379A2.848,2.848,0,0,1,7.372,35.256Z" transform="matrix(0.848, -0.53, 0.53, 0.848, 34.837, 63.025)" fill="#285943"/></g></g><g transform="translate(194.811 56.21)"><path d="M1046.031-1156.86c-3.189,2.238-6.043,4.364-6.379,4.7-.448.448-.112,1.175,1.231,2.686,3.8,4.364,3.637,2.126,3.8,43.978l.168,37.936H1057l.336-1.567c.168-.839.448-2.462.671-3.637a5.561,5.561,0,0,1,.56-2.07,35.686,35.686,0,0,1,3.861,3.077c4.588,3.861,8.84,6.1,10.8,5.6,2.294-.56,5.707-3.189,10.519-8.169,7.218-7.442,7.106-7.162,7.386-23.724s-.224-21.038-2.574-24.451c-3.525-5.036-11.862-12.533-15.107-13.54-1.846-.615-4.7.559-8.281,3.3-1.734,1.4-3.413,2.35-3.637,2.182-.28-.168-.5-3.637-.5-7.665,0-8.225-.839-12.533-3.133-16.506-1.79-3.021-4.644-6.267-5.483-6.267A61.053,61.053,0,0,0,1046.031-1156.86Zm26.577,37.935c2.91,3.133,2.965,3.413,2.965,17.513,0,14.436-.168,15.5-3.245,18.408-1.4,1.287-2.07,1.567-3.469,1.287-2.574-.559-6.658-3.581-7.106-5.316-.56-1.958-.56-26.241,0-28.2.5-1.846,5.6-5.483,7.665-5.483A5.063,5.063,0,0,1,1072.609-1118.924Z" transform="translate(-985.212 1161)" fill="#f8ffe5"/><path d="M1052.41-1161a61.053,61.053,0,0,0-6.379,4.14c-3.189,2.238-6.043,4.364-6.379,4.7-.448.448-.112,1.175,1.231,2.686,3.8,4.364,3.637,2.126,3.8,43.978l.168,37.936H1057l.336-1.567c.168-.839.448-2.462.671-3.637a5.561,5.561,0,0,1,.56-2.07,35.686,35.686,0,0,1,3.861,3.077c4.588,3.861,8.841,6.1,10.8,5.6,2.294-.56,5.707-3.189,10.519-8.169,7.218-7.442,7.106-7.162,7.386-23.724s-.224-21.038-2.574-24.451c-3.525-5.036-11.862-12.533-15.107-13.54-1.846-.615-4.7.559-8.281,3.3-1.734,1.4-3.412,2.35-3.637,2.182-.28-.168-.5-3.637-.5-7.665,0-8.225-.839-12.533-3.133-16.506-1.79-3.021-4.644-6.267-5.483-6.267m17.314,79.383a4.42,4.42,0,0,1-.864-.1c-2.574-.559-6.658-3.581-7.106-5.316-.56-1.958-.56-26.241,0-28.2.5-1.846,5.6-5.483,7.665-5.483a5.063,5.063,0,0,1,3.189,1.79c2.91,3.133,2.965,3.413,2.965,17.513,0,14.436-.168,15.5-3.245,18.408-1.078.992-1.725,1.386-2.6,1.386M1052.41-1169c4.2,0,8.36,3.428,12.366,10.188,2.709,4.691,3.76,9.46,4.1,15.089a12.17,12.17,0,0,1,7.1.088c5.735,1.778,15.355,11.147,19.131,16.542,3.83,5.563,4.317,11.526,4.019,29.174-.3,17.694-.623,19.862-9.428,28.938-6.3,6.515-10.6,9.62-14.58,10.592a13.94,13.94,0,0,1-2.5.3c-2.94,0-6.33-1.226-10.122-3.655a7.99,7.99,0,0,1-5.5,2.186h-12.142a8,8,0,0,1-8-7.965l-.187-42.8c-.077-19.887-.119-30.842-.835-32.9-.021-.023-.96-.969-.981-.993-6.473-7.281-1.851-12.606-.858-13.6,1.123-1.122,5.577-4.285,7.441-5.592,7.24-5.08,8.151-5.232,9.66-5.483A8,8,0,0,1,1052.41-1169Z" transform="translate(-985.212 1161)" fill="#285943"/><path d="M961.859-1115.881c-3.245,1.511-10.855,7.5-14.659,11.638-4.476,4.812-4.7,5.875-4.7,23.052,0,13.652.056,14.38,1.287,17.121,2.126,4.644,11.47,13.037,17.9,16.058,3.357,1.567,3.749,1.623,6.49,1.007,3.861-.839,9.232-4.028,13.484-8,3.077-2.854,5.931-6.826,5.315-7.33-2.518-1.846-11.694-8.225-11.918-8.225a6.4,6.4,0,0,0-1.567,2.294,24.464,24.464,0,0,1-3.413,4.756c-1.79,1.958-2.63,2.462-4.085,2.462-3.3,0-5.875-3.413-6.938-9.232-.839-4.364-.783-6.994.112-6.994h14.38c7.554,0,14.044-.224,14.492-.5.615-.392.671-2.182.448-9.344a76.123,76.123,0,0,0-1.007-11.358c-1.567-5.483-17.009-18.52-22.045-18.52A12.347,12.347,0,0,0,961.859-1115.881Zm6.155,14.492c3.077,1.9,4.252,4.252,4.532,8.729l.168,3.357H958.726l.168-2.8c.224-3.581,2.07-7.777,4.14-9.512a7,7,0,0,1,2.07-1.4A15.784,15.784,0,0,1,968.014-1101.389Z" transform="translate(-942.5 1141.619)" fill="#f8ffe5"/><path d="M965.44-1117a12.347,12.347,0,0,0-3.581,1.119c-3.245,1.511-10.855,7.5-14.659,11.638-4.476,4.812-4.7,5.875-4.7,23.052,0,13.652.056,14.38,1.287,17.121,2.126,4.644,11.47,13.037,17.9,16.058,3.357,1.567,3.749,1.623,6.49,1.007,3.861-.839,9.232-4.028,13.484-8,3.077-2.854,5.931-6.826,5.315-7.33-2.518-1.846-11.694-8.225-11.918-8.225a6.4,6.4,0,0,0-1.567,2.294,24.464,24.464,0,0,1-3.413,4.756c-1.79,1.958-2.63,2.462-4.085,2.462-3.3,0-5.875-3.413-6.938-9.232-.839-4.364-.783-6.994.112-6.994h14.38c7.554,0,14.044-.224,14.492-.5.615-.392.671-2.182.448-9.344a76.123,76.123,0,0,0-1.007-11.358c-1.567-5.483-17.009-18.52-22.045-18.52m7.274,27.7H958.726l.168-2.8c.224-3.581,2.07-7.777,4.14-9.512a7,7,0,0,1,2.07-1.4,15.784,15.784,0,0,1,2.91,1.623c3.077,1.9,4.252,4.252,4.532,8.729l.168,3.357M965.44-1125c9.166,0,27.344,15.946,29.737,24.322.923,3.166,1.254,11.621,1.31,13.283.289,9.248.42,13.459-4.148,16.366a6.808,6.808,0,0,1-2.294,1.023q.8.583,1.668,1.219a8.493,8.493,0,0,1,3.349,6.411c.146,4.706-4.246,9.8-7.956,13.235-5.333,4.983-11.942,8.8-17.225,9.952a17.937,17.937,0,0,1-4.057.548c-2.968,0-5.177-1.031-7.516-2.123-7.461-3.5-18.6-12.988-21.8-19.977-2.013-4.483-2.013-6.611-2.013-20.452,0-17.086,0-21.145,6.842-28.5,4.039-4.4,12.428-11.248,17.141-13.442A19,19,0,0,1,965.44-1125Z" transform="translate(-942.5 1141.619)" fill="#285943"/></g></g></g><path d="M11.479.465A5.576,5.576,0,0,0,8.261,5.4,5.144,5.144,0,0,0,9.977,9.263l1.073,1.1L8.261,20.911C6.728,26.7,5.287,31.547,5.1,31.67a2.338,2.338,0,0,1-1.012.245c-.828,0-2.483,1.134-3.28,2.207a5.205,5.205,0,0,0-.766,2.667A4.2,4.2,0,0,0,.72,40.007a5.343,5.343,0,0,0,8.981.215,5.033,5.033,0,0,0-.582-6.652L7.862,32.191l2.544-9.717c1.41-5.334,2.667-10.177,2.82-10.728.215-.705.46-.981.92-.981A5.757,5.757,0,0,0,18.223,8.19C20.828,3.715,16.169-1.619,11.479.465ZM14.82,2.8a3.424,3.424,0,0,1,1.717,2.912,3.116,3.116,0,0,1-2.912,2.605,3,3,0,0,1-2.605-4.291,3.883,3.883,0,0,1,2.514-1.533A4.049,4.049,0,0,1,14.82,2.8ZM7.372,35.256A2.57,2.57,0,0,1,7.8,38.628c-1.318,2.575-5.364,1.5-5.364-1.379A2.848,2.848,0,0,1,7.372,35.256Z" transform="matrix(0.848, -0.53, 0.53, 0.848, 513.951, 84.165)" fill="#285943"/></g></svg>