<svg xmlns="http://www.w3.org/2000/svg" xmlns:xlink="http://www.w3.org/1999/xlink" width="460" height="410" viewBox="0 0 460 410"><defs><clipPath id="b"><rect width="460" height="410"/></clipPath></defs><g id="a" clip-path="url(#b)"><g transform="translate(6410 1918)"><g transform="translate(-6405 -1912)"><path d="M29.606-1116.369A7.564,7.564,0,0,0,25-1109.247a7.65,7.65,0,0,0,4.712,7.37l1.311.532v52.792H75.95l.354.992a9.834,9.834,0,0,0,4,4.358,8.174,8.174,0,0,0,10.062-3.012,6.246,6.246,0,0,0,1.063-4.074,6.431,6.431,0,0,0-.992-4.039,8.233,8.233,0,0,0-9.85-3.3,9.789,9.789,0,0,0-4.252,4.393l-.39,1.134H34.566v-49.249l1.169-.461a7.909,7.909,0,0,0,4.854-7.263,7.527,7.527,0,0,0-7.795-7.83A10.132,10.132,0,0,0,29.606-1116.369Zm5.952,4.181a3.041,3.041,0,0,1,1.311,3.012,3.22,3.22,0,0,1-1.1,2.905,4.168,4.168,0,0,1-7.228-2.87,4.181,4.181,0,0,1,4.358-4.251A3.51,3.51,0,0,1,35.558-1112.188Zm50.95,58.709a4.221,4.221,0,0,1-2.268,7.3,4.414,4.414,0,0,1-4.11-1.736,6,6,0,0,1-.177-4.571C81.087-1054.613,84.737-1055.144,86.508-1053.479Z" transform="translate(-25 1116.979)" fill="#f8ffe5"/><path d="M93.478-1116.126a5.972,5.972,0,0,0-3.685,3.756,7.276,7.276,0,0,0,.248,6.767,6.79,6.79,0,0,0,6.413,4.146,6.18,6.18,0,0,0,3.472-.425l1.1-.531,5.775,5.811,5.775,5.846H226.344l7.157,7.157,7.157,7.157-.567,1.063a8.768,8.768,0,0,0,.213,6.484,7.829,7.829,0,0,0,13.641.709c4-6.484-2.161-14.031-9.531-11.586l-1.311.425-7.511-7.476-7.476-7.476H114.382l-5.279-5.279-5.315-5.315.425-1.346c.779-2.586.815-2.87.425-4.5A7.749,7.749,0,0,0,93.478-1116.126Zm5.456,3.189a4.049,4.049,0,0,1,2.161,3.756,4.143,4.143,0,0,1-6.023,3.791,5.4,5.4,0,0,1-2.48-3.791,5.4,5.4,0,0,1,2.48-3.791A4.354,4.354,0,0,1,98.934-1112.938Zm150.653,36.955a4.88,4.88,0,0,1,2.09,3.649c0,1.913-2.3,4.252-4.181,4.252a4.452,4.452,0,0,1-4.323-4.606,3.1,3.1,0,0,1,1.2-2.693,3.1,3.1,0,0,1,2.693-1.2A6.119,6.119,0,0,1,249.587-1075.983Z" transform="translate(-66.373 1117.02)" fill="#f8ffe5"/><path d="M160.323-1116.335a7.937,7.937,0,0,0-4.323,7.3,8.995,8.995,0,0,0,3.437,6.271,8.519,8.519,0,0,0,7.37.78,9.559,9.559,0,0,0,4.5-4.5l.354-1.028,58.5.071,58.532.106.106,2.551.106,2.551-1.346.567a7.932,7.932,0,0,0-4.854,7.476,7.827,7.827,0,0,0,13.889,4.889,7.78,7.78,0,0,0-2.3-11.834l-1.842-.886v-4.535l-.035-4.5H171.7l-.638-1.382A8.035,8.035,0,0,0,160.323-1116.335Zm5.563,3.3a4.057,4.057,0,0,1,2.161,3.933c0,2.693-2.3,4.465-5.1,3.933-2.374-.461-4-3.65-2.941-5.74A4.239,4.239,0,0,1,165.885-1113.04Zm126.808,15.094a5.293,5.293,0,0,1,2.2,3.756,5.034,5.034,0,0,1-2.09,3.437,6.114,6.114,0,0,1-2.516.6,3.1,3.1,0,0,1-2.693-1.2,3.078,3.078,0,0,1-1.2-2.657,4.108,4.108,0,0,1,2.2-4.039A3.756,3.756,0,0,1,292.693-1097.946Z" transform="translate(-109.585 1117.122)" fill="#f8ffe5"/><path d="M83.553-1013.589a8.63,8.63,0,0,0-4.393,3.224c-2.02,2.941-1.488,7.937,1.134,10.24a7.923,7.923,0,0,0,12.543-2.3l.779-1.594h29.16l9.318,9.318,9.283,9.283v6.909l-1.134.461a8.221,8.221,0,0,0-4.181,4,8.051,8.051,0,0,0,.567,7.653,8.728,8.728,0,0,0,6.519,3.472,8.8,8.8,0,0,0,6.519-3.437,8.786,8.786,0,0,0,.921-7.015,8.31,8.31,0,0,0-4.145-4.5l-1.524-.673v-4.146l-.035-4.145L134.5-997.4l-10.346-10.523H93.332l-.425-1.2a8.649,8.649,0,0,0-1.984-2.622A7.408,7.408,0,0,0,83.553-1013.589Zm4.323,4.075a4.091,4.091,0,0,1,1.028,6.342,4.135,4.135,0,0,1-7.3-2.019A4.218,4.218,0,0,1,87.876-1009.514Zm57.4,35.076A4.092,4.092,0,0,1,146.3-968.1a4.055,4.055,0,0,1-6.732-.567C137.373-972.205,141.518-976.386,145.274-974.437Z" transform="translate(-59.177 1050.48)" fill="#f8ffe5"/><path d="M425.454-950.33a8.883,8.883,0,0,0-4.039,4.252l-.461,1.134H376.028v56.229l-1.417.638a8.824,8.824,0,0,0-4.252,4.606,8.786,8.786,0,0,0,.921,7.015,8.8,8.8,0,0,0,6.519,3.437,8.8,8.8,0,0,0,6.519-3.437,8.519,8.519,0,0,0,.779-7.37,9.559,9.559,0,0,0-4.5-4.5l-1.027-.354V-941.4h41.348l.638,1.417a8.824,8.824,0,0,0,4.606,4.251,8.683,8.683,0,0,0,6.98-.921,8.849,8.849,0,0,0,3.472-6.519,8.983,8.983,0,0,0-3.472-6.555A8.757,8.757,0,0,0,425.454-950.33Zm6.271,4.287c1.736,1.949,1.736,3.791,0,5.74a4.134,4.134,0,0,1-6.626-.744,4.944,4.944,0,0,1,.036-4.464A4.241,4.241,0,0,1,431.726-946.042Zm-52.013,61.331a4.553,4.553,0,0,1,2.338,3.968,4.568,4.568,0,0,1-3.4,4.039,4.352,4.352,0,0,1-5-3.508C373.123-883.577,376.382-885.987,379.713-884.711Z" transform="translate(-247.767 1009.826)" fill="#f8ffe5"/><path d="M173.271-891.427a7.985,7.985,0,0,0-2.87,13.074,7.493,7.493,0,0,0,7.972,1.878l1.842-.638,9.531,9.531,9.5,9.5v92.121l-9.673,9.673L179.9-746.62l-1.311-.567a7.374,7.374,0,0,0-6.307.425,6.884,6.884,0,0,0-4.145,6.271c-.177,2.905.319,4.429,2.126,6.2a7.629,7.629,0,0,0,10.558.5,7.847,7.847,0,0,0,2.3-8.858l-.567-1.311L192.687-754.1l10.1-10.1V-859.5l-9.956-9.991-9.956-9.992.531-2.091c.886-3.437,0-6.484-2.409-8.5A8.013,8.013,0,0,0,173.271-891.427Zm4.145,3.543a4.1,4.1,0,0,1,2.693,4,3.092,3.092,0,0,1-1.2,2.8,3.2,3.2,0,0,1-2.941,1.2,5.33,5.33,0,0,1-2.551-.567,5.591,5.591,0,0,1-1.807-3.791,4.764,4.764,0,0,1,2.834-3.685C176.035-888.451,176.035-888.451,177.416-887.884Zm.673,144.488a5.1,5.1,0,0,1,2.02,3.579,4.823,4.823,0,0,1-1.842,3.579,5.125,5.125,0,0,1-2.48.567,3.731,3.731,0,0,1-4.075-3.756,3.058,3.058,0,0,1,.638-2.764A4.413,4.413,0,0,1,178.089-743.4Z" transform="translate(-117.396 971.687)" fill="#f8ffe5"/><path d="M173.686-831.241a8.1,8.1,0,0,0-5.208,5.138,8.029,8.029,0,0,0,4.535,9.566l1.1.461v85.531l-1.2.425a8.651,8.651,0,0,0-2.622,1.984c-5.386,5.846.283,15.023,7.866,12.826a6.916,6.916,0,0,0,4.641-3.543,8.149,8.149,0,0,0,.886-6.2,9.272,9.272,0,0,0-4.464-5.067l-1.2-.425v-85.5l1.382-.638a7.516,7.516,0,0,0,3.968-4.216,7.741,7.741,0,0,0-1.594-8.291A8.244,8.244,0,0,0,173.686-831.241Zm4.854,4.181a4.057,4.057,0,0,1-.957,7.193,3,3,0,0,1-2.941.035,4.042,4.042,0,0,1-1.453-6.8,3.092,3.092,0,0,1,2.8-1.2A3.915,3.915,0,0,1,178.54-827.06Zm.177,100.837a4.463,4.463,0,0,1,1.417,4.535,4.307,4.307,0,0,1-4.145,2.976,3.092,3.092,0,0,1-2.8-1.2,3.119,3.119,0,0,1-1.2-2.835,5.361,5.361,0,0,1,.6-2.586A4.431,4.431,0,0,1,178.717-726.224Z" transform="translate(-117.421 932.759)" fill="#f8ffe5"/><path d="M300.083-705.2a8.082,8.082,0,0,0-4.571,10.346,9.208,9.208,0,0,0,4.323,4.358l1.169.39v65.016l-1.382.638a7.81,7.81,0,0,0,.709,14.527,7.747,7.747,0,0,0,10.346-7.3,7.841,7.841,0,0,0-5.067-7.476l-1.063-.354v-32.455l.035-32.49,1.772-.85a7.865,7.865,0,0,0,2.657-11.9A8.318,8.318,0,0,0,300.083-705.2Zm4.252,3.472a4.1,4.1,0,0,1,2.693,4,3.092,3.092,0,0,1-1.2,2.8,3.2,3.2,0,0,1-2.941,1.2,5.329,5.329,0,0,1-2.551-.567,5.59,5.59,0,0,1-1.807-3.791,4.764,4.764,0,0,1,2.834-3.685C302.953-702.3,302.953-702.3,304.335-701.732Zm0,80.429a4.25,4.25,0,0,1-.283,8.007,4.451,4.451,0,0,1-5.527-4.075,4.723,4.723,0,0,1,2.834-3.968C302.953-621.87,302.953-621.87,304.335-621.3Z" transform="translate(-199.317 851.436)" fill="#f8ffe5"/><path d="M245.721-650.595c-3.614,1.1-6.023,4.039-6.023,7.405a7.619,7.619,0,0,0,4.287,7.334l1.736.886v70.508l-30.9-.035H183.894l-.886-1.843a7.757,7.757,0,0,0-14.066.39,7.75,7.75,0,0,0,7.015,11.054,9.869,9.869,0,0,0,3.189-.5,9.069,9.069,0,0,0,4.252-4.287l.461-1.24h65.406v-74.051l1.594-.744c6.626-3.118,5.669-12.826-1.417-14.81A5.835,5.835,0,0,0,245.721-650.595Zm3.827,4.075a4.658,4.658,0,0,1,2.2,3.826,4.308,4.308,0,0,1-5.633,3.827,3.829,3.829,0,0,1-2.693-3.968,3.043,3.043,0,0,1,1.311-2.976A4.02,4.02,0,0,1,249.547-646.52Zm-70.579,80.677c3.543,3.331-.5,9.106-4.819,6.874a3.685,3.685,0,0,1-2.126-3.649c0-1.913.425-2.728,1.878-3.649A4.49,4.49,0,0,1,178.969-565.844Z" transform="translate(-117.46 816.066)" fill="#f8ffe5"/><path d="M360.718-1013.7c-.177.071-.957.213-1.7.354-1.7.283-4.039,2.338-4.925,4.323l-.673,1.524H312v83.086l10.488,10.487,10.488,10.488-.567,1.878a13.612,13.612,0,0,0-.567,2.622,8.5,8.5,0,0,0,4.783,6.98,8.016,8.016,0,0,0,8.787-1.665,7.778,7.778,0,0,0-5.527-13.287,10.384,10.384,0,0,0-3.189.5l-1.24.531-9.956-10.1-9.956-10.1v-77.878h37.84l.78,1.595a7.659,7.659,0,0,0,10.665,3.437,6.88,6.88,0,0,0,4.145-6.059,7.348,7.348,0,0,0-1.807-5.917C365.572-1012.742,362.135-1014.23,360.718-1013.7Zm2.657,4.252c4.075,2.126,1.559,8.681-2.976,7.83a4.338,4.338,0,0,1-2.693-6.519A4.308,4.308,0,0,1,363.375-1009.447ZM342.683-902.232a5.714,5.714,0,0,1,1.24,2.126,2.842,2.842,0,0,1-.248,2.693c-1.984,4-7.937,2.835-7.937-1.559,0-1.949.425-2.764,1.878-3.685A4.49,4.49,0,0,1,342.683-902.232Z" transform="translate(-209.808 1050.767)" fill="#f8ffe5"/></g><g transform="translate(-6252.925 -1746.21)"><g transform="translate(0 0)"><path d="M743.238-589.307a7.227,7.227,0,0,0-4.313,3.205c-.831,1.147-.91,1.7-.791,4.076.158,2.572.237,2.77,1.781,4.195a7,7,0,0,0,6.49,2.058l1.543-.4,5.659,7c3.126,3.839,5.778,7.162,5.936,7.44.159.238-2.572,12.782-6.094,27.9-3.482,15.077-6.727,29.006-7.163,30.985-.989,4.353-1.266,4.946-2.453,4.946-1.108,0-3.245,1.425-4.313,2.849-.95,1.306-1.306,4.511-.712,6.371.95,2.81,4.828,5.026,7.756,4.472a7.61,7.61,0,0,0,5.738-7.083,8.184,8.184,0,0,0-2.731-5.461l-1.227-.95,5.54-23.941c3.047-13.177,6.411-27.7,7.479-32.251,1.7-7.2,1.9-8.429,1.424-9.1-.277-.435-3.205-4.076-6.45-8.073-5.9-7.242-5.936-7.321-5.3-8.271,1.068-1.662.871-5.145-.4-7.083A6.98,6.98,0,0,0,743.238-589.307Zm4.313,4.195a3.782,3.782,0,0,1-1.9,6.213,4.389,4.389,0,0,1-4-1.622,5.2,5.2,0,0,1,0-4.076,4.263,4.263,0,0,1,3.918-1.662A5.14,5.14,0,0,1,747.552-585.113Zm.554,91.412c2.928,2.968-.673,7.875-4.313,5.936-2.414-1.306-2.849-3.957-1.029-5.817A3.7,3.7,0,0,1,748.106-493.7Z" transform="translate(-619.786 609.484)" fill="#f8ffe5"/><path d="M443.236-639.439a6.969,6.969,0,0,0-3.245,9.735,6.95,6.95,0,0,0,12.07.04l.91-1.622,27.344.079,27.344.119,3.641,15.037,3.6,15.037-1.266,1.108c-4.907,4.155-1.9,12.188,4.63,12.267a6.936,6.936,0,0,0,6.806-6.806,6.905,6.905,0,0,0-5.659-7l-1.464-.238L514.07-618.07l-3.918-16.383H452.931l-.554-1.306A7.054,7.054,0,0,0,443.236-639.439Zm5.382,3.759c3.324,3.364-1.425,8.548-4.986,5.461a3.809,3.809,0,0,1-1.266-2.533c-.2-1.464-.079-1.781.989-2.889A3.454,3.454,0,0,1,448.618-635.679Zm72.219,38.464a3.661,3.661,0,0,1-2.691,6.292,3.409,3.409,0,0,1-3.482-2.533A3.723,3.723,0,0,1,520.837-597.215Z" transform="translate(-439.134 639.988)" fill="#f8ffe5"/><path d="M753.464-639.2a6.943,6.943,0,0,0-1.108,11.713c3.4,2.612,8.9,1.266,10.487-2.572l.475-1.187h44.44L811.4-616.88l3.641,14.325-.95.791a7.338,7.338,0,0,0-1.662,9.1,6.976,6.976,0,0,0,12.03-.158,6.92,6.92,0,0,0-4.472-10.131l-1.9-.475L814.128-618.9,810.21-634.41H763.634l-.752-1.5a6.269,6.269,0,0,0-3.72-3.443A6.7,6.7,0,0,0,753.464-639.2Zm5.342,3.4a3.268,3.268,0,0,1,1.068,4.313,3.514,3.514,0,0,1-5.778,1.108C750.536-633.54,755.166-638.882,758.806-635.8Zm61.179,36.209a4.421,4.421,0,0,1,2.216,3.759c0,1.583-1.979,3.364-3.759,3.364a3.873,3.873,0,0,1-3.759-3.641A3.7,3.7,0,0,1,819.985-599.587Z" transform="translate(-626.767 639.946)" fill="#f8ffe5"/><path d="M1043.979-639.027a6.761,6.761,0,0,0-1.345,11.041,6.939,6.939,0,0,0,10.922-1.9l.673-1.345h42.1l-.4,1.464c-.237.831-2.058,7.638-4.076,15.077l-3.6,13.613-2.177.712c-5.936,2.018-6.806,9.022-1.543,12.584,1.187.791,1.741.91,3.839.791,3.72-.237,5.975-2.216,6.331-5.579.317-2.889-.158-4.511-1.86-6.213l-1.5-1.5,4.511-16.937c2.493-9.339,4.511-16.976,4.511-17.056s-10.408-.119-23.15-.119c-19.153,0-23.15-.079-23.15-.514a6.3,6.3,0,0,0-1.148-2.137A6.921,6.921,0,0,0,1043.979-639.027Zm5.1,2.691a4.222,4.222,0,0,1,1.978,4.115c-.316,1.267-2.334,2.968-3.522,2.968a3.816,3.816,0,0,1-3.245-5.975A3.867,3.867,0,0,1,1049.083-636.336Zm41.432,39.889c3.126,3.126-.871,8.191-4.551,5.778a3.728,3.728,0,0,1-.356-5.976A3.39,3.39,0,0,1,1090.515-596.447Z" transform="translate(-802.443 639.932)" fill="#f8ffe5"/><path d="M453.269-598.381a7.32,7.32,0,0,0-3.6,9.062,6.977,6.977,0,0,0,9.656,3.4c1.7-.831,1.741-.831,2.77-.079.594.435,4.749,3.324,9.26,6.411,7,4.788,8.271,5.778,8.548,6.885.2.712,4.353,17.253,9.22,36.763l8.864,35.536-1.148,1.068a6.937,6.937,0,0,0,3.838,12.228,6.885,6.885,0,0,0,7.4-8.508,7.282,7.282,0,0,0-5.936-5.342c-.95-.2-1.266-1.227-10.249-37.317-8.943-35.932-9.3-37.158-10.447-38.108-.633-.554-5.1-3.68-9.853-6.925l-8.666-5.975-.079-2.73c-.079-2.216-.277-3.047-1.029-4.115A7.6,7.6,0,0,0,453.269-598.381Zm5.382,3.759c3.126,3.126-.871,8.191-4.551,5.778a3.728,3.728,0,0,1-.356-5.975A3.39,3.39,0,0,1,458.651-594.622Zm45.033,97.546a5.732,5.732,0,0,1,1.108,1.7,2.727,2.727,0,0,1-.079,2.691,3.63,3.63,0,0,1-6.767,0,3.337,3.337,0,0,1,.752-4.076A3.954,3.954,0,0,1,503.684-497.077Z" transform="translate(-445.209 615.155)" fill="#f8ffe5"/><path d="M557.155-598.3a7.912,7.912,0,0,0-4.155,6.45c.04,2.928,2.77,6.252,5.58,6.688,1.148.2,1.622.475,1.781,1.108.119.475,1.5,6.292,3.087,12.9l2.889,12.069,8.745,3.561,8.706,3.562.238,1.82a7.04,7.04,0,0,0,9.853,5.738,6.965,6.965,0,0,0,3.878-7.716c-1.227-5.5-7.559-7.36-11.793-3.482l-.871.791-7.44-3.047c-4.076-1.662-7.717-3.166-8.033-3.363-.4-.2-1.583-4.472-3.482-12.347l-2.889-11.99.989-.752a6.843,6.843,0,0,0,2.73-5.54,6.443,6.443,0,0,0-6.371-6.886A7.829,7.829,0,0,0,557.155-598.3Zm4.67,3.047a3.616,3.616,0,0,1,.673,5.975,3.632,3.632,0,0,1-5.777-.91,3.255,3.255,0,0,1,0-3.482A3.923,3.923,0,0,1,561.825-595.248Zm31.855,42.065a3.341,3.341,0,0,1-.237,5.026c-2.058,1.82-4.669,1.345-5.817-1.108C585.845-552.985,590.712-556.151,593.68-553.183Z" transform="translate(-507.941 615.069)" fill="#f8ffe5"/><path d="M1113.19-597.47a6.671,6.671,0,0,0-5.184,6.609,6.334,6.334,0,0,0,2.414,5.461l1.266,1.029-2.493,10.645-2.493,10.605,4.63,6.885,4.67,6.925-.87,1.7a7.105,7.105,0,0,0,2.889,9.379,8.39,8.39,0,0,0,6.49,0,7.076,7.076,0,0,0,2.928-9.26c-1.385-2.77-3.324-3.8-7.36-3.839l-1.583-.04-4.195-6.252-4.234-6.252.712-2.849c.4-1.583,1.464-5.976,2.375-9.814l1.622-6.925,1.7-.475a6.982,6.982,0,0,0,4.155-10.605,7.377,7.377,0,0,0-2.81-2.3C1115.643-597.905,1115.327-597.984,1113.19-597.47Zm4.036,3.957a3.754,3.754,0,0,1-.633,6.173,3.681,3.681,0,0,1-5.422-3.4A3.7,3.7,0,0,1,1117.226-593.513Zm6.727,46.735a3.192,3.192,0,0,1,.079,4.63,3.268,3.268,0,0,1-4.313,1.069,3.746,3.746,0,0,1,.159-6.886C1121.3-548.559,1122.687-548.163,1123.954-546.778Z" transform="translate(-842.53 614.481)" fill="#f8ffe5"/><path d="M807.21-591.094c-2.374.87-3.324,1.662-4.274,3.6-2.691,5.54,2.889,11.832,8.587,9.656a8.76,8.76,0,0,0,4.116-4l.475-1.148,3.205.119,3.166.119,3.443,13.969c1.86,7.677,3.482,14.009,3.561,14.088s4.353,2.018,9.458,4.313l9.3,4.116.237,1.781a7.41,7.41,0,0,0,2.968,5.3,7.07,7.07,0,0,0,9.7-1.5,7.929,7.929,0,0,0,.277-7.637c-2.216-3.759-7.914-4.551-10.724-1.464-.712.791-.752.791-6.331-1.7-3.087-1.345-7.123-3.166-8.983-4.036l-3.4-1.583-.475-2.137c-.277-1.187-1.86-7.717-3.482-14.523l-3.047-12.346h-4.511c-3.918,0-4.511-.079-4.749-.712A6.989,6.989,0,0,0,807.21-591.094Zm4.59,4.036c2.928,2.968-.673,7.875-4.313,5.936-2.414-1.306-2.849-3.957-1.029-5.817A3.7,3.7,0,0,1,811.8-587.058Zm46.1,39.572a2.748,2.748,0,0,1,1.227,2.731,2.747,2.747,0,0,1-1.227,2.73,3.693,3.693,0,0,1-5.9-4.155A3.7,3.7,0,0,1,857.9-547.486Z" transform="translate(-658.551 610.638)" fill="#f8ffe5"/><path d="M1026.5-589.277a7.642,7.642,0,0,0-3.8,3.4,9.065,9.065,0,0,0,.039,6.213,7.6,7.6,0,0,0,7.36,3.839l1.5-.237,4,5.7c2.176,3.166,4.076,5.975,4.194,6.292.159.475-13.494,53.739-13.811,53.9a16.648,16.648,0,0,1-1.741.515,6.947,6.947,0,0,0-4.353,10.17,6.888,6.888,0,0,0,12.94-3.4,6.952,6.952,0,0,0-2.453-5.3c-.871-.712-1.148-1.266-1.029-1.9.119-.475,3.363-12.94,7.2-27.7l7-26.83-4.393-6.292c-2.414-3.482-4.472-6.569-4.551-6.846a4.06,4.06,0,0,1,.594-2.058,6.419,6.419,0,0,0,.04-5.936,5.959,5.959,0,0,0-3.878-3.6A5.794,5.794,0,0,0,1026.5-589.277Zm5.144,3.957a3.782,3.782,0,0,1-1.9,6.213,4.39,4.39,0,0,1-4-1.622,5.2,5.2,0,0,1,0-4.076,4.262,4.262,0,0,1,3.917-1.662A5.134,5.134,0,0,1,1031.648-585.32Zm-4.392,78.946a3.768,3.768,0,0,1,1.425,6.015,3.471,3.471,0,0,1-4.314.87,3.674,3.674,0,0,1-.079-6.688C1025.791-506.927,1025.672-506.927,1027.255-506.373Z" transform="translate(-789.519 609.691)" fill="#f8ffe5"/><path d="M466.009-551.232c-5.738,3.522-4.313,11.872,2.177,12.94l1.425.238,3.641,13.89c2.018,7.677,6.252,23.7,9.379,35.694,3.166,11.951,7.479,28.175,9.537,35.971l3.72,14.246-1.148,1.187c-4.313,4.432-2.176,11.041,3.8,11.951a7.232,7.232,0,0,0,7.083-3.878,8.219,8.219,0,0,0,0-6.134,7.792,7.792,0,0,0-4.115-3.522c-2.691-.554-2.256.673-8.31-22.358-3.087-11.832-8.983-34.151-13.059-49.584l-7.439-28.1,1.425-1.425c3.482-3.482,2.493-9.5-1.86-11.318A7.915,7.915,0,0,0,466.009-551.232Zm5.1,2.849a4.268,4.268,0,0,1,1.979,4.076,4.722,4.722,0,0,1-.989,1.781,3.714,3.714,0,0,1-6.094-4.076A3.659,3.659,0,0,1,471.114-548.383Zm30.906,113.77a3.822,3.822,0,0,1-2.256,6.371c-1.306.2-1.623.079-2.928-1.227s-1.424-1.622-1.227-2.928C496.124-435.484,499.962-436.829,502.02-434.613Z" transform="translate(-453.201 586.802)" fill="#f8ffe5"/><path d="M969.975-536.025a6.649,6.649,0,0,0-1.583,11.041l1.5,1.464-8.666,35.536c-4.788,19.509-8.746,35.575-8.785,35.654-.079.079-1.979-7.083-4.234-15.908l-4.036-16.027,1.425-1.583c2.3-2.533,2.81-4.947,1.662-7.638a9.008,9.008,0,0,0-4.432-4.076,9.271,9.271,0,0,0-6.055.989c-2.493,1.781-3.6,6.094-2.256,8.706a8.259,8.259,0,0,0,4.947,3.839l1.543.237,3.087,12.149c1.7,6.648,3.918,15.315,4.907,19.232l1.86,7.123,1.583.119,1.622.119,1.622-6.648c2.731-11.357,16.66-68.3,17.056-69.805.356-1.227.594-1.464,1.82-1.662a7.408,7.408,0,0,0,4.749-3.561,7.985,7.985,0,0,0,.673-3.324A6.759,6.759,0,0,0,969.975-536.025Zm5.975,3.561c1.583,2.058,1.187,4.63-.871,5.659a3.424,3.424,0,0,1-4.353-.515,3.362,3.362,0,0,1,.039-5.342,2.864,2.864,0,0,1,2.889-.95A3.356,3.356,0,0,1,975.95-532.463ZM943.263-493.6c1.979,1.979,1.583,4.947-.831,6.055a3.682,3.682,0,0,1-5.3-3.245C937.13-493.959,941.087-495.78,943.263-493.6Z" transform="translate(-738.135 577.65)" fill="#f8ffe5"/><path d="M831.63-474.278a7.078,7.078,0,0,0-2.691,9.774c1.029,1.781,3.522,3.4,5.224,3.4.712,0,1.029.871,2.691,7.4,4.867,19.39,28.848,113.849,29.6,116.54l.791,3.087H910.5l.91,1.662a6.227,6.227,0,0,0,5.777,3.641,7,7,0,0,0,7.2-6.134,7.434,7.434,0,0,0-3.8-6.965,6.945,6.945,0,0,0-9.379,3.087l-.712,1.5-20.419.04H869.659l-3.087-12.149c-1.7-6.727-5.619-22.24-8.746-34.546-14.721-57.854-19.548-77.086-19.548-77.522,0-.277.475-.871,1.029-1.345a8.406,8.406,0,0,0,2.532-5.3A7.465,7.465,0,0,0,837.8-474.4,8.539,8.539,0,0,0,831.63-474.278Zm5.1,2.889a5.182,5.182,0,0,1,1.939,3.6,4.763,4.763,0,0,1-1.385,2.216c-1.266,1.266-1.583,1.385-2.889,1.187-4.472-.712-4.274-7.4.2-7.4A6.234,6.234,0,0,1,836.735-471.389Zm83.022,132.725a5.722,5.722,0,0,1,1.108,1.7,3.6,3.6,0,0,1-2.058,4.709,2.571,2.571,0,0,1-2.889-.119,3.661,3.661,0,0,1-1.979-4.749A4.059,4.059,0,0,1,919.757-338.664Z" transform="translate(-674.107 540.24)" fill="#f8ffe5"/><path d="M960.922-462.218a8.718,8.718,0,0,0-2.611,1.148,8.334,8.334,0,0,0-2.77,5.58,8.238,8.238,0,0,0,2.691,5.54l1.187.95-4.55,19.193c-2.493,10.566-4.67,19.311-4.828,19.509-.158.158-4.195,1.425-8.943,2.849s-8.666,2.612-8.706,2.651c-.039.079-6.965,26.632-11.792,45.112l-.356,1.5H909.795l-4.67-17.728c-2.612-9.735-7.875-29.64-11.753-44.2-6.806-25.682-7-26.513-6.292-27.146,3.641-3.126,3.759-8.548.2-11.278a6.1,6.1,0,0,0-3.918-1.266c-2.1-.119-2.612,0-4.116.989a7.335,7.335,0,0,0-3.245,5.7,7.493,7.493,0,0,0,5.7,6.925l1.583.356,5.659,21.369c3.126,11.753,8.508,32.133,11.99,45.271s6.45,24.06,6.569,24.218c.2.356,15.2.514,15.2.158,0-.594,12.347-47.13,12.584-47.368.237-.2,9.853-3.166,15.512-4.749a5.6,5.6,0,0,0,1.781-.752c.237-.2,2.532-9.379,5.144-20.38l4.749-20.023,1.939-.752c3.641-1.385,5.184-3.561,4.907-7.123A6.71,6.71,0,0,0,960.922-462.218Zm4.274,4.353a3.684,3.684,0,0,1-4.155,5.9,3.658,3.658,0,0,1-1.187-5.975A3.456,3.456,0,0,1,965.2-457.865Zm-79.659,2.3c3.126,3.126-.871,8.191-4.551,5.778a3.728,3.728,0,0,1-.356-5.975A3.39,3.39,0,0,1,885.537-455.57Z" transform="translate(-703.123 532.691)" fill="#f8ffe5"/><path d="M1079.22-432.346c-2.651,1.385-3.76,3.245-3.76,6.371a7.252,7.252,0,0,0,2.572,5.461l.91.792-8.587,32.251c-4.749,17.728-9.735,36.565-11.159,41.828l-2.533,9.576-1.464.238a8.423,8.423,0,0,0-4.472,2.849,7.205,7.205,0,0,0,3.4,10.566c4.67,1.9,10.012-2.493,9.26-7.558a6.257,6.257,0,0,0-1.939-3.641l-1.7-1.82,10.012-37.594c5.5-20.7,10.526-39.453,11.159-41.749l1.108-4.115,1.9-.475a7.018,7.018,0,0,0,1.385-13.059A8.314,8.314,0,0,0,1079.22-432.346Zm4.986,2.928a5.183,5.183,0,0,1,1.939,3.6,4.762,4.762,0,0,1-1.385,2.216c-1.266,1.266-1.583,1.385-2.889,1.187a3.651,3.651,0,0,1-2.018-6.371A3.966,3.966,0,0,1,1084.206-429.417Zm-25.287,97.664a4.547,4.547,0,0,1,1.108,1.9,3.526,3.526,0,0,1-2.216,4.353,3.485,3.485,0,0,1-4.749-2.1,2.514,2.514,0,0,1,0-2.77A3.826,3.826,0,0,1,1058.919-331.753Z" transform="translate(-808.006 514.888)" fill="#f8ffe5"/><path d="M809.745-393.36a5.955,5.955,0,0,0-3.878,3.68,6.79,6.79,0,0,0,4.907,9.576,2.687,2.687,0,0,1,1.5.831c.2.317,6.608,25.445,14.246,55.8,7.6,30.352,14.048,55.876,14.246,56.667l.4,1.5h25.326c23.743,0,25.326.04,25.564.673a8.63,8.63,0,0,0,3.4,3.918,7.986,7.986,0,0,0,3.324.673,6.759,6.759,0,0,0,5.976-10.012,7.241,7.241,0,0,0-4.947-3.8,7.371,7.371,0,0,0-7.479,4.076l-.554,1.306H843.7l-7.281-28.809c-4-15.829-10.368-41.036-14.127-55.995L815.4-380.539l1.187-.989c4.036-3.364,3.087-9.418-1.781-11.634A5.691,5.691,0,0,0,809.745-393.36Zm4.947,3.72a3.785,3.785,0,0,1,.91,4.393,3.319,3.319,0,0,1-3.363,2.018,3.237,3.237,0,0,1-3.4-2.216C807.371-388.928,811.843-392.134,814.692-389.641Zm86.7,120.418a3.185,3.185,0,0,1,.237,4.472,3.517,3.517,0,0,1-4.155,1.425,3.786,3.786,0,0,1-.158-7.083C898.743-271,900.128-270.608,901.395-269.223Z" transform="translate(-660.334 491.257)" fill="#f8ffe5"/><path d="M694.941-337.524c-3.759.91-6.332,4.788-5.382,8.152l.356,1.385-8.35,6.015c-4.63,3.285-11.515,8.231-15.315,11l-6.925,4.986-3.364,13.613-3.4,13.652H640.806l-2.928-14.8-2.928-14.8,1.227-.989a7.076,7.076,0,0,0-1.346-11.99,5.758,5.758,0,0,0-5.263-.158,6.34,6.34,0,0,0-3.759,3.522c-.989,1.979-.831,5.3.356,6.886,1.068,1.464,3.206,2.849,4.353,2.849a1.319,1.319,0,0,1,1.266.871c.158.514,1.7,7.914,3.4,16.422l3.087,15.552h16.818l2.849-11.792c1.583-6.45,3.166-12.9,3.522-14.325l.633-2.572,14.8-10.645,14.8-10.645,1.068.633a7.052,7.052,0,0,0,10.526-5.1,5.656,5.656,0,0,0-.792-3.878,5.307,5.307,0,0,0-3.087-3.166C697.276-337.92,696.88-338,694.941-337.524Zm3.957,4.195a3.76,3.76,0,0,1-2.216,6.371c-2.77.475-5.065-2.81-3.759-5.342.791-1.5,1.622-1.979,3.522-2.018A3.034,3.034,0,0,1,698.9-333.329ZM634.87-317.421a3.7,3.7,0,0,1-2.849,6.055,3.874,3.874,0,0,1-3.364-5.54A3.909,3.909,0,0,1,634.87-317.421Z" transform="translate(-551.545 457.383)" fill="#f8ffe5"/><path d="M652.179-283.311a7.2,7.2,0,0,0-4.155,6.45c0,1.82,1.385,4.709,2.612,5.54.514.317.95.831.95,1.108,0,.435-3.522,15.156-14.681,61.614l-1.622,6.648H579.367l-3.443-12.94-3.4-12.98.95-.752c2.335-1.741,3.324-6.292,1.979-8.864a6.762,6.762,0,0,0-5.738-3.562,6.025,6.025,0,0,0-5.659,2.176,6.9,6.9,0,0,0,3.324,11.278l2.1.594,2.651,10.051c1.464,5.54,3.126,11.872,3.72,14.127l1.068,4.036,30.51-.079,30.51-.119,8.389-34.942c4.59-19.232,8.468-35.219,8.587-35.536a1.136,1.136,0,0,1,1.029-.554c1.583,0,3.918-1.543,4.946-3.284a7.126,7.126,0,0,0-1.978-9.339A7.96,7.96,0,0,0,652.179-283.311Zm4.313,3.007a4.421,4.421,0,0,1,2.216,3.759c0,1.583-1.979,3.364-3.759,3.364a3.874,3.874,0,0,1-3.364-5.54,5.011,5.011,0,0,1,3.245-1.979A5.229,5.229,0,0,1,656.493-280.3Zm-85.2,42.738a5.183,5.183,0,0,1,1.939,3.6,4.762,4.762,0,0,1-1.385,2.216c-1.266,1.266-1.583,1.385-2.889,1.187a3.651,3.651,0,0,1-2.018-6.371A3.966,3.966,0,0,1,571.294-237.565Z" transform="translate(-513.532 424.737)" fill="#f8ffe5"/><path d="M1015.87-283.518a7.2,7.2,0,0,0-4.155,6.371,6.641,6.641,0,0,0,2.216,4.986l1.385,1.425-3.6,13.613c-1.979,7.479-3.839,13.731-4.076,13.89a3.016,3.016,0,0,1-1.306.317c-1.068,0-3.205,1.464-4.234,2.849a6.717,6.717,0,0,0-.99,3.443,5.423,5.423,0,0,0,.87,4.155,6.9,6.9,0,0,0,11.595.277,6.5,6.5,0,0,0-.752-8.587l-1.623-1.781,3.285-12.544c1.82-6.886,3.443-13.138,3.641-13.85.277-.91.594-1.266,1.187-1.266a7.432,7.432,0,0,0,5.263-3.324C1027.94-279.323,1021.925-286.208,1015.87-283.518Zm4.313,3.008a4.421,4.421,0,0,1,2.216,3.759c0,1.583-1.979,3.364-3.76,3.364a3.874,3.874,0,0,1-3.364-5.54,5.011,5.011,0,0,1,3.245-1.979A5.233,5.233,0,0,1,1020.184-280.51Zm-9.616,41.907a3.318,3.318,0,0,1,.554,4.353c-1.7,3.324-6.925,1.939-6.925-1.781A3.676,3.676,0,0,1,1010.568-238.6Z" transform="translate(-778.688 424.944)" fill="#f8ffe5"/><path d="M650.518-241.346a6.421,6.421,0,0,0-3.878,6.055c0,2.018,1.227,4.907,2.493,5.659.435.277.792.673.792.91,0,.2-1.979,7.558-4.393,16.343l-4.472,15.908-16.225-.079-16.264-.119-1.187-5.738c-.673-3.166-2.1-10.051-3.205-15.354l-1.939-9.616,1.306-.989c5.54-4.353,1.781-13.138-5.3-12.307a6.877,6.877,0,0,0-5.738,8.627,7.249,7.249,0,0,0,4.749,4.828l1.82.554,3.443,16.581c1.9,9.1,3.443,16.62,3.482,16.66,0,.079,8.429.119,18.757.119h18.718l2.612-9.22c1.425-5.026,3.6-12.861,4.867-17.333l2.256-8.191,1.543-.2c2.929-.4,5.817-3.72,5.857-6.727a8.163,8.163,0,0,0-4.036-6.45A8.211,8.211,0,0,0,650.518-241.346Zm5.184,3.126a4.352,4.352,0,0,1,1.583,4,4.1,4.1,0,0,1-3.68,2.928,3.85,3.85,0,0,1-3.68-3.759C649.925-237.942,653.407-239.842,655.7-238.219Zm-54.728,1.029a3.785,3.785,0,0,1,1.978,3.6,3.005,3.005,0,0,1-1.227,2.374,3.543,3.543,0,0,1-5.817-1.068c-.712-1.583-.712-2.1-.039-3.324A3.923,3.923,0,0,1,600.974-237.19Z" transform="translate(-531.657 399.471)" fill="#f8ffe5"/><g transform="translate(42.968 39.119)"><path d="M679.764-540.09a6.913,6.913,0,0,0-.712,11.2l1.266,1.068-8.627,36.011c-4.709,19.786-8.627,36.09-8.666,36.209s-2.018-7.875-4.432-17.768L654.24-491.3l1.187-1.068a6.569,6.569,0,0,0,2.374-5.975,6.142,6.142,0,0,0-3.6-5.58,7.12,7.12,0,0,0-9.458,3.245,6.9,6.9,0,0,0,5.026,9.735,3.548,3.548,0,0,1,1.385.4c0,.237,9.379,39.256,9.933,41.353.356,1.425.475,1.5,1.939,1.5.87,0,1.583-.119,1.583-.277,0-.435,18.678-78.669,18.876-78.986.079-.158.435-.277.791-.277,1.543,0,4.115-1.7,5.065-3.324A6.962,6.962,0,0,0,679.764-540.09Zm6.252,3.284a2.911,2.911,0,0,1,1.227,2.651,2.911,2.911,0,0,1-1.227,2.651,3.591,3.591,0,0,1-5.975-1.464A3.631,3.631,0,0,1,686.017-536.806ZM653.568-500.36c3.126,3.126-.871,8.191-4.551,5.778a3.728,3.728,0,0,1-.356-5.975A3.39,3.39,0,0,1,653.568-500.36Z" transform="translate(-605.929 541.132)" fill="#f8ffe5"/><path d="M14.82.6a7.2,7.2,0,0,0-4.155,6.371,6.641,6.641,0,0,0,2.216,4.986l1.385,1.425L10.664,27c-1.978,7.479-3.838,13.732-4.076,13.89a3.017,3.017,0,0,1-1.306.317c-1.068,0-3.205,1.464-4.234,2.849a6.719,6.719,0,0,0-.99,3.443A5.423,5.423,0,0,0,.93,51.649a6.9,6.9,0,0,0,11.595.277,6.5,6.5,0,0,0-.752-8.587L10.15,41.558l3.285-12.544c1.82-6.886,3.443-13.138,3.64-13.85.277-.91.594-1.266,1.187-1.266a7.432,7.432,0,0,0,5.263-3.324C26.889,4.8,20.874-2.09,14.82.6Zm4.313,3.007a4.421,4.421,0,0,1,2.216,3.759c0,1.583-1.979,3.364-3.76,3.364a3.874,3.874,0,0,1-3.364-5.54,5.011,5.011,0,0,1,3.245-1.979A5.23,5.23,0,0,1,19.133,3.608ZM9.517,45.515a3.319,3.319,0,0,1,.554,4.353c-1.7,3.324-6.925,1.939-6.925-1.781A3.676,3.676,0,0,1,9.517,45.515Z" transform="matrix(0.788, -0.616, 0.616, 0.788, 0, 41.281)" fill="#f8ffe5"/></g></g></g></g></g></svg>